<svg version="1.1" id="Layer_1" xmlns="http://www.w3.org/2000/svg"  x="0px" y="0px"
	 viewBox="0 0 467.4 272.3" style="enable-background:new 0 0 467.4 272.3;" xml:space="preserve">
<polygon points="467.4,271.9 421.4,251.3 46.5,251.3 46.3,251.4 46,251.4 0,272 458.9,272 458.8,271.9 "/>
<path d="M318.6,84.1c0-46.4-37.6-84.1-84.1-84.1s-84.1,37.6-84.1,84.1c0,2.5,0.1,5,0.3,7.5c0,0,0,0,0,0.1
	c0,0.3,0.1,0.6,0.1,1c0.3,2.9,0.7,5.8,1.3,8.6c12.6,65.3,82.3,135.2,82.3,135.2v0.1c0,0,70.1-70.3,82.4-135.7
	c0.5-2.4,0.9-4.8,1.1-7.3c0.1-0.6,0.1-1.1,0.2-1.7c0,0,0,0,0-0.1C318.4,89.1,318.6,86.6,318.6,84.1z M234.5,129.8
	c-25.3,0-45.8-20.5-45.8-45.8s20.5-45.8,45.8-45.8s45.8,20.5,45.8,45.8S259.8,129.8,234.5,129.8z"/>
<path d="M318.6,84.1c0-46.4-37.6-84.1-84.1-84.1s-84.1,37.6-84.1,84.1c0,2.5,0.1,5,0.3,7.5c0,0,0,0,0,0.1
	c0,0.3,0.1,0.6,0.1,1c0.3,2.9,0.7,5.8,1.3,8.6c12.6,65.3,82.3,135.2,82.3,135.2v0.1c0,0,70.1-70.3,82.4-135.7
	c0.5-2.4,0.9-4.8,1.1-7.3c0.1-0.6,0.1-1.1,0.2-1.7c0,0,0,0,0-0.1C318.4,89.1,318.6,86.6,318.6,84.1z M234.5,129.8
	c-25.3,0-45.8-20.5-45.8-45.8s20.5-45.8,45.8-45.8s45.8,20.5,45.8,45.8S259.8,129.8,234.5,129.8z"/>
<path d="M467.6,101.2c0-41.1-33.3-74.4-74.4-74.4c-26.6,0-49.8,13.9-63,34.8c1.7,7.2,2.6,14.7,2.6,22.4
	c0,1.7,0,3.4-0.1,5.1l0,0c0,0-0.1,2.3-0.3,4c0,0.5-0.1,1-0.2,1.5l0,0.4c-0.3,2.8-0.7,5.6-1.3,8.4c-1.6,8.6-4.1,17.2-7.3,25.7
	c16.7,53.8,69.6,106.9,69.6,106.9v0c0,0,62-62.2,73-120.1c0.4-2.1,0.8-4.3,1-6.5c0.1-0.5,0.1-1,0.2-1.5c0,0,0,0,0-0.1
	C467.5,105.7,467.6,103.5,467.6,101.2z M393.2,141.7c-22.4,0-40.5-18.1-40.5-40.5c0-22.4,18.1-40.5,40.5-40.5
	c22.4,0,40.5,18.1,40.5,40.5C433.7,123.6,415.5,141.7,393.2,141.7z"/>
<path d="M0.8,107.9C0.8,107.9,0.8,107.9,0.8,107.9c0,0.6,0.1,1,0.2,1.5c0.2,2.2,0.6,4.3,1,6.5
	c10.9,57.9,73,120.1,73,120.1v0c0,0,53-53.1,69.6-106.9c-3.2-8.5-5.7-17.1-7.3-25.7c-0.5-2.7-1-5.6-1.3-8.4l0-0.4
	c-0.1-0.5-0.1-1-0.2-1.5c-0.2-1.7-0.3-4-0.3-4l0,0c-0.1-1.7-0.1-3.4-0.1-5.1c0-7.7,0.9-15.2,2.6-22.4c-13.2-20.9-36.5-34.8-63-34.8
	c-41.1,0-74.4,33.3-74.4,74.4C0.5,103.5,0.6,105.7,0.8,107.9z M34.4,101.2c0-22.4,18.1-40.5,40.5-40.5c22.4,0,40.5,18.1,40.5,40.5
	c0,22.4-18.1,40.5-40.5,40.5C52.6,141.7,34.4,123.6,34.4,101.2z"/>
<path d="M318.6,84.1c0-46.4-37.6-84.1-84.1-84.1s-84.1,37.6-84.1,84.1c0,2.5,0.1,5,0.3,7.5c0,0,0,0,0,0.1
	c0,0.3,0.1,0.6,0.1,1c0.3,2.9,0.7,5.8,1.3,8.6c12.6,65.3,82.3,135.2,82.3,135.2v0.1c0,0,70.1-70.3,82.4-135.7
	c0.5-2.4,0.9-4.8,1.1-7.3c0.1-0.6,0.1-1.1,0.2-1.7c0,0,0,0,0-0.1C318.4,89.1,318.6,86.6,318.6,84.1z M234.5,129.8
	c-25.3,0-45.8-20.5-45.8-45.8s20.5-45.8,45.8-45.8s45.8,20.5,45.8,45.8S259.8,129.8,234.5,129.8z"/>
</svg>
