<svg version="1.1" id="Layer_1" xmlns="http://www.w3.org/2000/svg"  x="0px" y="0px"
	 viewBox="0 0 475.9 316.3" style="enable-background:new 0 0 475.9 316.3;" xml:space="preserve">
<rect y="295.9" width="475.9" height="20.4"/>
<polygon points="23.1,109.3 38.1,67 438.6,67 453.6,109.3 "/>
<rect x="142.2" width="193.4" height="43.9"/>
<path d="M437.8,255.9v-133H39v133H20v25.4h230.3v-25.4v-86.6h120.8h0.6v112h83.7v-25.4H437.8z M224.3,255.9H90.7v-86.6
	h133.6V255.9z"/>
<rect x="309.8" y="21.4" width="12.1" height="71.6"/>
<rect x="154.8" y="24.7" width="12.1" height="71.6"/>
<rect x="304.4" y="154.8" width="12.1" height="121.8"/>
<rect x="305.1" y="206.1" transform="matrix(6.123234e-17 -1 1 6.123234e-17 34.7101 586.4601)" width="10.9" height="139.5"/>
</svg>