<?xml version="1.0" encoding="utf-8"?>
<!-- Generator: Adobe Illustrator 22.0.0, SVG Export Plug-In . SVG Version: 6.00 Build 0)  -->
<svg version="1.1" id="Logo" xmlns="http://www.w3.org/2000/svg" xmlns:xlink="http://www.w3.org/1999/xlink" x="0px" y="0px"
	 viewBox="0 0 117.3 23.8" style="enable-background:new 0 0 117.3 23.8;" xml:space="preserve">
<style type="text/css">
	.st0{fill-rule:evenodd;clip-rule:evenodd;fill:#2B8F9E;}
	.st1{fill-rule:evenodd;clip-rule:evenodd;fill:#86D2DA;}
	.st2{fill:#2B8F9E;}
</style>
<g>
	<g>
		<path class="st0" d="M22.3,23.8c-4.5,0-6.4-5.9-6.4-7.9c5,4.6,9.2,2.7,11.2-0.5C27.6,18.9,26.6,23.8,22.3,23.8z"/>
		<path class="st0" d="M13.9,12.3c-1.2-0.3-4.5-2.4-4.5-6.1c0-3.7,5.1-5.5,8.8-3.1C13.7,3.7,12.2,7,13.9,12.3z"/>
		<path class="st1" d="M0,11.2c0-4.3,3.9-6.4,6.7-6.4c-1.5,3.7,0.7,12.5,15,15.8C9.7,25.2,0,16.9,0,11.2z"/>
		<path class="st1" d="M11.9,1.1c1.8-2.4,9.4-0.4,10.4,2.6C19.6,2.1,16.6,0.8,11.9,1.1z"/>
		<path class="st1" d="M28.5,10.6c2.5,0.7,4.5,3.6,4.5,6.3c0,1.7-1.3,3.9-3.8,3.9C31.1,18,29.7,12.5,28.5,10.6z"/>
		<ellipse transform="matrix(0.7076 -0.7066 0.7066 0.7076 -0.9813 17.5741)" class="st1" cx="20.7" cy="10" rx="2.3" ry="5.4"/>
		<path class="st0" d="M27.4,12.6c-0.3-5.2-2.7-8.1-6.5-9.3c2.9-1.8,8.1,1.4,8.1,6C29,10.1,28.7,12.4,27.4,12.6z"/>
	</g>
	<g>
		<path class="st2" d="M39.1,3.5H44l-1.1,5.1l0,0l5.3-5.2h6.3l-7.5,6.4l4.5,9.2h-5.4L43.3,13l-1.6,1.5l-0.9,4.6h-4.8L39.1,3.5z"/>
		<path class="st2" d="M53.1,11.2c0.7-3,3-3.7,5.8-3.7c2.1,0,5.5,0.3,5.5,3c0,1.8-1.4,6.9-1.4,7.6c0,0.4,0.1,0.7,0.2,1H59
			c-0.1-0.3-0.2-0.7-0.2-1.1h0c-0.7,0.9-2.3,1.4-3.5,1.4c-1.9,0-3.7-0.8-3.7-3c0-3,2.3-3.8,5.5-4c1.2-0.1,3.2,0.1,3.2-1.3
			c0-0.8-0.7-1-1.4-1c-0.9,0-1.5,0.3-1.7,1.2H53.1z M57.3,16.8c1.5,0,2.1-1.1,2.3-2.8c-0.7,0.3-1.5,0.4-2.3,0.5
			C56.6,14.6,56,15,56,15.8C56,16.6,56.6,16.8,57.3,16.8z"/>
		<path class="st2" d="M65.3,11L66,7.7h11.5L76.8,11h-3.6l-1.7,8.1h-4.3l1.7-8.1H65.3z"/>
		<path class="st2" d="M78.9,7.7h4.2L82.8,9h0c0.8-1,1.7-1.6,3-1.6c3.2,0,4.1,2.6,4.1,4.7c0,3.4-1.7,7.3-5.5,7.3
			c-1.2,0-2.5-0.2-3.4-1.7l-1,5.1h-4.3L78.9,7.7z M85.7,12.6c0-1.1-0.3-2-1.6-2c-1.9,0-2.3,2.8-2.3,3.8c0,0.4,0.2,1.9,1.6,1.9
			C85.2,16.2,85.7,14.1,85.7,12.6z"/>
		<path class="st2" d="M102.5,15.8c-0.3,0.8-1.1,3.6-6,3.6c-4,0-5.6-2.3-5.6-5c0-5.2,4-6.9,6.8-6.9c2.5,0,5.6,1.4,5.6,5
			c0,0.6,0,1.3-0.2,2h-8.1c0,1.2,0.4,2.2,1.8,2.2c0.9,0,1.5-0.4,1.7-0.8H102.5z M99.1,12.1c0-0.2,0-0.3,0-0.4c0-0.9-0.5-1.5-1.6-1.5
			c-1.2,0-1.9,0.7-2.3,1.9H99.1z"/>
		<path class="st2" d="M113,7.7h4.3l-2.4,11.4h-4.3l0.9-4.4h-3.2l-0.9,4.4h-4.3l2.4-11.4h4.3l-0.8,3.8h3.1L113,7.7z"/>
	</g>
</g>
<g>
</g>
<g>
</g>
<g>
</g>
<g>
</g>
<g>
</g>
<g>
</g>
</svg>
