<?xml version="1.0" encoding="utf-8"?>
<!-- Generator: Adobe Illustrator 22.0.0, SVG Export Plug-In . SVG Version: 6.00 Build 0)  -->
<svg version="1.1" id="Layer_1" xmlns="http://www.w3.org/2000/svg" xmlns:xlink="http://www.w3.org/1999/xlink" x="0px" y="0px"
	 viewBox="0 0 167.8 76.7" style="enable-background:new 0 0 167.8 76.7;" xml:space="preserve">
<style type="text/css">
	.st0{fill:#C4161C;}
	.st1{fill:#FFFFFF;}
</style>
<path class="st0" d="M0,0v70.5c0,0,12.1-7.9,41.9-7.5c35.8,0.5,47,13.3,82.8,13.8c24.2,0.3,43.1-6.3,43.1-6.3V0H0L0,0z"/>
<polygon class="st1" points="42.9,52.4 42.9,52.4 25.5,34 25.5,52.3 12.7,52.3 12.6,13.1 25.4,13.1 25.4,30.2 35.8,13 50,13.1 
	39,31.1 60.4,52.3 42.9,52.4 "/>
<path class="st1" d="M81.7,52.3L81.7,52.3l-16.5,0.1L53.3,40.3l0-27.2l28.4,0c11.7,0,21.2,8.8,21.2,19.6
	C102.9,43.5,93.4,52.3,81.7,52.3L81.7,52.3z M75.9,23.3l-10.1,0l0,18.6h10h0.9c9.2,0,13.4-1.7,13.2-9.6C89.5,25.2,84,23.2,75.9,23.3
	L75.9,23.3z"/>
<polygon class="st1" points="133,52.2 133,52.2 120.3,52.2 98.7,13 112.2,13 126.6,40.8 141.2,12.9 154.5,12.9 133,52.2 "/>
</svg>
