<?xml version="1.0" encoding="utf-8"?>
<!-- Generator: Adobe Illustrator 22.0.0, SVG Export Plug-In . SVG Version: 6.00 Build 0)  -->
<svg version="1.1" id="Layer_1" xmlns="http://www.w3.org/2000/svg" xmlns:xlink="http://www.w3.org/1999/xlink" x="0px" y="0px"
	 viewBox="0 0 240.6 55.6" style="enable-background:new 0 0 240.6 55.6;" xml:space="preserve">
<style type="text/css">
	.st0{fill-rule:evenodd;clip-rule:evenodd;fill:#E30613;}
</style>
<path class="st0" d="M15.3,0C6.9,0,0,6.5,0,14.5l0,26.4c0,8,6.9,14.5,15.3,14.5l210,0.1c8.4,0,15.3-6.5,15.3-14.5l0-26.4
	c0-8-6.9-14.5-15.3-14.5L15.3,0z M2.6,40.9l0-26.4c0-6.6,5.7-11.9,12.7-11.9l210,0.1c7,0,12.7,5.3,12.7,11.9l0,26.4
	c0,6.6-5.7,11.9-12.7,11.9l-210-0.1C8.3,52.9,2.6,47.5,2.6,40.9z"/>
<path class="st0" d="M23.2,44.7l-10.4,0c-0.7,0-1.2-0.2-1.6-0.5c-0.4-0.3-0.6-0.7-0.6-1.2c0-0.4,0.1-0.8,0.2-1.1L22,14.3
	c0.1-0.3,0.2-0.6,0.2-0.9c0-0.4-0.2-0.8-0.4-1.1c-0.3-0.3-0.6-0.5-1-0.5l0.2-1.1h13.3c0.5,0,1,0.2,1.4,0.4c0.4,0.3,0.6,0.7,0.6,1.3
	l0.3,11.9L41,14c0.1-0.3,0.2-0.6,0.2-0.9c0-0.8-0.4-1.2-1.2-1.2l0.3-1.1l13.5,0c0.6,0,1,0.3,1.4,0.7c0.4,0.5,0.6,1.1,0.6,1.7
	l1.6,28.9c0,0.5,0.2,0.8,0.7,1.1c0.5,0.3,0.9,0.4,1.4,0.4l-0.2,1.1l-13.5,0c-0.4,0-0.8-0.2-1.2-0.6c-0.4-0.4-0.6-0.8-0.6-1.3
	l0.1-13.1l-5.7,15l-11.7,0l-0.3-14.9l-4.6,11.6c0,0.1,0,0.4,0,0.7c0,0.5,0.2,0.8,0.5,1.1c0.3,0.2,0.7,0.4,1.2,0.4L23.2,44.7
	L23.2,44.7z M95.2,44.7H82.5c-0.9,0-1.5-0.1-1.9-0.4c-0.4-0.3-0.6-0.8-0.7-1.5l-0.4-5h-5.7l-2,4c0,0.1,0,0.2,0,0.2
	c0,0.1,0,0.2,0,0.4c0,0.3,0.1,0.6,0.4,0.8c0.3,0.2,0.6,0.3,1,0.3l-0.2,1.1l-10.7,0c-1.4,0-2.1-0.5-2.1-1.6c0-0.3,0.1-0.6,0.3-0.9
	l14.4-28.1c0.1-0.2,0.2-0.4,0.2-0.7c0-0.4-0.2-0.7-0.5-1c-0.3-0.3-0.6-0.5-1-0.5l0.3-1.1h14.7c0.8,0,1.4,0.2,1.9,0.6
	c0.5,0.4,0.8,1,0.8,1.8l2.3,28.8c0,0.4,0.2,0.8,0.7,1.2c0.5,0.4,1,0.5,1.4,0.5L95.2,44.7L95.2,44.7z M79,25.7l-2.4,5.5h2.8L79,25.7
	L79,25.7z M115.7,18.6L110.6,41c-0.1,0.4-0.1,0.7-0.1,1.1c0,0.4,0.2,0.7,0.6,1.1c0.4,0.3,0.8,0.5,1.1,0.5l-0.2,1.1l-14,0
	c-0.6,0-1-0.2-1.3-0.5c-0.3-0.3-0.4-0.7-0.4-1.3c0-0.2,0-0.5,0.1-0.8l6.7-28.8c0.1-0.4-0.1-0.7-0.4-1c-0.3-0.3-0.7-0.5-1.1-0.5
	l0.3-1.1l25,0l-1.3,5.5c-0.2,0.7-0.5,1.3-1.1,1.7c-0.6,0.4-1.2,0.6-2,0.6L115.7,18.6L115.7,18.6z M142.4,29.8h-3.5l-2.8,12.1l0,0.4
	c0,0.4,0.2,0.7,0.5,0.9c0.3,0.3,0.7,0.4,1,0.4l-0.2,1.1l-13.7,0c-1.1,0-1.6-0.5-1.6-1.6c0-0.2,0-0.4,0.1-0.8l6.7-28.9
	c0.1-0.3-0.1-0.7-0.4-1c-0.4-0.3-0.7-0.5-1.1-0.5l0.4-1.1h13.7c1,0,1.6,0.5,1.6,1.6c0,0.1,0,0.4,0,0.8l-2.5,10.1h3.5l2.3-9.8
	c0.1-0.3-0.1-0.7-0.4-1c-0.3-0.3-0.7-0.5-1-0.5l0.2-1.1l13.7,0c0.6,0,1,0.1,1.2,0.4c0.2,0.3,0.4,0.7,0.4,1.2l-0.1,0.7l-6.7,29
	c-0.1,0.3,0.1,0.7,0.4,1c0.4,0.3,0.7,0.5,1.1,0.5l-0.3,1.1l-13.7,0c-1,0-1.6-0.5-1.6-1.6c0-0.1,0-0.4,0-0.8L142.4,29.8L142.4,29.8z
	 M182.7,29.9l-6.8,10.4c-0.4,0.5-0.6,0.9-0.7,1c-0.2,0.3-0.3,0.6-0.3,1c0,0.4,0.2,0.7,0.5,0.9c0.3,0.3,0.7,0.4,1,0.4l-0.2,1.1
	l-13.7,0c-1.1,0-1.6-0.5-1.6-1.6c0-0.2,0-0.4,0.1-0.8l6.7-28.9c0.1-0.3-0.1-0.7-0.4-1c-0.4-0.3-0.7-0.5-1.1-0.5l0.4-1.1h13.7
	c1,0,1.6,0.5,1.6,1.6c0,0.1,0,0.4,0,0.8l-3,12.7l6.4-9.7c0.3-0.4,0.6-0.8,0.8-1.2c0.3-0.4,0.5-0.9,0.6-1.4c0.1-0.3-0.1-0.7-0.4-1
	c-0.3-0.3-0.7-0.5-1-0.5l0.3-1.1l13.7,0c0.6,0,1,0.1,1.2,0.4c0.3,0.3,0.4,0.7,0.4,1.2l-0.1,0.7l-6.7,29c-0.1,0.3,0.1,0.7,0.4,1
	c0.4,0.3,0.7,0.5,1.1,0.5l-0.3,1.1l-13.7,0c-1.1,0-1.6-0.5-1.6-1.6c0-0.1,0-0.4,0-0.8L182.7,29.9L182.7,29.9z M206.4,10.8l20.1,0
	c0.5,0,1-0.1,1.5-0.3c0.5-0.2,0.8-0.5,0.9-0.9h1.1l-2,7.5c-0.3,1.1-1.3,1.6-2.9,1.6h-2.9l-5.5,23.4c-0.1,0.3,0.1,0.7,0.4,1
	c0.4,0.4,0.7,0.5,1.1,0.5l-0.4,1.1l-13.7,0c-1,0-1.6-0.5-1.6-1.6c0-0.1,0-0.4,0.1-0.8l5.5-23.7l-3.4,0c-0.5,0-0.9,0.1-1.3,0.4
	c-0.3,0.2-0.6,0.6-0.7,1h-1.2l2-7.9c0.1-0.5,0.4-0.8,0.8-1C204.9,10.9,205.5,10.8,206.4,10.8L206.4,10.8z"/>
</svg>
