<?xml version="1.0" encoding="utf-8"?>
<!-- Generator: Adobe Illustrator 22.0.0, SVG Export Plug-In . SVG Version: 6.00 Build 0)  -->
<svg version="1.1" id="Layer_13" xmlns="http://www.w3.org/2000/svg" xmlns:xlink="http://www.w3.org/1999/xlink" x="0px" y="0px"
	 viewBox="0 0 156.7 92.8" style="enable-background:new 0 0 156.7 92.8;" xml:space="preserve">
<style type="text/css">
	.st0{fill:#5A2E02;}
</style>
<g id="XMLID_9881_">
	<path id="XMLID_9883_" class="st0" d="M78.4,48.9c-13.5,0-24.4-11-24.4-24.4S64.9,0,78.4,0s24.4,11,24.4,24.4S91.8,48.9,78.4,48.9z
		 M78.4,2.9c-11.9,0-21.5,9.6-21.5,21.5s9.6,21.5,21.5,21.5s21.5-9.6,21.5-21.5S90.2,2.9,78.4,2.9z"/>
	<path id="XMLID_9880_" class="st0" d="M69.8,9c0.1-1,0.5-1.9,1.5-2.2c0.5-0.1,1.1-0.1,1.6,0.1c0.5,0.2,0.8,0.7,1.3,1.1
		c0.7-0.9,1.7-1.3,2.9-0.6c0.9,0.5,1.1,1.3,0.8,2.8c1.4-0.3,2.5,0.1,2.9,1.5c0.3,1.2-0.4,1.9-1.3,2.5c1,1.7,1.9,3.3,2.9,5
		c-2.4,0-4.8,0-7.2,0c0.1-0.2,0.1-0.4,0.2-0.6c0.6-1.5,0.6-3-0.3-4.3c-1-1.5-2.9-2-4.6-1.2c-1.7,0.8-3,2.1-4,3.7
		c-1.1,1.7-1.6,3.7-1.8,5.7c-0.4,3.6,0.2,6.8,2.2,9.8c2.2,3.4,5.4,5.5,9.3,6.2c3.9,0.6,7.5-0.4,10.7-2.8c2.5-1.9,4.2-4.5,5-7.5
		c0.3-1.2,0.5-2.4,0.4-3.7c-3.7,1.1-7.4,2.3-11.1,3.4c0.6,1.1,1.1,2,1.6,3c0.3,0.6,0.6,1.2,0.9,1.8c0.2,0.3,0.1,0.5-0.3,0.7
		c-1.2,0.4-2.4,0.8-3.7,1.2c-0.4,0.1-0.6-0.1-0.8-0.4c-1-1.7-2-3.4-3-5.1c-0.6-1.1-1.2-2.2-1.9-3.3c7.1-2.3,14.2-4.5,21.3-6.7
		c2.7,6.6,0.2,16.9-8.5,21.6c-8.3,4.5-19.1,2.2-24.1-7C58.1,25.1,60.4,14.3,69.8,9z"/>
	<path id="XMLID_9879_" class="st0" d="M73.3,16.8c0,1-0.8,1.7-1.8,1.7c-0.9,0-1.7-0.8-1.7-1.7c0-1,0.7-1.6,1.9-1.7
		C72.5,15.1,73.3,16,73.3,16.8z"/>
	<g id="XMLID_9836_">
		<path id="XMLID_9878_" class="st0" d="M3.7,68.2c-1.2-0.1-2.3-0.2-3.4,0c-0.1-0.2-0.2-0.3-0.2-0.4c0-0.1,0.1-0.2,0.1-0.2
			c0-0.1,0.2-0.1,0.2-0.2c0.1-0.7,0.5-1.3,0.5-2c0-0.7,0.1-1.4,0.3-2c0.1-0.3,0.1-0.7,0.1-1c0-0.9,0-1.7,0.4-2.6
			c0.1-0.4,0.1-0.8,0.1-1.2c0-0.6,0-1.2,0.3-1.7c0.2-0.4,0.2-0.9-0.1-1.4c-0.2-0.3-0.3-0.6-0.5-0.9c-0.1-0.1,0-0.3-0.1-0.4
			c0.5-0.2,1.1-0.1,1.6-0.1c0.6,0,1.1,0,1.7,0c0.5,0,1.1-0.1,1.6,0.2c0.3,0.9,0.6,1.8,1,2.7c0.4,0.8,0.5,1.7,1,2.5
			c0.1,0.2,0.1,0.5,0.2,0.8c0.3,0.4,0.3,0.4,0.4,1.2c0.1,0.1,0.2,0.2,0.4,0.3c0.1-0.1,0.1-0.1,0.1-0.1c0.2-0.7,0.5-1.4,0.7-2.2
			c0-0.1,0-0.2,0.1-0.3c0.1-0.3,0.2-0.7,0.3-1c0.1-0.5,0.3-0.9,0.4-1.3c0.1-0.5,0.1-1,0.5-1.3c0-0.3,0-0.6,0.1-0.9
			c0.2-0.1,0.4-0.3,0.7-0.5c1.4,0,2.9,0,4.4,0c0.1,0,0.1,0.1,0.2,0.1c0,0.1,0,0.1,0,0.2c-0.5,0.7-0.5,1.4-0.4,2.2
			c0.1,0.7,0.1,1.4,0.1,2.1c0,0.5,0.1,0.9,0.2,1.4c0.1,0.8,0.1,1.6,0.2,2.3c0,0.5,0.1,0.9,0.2,1.4c0.1,0.4,0.1,0.9,0.2,1.4
			c0,0.6,0,1.2,0.3,1.7c0.2,0.3,0.1,0.7,0.5,0.9c-0.1,0.2-0.1,0.4-0.2,0.6c-1.7-0.2-3.3-0.1-4.9,0c-0.1-0.1-0.2-0.3-0.3-0.4
			c0.5-0.5,0.5-1.2,0.4-1.8c-0.1-0.8-0.1-1.6-0.1-2.3c0-0.2,0-0.4,0-0.5c-0.3-0.7-0.3-1.5-0.3-2.3c0-0.2-0.1-0.3-0.1-0.5
			c-0.4,0.2-0.5,0.4-0.5,0.7c0,0.3,0,0.6-0.3,0.8c-0.1,0.1-0.1,0.2-0.1,0.2c0,0.5-0.2,0.9-0.4,1.3c-0.2,0.6-0.3,1.2-0.5,1.8
			c0,0.2-0.1,0.3-0.2,0.4c-0.1,0.1-0.1,0.3-0.2,0.4c-0.2,0.6-0.3,1.2-0.5,1.9c-0.1,0.3-0.3,0.5-0.6,0.5c-0.6-0.3-1.2-0.5-1.7-0.9
			c-0.4-0.2-0.7-0.5-0.9-0.9c-0.2-0.4-0.4-0.8-0.5-1.3c-0.2-0.5-0.4-1.1-0.6-1.6c-0.1-0.2-0.2-0.3-0.2-0.5c0-0.2-0.1-0.4-0.2-0.6
			c-0.2-0.2-0.2-0.6-0.3-0.9c-0.5-0.3-0.2-1.2-0.8-1.5c-0.3,1-0.5,2-0.4,3.1c0,0.5-0.1,1.1-0.3,1.6c-0.2,0.8-0.4,1.7,0.2,2.5
			C3.5,67.7,3.5,67.9,3.7,68.2z"/>
		<path id="XMLID_9874_" class="st0" d="M69.8,78.6c0-1,0-1.9,0-2.7c0-0.2-0.1-0.4-0.2-0.6c-0.1-0.3-0.2-0.5-0.4-0.8
			c0.1-0.3,0.4-0.3,0.6-0.3c1.2,0,2.4,0,3.6,0c0.3,0.2,0.3,0.5,0.3,0.7c0,1,0,1.9,0,2.9c0,0.2,0,0.4,0,0.7c0.2,0,0.4,0.1,0.5,0.1
			c0.4,0,0.8,0,1.2,0c1.1,0,2,0.4,2.8,1.2c0.5,0.5,1,0.9,1.2,1.6c0.1,0.3,0.2,0.5,0.2,0.8c0,0.7,0,1.4,0,2.1c0,1-0.4,1.9-1.1,2.6
			c-0.5,0.6-1.1,1.2-1.9,1.4c-0.6,0.2-1.2,0.5-1.9,0.5c-0.3,0-0.7,0-1,0c-0.2,0.6-0.1,1.1-0.1,1.6c0,0.5,0,1,0,1.5
			c0.1,0.2,0.3,0.3,0.4,0.5c0,0.1-0.1,0.2-0.1,0.3c-1.4,0-2.9,0-4.2,0c-0.2-0.2-0.2-0.4-0.1-0.6c0.2-0.3,0.2-0.6,0.2-1
			c0-0.6,0-1.2,0-1.9c0-0.2,0-0.3,0-0.5c-0.3,0-0.6,0-0.9,0c-0.4,0-0.7,0-1.1-0.2c-0.1,0-0.1-0.1-0.2-0.1c-0.6,0.1-1.2-0.3-1.7-0.6
			c-0.4-0.2-0.8-0.6-1.1-0.9c-0.5-0.5-0.9-1.2-1-2c0-0.3-0.2-0.7-0.2-1c0-0.7,0.1-1.5,0.3-2.2c0.1-0.5,0.4-1.1,0.8-1.5
			c0.4-0.4,0.8-0.8,1.3-1.1c0.6-0.4,1.3-0.7,2.1-0.7C68.7,78.7,69.2,78.6,69.8,78.6z M69.8,80.9c-1.1-0.3-1.2-0.3-2.1,0.9
			c0,1.1,0,2.2,0,3.4c0.4,0.4,0.8,0.9,1.3,1.3c0.3,0,0.5,0,0.8,0C69.8,84.6,69.8,82.8,69.8,80.9z M73.8,86.5c0.3,0,0.7,0,1.1,0
			c0.2-0.2,0.4-0.4,0.5-0.6c0.2-0.6,0.5-1.1,0.4-1.8c0-0.3,0-0.6,0-0.9c0-1-0.4-1.7-1-2.3c-0.7-0.2-0.7-0.2-1,0
			C73.6,81.6,73.6,86,73.8,86.5z"/>
		<path id="XMLID_9871_" class="st0" d="M152.4,64.2c-0.8,1.3-1.3,2.7-2.2,3.7c-0.4,0.2-0.7,0.3-1,0.4c-0.2,0.1-0.4,0.1-0.5,0.1
			c-0.6,0-1.3-0.1-1.9-0.1c-0.2,0-0.4,0-0.6,0c-0.5,0.2-1.1,0.1-1.6,0.1c-0.1,0-0.1,0-0.2,0c-0.6-0.3-1.4-0.4-2-0.9
			c-0.6-0.5-0.9-1.1-0.9-1.9c0-0.6,0-1.2,0-1.8c-0.8,0.2-1.4,0.5-1.7,1.3c0.1,0.3,0.2,0.6,0.4,0.9c0.3,0.1,0.7,0.2,1,0.2
			c0.2,1-0.4,1.5-0.9,2.1c-1.1,0.2-2.1,0.1-3.1-0.4c-0.3-0.3-0.5-0.6-0.8-0.9c-0.3-0.3-0.6-0.7-0.6-1.1c-0.1-0.8-0.1-1.6,0.4-2.3
			c0.2-0.3,0.4-0.5,0.7-0.7c0.6-0.4,1.2-0.7,1.9-0.8c0.4-0.1,0.7-0.2,1.1-0.2c0.3-0.1,0.7-0.1,1.1-0.2c0,0,0.1-0.1,0.2-0.2
			c0.1-0.1,0.2-0.2,0.3-0.3c0-0.2,0-0.5-0.1-0.7c-1.2-0.5-2.2-0.3-3.2,0.2c-0.3-0.1-0.4-0.3-0.3-0.6c0.3-0.5,0.4-1.1,0.8-1.6
			c0.3-0.3,0.5-0.4,0.9-0.4c0.9,0,1.8,0,2.7,0c0.2,0,0.4,0.1,0.7,0.2c0.3,0.1,0.5,0.2,0.8,0.3c0.5,0.4,1,0.8,1.2,1.4
			c0.1,0.3,0.2,0.5,0.2,0.8c0,1.1,0,2.2,0,3.3c0,0.8,0.2,1.4,0.8,1.9c0.2,0,0.4,0.1,0.6,0.1c0.1,0.2,0.2,0.4,0.3,0.6
			c0.7-0.9,1.3-1.7,1.8-2.7c-0.6-0.3-1.2-0.7-1.5-1.3c-0.1-0.3-0.2-0.5-0.3-0.8c0-0.2,0-0.5,0-0.8c-0.1-1.3,1-2.5,2.2-2.6
			c0.1,0,0.2,0,0.3-0.1c0.6-0.4,1.3-0.4,2-0.3c1,0,2,0.1,3,0.1c0.6,0,1.1,0,1.7,0c0.2,0,0.3,0.1,0.5,0.1c0.3,0.5,0,0.8-0.3,1.1
			c0,1.2,0,2.3,0,3.5c0,1.2,0,2.4,0,3.5c0,0.4,0,0.8,0.4,1.1c-0.1,0.2-0.2,0.4-0.3,0.5c-1.4-0.2-2.8-0.1-4.2,0
			c-0.1-0.1-0.1-0.3-0.2-0.4c0.1-0.2,0.3-0.4,0.4-0.5C152.4,66.3,152.4,65.3,152.4,64.2z M152.4,63.1c0-0.9,0-1.7,0-2.5
			c-0.8-0.4-1-0.3-1.7,0.5c0,0.7-0.2,1.4,0.6,1.9C151.6,63,152,63,152.4,63.1z"/>
		<path id="XMLID_9868_" class="st0" d="M102,74.2c0.3,0.4,0.3,0.4-0.1,0.9c0,0.4,0,0.9-0.3,1.3c-0.2,0.2-0.2,0.5-0.2,0.9
			c-0.3,0-0.6,0-0.8,0c-1,0-2.1,0-3.1,0c-0.3,0-0.6,0-0.9,0.2c-0.2,0.1-0.3,0.1-0.5,0.2c-0.6,0.1-1.1,0.4-1.4,0.8
			c-0.3,0.3-0.5,1-0.5,1.5c0.1-0.1,0.3-0.2,0.4-0.3c0.4-0.4,0.8-0.6,1.4-0.7c0.7-0.2,1.4-0.4,2.2-0.3c1.3,0.1,2.5,0.4,3.6,1.2
			c0.2,0.2,0.3,0.4,0.5,0.6c0.8,1.1,1.2,2.3,1,3.6c-0.1,1.2-0.6,2.2-1.5,3c-0.6,0.5-1.2,0.9-1.9,1.3c0,0,0,0-0.1,0
			c-1.1,0.2-2.2,0.7-3.3,0.4c-0.8-0.2-1.6-0.3-2.3-0.7c-0.7-0.5-1.3-1.1-1.8-1.8c-0.3-0.6-0.4-1.2-0.7-1.7c-0.1-0.2-0.1-0.5-0.1-0.8
			c0-0.9,0-1.8,0-2.6c0-0.5,0-1,0.3-1.4c0.1-0.1,0.1-0.2,0.1-0.3c0-0.4,0.2-0.7,0.3-1c0.2-0.6,0.6-1,0.9-1.5c0.5-0.8,1.2-1.2,2-1.7
			c0.5-0.3,0.9-0.5,1.5-0.5c0.3,0,0.5-0.2,0.8-0.3c0.6-0.1,1.2-0.1,1.9-0.1c0.6,0,1.2,0,1.7,0C101.2,74.2,101.6,74.2,102,74.2z
			 M96.5,80.9c-0.4,0.3-0.7,0.6-0.9,0.8c-0.2,1.3-0.4,2.5,0.1,3.8c0.3,0.3,0.7,0.7,1.1,1.1c0.4,0,0.7,0,1,0c0.8-0.5,1.1-1.2,1.1-2
			c0-0.5,0-1,0-1.5c0-0.3-0.1-0.5-0.2-0.8c-0.3-0.6-0.7-0.9-1.2-1.3C97.2,80.9,96.8,80.9,96.5,80.9z"/>
		<path id="XMLID_9867_" class="st0" d="M38.4,66.9c0.5,0.7,0.5,0.8,0.2,1.3c-1.2-0.1-2.5-0.2-3.8,0c-0.1-0.1-0.2-0.3-0.2-0.5
			c0.2-0.2,0.3-0.3,0.4-0.4c0-1.1,0-2.1,0-3.1c-0.9,1.2-1.3,2.6-2.2,3.7c-0.4,0.2-0.6,0.3-0.9,0.4c-0.1,0.1-0.3,0.1-0.4,0.1
			c-0.9,0-1.8,0-2.8-0.1c-0.1,0-0.1-0.1-0.2-0.1c-0.1-0.3-0.1-0.5,0.1-0.7c0.5-0.6,0.9-1.2,1.3-1.8c0.4-0.6,0.9-1.2,1.3-1.9
			c0.3-0.5,0.6-0.9,0.9-1.4c-0.3-0.4-0.7-0.8-1.1-1.3c-0.6-0.7-1.2-1.3-1.8-1.9C29.1,59,29,58.7,29,58.5c0.2-0.2,0.4-0.2,0.6-0.2
			c1.1,0,2.1,0,3.2,0c0.3,0,0.3,0,0.7,0.3c-0.1,0.1-0.1,0.3-0.2,0.4c-0.2,0.5-0.2,0.9,0.2,1.4c0.5,0.7,0.9,1.4,1.5,2.2
			c0-1.1,0-2.1,0-3.1c-0.4-0.5-0.4-0.5-0.3-1c0.4-0.3,0.9,0,1.4,0c0.5-0.1,1,0,1.5,0c0.5,0,1-0.3,1.4,0.2c-0.2,0.4-0.3,0.9-0.5,1.4
			c0,0.7,0,1.6,0,2.5c0.3-0.1,0.4-0.2,0.5-0.4c0.5-0.8,1-1.5,1.5-2.3c0,0,0-0.1,0.1-0.2c-0.2-0.3-0.5-0.6-0.4-1.2
			c0.1,0,0.3-0.1,0.4-0.1c1.2,0,2.4,0,3.5,0c0.3,0.2,0.3,0.5,0.3,0.6c-1,1.2-1.8,2.2-2.7,3.3c0,0.2,0,0.4,0,0.6
			c0.3,0.4,0.6,0.8,0.8,1.2c0.2,0.4,0.5,0.7,0.7,1.1c0.6,0.8,1,1.8,1.9,2.5c0,0.2-0.1,0.5-0.1,0.7c-1,0-1.9,0.1-2.8,0.1
			c-0.3,0-0.6,0-0.8-0.2c-0.2-0.1-0.4-0.2-0.5-0.3c-1-1.2-1.6-2.7-2.4-4.2C38.4,64.9,38.4,65.8,38.4,66.9z"/>
		<path id="XMLID_9866_" class="st0" d="M109.3,88.7c-0.3-0.6-0.5-1.2-0.8-1.8c0.4-0.5,0.9-0.2,1.3-0.4c0.4-0.4,0.9-0.5,1.1-1.1
			c0.1-0.3,0.2-0.5,0.2-0.8c0-0.6,0.1-1.3,0-1.9c-0.1-0.5-0.3-1-0.4-1.4c-0.3-0.2-0.5-0.4-0.8-0.5c-0.2,0-0.5,0-0.9,0
			c-0.2,0.2-0.5,0.5-0.8,0.8c0,3.4,0,6.8,0,10.3c0.1,0.2,0.2,0.3,0.3,0.5c0,0.3-0.2,0.4-0.5,0.4c-1.2,0-2.5,0-3.7,0
			c-0.1,0-0.3-0.1-0.5-0.1c0-0.5,0.2-0.9,0.5-1.2c0-0.2,0-0.5,0-0.7c0-3.1,0-6.2,0-9.3c0-0.4,0-0.8-0.3-1.2
			c-0.2-0.3-0.3-0.8-0.5-1.3c0.1-0.1,0.2-0.1,0.3-0.1c1.3,0,2.7,0,4.1,0c0.1,0.2,0.2,0.4,0.3,0.6c0.3-0.2,0.6-0.3,0.9-0.5
			c0.2-0.1,0.4-0.1,0.7-0.2c0.6,0,1.2,0,1.7,0c0.7,0,1.2,0.2,1.8,0.7c0.5,0.4,1.1,0.9,1.3,1.6c0.4,1.2,0.7,2.3,0.4,3.6
			c0,0.2-0.1,0.4-0.1,0.6c-0.1,0.8-0.5,1.6-1.1,2.2c-0.4,0.4-0.8,0.8-1.3,1c0,0,0,0-0.1,0C111.5,88.6,110.5,89,109.3,88.7z"/>
		<path id="XMLID_9865_" class="st0" d="M51.1,86.5c0.4,0,0.7,0.1,1,0.1c0.1,0.6,0.2,3.7,0,4.4c-0.5,0.3-1,0.7-1.7,0.4
			c-0.2-0.7-0.4-1.3-0.6-2.1c-0.1-0.1-0.2-0.3-0.4-0.5c-0.7-0.5-1.4-0.4-2.2-0.4c-1.8,0-3.7,0-5.5,0c-0.2,0-0.5,0-0.7,0
			c-0.4-0.5,0-0.8,0.2-1.2c0-2.4,0-4.9,0-7.2c-0.2-0.4-0.4-0.7-0.6-1.2c0.3-0.1,0.6-0.2,0.8-0.2c1.1,0,2.3,0,3.4,0
			c0.3,0,0.5,0,0.7,0.3c0,0,0,0.1,0,0.2c-0.4,0.5-0.3,1-0.3,1.6c0,1.7,0,3.4,0,5.1c0,0.2,0,0.4,0,0.7c0.6,0.1,1.1,0.1,1.7,0
			c0.2,0,0.3-0.2,0.4-0.3c0-1,0-2,0-3c0-0.6-0.1-1.2,0-1.7c0.1-0.8-0.3-1.5-0.5-2.2c0-0.1-0.2-0.3-0.3-0.4c0.1-0.4,0.4-0.3,0.7-0.3
			c0.9,0,1.9,0,2.8,0c0.3,0,0.6,0,0.9,0c0.2,0,0.3,0.1,0.5,0.2c-0.2,0.3-0.3,0.4-0.4,0.6C50.9,81.3,50.9,85.9,51.1,86.5z"/>
		<path id="XMLID_9864_" class="st0" d="M28.6,78.9c0.1-0.3,0.4-0.3,0.6-0.3c3-0.1,3.8,0,4.3,0.2C33,79.7,33,80.5,33,81.4
			c0,0.9,0,1.7-0.1,2.7c0.2-0.2,0.3-0.3,0.4-0.4c0.7-1.3,1.3-2.5,2-3.8c0.2-0.4,0.4-0.8,0.6-1.2c1.2-0.1,2.3,0,3.5,0
			c0.1,0,0.3,0.1,0.5,0.2c-0.2,0.3-0.3,0.6-0.5,1c-0.1,0.3-0.2,0.5-0.2,0.8c0,2,0,4.1,0,6.1c0,0.2,0.1,0.5,0.2,0.7
			c0.1,0.2,0.2,0.5,0.3,0.7c-0.1,0.3-0.4,0.4-0.6,0.4c-1.2,0-2.4,0-3.6,0c-0.2,0-0.3-0.1-0.6-0.2c0.2-0.3,0.3-0.4,0.4-0.7
			c0-1.4,0-2.8,0-4.4c-0.9,1.8-1.8,3.5-2.7,5.2c-1.2,0.1-2.4,0.1-3.6,0.1c-0.2,0-0.3-0.1-0.6-0.2c0.2-0.3,0.3-0.4,0.4-0.7
			c0-1.8,0-3.6,0-5.5c0-0.6,0-1.3,0-1.9c0-0.4,0-0.7-0.3-1C28.6,79.1,28.7,79,28.6,78.9z"/>
		<path id="XMLID_9863_" class="st0" d="M122.7,83.6c-0.8,1.6-1.6,3.1-2.3,4.7c-0.2,0-0.5,0.1-0.7,0.1c-0.9,0-1.7,0-2.6,0
			c-0.3,0-0.6,0-0.7-0.3c0,0,0-0.1,0-0.1c0.4-0.5,0.4-1.2,0.4-1.8c0-2.1,0-4.2,0-6.3c-0.2-0.3-0.5-0.6-0.4-1.1
			c0.1,0,0.3-0.1,0.4-0.1c1.2,0,2.4,0,3.7,0c0.2,0,0.4,0,0.6,0.3c-0.1,0.2-0.2,0.5-0.4,0.9c0,1.2,0,2.6,0,4c0.5-0.4,0.6-0.9,0.8-1.3
			c0.5-0.9,1-1.8,1.4-2.7c0.1-0.1,0.1-0.2,0.2-0.4c0.2-0.5,0.5-0.8,1.1-0.8c0.8,0,1.7,0,2.5,0c0.3,0,0.5,0,0.7,0.3
			c0,0.1,0,0.3-0.1,0.4c-0.3,0.4-0.3,0.9-0.3,1.3c0,2,0,3.9,0,5.9c0,0.5,0,1,0.3,1.4c0,0.1,0,0.2,0,0.2c-0.2,0.3-0.4,0.3-0.7,0.3
			c-1.1,0-2.1,0-3.2,0c-0.3,0-0.6,0-0.7-0.3c0-0.1,0-0.1,0-0.2c0.4-0.6,0.4-1.2,0.4-1.9c0-0.9,0-1.7,0-2.7
			C122.9,83.5,122.7,83.6,122.7,83.6z"/>
		<path id="XMLID_9862_" class="st0" d="M74.4,68.2c0-0.3,0-0.5,0.1-0.6c0.3-0.6,0.4-1.3,0.4-2c0-0.8,0.1-1.6,0.1-2.4
			c0-0.1,0-0.2-0.1-0.4c-0.2,0.2-0.4,0.3-0.4,0.4c-0.6,1.5-1.4,2.8-2,4.2c-0.1,0.3-0.4,0.5-0.6,0.7c-1.2,0-2.4,0-3.7,0.1
			c0-0.2,0-0.3,0-0.4c0.4-0.9,0.4-1.9,0.4-2.8c0-1.4,0-2.9,0-4.3c0-0.7-0.2-1.3-0.5-2c0.2-0.3,0.4-0.3,0.7-0.3c1.1,0,2.3,0,3.4,0
			c0.2,0,0.4,0.1,0.7,0.1c-0.1,0.3-0.1,0.4-0.2,0.6c-0.2,0.5-0.3,1-0.3,1.5c0,0.8,0,1.5,0,2.3c0,0.3,0,0.6-0.1,1.1
			c1-1.9,2-3.7,2.9-5.5c0.3,0,0.6-0.1,0.8-0.1c0.8,0,1.7,0,2.5-0.1c0.2,0,0.5,0,0.6,0.3c0,0.1,0,0.2,0,0.2c-0.3,0.6-0.3,1.2-0.3,1.8
			c0,1.9,0,3.8,0,5.7c0,0.5,0,1,0.4,1.4c-0.1,0.2-0.1,0.3-0.2,0.5C77.5,68,76,68,74.4,68.2z"/>
		<path id="XMLID_9861_" class="st0" d="M60.9,58.5c-0.4,1-0.5,2.1-0.4,3.3c0.7,0.1,1.4,0,2.2,0.1c0.3-1.2,0-2.3-0.5-3.3
			c0.2-0.2,0.5-0.3,0.7-0.3c1.1,0,2.3,0,3.4,0c0.2,0,0.4,0,0.5,0c0.2,0.3,0.1,0.6,0,0.8c-0.1,0.2-0.2,0.4-0.2,0.6c0,2.3,0,4.7,0,7
			c0,0.3,0.1,0.6,0.4,0.9c-0.1,0.2-0.2,0.3-0.2,0.5c-1.5-0.2-2.9-0.1-4.3,0c-0.2-0.4-0.1-0.8,0.1-1.1c0.1-0.2,0.2-0.4,0.2-0.6
			c0-0.8,0-1.5,0-2.3c-0.5-0.2-1.6-0.2-2.3,0c0,0.1,0,0.3,0,0.4c0,0.5,0,1,0,1.5c0,0.5,0.2,0.9,0.3,1.4c0.1,0.2,0.1,0.4-0.1,0.7
			c-1.5-0.2-2.9-0.1-4.5,0c0-0.2-0.1-0.4,0-0.5c0.3-0.6,0.4-1.3,0.4-2c0-1.4,0-2.7,0-4.1c0-1,0.1-2.1-0.5-3c0.2-0.3,0.5-0.3,0.8-0.3
			c1.1,0,2.2,0,3.3,0C60.4,58.3,60.6,58.3,60.9,58.5z"/>
		<path id="XMLID_9860_" class="st0" d="M86.3,68.2c-0.1-0.2-0.1-0.3-0.2-0.5c0.1-0.2,0.3-0.3,0.4-0.5c0-1,0-2.1,0-3.2
			c-0.7-0.1-1.3,0-2,0c-0.2,0.6-0.1,1.1-0.1,1.6c0,0.5,0,1,0,1.5c0.1,0.2,0.2,0.3,0.4,0.5c-0.1,0.2-0.2,0.3-0.2,0.5
			c-1.4-0.2-2.8-0.1-4.2,0c0,0-0.1,0-0.1-0.1c0-0.1-0.1-0.2-0.1-0.3c0.1-0.2,0.2-0.3,0.4-0.5c0-2.6,0-5.1,0-7.7
			c-0.3-0.3-0.6-0.6-0.2-1.1c1.4,0,2.8,0,4.2,0c0.1,0,0.2,0.1,0.2,0.1c0.1,0.5,0.1,0.5-0.3,1.1c0,0.7,0,1.5,0,2.3
			c0.7,0.1,1.4,0.1,2.1,0c0-0.8,0-1.6,0-2.4c-0.2-0.3-0.5-0.5-0.2-1c1.4,0,2.8,0,4.2,0c0.1,0,0.3,0.1,0.5,0.2
			c-0.1,0.3-0.2,0.5-0.3,0.7c-0.2,0.4-0.3,0.8-0.3,1.2c0,2,0,4,0,6c0,0.3,0.1,0.5,0.2,0.8c0.2,0.2,0.3,0.5,0.1,0.9
			C89.3,68.1,87.8,68,86.3,68.2z"/>
		<path id="XMLID_9859_" class="st0" d="M12.2,80.9c0,0.4,0.1,0.7,0.1,1c0,1.5,0,3,0,4.4c0,0.5,0.1,1,0.3,1.5
			c0.1,0.1,0.1,0.2,0.2,0.4c-0.2,0.3-0.5,0.3-0.8,0.3c-1.1,0-2.2,0-3.3,0c-0.2,0-0.4-0.1-0.6-0.1c0-0.1-0.1-0.2,0-0.2
			c0.4-0.5,0.4-1.1,0.4-1.6c0-1.9,0-3.9,0-5.8c0-0.4-0.1-0.8-0.1-1.2C8.2,79.3,8.1,79.2,8,79c0-0.1,0.1-0.2,0.1-0.2
			c0.2-0.1,0.4-0.1,0.7-0.1c3,0,6.1,0,9.1,0c0.3,0,0.6,0,0.8,0.3c-0.2,0.3-0.3,0.7-0.5,1.1c0,0-0.1,0-0.1,0c0,0.3,0,0.5,0,0.8
			c0,1.8,0,3.7,0,5.5c0,0.5-0.1,1,0.3,1.4c0.1,0.1,0.1,0.3,0.1,0.4c-0.1,0.3-0.3,0.4-0.6,0.4c-1.2,0-2.3,0-3.5,0
			c-0.2,0-0.5,0-0.6-0.4c0.1-0.2,0.2-0.3,0.4-0.5c0-2.2,0-4.4,0-6.7C13.6,80.8,12.9,80.8,12.2,80.9z"/>
		<path id="XMLID_9855_" class="st0" d="M112.8,62.8c0.4,0.2,0.7,0.4,1.1,0.6c0.4,0.2,0.4,0.7,0.6,1c0.2,0.3,0.1,0.8,0.1,1.2
			c0,0.4-0.3,0.8-0.5,1.1c-0.2,0.3-0.6,0.6-0.8,0.8c-0.4,0.2-0.6,0.3-0.8,0.4c-0.3,0.1-0.5,0.2-0.8,0.2c-1.9,0-3.8,0-5.7,0.1
			c-0.4,0-0.8,0.1-1.3,0.1c-0.1-0.1-0.1-0.3-0.2-0.5c0.1-0.2,0.3-0.4,0.4-0.5c0-2.6,0-5.1,0-7.7c-0.2-0.3-0.6-0.6-0.2-1.1
			c0.1,0,0.3-0.1,0.5-0.1c1.9,0,3.8,0,5.7,0c0.3,0,0.6,0.1,0.9,0.2c0.3,0.1,0.6,0.2,0.9,0.2c0.3,0.3,0.7,0.6,1.1,0.9
			c0,0.3,0.1,0.7,0.1,1.1c0,0.4,0,0.7-0.1,1.1C113.5,62.1,113.2,62.4,112.8,62.8z M110.7,64.6c-0.2-0.2-0.3-0.4-0.5-0.6
			c-0.6,0-1.1-0.3-1.7,0.1c-0.1,1.1-0.1,1.5,0.1,2c1.2,0.2,1.6,0.1,2-0.8C110.7,65.1,110.7,64.8,110.7,64.6z M108.7,62
			c0.5,0.1,1.1-0.1,1.4-0.3c0.3-0.2,0.3-0.5,0.2-0.8c-0.5-0.6-1.1-0.5-1.8-0.4C108.6,61.1,108.4,61.6,108.7,62z"/>
		<path id="XMLID_9852_" class="st0" d="M92.1,61.4c0.3-0.5,0.6-0.9,0.8-1.3c0.4-0.6,1.1-1.1,1.8-1.3c0.8-0.3,1.6-0.7,2.5-0.5
			c0.5,0.1,1,0,1.5,0c0.5,0,0.9,0,1.3,0.3c0.1,0,0.1,0.1,0.2,0.1c0.9,0.1,1.5,0.7,2.1,1.3c0.5,0.5,0.9,1.1,1,1.7
			c0.2,1.1,0.2,2.2,0,3.2c-0.3,1.1-1.2,1.8-2,2.5c-0.6,0.1-1,0.7-1.6,0.6c-0.1,0-0.2,0-0.3,0.1c-0.4,0.3-0.9,0.3-1.5,0.3
			c-0.4,0-0.7,0-1.1,0c-0.5,0-0.9-0.1-1.2-0.3c-1.7-0.3-2.8-1.3-3.5-2.8c0-0.3-0.1-0.8-0.3-1.2c-0.2-0.5-0.2-1.1,0-1.5
			C92,62.2,92.1,61.8,92.1,61.4z M97,66.1c0.5,0,0.9,0,1.3,0c0.6-0.4,0.8-0.8,1-1.4c0.4-1.2,0.1-2.2-0.2-3.3c0-0.1-0.1-0.1-0.1-0.2
			c-0.4-0.7-1.1-0.9-1.9-0.8c-0.4,0.1-0.7,0.3-0.9,0.7c-0.1,0.2-0.2,0.5-0.4,0.8c0,0.6,0,1.3,0,2C95.9,64.8,96.3,65.5,97,66.1z"/>
		<path id="XMLID_9851_" class="st0" d="M129.5,64.1c0,0.4,0.1,0.7,0.1,1c0,0.4,0,0.9,0,1.3c0,0.3,0.1,0.7,0.2,1
			c0.1,0.2,0.1,0.4-0.1,0.7c-1.4-0.1-2.9-0.2-4.4,0c-0.2-0.2-0.3-0.5-0.1-0.7c0.3-0.3,0.3-0.6,0.3-1c0-2.2,0-4.3,0-6.5
			c0-0.4-0.1-0.8-0.3-1.2c-0.1-0.1,0-0.3-0.1-0.4c0.1-0.1,0.2-0.1,0.3-0.1c1.4,0,2.8,0,4.1,0c0.1,0,0.2,0.1,0.3,0.1
			c0,0.1,0,0.3-0.1,0.4c-0.3,0.6-0.3,1.2-0.3,1.8c0,0.5,0,1,0,1.6c1-0.6,1.4-1.8,2.2-2.5c-0.2-0.4-0.4-0.8-0.6-1.1
			c0.2-0.3,0.4-0.3,0.7-0.3c1.1,0,2.1,0,3.2,0c0.2,0,0.3,0.1,0.5,0.1c0,0.2,0,0.5,0,0.7c-1,1.1-2.2,2.1-3,3.3c0.7,1,1.3,2,1.9,2.9
			c0.6,0.8,1.2,1.6,1.9,2.4c0,0.1-0.1,0.3-0.1,0.5c-0.8,0-1.5,0.1-2.2,0.1c-0.6,0-1.1,0.1-1.7-0.3c-0.1-0.1-0.3-0.1-0.4-0.1
			C130.9,66.9,130.4,65.5,129.5,64.1z"/>
		<path id="XMLID_9850_" class="st0" d="M134.3,79c0.2-0.4,0.4-0.3,0.7-0.3c3.3-0.1,3.4-0.1,3.8,0.3c-0.4,0.7-1,1.3-1.5,1.9
			c-0.5,0.6-1.1,1.2-1.7,1.9c0.3,0.3,0.5,0.6,0.7,1c0.2,0.3,0.4,0.6,0.6,0.9c0.5,0.7,1.1,1.4,1.6,2.2c0.2,0.3,0.4,0.5,0.7,0.8
			c0.1,0.2,0.3,0.3,0.5,0.6c-0.2,0.1-0.4,0.3-0.5,0.3c-1.1,0-2.2,0-3.3,0c-0.5,0-0.9-0.3-1.1-0.7c-0.4-0.6-0.8-1.3-1.2-2
			c-0.2-0.4-0.4-0.8-0.6-1.2c0-0.1-0.2-0.1-0.3-0.3c0,0.2-0.1,0.3-0.1,0.5c0,0.3,0.1,0.6,0.1,0.9c0,0.8,0,1.7,0.5,2.4
			c-0.2,0.3-0.5,0.3-0.8,0.3c-1.1,0-2.2,0-3.3,0c-0.2,0-0.5,0-0.7-0.3c0.6-0.8,0.4-1.8,0.4-2.7c0-1.5,0-3,0-4.6c0-0.2,0-0.3,0-0.5
			c0-0.5-0.1-1-0.4-1.4c0-0.3,0.2-0.4,0.4-0.4c0.3,0,0.5,0,0.8,0c1,0,1.9,0,2.9,0c0.3,0,0.6-0.1,0.8,0.3c-0.8,1.1-0.4,2.4-0.6,3.6
			c0.5,0,0.6-0.4,0.8-0.6c0.4-0.4,0.6-0.8,1-1.2c0.5-0.6,0.6-0.9,0.1-1.6C134.3,79.1,134.3,79.1,134.3,79z"/>
		<path id="XMLID_9847_" class="st0" d="M52.7,58.7c1.7,1.1,2.5,2.4,2.4,4.3c-0.2,0.3-0.5,0.4-0.8,0.4c-1.7,0-3.5,0-5.2-0.1
			c-0.1,0-0.2,0-0.3,0.1c-0.3,0.7,0.1,1.2,0.4,1.7c0.5,0.7,1.1,1.1,2,1c0.2,0,0.4,0,0.6,0c0.9,0.1,1.6-0.3,2.4-0.6
			c0.3-0.1,0.6-0.2,0.9-0.3c0.2,0.8-0.4,1.4-0.4,2.1c-0.2,0.2-0.4,0.4-0.6,0.6c-0.2,0-0.4,0-0.6,0c-0.2,0-0.4,0-0.5,0.1
			c-0.3,0.2-0.7,0.3-1.1,0.3c-0.6,0-1.2,0-1.8,0c-0.5,0-1-0.1-1.4-0.4c-0.7,0.1-1.2-0.3-1.7-0.6c-0.8-0.4-1.3-1.1-1.7-1.8
			c-0.2-0.3-0.3-0.7-0.3-1c0-0.2-0.1-0.4-0.1-0.6c-0.2-1.8,0.3-3.4,1.8-4.6c0.3-0.2,0.7-0.4,1-0.6c0.3-0.1,0.6-0.3,0.9-0.4
			c0.2-0.1,0.4-0.1,0.7-0.1c0.6,0,1.2,0,1.8,0c0.5,0,0.9,0,1.3,0.3C52.3,58.7,52.6,58.7,52.7,58.7z M49,61.4c0.8,0,1.5,0,2.2,0
			c0-0.6-0.3-1-0.9-1.1C49.7,60.2,49.2,60.6,49,61.4z"/>
		<path id="XMLID_9846_" class="st0" d="M144.4,84.1c-0.2,0.1-0.4,0.2-0.7,0.3c-0.9,0.4-1,1.2-0.4,1.9c0,0.1,0.1,0.1,0.1,0.2
			c0.2,0,0.5,0.1,0.7,0.1c0.2,0.3,0.2,0.6,0,0.9c-0.1,0.2-0.2,0.4-0.3,0.7c-0.2,0.2-0.4,0.3-0.6,0.5c-0.7,0-1.4,0.2-2.1-0.3
			c0,0-0.1,0-0.1,0c-1-0.1-1.5-0.8-2-1.5c-0.1-0.1-0.1-0.3-0.2-0.5c0-0.5,0-1,0-1.5c0-0.4,0.3-0.8,0.6-1.1c0.3-0.3,0.5-0.6,0.8-0.9
			c0,0,0.1,0.1,0.1,0.1c0.2-0.1,0.5-0.2,0.7-0.3c0.1,0,0.2-0.1,0.3-0.1c0.7,0,1.3-0.3,2-0.4c0.1,0,0.2,0,0.3,0
			c0.7-0.1,0.9-0.5,0.7-1.2c-1.1-0.8-2.1-0.2-3.2,0.2c-0.1,0-0.2-0.1-0.3-0.1c0.1-0.8,0.6-1.8,1.1-2.3c0.4,0,0.9,0,1.5,0
			c0.6,0,1.2,0,1.7,0c1,0,1.8,0.4,2.4,1.1c0.4,0.5,0.7,1.1,0.7,1.7c0,1.1,0,2.2,0,3.3c0,1,0.4,1.5,1.3,1.8c0,0,0.1,0,0.2,0.1
			c0,0.1,0.1,0.3,0.1,0.4c-0.3,0.5-0.4,1.2-1,1.6c-0.6,0-1.2,0-1.9-0.2c-0.4-0.2-0.9-0.3-1.3-0.5c-0.4-0.2-0.6-0.5-0.8-0.8
			c-0.5-0.7-0.4-1.4-0.4-2.1C144.5,84.8,144.6,84.4,144.4,84.1z"/>
		<path id="XMLID_9845_" class="st0" d="M84.1,85.7c0.2,0.2,0.4,0.5,0.6,0.8c0.3,0.1,0.6,0.1,0.9,0.2c0,0.9-0.4,1.5-1,2.1
			c-0.5,0-1,0.1-1.5,0c-0.8-0.2-1.7-0.4-2.3-1.2c-0.1-0.2-0.3-0.4-0.5-0.6c0-0.8,0-1.6,0-2.4c0.2-0.3,0.4-0.5,0.7-0.7
			c0.3-0.3,0.6-0.7,1.1-0.8c0.4-0.2,0.8-0.3,1.3-0.4c0.6-0.1,1.3-0.3,1.9-0.5c0.2,0,0.3-0.2,0.5-0.3c0-0.3,0-0.5,0-0.8
			c-0.3-0.1-0.6-0.2-0.8-0.3c-0.2-0.1-0.4-0.1-0.5-0.1c-0.6,0.2-1.2,0.2-1.7,0.5c-0.2,0.1-0.2,0.1-0.7-0.1c0.1-0.2,0.1-0.4,0.2-0.6
			c0.3-0.6,0.4-1.3,1.1-1.7c0.2,0,0.4,0,0.6-0.1c0.8,0,1.7,0,2.5,0c0.9,0,1.7,0.4,2.4,1.1c0.1,0.1,0.2,0.2,0.2,0.2
			c0.2,0.4,0.3,0.6,0.4,0.9c0.1,0.3,0.2,0.6,0.2,0.9c0,1.1,0,2.2,0,3.2c0,0.2,0,0.5,0,0.7c0.3,0.3,0.6,0.6,0.9,0.9
			c0.2,0.1,0.4,0.1,0.6,0.2c-0.1,0.7-0.5,1.3-0.9,1.9c-1.3,0.3-2.8-0.1-3.9-1.2c-0.2-0.4-0.3-0.7-0.5-1c-0.2-0.8,0-1.6-0.2-2.4
			c-0.4,0.2-0.7,0.3-1.1,0.5C84.3,84.9,83.9,85.1,84.1,85.7z"/>
		<path id="XMLID_9842_" class="st0" d="M28.7,63c-0.4,0.4-0.7,0.4-1.1,0.4c-1.1,0-2.2,0-3.2,0c-0.5,0-1,0-1.4,0
			c-0.2,0-0.5,0.1-0.7,0.1c-0.2,0.7,0.1,1.2,0.4,1.6c0.3,0.4,0.7,0.6,1.1,1c0.1,0,0.1,0.1,0.2,0.1c0.9,0,1.8,0.2,2.7-0.2
			c0.6-0.3,1.3-0.5,2-0.8c0,0.1,0.1,0.3,0.1,0.4c-0.4,0.8-0.4,1.8-1.3,2.4c-0.1,0-0.3,0-0.5,0c-0.2,0-0.3,0-0.5,0.1
			c-0.4,0.3-0.8,0.3-1.2,0.3c-0.6,0-1.1,0-1.7,0c-0.5,0-1,0-1.3-0.4c-1.1,0.1-1.8-0.6-2.5-1.2c-0.6-0.5-1-1.2-1.3-1.9
			c0-0.1-0.1-0.2-0.1-0.3c0-0.8,0-1.7,0-2.5c0-0.6,0.3-1.1,0.7-1.5c0.4-0.6,0.9-1.1,1.6-1.5c0.1-0.1,0.2-0.2,0.4-0.3
			c0.3-0.1,0.6-0.3,0.9-0.4c0.2-0.1,0.4-0.1,0.7-0.1c0.7,0,1.5,0,2.2,0c0.3,0,0.6,0.1,0.8,0.2c0.4,0.2,0.8,0.3,1.1,0.6
			c0.6,0.4,1,1,1.4,1.6c0.2,0.4,0.4,0.9,0.4,1.4C28.5,62.4,28.6,62.7,28.7,63z M22.5,61.4c0.8,0.1,1.8,0.1,2.3-0.1
			c-0.1-0.2-0.2-0.5-0.3-0.7C23.3,60.1,22.6,60.4,22.5,61.4z"/>
		<path id="XMLID_9839_" class="st0" d="M62.5,81.5c0,0.3,0,0.8,0.3,1.2c0.2,0.3,0.2,0.6-0.1,0.9c-0.2,0-0.4,0-0.7,0
			c-1.6,0-3.3,0-4.9,0c-0.3,0-0.7,0-0.8,0.4c0.1,0.4,0.2,0.8,0.3,1.2c0.4,0.4,0.8,0.9,1.4,1.1c0.7,0.3,1.4,0.2,2.1,0.1
			c0.4-0.1,0.7-0.3,1.1-0.3c0.2-0.1,0.4-0.2,0.7-0.4c0.2-0.1,0.5-0.2,0.7-0.3c0.1,0.1,0.2,0.2,0.2,0.3c0,0.2,0,0.4-0.1,0.5
			c-0.2,0.2-0.2,0.4-0.3,0.7c-0.2,0.9-0.9,1.5-1.8,1.5c-0.2,0-0.3,0-0.5,0.1c-1,0.4-2,0.3-2.9,0.2c-0.9-0.1-1.8-0.3-2.5-0.7
			c-0.2-0.1-0.3-0.2-0.4-0.3c-0.5-0.5-1.1-0.9-1.4-1.5c-0.3-0.6-0.7-1.3-0.6-2.1c0.1-0.4,0-0.7,0-1.1c0-0.3,0.2-0.6,0.2-0.9
			c0-0.1,0.1-0.1,0.1-0.2c0.3-1.1,1.2-1.9,2.1-2.6c0.6-0.4,1.2-0.7,2-0.7c0.6,0,1.2,0,1.8,0c1.4,0,2.4,0.6,3.3,1.6
			c0.1,0.1,0.1,0.2,0.2,0.3C62.2,80.8,62.3,81.1,62.5,81.5z M58.7,80.9c-0.6-0.5-1.2-0.5-1.6,0c-0.2,0.2-0.7,0.4-0.3,0.9
			c0.4,0,0.8,0,1.2,0c0.4,0,0.8,0.2,1.2-0.2C59,81.4,58.8,81.1,58.7,80.9z"/>
		<path id="XMLID_9838_" class="st0" d="M123.1,58.3c0.2,0.3,0.3,0.5,0.5,0.7c0,0.6,0,1.1,0,1.7c-0.3,0.2-0.6,0.2-0.8,0
			c-0.3-0.2-0.6-0.3-0.9-0.3c-0.2,0-0.4,0-0.6,0c-0.6,0-1.1,0.1-1.4,0.5c-0.2,0.3-0.3,0.6-0.5,1c0,0.6-0.1,1.3,0,2
			c0.1,0.9,0.6,1.5,1.4,1.9c0.6,0.3,1.3,0.3,2,0.1c0.6-0.2,1.2-0.5,1.8-0.7c0.3,0.2,0.2,0.5,0.1,0.7c-0.1,0.2-0.2,0.4-0.2,0.6
			c-0.1,0.6-0.4,1-0.8,1.3c-0.1,0.1-0.2,0.2-0.4,0.2c-0.5,0-0.9,0.1-1.3,0.3c-0.2,0.1-0.4,0.1-0.7,0.1c-0.4,0-0.7,0-1.1,0
			c-0.5,0-0.9-0.1-1.3-0.4c-0.7,0.2-1.1-0.3-1.6-0.6c-0.5-0.3-0.8-0.7-1.2-1.1c-0.1-0.1-0.1-0.3-0.2-0.5c-0.1-0.2-0.2-0.3-0.4-0.4
			c0-0.4-0.1-0.8-0.3-1.3c-0.2-0.6-0.2-1.2,0.1-1.7c0.1-0.1,0.1-0.2,0.1-0.3c0.1-1.3,0.9-2.2,2-2.9c0.4-0.3,0.8-0.6,1.4-0.6
			c0,0,0.1,0,0.1,0c0.6-0.5,1.4-0.3,2.1-0.4C121.7,58.3,122.4,58.3,123.1,58.3z"/>
		<path id="XMLID_9837_" class="st0" d="M19.2,81.3c-0.3-0.3-0.3-0.6-0.1-0.9c0.2-0.5,0.3-0.9,0.4-1.5c0-0.1,0.1-0.2,0.2-0.3
			c2.7,0,5.4,0,8,0c0.1,0,0.2,0.1,0.4,0.1c0.2,0.4,0,0.8,0,1.1c0,0.4-0.1,0.7-0.1,1.1c-0.5,0.3-0.5,0.3-1.1-0.1c-0.4,0-0.9,0-1.3,0
			c0,0.1-0.1,0.3-0.1,0.4c0,1.7,0,3.4,0,5.1c0,0.3,0,0.7,0.1,1c0.1,0.3,0.2,0.5,0.3,0.7c-0.1,0.3-0.3,0.3-0.6,0.3
			c-1.2,0-2.4,0-3.5,0c-0.2,0-0.4-0.1-0.6-0.1c0-0.1,0-0.2,0-0.2c0.4-0.7,0.5-1.5,0.5-2.3c0-1.5,0-3.1,0-4.6c0-0.1,0-0.1-0.1-0.2
			c-0.5,0-1,0-1.5,0C19.9,81,19.7,81.4,19.2,81.3z"/>
	</g>
</g>
</svg>
