<?xml version="1.0" encoding="utf-8"?>
<!-- Generator: Adobe Illustrator 22.0.0, SVG Export Plug-In . SVG Version: 6.00 Build 0)  -->
<svg version="1.1" id="Этикет_Черри" xmlns="http://www.w3.org/2000/svg" xmlns:xlink="http://www.w3.org/1999/xlink"
	 x="0px" y="0px" viewBox="0 0 22.9 6.5" style="enable-background:new 0 0 22.9 6.5;" xml:space="preserve">
<style type="text/css">
	.st0{fill:#F08A1D;}
	.st1{fill:#40A928;}
</style>
<g>
	<g>
		<g>
			<g>
				<path class="st0" d="M4.6,4.8c0-0.1,0-0.2,0-0.4C4.3,5.2,4,6.1,4,6.5c-0.1,0-0.1,0-0.2,0C3.5,6.5,3.4,6.3,3.4,6
					c0-0.4,0.3-1.5,0.9-2.7c0.4,0,0.8,0.1,0.9,0.3c0.1,0.2,0.1,0.4,0.1,0.7c0,0.2,0,0.4,0,0.7C5.6,4.4,6,3.8,6.6,3.3
					c0,0,0.1,0,0.1,0c0.4,0,0.7,0.2,0.7,0.5c0,0,0,0.1,0,0.1C6.9,4.9,6.6,5.9,6.6,6.4c0,0-0.2,0-0.2,0C6.1,6.5,5.9,6.3,5.9,6
					c0-0.3,0.1-0.8,0.4-1.5c-0.5,0.8-0.9,1.6-1,2c-0.1,0-0.1,0-0.2,0c-0.3,0-0.5-0.2-0.5-0.4C4.6,5.7,4.6,5.2,4.6,4.8z"/>
			</g>
			<g>
				<path class="st0" d="M9.8,4c0,0.3-0.1,0.6-0.1,0.9c-0.3,1-0.8,1.5-1.4,1.5c-0.3,0-0.5,0-0.7-0.2h0C7.3,6.1,7.2,5.9,7.2,5.5
					c0-0.9,0.7-2.3,1.6-2.3c0.2,0,0.5,0.1,0.7,0.2C9.7,3.6,9.8,3.8,9.8,4z M8.9,3.8c-0.1,0-0.2,0.1-0.3,0.3C8.2,4.6,8,5.3,8,5.7
					C8,5.9,8,6,8.1,6C8.5,6,9,4.7,9,4C9,3.9,9,3.8,8.9,3.8C8.9,3.8,8.9,3.8,8.9,3.8z"/>
			</g>
			<g>
				<path class="st0" d="M11.8,6.5c-0.1,0-0.1,0-0.2,0c-0.3,0-0.5-0.2-0.5-0.5c0-0.2,0.1-0.5,0.2-1c-0.2,0-0.3,0-0.5,0
					c-0.2,0.6-0.3,1.1-0.3,1.3l0,0c-0.1,0-0.1,0-0.2,0C10,6.5,9.9,6.3,9.9,6c0-0.2,0.1-0.5,0.2-0.9C9.9,5,9.9,4.9,9.9,4.8
					c0,0,0,0,0-0.1l0.3-0.1c0.1-0.4,0.3-0.8,0.6-1.3c0.4,0,0.6,0.1,0.6,0.4c0,0,0,0.1,0,0.1c-0.1,0.2-0.2,0.5-0.3,0.7
					c0.2,0,0.3,0,0.5,0h0c0.1-0.4,0.3-0.8,0.6-1.2c0.3,0,0.6,0.1,0.6,0.4c0,0,0,0.1,0,0.1h0C12.2,4.9,11.8,6,11.8,6.5L11.8,6.5z"/>
			</g>
			<g>
				<path class="st0" d="M13.5,6.5c-0.6,0-1-0.3-1-1c0-0.9,0.7-2.3,1.6-2.3c0.4,0,0.9,0.3,0.9,0.7c0,0.6-0.5,1.2-1.7,1.3
					c0,0.2-0.1,0.3-0.1,0.5c0,0.2,0.1,0.3,0.2,0.3c0.3,0,0.4-0.5,0.8-0.5c0.1,0,0.3,0,0.4,0.2C14.4,6.1,14,6.5,13.5,6.5z M13.5,4.8
					c0.6-0.2,0.8-0.5,0.8-0.7c0-0.2,0-0.2-0.1-0.2C14,3.8,13.6,4.5,13.5,4.8z"/>
			</g>
			<g>
				<path class="st0" d="M17.7,3.9c-0.2,0-0.4,0-0.6,0c-0.1,0-0.1,0-0.2,0c0,0,0,0,0,0.1c0,0,0,0.1,0,0.1h0
					c-0.5,1.1-0.8,1.9-0.8,2.4l0,0c-0.1,0-0.1,0-0.2,0c-0.3,0-0.5-0.2-0.5-0.5c0-0.4,0.2-1.1,0.7-2.1C16,3.9,15.8,4,15.6,4
					c-0.2,0-0.4-0.2-0.4-0.4c0,0,0-0.1,0-0.1c0.6-0.1,1.4-0.2,1.9-0.2c0.4,0,0.7,0,0.7,0.4C17.8,3.7,17.8,3.8,17.7,3.9L17.7,3.9z"/>
			</g>
			<g>
				<path class="st0" d="M19.6,6.3c-0.2,0.1-0.4,0.1-0.5,0.1c-0.4,0-0.7-0.5-0.8-1.1c-0.1,0.5-0.2,0.8-0.2,1l0,0c-0.1,0-0.1,0-0.2,0
					c-0.3,0-0.5-0.2-0.5-0.5c0-0.4,0.3-1.5,0.9-2.7c0.4,0,0.6,0.1,0.6,0.4c0,0,0,0.1,0,0.1h0c-0.1,0.3-0.3,0.6-0.4,0.8
					c0.5-0.4,1-0.9,1.3-1.4c0.3,0.1,0.4,0.3,0.4,0.4c0,0.4-0.8,1.1-1.3,1.4C19,5.5,19.2,5.9,19.6,6.3L19.6,6.3z"/>
			</g>
			<g>
				<path class="st0" d="M21.5,5.8c-0.3,0.3-0.6,0.5-0.9,0.5c-0.3,0-0.6-0.3-0.6-1c0-1.1,0.7-2.2,1.7-2.2c0.4,0,1.1,0.2,1.1,0.6
					c0,0,0,0.1,0,0.1c-0.4,1-0.6,1.9-0.6,2.4c0,0.1,0,0.1,0,0.2c-0.1,0-0.2,0-0.3,0c-0.3,0-0.5-0.2-0.5-0.5
					C21.5,6,21.5,5.9,21.5,5.8z M22.1,3.9c-0.1,0-0.1-0.1-0.2-0.1c-0.6,0-0.9,1.1-0.9,1.5c0,0.3,0.1,0.4,0.1,0.4
					c0.2,0,0.5-0.4,0.6-0.9C21.8,4.6,21.9,4.2,22.1,3.9z"/>
			</g>
		</g>
		<g>
			<g>
				<path class="st1" d="M2.1,0C0.9,0,0,0.9,0,2.1c0,0.3,0,0.5,0.1,0.7C0.3,3.4,1,4.4,2.9,5.7c0,0,0.2-1,0.9-2.4
					C4,2.9,4.2,2.5,4.2,2.1C4.2,0.9,3.3,0,2.1,0z M2.1,3.6C1.3,3.6,0.6,2.9,0.6,2c0-0.9,0.7-1.6,1.6-1.6C3,0.5,3.7,1.2,3.7,2
					C3.7,2.9,3,3.6,2.1,3.6z"/>
			</g>
		</g>
		<g>
			<path class="st1" d="M2.1,0.5c-0.8,0-1.5,0.7-1.5,1.5c0,0.8,0.7,1.5,1.5,1.5s1.5-0.7,1.5-1.5C3.6,1.2,3,0.5,2.1,0.5z M3.1,1.5
				c-0.3,0.5-0.4,1-0.4,1.3c0,0-0.1,0-0.1,0c-0.2,0-0.2-0.1-0.2-0.2c0-0.1,0.1-0.4,0.2-0.8c-0.3,0.4-0.5,0.8-0.5,1c0,0-0.1,0-0.1,0
				c-0.2,0-0.3-0.1-0.3-0.2c0-0.2,0-0.4,0-0.7c0-0.1,0-0.1,0-0.2C1.6,2.2,1.5,2.7,1.5,2.8c0,0-0.1,0-0.1,0c-0.2,0-0.2-0.1-0.2-0.2
				c0-0.2,0.1-0.7,0.5-1.4c0.2,0,0.4,0,0.4,0.2c0,0.1,0,0.2,0,0.3c0,0.1,0,0.2,0,0.3c0.1-0.3,0.4-0.6,0.7-0.8c0,0,0,0,0.1,0
				C3,1.2,3.2,1.4,3.1,1.5C3.2,1.5,3.1,1.5,3.1,1.5z"/>
		</g>
	</g>
</g>
</svg>
