<?xml version="1.0" encoding="utf-8"?>
<!-- Generator: Adobe Illustrator 22.0.0, SVG Export Plug-In . SVG Version: 6.00 Build 0)  -->
<svg version="1.1" id="txt" xmlns="http://www.w3.org/2000/svg" xmlns:xlink="http://www.w3.org/1999/xlink" x="0px" y="0px"
	 viewBox="0 0 102.5 105.1" style="enable-background:new 0 0 102.5 105.1;" xml:space="preserve">
<style type="text/css">
	.st0{fill:#450F00;}
	.st1{fill-rule:evenodd;clip-rule:evenodd;fill:#450F00;}
	.st2{fill:#FFFFFF;}
	.st3{fill-rule:evenodd;clip-rule:evenodd;fill:#FFFFFF;}
</style>
<g>
	<g>
		<path class="st0" d="M16,85.5h-1.4L14,83c-0.1-0.3-0.1-0.4-0.2-0.5c0-0.1-0.1-0.1-0.2-0.1h-0.2v-0.7h2v0.7h-0.1
			c-0.1,0-0.1,0-0.2,0s-0.1,0.1-0.1,0.2c0,0,0,0.1,0,0.1c0,0,0,0.1,0,0.1l0.4,1.7l0.5-1.7c0,0,0-0.1,0-0.1c0,0,0,0,0-0.1
			c0-0.1,0-0.1-0.1-0.2c0,0-0.1-0.1-0.2-0.1v-0.7h2v0.7h-0.1c-0.1,0-0.1,0-0.2,0c0,0,0,0.1,0,0.2c0,0,0,0.1,0,0.1c0,0,0,0.1,0,0.1
			l0.4,1.7l0.4-1.7c0,0,0,0,0-0.1c0,0,0,0,0-0.1c0-0.1,0-0.1-0.1-0.2c0,0-0.1-0.1-0.2-0.1v-0.7h1.5v0.7c-0.1,0-0.3,0-0.3,0.1
			c-0.1,0.1-0.1,0.2-0.2,0.3l-0.7,2.6h-1.4l-0.4-1.8L16,85.5z"/>
		<path class="st0" d="M22.2,85.5h-1.4L20.2,83c-0.1-0.3-0.1-0.4-0.2-0.5c0-0.1-0.1-0.1-0.2-0.1h-0.2v-0.7h2v0.7h-0.1
			c-0.1,0-0.1,0-0.2,0c0,0-0.1,0.1-0.1,0.2c0,0,0,0.1,0,0.1c0,0,0,0.1,0,0.1l0.4,1.7l0.5-1.7c0,0,0-0.1,0-0.1c0,0,0,0,0-0.1
			c0-0.1,0-0.1-0.1-0.2c0,0-0.1-0.1-0.2-0.1v-0.7h2v0.7h-0.1c-0.1,0-0.1,0-0.2,0c0,0,0,0.1,0,0.2c0,0,0,0.1,0,0.1c0,0,0,0.1,0,0.1
			l0.4,1.7l0.4-1.7c0,0,0,0,0-0.1c0,0,0,0,0-0.1c0-0.1,0-0.1-0.1-0.2c0,0-0.1-0.1-0.2-0.1v-0.7h1.5v0.7c-0.1,0-0.3,0-0.3,0.1
			c-0.1,0.1-0.1,0.2-0.2,0.3l-0.7,2.6h-1.4l-0.4-1.8L22.2,85.5z"/>
		<path class="st0" d="M28.4,85.5H27L26.4,83c-0.1-0.3-0.1-0.4-0.2-0.5c0-0.1-0.1-0.1-0.2-0.1h-0.2v-0.7h2v0.7h-0.1
			c-0.1,0-0.1,0-0.2,0c0,0-0.1,0.1-0.1,0.2c0,0,0,0.1,0,0.1c0,0,0,0.1,0,0.1l0.4,1.7l0.5-1.7c0,0,0-0.1,0-0.1c0,0,0,0,0-0.1
			c0-0.1,0-0.1-0.1-0.2c0,0-0.1-0.1-0.2-0.1v-0.7h2v0.7h-0.1c-0.1,0-0.1,0-0.2,0c0,0,0,0.1,0,0.2c0,0,0,0.1,0,0.1c0,0,0,0.1,0,0.1
			l0.4,1.7l0.4-1.7c0,0,0,0,0-0.1c0,0,0,0,0-0.1c0-0.1,0-0.1-0.1-0.2c0,0-0.1-0.1-0.2-0.1v-0.7H32v0.7c-0.1,0-0.3,0-0.3,0.1
			c-0.1,0.1-0.1,0.2-0.2,0.3l-0.7,2.6h-1.4l-0.4-1.8L28.4,85.5z"/>
		<path class="st0" d="M31.9,84.9c0-0.2,0.1-0.4,0.2-0.5c0.1-0.1,0.3-0.2,0.5-0.2c0.2,0,0.3,0.1,0.5,0.2c0.1,0.1,0.2,0.3,0.2,0.5
			c0,0.2-0.1,0.4-0.2,0.5c-0.1,0.1-0.3,0.2-0.5,0.2c-0.2,0-0.3-0.1-0.5-0.2C31.9,85.3,31.9,85.1,31.9,84.9z"/>
		<path class="st0" d="M35.7,82.3c0.2-0.2,0.3-0.4,0.5-0.5c0.2-0.1,0.4-0.2,0.6-0.2c0.5,0,0.8,0.2,1.1,0.5c0.2,0.3,0.4,0.8,0.4,1.5
			c0,0.6-0.1,1.1-0.4,1.5c-0.3,0.4-0.6,0.6-1,0.6c-0.2,0-0.4,0-0.6-0.1c-0.2-0.1-0.3-0.2-0.5-0.4v1.1c0,0.1,0,0.2,0.1,0.3
			c0,0.1,0.1,0.1,0.3,0.1h0.1v0.7h-2.4v-0.7h0.2c0.1,0,0.2,0,0.3-0.1c0,0,0.1-0.1,0.1-0.3v-3.3c0-0.2,0-0.3-0.1-0.3
			c0,0-0.1-0.1-0.3-0.1h-0.2v-0.7h1.8V82.3z M35.8,83.6c0,0.4,0,0.7,0.1,0.9c0.1,0.2,0.2,0.3,0.4,0.3c0.2,0,0.3-0.1,0.3-0.3
			c0.1-0.2,0.1-0.5,0.1-0.9c0-0.4,0-0.7-0.1-0.9c-0.1-0.2-0.2-0.3-0.3-0.3c-0.2,0-0.3,0.1-0.4,0.3C35.9,82.9,35.8,83.2,35.8,83.6z"
			/>
		<path class="st0" d="M40.5,82.1c0.1-0.2,0.3-0.3,0.4-0.4c0.1-0.1,0.3-0.1,0.5-0.1c0.3,0,0.5,0.1,0.6,0.3c0.2,0.2,0.2,0.4,0.2,0.7
			c0,0.2-0.1,0.4-0.2,0.6c-0.1,0.1-0.3,0.2-0.5,0.2c-0.2,0-0.3-0.1-0.4-0.2c-0.1-0.1-0.2-0.3-0.2-0.4c0-0.1,0-0.2,0.1-0.3
			c0.1-0.1,0.1-0.2,0.2-0.2c0,0-0.1,0-0.1,0c0,0-0.1,0-0.1,0c-0.2,0-0.3,0.1-0.5,0.3c-0.1,0.2-0.2,0.5-0.2,0.8v1.1
			c0,0.2,0,0.3,0.1,0.3c0,0,0.1,0.1,0.3,0.1h0.2v0.7h-2.4v-0.7h0.1c0.1,0,0.2,0,0.3-0.1c0,0,0.1-0.1,0.1-0.3v-1.6
			c0-0.2,0-0.3-0.1-0.3c0,0-0.1-0.1-0.3-0.1h-0.1v-0.7h1.8V82.1z"/>
		<path class="st0" d="M44.7,81.6c0.6,0,1.1,0.2,1.5,0.5c0.4,0.4,0.6,0.9,0.6,1.5c0,0.6-0.2,1.1-0.5,1.5c-0.4,0.4-0.9,0.5-1.5,0.5
			c-0.6,0-1.1-0.2-1.5-0.5c-0.4-0.4-0.5-0.9-0.5-1.5c0-0.6,0.2-1.1,0.5-1.5C43.5,81.8,44,81.6,44.7,81.6z M45.2,83.6
			c0-0.5,0-0.8-0.1-1c-0.1-0.2-0.2-0.3-0.4-0.3c-0.2,0-0.3,0.1-0.4,0.3c-0.1,0.2-0.1,0.5-0.1,1c0,0.5,0,0.8,0.1,1
			c0.1,0.2,0.2,0.3,0.4,0.3c0.2,0,0.3-0.1,0.4-0.3C45.2,84.5,45.2,84.1,45.2,83.6z"/>
		<path class="st0" d="M49.6,81.2c0-0.2,0-0.3-0.1-0.3c-0.1-0.1-0.2-0.1-0.3-0.1c0,0,0,0-0.1,0c0,0-0.1,0-0.1,0v-0.7h2v4.3
			c0,0.2,0,0.3,0.1,0.3c0,0,0.1,0.1,0.2,0.1h0.2v0.7h-1.8V85c-0.2,0.2-0.3,0.4-0.5,0.5c-0.2,0.1-0.4,0.2-0.6,0.2
			c-0.5,0-0.8-0.2-1.1-0.5c-0.2-0.3-0.4-0.8-0.4-1.5c0-0.6,0.1-1.1,0.4-1.5c0.2-0.4,0.6-0.6,1-0.6c0.2,0,0.4,0,0.6,0.1
			c0.2,0.1,0.3,0.2,0.5,0.4V81.2z M49.6,83.6c0-0.4,0-0.7-0.1-0.9c-0.1-0.2-0.2-0.3-0.4-0.3c-0.2,0-0.3,0.1-0.3,0.3
			c-0.1,0.2-0.1,0.5-0.1,0.9c0,0.4,0,0.7,0.1,0.9c0.1,0.2,0.2,0.3,0.3,0.3c0.2,0,0.3-0.1,0.4-0.3C49.6,84.3,49.6,84,49.6,83.6z"/>
		<path class="st0" d="M54.6,82.8C54.6,82.8,54.6,82.8,54.6,82.8c0-0.1,0-0.1,0-0.1c0-0.1,0-0.1-0.1-0.2c-0.1,0-0.2-0.1-0.3-0.1
			v-0.7h1.6v0.7h0c-0.1,0-0.3,0-0.3,0.1c-0.1,0.1-0.1,0.2-0.2,0.3l-0.8,2.6H53l-0.8-2.7c0-0.2-0.1-0.3-0.1-0.3c0,0-0.1-0.1-0.2-0.1
			h-0.1v-0.7H54v0.7h-0.1c-0.1,0-0.2,0-0.2,0c0,0-0.1,0.1-0.1,0.2c0,0,0,0,0,0.1c0,0,0,0.1,0,0.1l0.5,1.7L54.6,82.8z"/>
		<path class="st0" d="M58.5,85.1c-0.1,0.2-0.3,0.3-0.5,0.4c-0.2,0.1-0.5,0.1-0.7,0.1c-0.4,0-0.6-0.1-0.8-0.3
			c-0.2-0.2-0.3-0.4-0.3-0.8c0-0.3,0.1-0.6,0.3-0.8c0.2-0.2,0.5-0.3,1-0.4c0.4-0.1,0.7-0.2,0.8-0.3c0.1-0.1,0.2-0.2,0.2-0.4
			c0-0.2-0.1-0.3-0.2-0.5c-0.1-0.1-0.3-0.2-0.5-0.2c-0.1,0-0.1,0-0.2,0c-0.1,0-0.1,0.1-0.2,0.1c0.1,0,0.2,0.1,0.3,0.2
			c0.1,0.1,0.1,0.2,0.1,0.3c0,0.2-0.1,0.3-0.2,0.4c-0.1,0.1-0.3,0.2-0.5,0.2c-0.2,0-0.4-0.1-0.5-0.2c-0.1-0.1-0.2-0.3-0.2-0.5
			c0-0.3,0.2-0.6,0.5-0.8c0.3-0.2,0.7-0.3,1.3-0.3c0.3,0,0.6,0,0.8,0.1c0.2,0.1,0.4,0.1,0.5,0.2c0.1,0.1,0.2,0.2,0.3,0.4
			c0.1,0.1,0.1,0.4,0.1,0.7v1.5c0,0.1,0,0.2,0,0.2c0,0,0.1,0,0.1,0s0.1,0,0.1,0c0,0,0-0.1,0-0.2V84h0.5v0.5c0,0.4-0.1,0.7-0.3,0.9
			c-0.2,0.2-0.4,0.3-0.8,0.3c-0.2,0-0.4,0-0.5-0.1C58.7,85.4,58.6,85.3,58.5,85.1z M58.3,83.8c-0.1,0.1-0.2,0.1-0.3,0.2
			c-0.3,0.2-0.5,0.3-0.5,0.5c0,0.1,0,0.2,0.1,0.3c0.1,0.1,0.2,0.1,0.3,0.1c0.1,0,0.2,0,0.3-0.1c0.1-0.1,0.1-0.2,0.1-0.4v0L58.3,83.8
			z"/>
		<path class="st0" d="M61.3,84.2C61.1,84,61,83.9,61,83.7c-0.1-0.2-0.1-0.4-0.1-0.6c0-0.5,0.1-0.9,0.5-1.1c0.3-0.3,0.7-0.4,1.3-0.4
			c0.2,0,0.3,0,0.5,0.1c0.2,0,0.3,0.1,0.5,0.2c0.1-0.1,0.2-0.2,0.4-0.2c0.1,0,0.3-0.1,0.4-0.1c0.3,0,0.5,0.1,0.6,0.2
			c0.2,0.1,0.2,0.3,0.2,0.6c0,0.2,0,0.3-0.1,0.4c-0.1,0.1-0.2,0.2-0.4,0.2c-0.2,0-0.3,0-0.4-0.1c-0.1-0.1-0.2-0.2-0.2-0.3
			c0-0.1,0-0.2,0.1-0.2c0-0.1,0.1-0.1,0.2-0.2c0,0-0.1-0.1-0.1-0.1c0,0-0.1,0-0.1,0c-0.1,0-0.1,0-0.2,0.1c-0.1,0-0.1,0.1-0.2,0.2
			c0.1,0.1,0.2,0.3,0.2,0.4c0,0.2,0.1,0.3,0.1,0.5c0,0.5-0.2,0.8-0.5,1.1c-0.3,0.3-0.7,0.4-1.2,0.4c-0.1,0-0.2,0-0.3,0
			c-0.1,0-0.2-0.1-0.3-0.1c0,0-0.1,0.1-0.1,0.1c0,0,0,0.1,0,0.1c0,0.1,0,0.1,0.1,0.2c0.1,0,0.2,0,0.4,0c0.2,0,0.4,0,0.7,0
			c0.3,0,0.5,0,0.6,0c0.5,0,0.8,0.1,1,0.2c0.2,0.2,0.3,0.4,0.3,0.8c0,0.4-0.2,0.7-0.5,0.9c-0.3,0.2-0.9,0.3-1.6,0.3
			c-0.7,0-1.2-0.1-1.5-0.2c-0.3-0.1-0.5-0.4-0.5-0.7c0-0.1,0-0.3,0.1-0.4c0.1-0.1,0.2-0.2,0.3-0.3c-0.1-0.1-0.2-0.2-0.3-0.3
			c-0.1-0.1-0.1-0.3-0.1-0.4c0-0.2,0-0.3,0.1-0.5C61,84.4,61.1,84.3,61.3,84.2z M61.7,86.4c0,0.1,0.1,0.2,0.2,0.2
			c0.2,0,0.4,0.1,0.8,0.1c0.3,0,0.6,0,0.7-0.1c0.1,0,0.2-0.1,0.2-0.2c0-0.1-0.1-0.2-0.2-0.2c-0.1,0-0.4-0.1-0.8-0.1
			c-0.4,0-0.7,0-0.8,0.1C61.8,86.2,61.7,86.3,61.7,86.4z M62.5,84.1c0.1,0,0.2-0.1,0.2-0.2c0-0.2,0.1-0.4,0.1-0.8
			c0-0.3,0-0.6-0.1-0.7c0-0.1-0.1-0.2-0.2-0.2c-0.1,0-0.2,0.1-0.3,0.2c-0.1,0.2-0.1,0.4-0.1,0.8c0,0.3,0,0.6,0.1,0.7
			C62.3,84.1,62.4,84.1,62.5,84.1z"/>
		<path class="st0" d="M67.4,81.6c0.6,0,1.1,0.2,1.5,0.5c0.4,0.4,0.6,0.9,0.6,1.5c0,0.6-0.2,1.1-0.5,1.5c-0.4,0.4-0.9,0.5-1.5,0.5
			c-0.6,0-1.1-0.2-1.5-0.5c-0.4-0.4-0.5-0.9-0.5-1.5c0-0.6,0.2-1.1,0.5-1.5C66.3,81.8,66.8,81.6,67.4,81.6z M67.9,83.6
			c0-0.5,0-0.8-0.1-1c-0.1-0.2-0.2-0.3-0.4-0.3c-0.2,0-0.3,0.1-0.4,0.3c-0.1,0.2-0.1,0.5-0.1,1c0,0.5,0,0.8,0.1,1
			c0.1,0.2,0.2,0.3,0.4,0.3c0.2,0,0.3-0.1,0.4-0.3C67.9,84.5,67.9,84.1,67.9,83.6z"/>
		<path class="st0" d="M74.1,84.4c0,0.2,0,0.3,0.1,0.3c0,0,0.1,0.1,0.3,0.1h0.1v0.7h-2.2v-0.7h0.1c0.1,0,0.2,0,0.2-0.1
			c0,0,0.1-0.1,0.1-0.3v-1.4c0-0.2,0-0.4-0.1-0.5c-0.1-0.1-0.2-0.2-0.3-0.2c-0.2,0-0.3,0.1-0.4,0.2c-0.1,0.1-0.1,0.3-0.1,0.6v1.2
			c0,0.2,0,0.3,0.1,0.3c0,0,0.1,0.1,0.2,0.1h0.1v0.7h-2.3v-0.7H70c0.1,0,0.2,0,0.3-0.1c0,0,0.1-0.1,0.1-0.3v-1.6
			c0-0.2,0-0.3-0.1-0.3c0,0-0.1-0.1-0.3-0.1h-0.2v-0.7h1.9v0.6c0.2-0.2,0.3-0.4,0.5-0.5c0.2-0.1,0.4-0.2,0.7-0.2
			c0.4,0,0.7,0.1,0.9,0.3c0.2,0.2,0.3,0.6,0.3,1.1V84.4z"/>
		<path class="st0" d="M75.3,84.9c0-0.2,0.1-0.4,0.2-0.5c0.1-0.1,0.3-0.2,0.5-0.2c0.2,0,0.3,0.1,0.5,0.2c0.1,0.1,0.2,0.3,0.2,0.5
			c0,0.2-0.1,0.4-0.2,0.5c-0.1,0.1-0.3,0.2-0.5,0.2c-0.2,0-0.3-0.1-0.5-0.2C75.4,85.3,75.3,85.1,75.3,84.9z"/>
		<path class="st0" d="M79.2,82.1c0.1-0.2,0.3-0.3,0.4-0.4c0.1-0.1,0.3-0.1,0.5-0.1c0.3,0,0.5,0.1,0.6,0.3c0.2,0.2,0.2,0.4,0.2,0.7
			c0,0.2-0.1,0.4-0.2,0.6c-0.1,0.1-0.3,0.2-0.5,0.2c-0.2,0-0.3-0.1-0.4-0.2c-0.1-0.1-0.2-0.3-0.2-0.4c0-0.1,0-0.2,0.1-0.3
			c0.1-0.1,0.1-0.2,0.2-0.2c0,0-0.1,0-0.1,0c0,0-0.1,0-0.1,0c-0.2,0-0.3,0.1-0.5,0.3c-0.1,0.2-0.2,0.5-0.2,0.8v1.1
			c0,0.2,0,0.3,0.1,0.3c0,0,0.1,0.1,0.3,0.1h0.2v0.7h-2.4v-0.7h0.1c0.1,0,0.2,0,0.3-0.1c0,0,0.1-0.1,0.1-0.3v-1.6
			c0-0.2,0-0.3-0.1-0.3c0,0-0.1-0.1-0.3-0.1h-0.1v-0.7h1.8V82.1z"/>
		<path class="st0" d="M84.2,85c-0.2,0.2-0.3,0.4-0.5,0.5c-0.2,0.1-0.4,0.2-0.7,0.2c-0.4,0-0.7-0.1-0.9-0.3
			c-0.2-0.2-0.3-0.6-0.3-1.1v-1.4c0-0.2,0-0.3-0.1-0.3c0,0-0.1-0.1-0.3-0.1h-0.1v-0.7h1.8v2.4c0,0.2,0,0.4,0.1,0.5
			c0.1,0.1,0.2,0.2,0.3,0.2c0.2,0,0.3-0.1,0.4-0.2c0.1-0.1,0.1-0.3,0.1-0.6v-1.2c0-0.2,0-0.3-0.1-0.3c0,0-0.1-0.1-0.3-0.1h-0.1v-0.7
			h1.9v2.7c0,0.2,0,0.3,0.1,0.3c0,0,0.1,0.1,0.3,0.1H86v0.7h-1.8V85z"/>
	</g>
	<g>
		<polygon class="st1" points="47.3,0 50.2,2.6 53.3,0.3 55.8,3.3 59.2,1.5 61.2,4.8 64.9,3.6 66.3,7.2 70.1,6.5 70.9,10.3 
			74.8,10.3 75,14.2 78.9,14.8 78.5,18.6 82.2,19.8 81.2,23.5 84.7,25.3 83.1,28.8 86.3,31.1 84.2,34.4 87,37.1 84.4,40 86.7,43.1 
			83.7,45.6 85.5,49 82.2,51 83.4,54.7 79.8,56.1 80.4,59.9 76.7,60.7 76.7,64.6 72.8,64.9 72.3,68.7 68.4,68.3 67.2,72 63.5,71.1 
			61.8,74.5 58.2,73 56,76.1 52.7,74.1 50,76.8 47.1,74.3 44,76.6 41.5,73.6 38.1,75.4 36.1,72 32.5,73.2 31,69.6 27.2,70.3 
			26.4,66.5 22.5,66.5 22.3,62.6 18.4,62.1 18.8,58.2 15.1,57 16.1,53.3 12.6,51.6 14.2,48 11,45.7 13.1,42.5 10.3,39.8 12.9,36.9 
			10.6,33.7 13.6,31.3 11.8,27.8 15.1,25.8 13.9,22.2 17.5,20.8 16.9,16.9 20.7,16.1 20.6,12.2 24.5,12 25.1,8.1 28.9,8.5 30.1,4.8 
			33.8,5.8 35.5,2.3 39.1,3.8 41.3,0.7 44.6,2.8 		"/>
		<path class="st2" d="M48.8,64.8c-14.4,0-26.2-11.8-26.2-26.3c0-14.5,11.7-26.3,26.2-26.3C63.2,12.2,75,24,75,38.5
			C75,53,63.2,64.8,48.8,64.8z M48.8,12.9c-14.1,0-25.5,11.5-25.5,25.6c0,14.1,11.4,25.6,25.5,25.6c14.1,0,25.5-11.5,25.5-25.6
			C74.3,24.4,62.9,12.9,48.8,12.9z"/>
		<g>
			<path class="st3" d="M62.9,34.3l0.6-5.8c-1.3-0.1-2.6,0.2-3.8,1.2c-1.2,0.9-1.1,1.7-0.4,2.7C59.9,33.3,61.3,34.5,62.9,34.3z"/>
			<path class="st2" d="M62.6,34.6L62.6,34.6c-1.5,0-2.8-1.1-3.5-2c-0.8-1.2-0.7-2.1,0.4-3c1-0.8,2.2-1.2,3.6-1.2c0.1,0,0.2,0,0.4,0
				c0.1,0,0.1,0,0.2,0.1c0,0,0.1,0.1,0.1,0.2l-0.6,5.8c0,0.1-0.1,0.2-0.2,0.2C62.8,34.6,62.7,34.6,62.6,34.6z M63.1,28.8
				c-0.9,0-2.1,0.2-3.3,1.1c-1.1,0.9-0.9,1.6-0.4,2.4c0.6,0.9,1.8,1.8,3.2,1.8h0c0,0,0,0,0.1,0l0.5-5.3
				C63.2,28.8,63.1,28.8,63.1,28.8z"/>
		</g>
		<path class="st2" d="M63.2,34.6c-0.3,0-0.6-0.1-0.8-0.4c-0.5-0.5-0.8-1.6-0.7-2.7c0.1-1.7,0.9-3.1,1.8-3.1c0.3,0,0.6,0.1,0.8,0.4
			c0.5,0.5,0.8,1.6,0.7,2.7C64.9,33.2,64.1,34.6,63.2,34.6z M63.5,28.8c-0.6,0-1.3,1.1-1.4,2.7c-0.1,1,0.2,2,0.6,2.4
			c0.1,0.2,0.3,0.2,0.5,0.2c0.6,0,1.3-1.1,1.4-2.7c0.1-1-0.2-2-0.6-2.4C63.8,28.9,63.6,28.8,63.5,28.8z"/>
		<path class="st1" d="M63.2,34.3c-0.8,0-1.4-1.3-1.3-2.9c0.1-1.6,0.8-2.9,1.6-2.9c0.8,0,1.4,1.3,1.3,2.9
			C64.7,33.1,64,34.3,63.2,34.3z"/>
		<path class="st0" d="M63.4,33.7c-0.2,0-0.5-0.1-0.6-0.3c-0.4-0.5-0.4-1.3-0.4-1.9c0.1-1.1,0.3-1.9,0.7-2.2c0.4-0.3,1.2,0,1.7,0.6
			c0.4,0.5,0.6,1,0.5,1.6C65.1,32.8,64.1,33.7,63.4,33.7z M63.4,29.7C63.4,29.7,63.3,29.7,63.4,29.7c-0.3,0.2-0.5,0.9-0.6,1.9
			c0,0.7,0.1,1.3,0.3,1.6c0,0.1,0.1,0.1,0.2,0.1c0.5,0,1.3-0.8,1.5-1.8c0.1-0.6-0.2-1-0.4-1.3C64.1,29.9,63.7,29.7,63.4,29.7z"/>
		<path class="st3" d="M63,33.3c-0.3-0.4-0.4-1-0.4-1.8c0.1-0.7,0.2-1.7,0.6-2c0.4-0.3,2,0.6,1.9,2C64.9,33,63.4,34,63,33.3z"/>
		<path class="st1" d="M48.3,28.7c-5-1-7.2,5.7-7.2,7.4c0,1.7,0,3.9,0,3.9l1.5,3l5.2,0.6l3.4,3.7l9.5-0.1l1.3-15.7L48.3,28.7z"/>
		<path class="st3" d="M51.5,28.9l10.8,2.2L61,47.6l-9.5,0.1v-0.8l8.8-0.1l1.2-15l-10-2V28.9z M51,47.7L47.6,44l-5.3-0.6l-1.6-3.2
			l0-0.1c0,0,0-2.2,0-3.9c0-1.8,2-7.9,6.6-7.9c0.4,0,0.7,0,1.1,0.1l3.1,0.6v0.8l-3.2-0.7C47.9,29,47.6,29,47.3,29
			c-4,0-5.8,5.7-5.8,7.2c0,1.5,0,3.4,0,3.8l1.3,2.7l5.1,0.6l3.4,3.6l0.2,0v0.8L51,47.7z"/>
		<g>
			<path class="st3" d="M42.3,46c2-1,3.2-2.1,5-0.6c0.6,0.5,1.1,1.1,1.6,1.7c0.3,0.3,0.7,0.6,1,0.9c0.1,0.1,0.5,0.2,0.6,0.4
				c0.4,0.7-1,4.2-0.9,5.5c-0.5,0.8-2.8,1.4-3.6,1.8C50.3,53.2,47.4,43.6,42.3,46z"/>
			<path class="st0" d="M46,55.9l-0.2-0.4c2-1.1,2.4-3.8,1.8-5.9c-0.4-1.7-1.7-3.7-3.7-3.7c-0.5,0-1,0.1-1.5,0.4l-0.2-0.4
				c0.3-0.1,0.6-0.3,0.8-0.4c0.9-0.5,1.7-0.9,2.5-0.9c0.6,0,1.3,0.3,1.9,0.8c0.4,0.3,0.7,0.7,1.1,1.1c0.2,0.2,0.4,0.4,0.6,0.6
				c0.1,0.1,0.2,0.2,0.4,0.3c0.2,0.2,0.4,0.4,0.6,0.6c0,0,0.1,0.1,0.2,0.1c0.2,0.1,0.3,0.1,0.4,0.3c0.2,0.4,0,1.5-0.4,3.1
				c-0.2,1-0.5,1.9-0.5,2.5l0,0.1c-0.4,0.6-1.6,1.1-2.7,1.5C46.6,55.6,46.2,55.8,46,55.9z M43.9,45.4c1.9,0,3.5,1.6,4.1,4.1
				c0.5,1.8,0.3,4-0.9,5.5c0.8-0.3,1.8-0.7,2.1-1.1c0-0.6,0.3-1.5,0.5-2.5c0.3-1,0.6-2.5,0.5-2.8c0,0-0.1-0.1-0.2-0.1
				c-0.1-0.1-0.3-0.1-0.4-0.2c-0.1-0.2-0.3-0.4-0.5-0.5c-0.1-0.1-0.3-0.3-0.4-0.4c-0.2-0.2-0.4-0.4-0.6-0.6c-0.3-0.4-0.6-0.7-1-1
				C46,44.7,45.1,44.8,43.9,45.4z"/>
		</g>
		<g>
			<path class="st3" d="M31.6,38.7c0.9-0.5,1.8-0.9,2.8-1.4c1.4-0.7,1.7-1,2.9,0.3c1.3,1.3,2.6,2.8,3.3,4.6c0.7,1.8,0.7,2.7,2.8,2.3
				c-0.6,4.1-4.2,5.1-7.5,6.8C41.6,48.4,38,35.5,31.6,38.7z"/>
			<path class="st0" d="M35.9,51.5l-0.2-0.4c2.7-1.4,3.2-4.9,2.5-7.8c-0.5-2.3-2.1-4.9-4.6-4.9c-0.6,0-1.2,0.2-1.9,0.5l-0.2-0.4h0
				l0,0l3-1.5c0.6-0.3,1-0.5,1.4-0.5c0.5,0,1,0.4,1.6,1c1.4,1.4,2.6,2.9,3.3,4.6c0.1,0.2,0.2,0.4,0.2,0.6c0.5,1.4,0.7,1.9,2.3,1.5
				l0.3,0.3c-0.5,3.7-3.3,4.9-6.2,6.3C36.9,51.1,36.4,51.3,35.9,51.5z M33.6,38c2.3,0,4.3,2.1,5.1,5.3c0.6,2.4,0.4,5.2-1.2,7
				c2.6-1.2,5-2.4,5.6-5.5c-1.7,0.3-2-0.6-2.5-1.9c-0.1-0.2-0.1-0.4-0.2-0.6c-0.7-1.7-1.9-3.1-3.2-4.5c-1.1-1.2-1.3-1-2.4-0.4
				L33.6,38C33.6,38,33.6,38,33.6,38z"/>
		</g>
		<polygon class="st2" points="28.6,41.2 27.9,41.2 28.1,32.5 28.7,32.5 		"/>
		<path class="st2" d="M28.4,32.9l-0.1-0.7c2.7-0.4,4.1-2.3,4.2-5.7l0.7,0C33.1,31.2,30.6,32.6,28.4,32.9z"/>
		<rect x="36.8" y="30.9" transform="matrix(9.504992e-03 -1 1 9.504992e-03 9.2106 71.7728)" class="st2" width="8" height="0.7"/>
		<path class="st0" d="M57.4,58c-3,0-5.4-0.6-6.4-0.9c-1.9-0.6-2.1-1.1-2.1-2.5l0-0.3c-0.1-1.7,0.3-4.1,1.1-6l1.2,0.5
			c-0.9,2.2-1.1,4.3-1,5.5l0,0.3c0.1,1,0.1,1,1.2,1.3c1.1,0.3,4,1.1,7.5,0.8c3.2-0.2,5.4-1.4,6.2-1.9c0.9-0.6,2.3-1.8,1.9-3.3
			c-0.5-1.9-2.6-5.1-3.5-5.7l0.7-1.1c1.5,0.9,3.6,4.5,4.1,6.5c0.4,1.7-0.5,3.5-2.5,4.8c-1.1,0.7-3.4,1.9-6.8,2.1
			C58.4,58,57.9,58,57.4,58z"/>
		<path class="st3" d="M63.8,45.1l-13.2,3.3c-0.8,2.1-1.1,4.3-1.1,5.8c0.1,1.4,0,1.7,1.7,2.2c1.7,0.5,4.6,1.1,7.7,0.9
			c3.1-0.2,5.3-1.3,6.5-2c1.1-0.7,2.7-2.1,2.2-4.1C67.1,49.3,65,45.9,63.8,45.1z"/>
		<path class="st0" d="M55.5,49.9c-1.2,0-2.6-0.1-3.9-0.4c-2-0.5-2.4-1-3.6-2.3c-0.3-0.3-0.5-0.6-0.9-1c-1.5-1.6-3.3-1.2-4.1-1
			c-0.1,0-0.2,0-0.2,0.1c-1.4,0.3-2.2-0.4-2.7-2.3c-0.4-1.8-2.6-4.1-3.3-4.9c-0.7-0.8-2.8-2.1-3.9-1.7c-1.1,0.4-1.7,1.6-2.5,3.1
			c-0.1,0.3-0.3,0.5-0.4,0.8c-1.1,2.2-2,2.2-2.4,2c-0.2-0.1-0.3-0.3-0.4-0.5c0-0.2,0-0.4,0.2-0.6c0,0,0.7-0.6,0.9-1.7
			c0-0.1,0.1-0.3,0.1-0.4c0.3-1.5,0.9-5,4.9-6c4.1-1,6.5,1.2,7.9,2.5l0.3,0.3c1.2,1,2.1,3.6,2.4,4.9c0.8-0.2,2.2-0.4,3.3,0
			c1.6,0.6,3.5,1.4,4.6,3.1c0.9,1.4,1.2,1.5,2.1,1.7c1,0.2,2.8,0.2,3.3,0.1l0.4,1.3c-0.9,0.3-2.9,0.3-4.1,0c-1.3-0.3-1.9-0.7-3-2.3
			c-0.8-1.3-2.5-2-3.9-2.5c-1-0.4-2.6,0-3.1,0.2c-0.2,0.1-0.4,0-0.5,0c-0.2-0.1-0.3-0.2-0.3-0.4c-0.3-1.1-1.2-4-2.2-4.9l-0.3-0.3
			c-1.3-1.2-3.3-3-6.7-2.2c-1.7,0.4-2.6,1.3-3.1,2.4c0.5-0.8,1.2-1.4,2.1-1.7c2-0.7,4.5,1.1,5.3,2c1.3,1.4,3.2,3.5,3.6,5.5
			c0.4,1.5,0.7,1.4,1.1,1.3l0.2,0c0.9-0.2,3.3-0.8,5.4,1.4c0.4,0.4,0.7,0.7,0.9,1c1.1,1.2,1.4,1.5,2.9,1.9c2,0.5,4.3,0.5,5.7,0.3
			c1.6-0.2,3.8-1.1,4.7-2.1c0.9-1,0.8-1.7,0.8-1.8l1-0.9c0.5,0.6,0.7,2-0.8,3.6c-1.4,1.6-4.2,2.3-5.5,2.5
			C57.2,49.9,56.3,49.9,55.5,49.9z"/>
		<path class="st3" d="M63.6,44.1l-6.2,2.3c-0.7,0.2-2.6,0.2-3.7,0c-1.1-0.3-1.6-0.5-2.5-2c-0.9-1.5-2.8-2.3-4.2-2.8
			c-1.5-0.5-3.5,0.2-3.5,0.2s-1-4-2.4-5.2c-1.4-1.2-3.6-3.5-7.6-2.6c-4,0.9-4.2,4.7-4.5,5.9c-0.3,1.3-1.1,2-1.1,2s0.6,0.3,1.6-1.7
			c1-1.9,1.6-3.7,3.3-4.2c1.6-0.5,3.9,1,4.6,1.8c0.8,0.8,3,3.2,3.5,5.2c0.5,2,1.2,2,1.9,1.8c0.7-0.1,3-0.9,4.9,1.1
			c2,2.1,2,2.5,4.1,3c2.1,0.5,4.5,0.5,5.9,0.3c1.5-0.2,3.9-1,5.1-2.3C64,45.5,63.9,44.4,63.6,44.1z"/>
		<path class="st1" d="M63.2,48.5l2.3,5.3l1.3-0.8l-2.9-5.1l-0.7,0.5V48.5L63.2,48.5z M63.2,54.5v-0.2V54.5L63.2,54.5z M63.1,48.3
			l0.1,0.2L63.1,48.3L63.1,48.3L63.1,48.3z M63.2,54.3v0.2l-1.7,0.5l-1.2-5.2l1.1-0.6L63.2,54.3L63.2,54.3z M56.9,50.5l0.4,5l2.1,0
			l-1.1-5.1H56.9L56.9,50.5z M53.2,50.4L52.7,55l1.9,0.3l-0.2-4.6L53.2,50.4z"/>
		<g>
			<path class="st3" d="M33.3,38.3c2.8,0,5.3,3,5.5,6.7c0.2,3.7-1.9,6.7-4.7,6.7c-2.8,0-5.3-3-5.5-6.7
				C28.4,41.3,30.5,38.3,33.3,38.3z"/>
			<path class="st0" d="M34.1,52.1c-3,0-5.6-3.2-5.8-7c-0.1-2.2,0.5-4.3,1.8-5.6c0.9-1,2-1.5,3.2-1.5c3,0,5.6,3.2,5.8,7
				c0.1,2.2-0.5,4.3-1.8,5.6C36.4,51.6,35.3,52.1,34.1,52.1z M33.3,38.6c-1,0-2,0.4-2.7,1.2C29.5,41.1,28.8,43,29,45
				c0.2,3.5,2.5,6.4,5.1,6.4c1,0,2-0.4,2.7-1.2c1.1-1.2,1.7-3.1,1.6-5.1C38.3,41.5,35.9,38.6,33.3,38.6z"/>
		</g>
		<path class="st1" d="M33.3,43.1c0.8,0,1.5,0.8,1.5,1.9c0.1,1-0.5,1.9-1.3,1.9c-0.8,0-1.5-0.8-1.5-1.9C31.9,44,32.5,43.1,33.3,43.1
			z"/>
		<g>
			<path class="st3" d="M43.7,45.7c2.3,0,4.3,2.3,4.4,5.2c0.2,2.9-1.5,5.2-3.8,5.2c-2.3,0-4.3-2.3-4.4-5.2
				C39.7,48,41.4,45.7,43.7,45.7z"/>
			<path class="st0" d="M44.3,56.4c-2.4,0-4.6-2.5-4.8-5.5c-0.1-1.7,0.4-3.3,1.4-4.3c0.7-0.8,1.7-1.2,2.7-1.2c2.4,0,4.6,2.5,4.8,5.5
				c0.1,1.7-0.4,3.3-1.4,4.3C46.3,56,45.3,56.4,44.3,56.4z M43.7,46.1c-0.8,0-1.6,0.4-2.2,1c-0.9,0.9-1.3,2.3-1.2,3.8
				c0.2,2.7,2,4.9,4.1,4.9c0.8,0,1.6-0.4,2.2-1c0.9-0.9,1.3-2.3,1.2-3.8C47.6,48.2,45.8,46.1,43.7,46.1z"/>
		</g>
		<g>
			<path class="st3" d="M42,49c1.3,0,2.5,1.4,2.6,3c0.1,1.7-0.9,3-2.2,3c-0.6,0-1.4-0.3-1.7-0.8c-0.4-0.8-0.6-0.8-1.4-1.2L33.7,51
				c-0.5-0.2-0.8-0.3-1.5,0c-0.2,0.1-0.4,0.1-0.6,0.1c-1.2,0-2.2-1.2-2.3-2.7c-0.1-1.5,0.8-2.7,2-2.7c0.7,0,1.4,0.5,1.9,1.2
				c0.3,0.4,0.7,0.6,1.1,0.7l5.7,1.5c0.8,0.2,0.9,0.2,1.7-0.1C41.7,49,41.9,49,42,49z"/>
			<path class="st0" d="M42.4,55.4c-0.7,0-1.6-0.3-2-1c-0.3-0.6-0.4-0.6-1.1-0.9l-0.2-0.1l-5.5-2.1c-0.5-0.2-0.7-0.2-1.2,0
				c-1.6,0.6-3.3-0.9-3.4-2.9c-0.1-0.9,0.2-1.8,0.8-2.4c0.4-0.4,1-0.7,1.6-0.7c0.8,0,1.7,0.5,2.2,1.4c0.2,0.3,0.5,0.5,0.8,0.6
				l5.7,1.6c0.3,0.1,0.5,0.1,0.7,0.1l0,0c0.2,0,0.4-0.1,0.8-0.2c0.2-0.1,0.4-0.1,0.6-0.1c1.5,0,2.8,1.5,2.9,3.4c0.1,1-0.2,2-0.9,2.6
				C43.6,55.1,43,55.4,42.4,55.4z M33,50.5c0.3,0,0.5,0.1,0.8,0.2l5.8,2.2c0.7,0.3,0.9,0.4,1.4,1.2c0.2,0.4,0.8,0.7,1.4,0.7
				c0.5,0,0.9-0.2,1.2-0.6c0.5-0.5,0.7-1.3,0.7-2.1c-0.1-1.5-1.1-2.7-2.3-2.7c-0.1,0-0.2,0-0.3,0c-0.4,0.2-0.7,0.3-1,0.3l0,0
				c-0.2,0-0.5-0.1-0.8-0.2l-5.7-1.5c-0.5-0.1-1-0.4-1.2-0.9c-0.7-1.1-1.9-1.4-2.7-0.6c-0.4,0.5-0.6,1.1-0.6,1.9
				c0.1,1.3,1,2.4,2,2.4c0.2,0,0.3,0,0.5-0.1C32.4,50.6,32.7,50.5,33,50.5z"/>
		</g>
		<path class="st1" d="M42.1,50.9c0.5,0,1,0.5,1,1.2c0,0.6-0.3,1.2-0.9,1.2c-0.5,0-1-0.5-1-1.2S41.6,50.9,42.1,50.9z"/>
		<path class="st1" d="M31.4,47.2c0.5,0,1,0.5,1,1.2c0,0.6-0.3,1.2-0.9,1.2c-0.5,0-1-0.5-1-1.2C30.5,47.8,30.9,47.2,31.4,47.2z"/>
		<path class="st1" d="M43.2,47.4c0.3,0,0.5,0.3,0.5,0.6c0,0.3-0.2,0.6-0.5,0.6s-0.5-0.3-0.5-0.6C42.7,47.7,42.9,47.4,43.2,47.4z"/>
		<path class="st1" d="M46.1,50.1c0.3,0,0.5,0.3,0.5,0.6c0,0.3-0.2,0.6-0.4,0.6c-0.3,0-0.5-0.3-0.5-0.6
			C45.6,50.3,45.8,50.1,46.1,50.1z"/>
		<path class="st1" d="M45.6,53.8c0.3,0,0.5,0.3,0.5,0.6c0,0.3-0.2,0.6-0.4,0.6c-0.3,0-0.5-0.3-0.5-0.6
			C45.1,54.1,45.3,53.8,45.6,53.8z"/>
		<path class="st1" d="M35.9,42.8c0.3,0,0.5,0.3,0.5,0.6c0,0.3-0.2,0.6-0.5,0.6c-0.3,0-0.5-0.3-0.5-0.6
			C35.4,43.1,35.6,42.8,35.9,42.8z"/>
		<path class="st1" d="M32.6,40.5c0.3,0,0.5,0.3,0.5,0.6c0,0.3-0.2,0.6-0.5,0.6c-0.3,0-0.5-0.3-0.5-0.6
			C32.2,40.7,32.4,40.5,32.6,40.5z"/>
		<path class="st1" d="M29.9,42.8c0.3,0,0.5,0.3,0.5,0.6c0,0.3-0.2,0.6-0.5,0.6s-0.5-0.3-0.5-0.6C29.5,43.1,29.7,42.8,29.9,42.8z"/>
		<path class="st1" d="M36.3,47.2c0.3,0,0.5,0.3,0.5,0.6c0,0.3-0.2,0.6-0.5,0.6s-0.5-0.3-0.5-0.6C35.8,47.5,36,47.2,36.3,47.2z"/>
		<polygon class="st3" points="34.3,28.2 38,29 38,32.4 34.3,31.6 		"/>
		<path class="st3" d="M47.6,22c0.8,0.7,2.1,3.1,0.5,3.7c0,0-5.1,2.3-6,2.6c-0.9,0.3-1.2,0.3-2.5,0c-1.4-0.3-9.9-1.9-9.9-1.9
			l-0.2-1.6c0,0-0.1-0.8,0.6-1.4c0.8-0.6,4.5-3.6,7.5-3.7c3-0.1,5.6,0.3,6.8,0.6C45.5,20.5,46.9,21.2,47.6,22z"/>
		<path class="st3" d="M53,20.8c-0.9,0.4-2.9,2-3.5,2.9c-0.5,0.9,0,1.1,0.4,1.3c0.4,0.1,2.4,0.3,4.3,0.3c1.8-0.1,3.1-0.2,3.8-0.2
			c0.7-0.1,1-0.4,0.7-1.2c-0.3-0.8-2-2.6-3.4-3C53.9,20.3,54.2,20.3,53,20.8L53,20.8z M50.1,25.6c0,0,0.9,0.9,0.9,2.1
			c0,0.7-0.1,1.5-0.1,2.1c0,0.5,0.1,0.9,0.7,1.1c1.1,0.4,3,0.6,4.2,0.3c1.1-0.3,1.2-0.4,1.1-1.3c-0.1-1.7,0.3-3.1,1.5-4.4
			c-1.4,0.4-1.9,0.4-3.7,0.5C52.8,26,50.1,25.6,50.1,25.6z"/>
		<polygon class="st3" points="43.3,32.3 49.2,33.9 49.2,34.9 43.2,33.3 		"/>
		<path class="st0" d="M58.5,46.8c-0.9,0-1.5-0.2-2-0.8c-0.7-1-1.4-3.3-1.2-6.6c0.2-3.3,0.8-4.7,1.8-6.1c1-1.4,2.3-2.1,3.9-2.2
			c0.9-0.1,2.4,0.3,3.4,1.4c0.7,0.8,1.5,2.2,1.3,4.6l-1.1-0.1c0.2-1.6-0.2-2.8-1-3.7c-0.8-0.8-1.8-1.1-2.6-1
			c-1.3,0.1-2.3,0.6-3.1,1.7c-0.7,1-1.4,2.1-1.5,5.5c-0.2,3.3,0.6,5.3,1,5.9c0.3,0.4,1,0.4,2.4,0.2l0.2,0c1.4-0.1,3-1.4,3.2-2.2
			l1.1,0.2C64,45,62,46.5,60.2,46.7l-0.2,0C59.4,46.8,58.9,46.8,58.5,46.8z"/>
		<path class="st3" d="M65.1,37l-1.3,6.5c-0.2,1.1-2.1,2.5-3.7,2.6c-1.6,0.1-2.6,0.3-3.2-0.5c-0.5-0.8-1.3-2.9-1.1-6.3
			c0.2-3.4,0.8-4.6,1.7-5.8c0.8-1.1,1.9-1.9,3.5-2C62.6,31.5,65.6,32.8,65.1,37z"/>
		<path class="st0" d="M60,46.8c0,0-0.1,0-0.1,0c-1.4-0.7-2.2-3.6-2.3-5c-0.1-1.3-0.2-4.5,1-6.7c0.8-1.5,1.9-2.4,3-2.7
			c0.8-0.2,1.7,0,2.4,0.6c1,0.8,1.6,1.7,1.7,2.9c0,0.2-0.1,0.3-0.3,0.3c-0.2,0-0.3-0.1-0.3-0.3c-0.1-1-0.5-1.8-1.4-2.5
			c-0.6-0.5-1.3-0.6-2-0.5c-1,0.2-1.9,1.1-2.6,2.4c-1.1,2-1,5.1-0.9,6.3c0.1,1.5,0.9,4,1.9,4.5c0.1,0.1,0.2,0.3,0.1,0.4
			C60.3,46.7,60.2,46.8,60,46.8z"/>
		<path class="st1" d="M61.3,43.6c-0.7-0.8-0.9-2.3-0.8-3.9c0.1-1.6,0.4-3.7,1.3-4.4c0.9-0.7,4.5,1.3,4.1,4.4
			C65.5,42.8,62.3,45,61.3,43.6z"/>
		<path class="st3" d="M63.2,35.1c0.6,0.3,1.3,0.7,1.8,1.3c0.9,1,1.2,2.1,1.1,3.3c-0.2,2-1.6,3.7-2.9,4.3v-0.6
			c1.1-0.6,2.2-2,2.4-3.8c0.2-1.3-0.5-2.3-1-2.9c-0.5-0.5-1-0.9-1.4-1.1V35.1z M62.2,44.3c-0.5,0-0.8-0.2-1.1-0.6
			c-0.7-0.8-1-2.2-0.9-4c0.2-2.4,0.6-4,1.4-4.6c0.3-0.3,0.9-0.2,1.6,0v0.5c-0.3-0.2-0.7-0.2-0.9-0.2c-0.1,0-0.3,0-0.3,0.1
			c-0.6,0.5-1.1,2-1.2,4.2c-0.1,1.6,0.2,3,0.8,3.7c0.2,0.2,0.4,0.3,0.7,0.3c0.3,0,0.6-0.1,1-0.3v0.6C62.9,44.2,62.5,44.3,62.2,44.3z
			"/>
		<path class="st1" d="M63.4,35.2c-0.1,0-0.2-0.2-0.2-0.5c0-0.3,0.1-0.5,0.2-0.5c0.1,0,0.2,0.2,0.2,0.5C63.6,35,63.5,35.2,63.4,35.2
			L63.4,35.2z M60.4,36.1c-0.2,0-0.4-0.3-0.4-0.8c0-0.4,0.2-0.8,0.4-0.8c0.2,0,0.4,0.3,0.4,0.8C60.8,35.7,60.6,36.1,60.4,36.1
			L60.4,36.1z M59.4,40.1c-0.2,0-0.4-0.3-0.4-0.8c0-0.4,0.2-0.8,0.4-0.8c0.2,0,0.4,0.3,0.4,0.8C59.7,39.8,59.6,40.1,59.4,40.1
			L59.4,40.1z M60.1,44.3c-0.2,0-0.4-0.3-0.4-0.8c0-0.4,0.2-0.8,0.4-0.8c0.2,0,0.4,0.3,0.4,0.8C60.4,44,60.3,44.3,60.1,44.3z"/>
		<path class="st3" d="M54.2,39.7l0.7-6.8c-1.5-0.1-3.1,0.3-4.5,1.4c-1.4,1.1-1.3,2.1-0.5,3.2C50.8,38.5,52.4,39.8,54.2,39.7z"/>
		<path class="st1" d="M54.6,39.7c-1,0-1.6-1.5-1.5-3.4c0.1-1.9,1-3.4,1.9-3.4c0.9,0,1.6,1.5,1.5,3.4C56.4,38.2,55.5,39.7,54.6,39.7
			z"/>
		<path class="st0" d="M54.8,39.1c-0.4,0-0.7-0.2-0.8-0.4c-0.4-0.5-0.6-1.3-0.5-2.4c0.1-1.4,0.4-2.3,0.9-2.7c0.5-0.4,1.6,0,2.3,0.7
			c0.5,0.6,0.8,1.3,0.7,2C57.1,37.9,55.8,39.1,54.8,39.1z M54.9,34.4c-0.2,0.1-0.4,0.8-0.5,2c-0.1,0.8,0.1,1.5,0.3,1.8
			c0,0.1,0.1,0.1,0.1,0.1c0.5,0,1.4-0.8,1.6-1.9c0.1-0.6-0.2-1.1-0.5-1.3C55.6,34.5,55.1,34.4,54.9,34.4z"/>
		<path class="st3" d="M54.4,38.5c-0.4-0.5-0.5-1.2-0.4-2.1c0.1-0.9,0.2-2,0.7-2.4c0.5-0.4,2.4,0.7,2.2,2.4
			C56.6,38,54.9,39.2,54.4,38.5z"/>
		<g>
			<path class="st2" d="M29.1,58.2c-0.1-0.3-0.3-0.6-0.6-0.9l-1.7-2c-0.2-0.2-0.3-0.2-0.5,0c-0.2,0.2-0.2,0.3-0.1,0.5
				c0,0.1,0.1,0.1,0.1,0.2c0,0.1,0,0.2-0.1,0.2L26,56.3l-3,2.5l0-0.1c-0.1-0.2-0.1-0.3,0-0.5c0-0.2,0-0.3-0.1-0.4
				c-0.1-0.1-0.3-0.1-0.5,0.1c-0.1,0.1-0.1,0.1-0.1,0.2c0,0.1,0,0.2,0,0.3c0,0.1,0,0.3,0.1,0.4c0,0.1,0.1,0.3,0.2,0.4L21.8,60
				c-0.3,0.3-0.7,0.3-0.9-0.1c-0.1,0.1-0.2,0.3-0.2,0.4c0,0.2,0.1,0.4,0.2,0.7c0.3,0.3,0.6,0.5,0.9,0.4c0.3,0,0.6-0.2,0.9-0.4
				l0.4-0.4l0.4-0.3c0.8,0.6,1.6,1,2.5,1.1l0.1,0c0.9,0.1,1.7-0.1,2.4-0.7c0.3-0.3,0.6-0.6,0.7-0.9C29.3,59.3,29.3,58.8,29.1,58.2z
				 M27.9,58.8c0,0.1-0.1,0.1-0.1,0.2c0,0.1-0.1,0.1-0.1,0.2c-0.1,0.1-0.1,0.1-0.2,0.2c-0.1,0.1-0.2,0.1-0.3,0.2
				c-0.4,0.2-0.7,0.4-1.1,0.4c-0.1,0-0.3,0-0.4,0.1c-0.6,0-1.1-0.1-1.6-0.3l0.7-0.6l1.2-1.1l1-0.9c0.1-0.1,0.1-0.1,0.2-0.1
				c0.1,0,0.2,0,0.2,0.1l0.2,0.2C28,57.9,28.1,58.3,27.9,58.8z"/>
			<path class="st2" d="M34,61.2c-0.6-0.4-1.2-0.5-1.9-0.4c-0.1,0-0.3,0-0.4,0.1c-0.9,0.2-1.6,0.7-2.1,1.5c-0.2,0.3-0.4,0.6-0.5,1
				c-0.2,0.5-0.2,1-0.1,1.6c0,0.2,0.1,0.4,0.1,0.6c0.2,0.6,0.6,1,1.1,1.4c0.6,0.4,1.2,0.5,1.9,0.4c0.1,0,0.3,0,0.4-0.1
				c0.9-0.2,1.6-0.7,2.1-1.5c0.5-0.8,0.7-1.6,0.6-2.5C35.1,62.3,34.7,61.7,34,61.2z M33.7,63.3c-0.1,0.4-0.2,0.7-0.4,0.9L33,64.7
				c-0.3,0.4-0.6,0.8-0.9,1c-0.1,0.1-0.2,0.1-0.3,0.2c-0.4,0.3-0.8,0.3-1.1,0.1c-0.3-0.2-0.4-0.6-0.2-1.2c0.2-0.5,0.3-0.8,0.3-0.9
				l0.3-0.5c0.3-0.4,0.6-0.8,0.9-1c0.1-0.1,0.2-0.1,0.3-0.2c0.4-0.3,0.8-0.3,1.1-0.1C33.7,62.3,33.8,62.7,33.7,63.3z"/>
			<path class="st2" d="M20.1,55.2l3-1.4l1.2-0.6c0.2-0.1,0.4,0.1,0.4,0.1c0.1,0.2,0.3,0.2,0.6,0.1c0.2-0.1,0.4-0.3,0.3-0.6
				l-0.8-1.7L23,47.8l0,0c-0.1-0.2-0.4-0.2-0.6-0.1c-0.2,0.1-0.4,0.2-0.4,0.4c0,0.1,0,0.1,0,0.2c0,0.1-0.1,0.1-0.1,0.2l-4.1,1.9
				c-0.1,0-0.1,0-0.2,0c-0.1,0-0.1-0.1-0.2-0.1c-0.1-0.1-0.2-0.1-0.4,0c-0.2,0.1-0.3,0.3-0.2,0.5l0.8,1.7c0.1,0.2,0.3,0.3,0.5,0.2
				c0.2-0.1,0.3-0.3,0.2-0.5c0-0.1,0-0.1,0-0.2c0-0.1,0.1-0.1,0.1-0.2l3.9-1.8c0.1,0,0.2,0,0.3,0c0.1,0,0.2,0.1,0.2,0.1l0.2,0.5
				l0.6,1.2c0,0.1,0,0.1,0,0.2c0,0.1-0.1,0.1-0.1,0.2L23,52.3L19.5,54c-0.1,0-0.1,0-0.2,0c-0.1,0-0.1-0.1-0.2-0.1
				c-0.1-0.2-0.3-0.3-0.5-0.2c-0.2,0.1-0.3,0.3-0.2,0.5l0.8,1.7c0.1,0.2,0.3,0.3,0.5,0.2c0.2-0.1,0.3-0.2,0.2-0.4c0-0.1,0-0.1,0-0.2
				C19.9,55.3,20,55.2,20.1,55.2z"/>
			<path class="st2" d="M72.9,57.3L72.9,57.3c-0.7-0.6-1.3-0.9-2.1-1c-0.1,0-0.2,0-0.3,0c-0.9,0-1.6,0.3-2.2,0.9
				c-0.6,0.6-0.8,1.4-0.7,2.3c0.1,0.9,0.5,1.7,1.2,2.3c0.6,0.6,1.3,0.9,2.1,1c0.1,0,0.2,0,0.3,0c0.6,0,1.2-0.1,1.7-0.4
				c0.2-0.1,0.4-0.3,0.5-0.5c0.6-0.6,0.8-1.4,0.7-2.3C73.9,58.7,73.6,57.9,72.9,57.3z M72.5,61.2c-0.3,0.3-0.7,0.3-1.2,0.1
				c-0.2-0.1-0.4-0.2-0.5-0.3c-0.1-0.1-0.2-0.1-0.3-0.2L70,60.3c-0.5-0.5-0.8-0.9-1-1.4c-0.2-0.5-0.2-0.8,0-1.1
				c0.3-0.3,0.7-0.3,1.3,0c0.2,0.1,0.3,0.2,0.5,0.3c0.1,0.1,0.2,0.2,0.4,0.2l0.4,0.4c0.5,0.5,0.8,0.9,1,1.4
				C72.8,60.6,72.8,60.9,72.5,61.2z"/>
			<path class="st2" d="M80,50.3c-0.3-0.2-0.5-0.1-0.7,0.2c0,0.1-0.1,0.1-0.2,0.2c-0.1,0-0.2,0-0.3,0l-3.2-1.6
				c-0.1,0-0.2-0.1-0.2-0.3c0-0.1,0-0.2,0-0.3c0.2-0.3,0.1-0.6-0.2-0.7c-0.3-0.2-0.6-0.1-0.7,0.2l-1,2.1c-0.2,0.3-0.1,0.5,0.2,0.7
				c0.3,0.2,0.5,0.1,0.7-0.2c0-0.1,0.1-0.1,0.2-0.2c0.1,0,0.2,0,0.3,0l0.9,0.4l0,0l-1,2.1l0,0l-0.9-0.4c-0.1,0-0.2-0.1-0.2-0.3
				c0-0.1,0-0.2,0-0.3c0.2-0.3,0.1-0.5-0.2-0.7c-0.2-0.1-0.4-0.1-0.5,0c-0.1,0.1-0.1,0.1-0.2,0.2l-1,2.1c-0.2,0.3-0.1,0.5,0.2,0.7
				c0.3,0.1,0.5,0.1,0.7-0.2c0-0.1,0.1-0.1,0.2-0.2l0,0c0.1,0,0.2,0,0.3,0l3.2,1.6c0.1,0,0.2,0.1,0.2,0.3c0,0.1,0,0.2,0,0.3
				c-0.1,0.3-0.1,0.5,0.2,0.7c0.3,0.2,0.5,0.1,0.7-0.2l1-2.1c0.2-0.3,0.1-0.6-0.2-0.7c-0.3-0.2-0.5-0.1-0.7,0.2
				c0,0.1-0.1,0.1-0.2,0.2c-0.1,0-0.2,0-0.3,0l-1.4-0.7l0,0l1-2.1l0,0l1.4,0.7c0.1,0,0.2,0.1,0.2,0.3c0,0.1,0,0.2,0,0.3
				c-0.1,0.3-0.1,0.5,0.2,0.7c0.3,0.2,0.5,0.1,0.7-0.2l1-2.1C80.4,50.7,80.3,50.4,80,50.3z"/>
			<path class="st2" d="M65.6,61.3c0.1-0.3,0.1-0.5,0-0.6c-0.1-0.2-0.4-0.3-0.7-0.1l-2.1,1.2l-2,1.2c-0.1,0-0.1,0.1-0.2,0.1
				c-0.2,0.2-0.2,0.4,0,0.6l0,0.1c0.2,0.3,0.4,0.3,0.7,0.1c0.1,0,0.2-0.1,0.3,0c0.1,0,0.2,0.1,0.3,0.2l1.8,3.1
				c0.1,0.1,0.1,0.2,0,0.3c0,0.1-0.1,0.2-0.2,0.3c-0.3,0.2-0.4,0.4-0.2,0.7c0.2,0.3,0.4,0.4,0.7,0.2l2-1.2c0.3-0.2,0.4-0.4,0.2-0.7
				c-0.2-0.3-0.4-0.4-0.7-0.2c-0.1,0-0.2,0.1-0.3,0c-0.1,0-0.2-0.1-0.3-0.2l-2.1-3.5l0.9-0.5c0.3-0.2,0.6-0.2,0.9-0.2
				c0.4,0,0.7,0.2,0.9,0.6c0.1,0.2,0.1,0.4-0.1,0.5c-0.1,0.1-0.2,0-0.3-0.2c0-0.1,0-0.1,0-0.2c-0.2,0.1-0.3,0.2-0.4,0.3
				c-0.1,0.2-0.1,0.4,0,0.6c0.1,0.2,0.3,0.4,0.6,0.4c0.2,0,0.5,0,0.7-0.2c0.3-0.2,0.5-0.4,0.6-0.7c0.1-0.4,0.1-0.9-0.2-1.3
				C66.2,61.7,66,61.5,65.6,61.3z"/>
			<path class="st2" d="M42.4,65l-3.1-0.9c-0.2-0.1-0.3,0-0.4,0c-0.1,0.1-0.2,0.2-0.2,0.3c0,0.2,0,0.3,0,0.4
				c0.1,0.1,0.1,0.1,0.2,0.2l0,0c0.1,0,0.2,0.1,0.2,0.1c0.1,0.1,0.1,0.1,0.1,0.2c0,0.1-0.1,0.2-0.3,0.4l-0.1,0.1
				c-1.1,1.1-1.9,2-2.3,2.7l-0.7-0.2c-0.1,0.2-0.1,0.4-0.1,0.6c0,0.2,0.1,0.4,0.1,0.6c0.1,0.2,0.1,0.4,0.1,0.4c0,0.1,0,0.1,0,0.2
				c0,0.1-0.1,0.3-0.3,0.5c-0.2,0.3-0.1,0.4,0.3,0.5c0.2,0.1,0.5-0.1,0.7-0.5c0.3-0.4,0.5-0.5,0.9-0.4l1.4,0.4l1.2,0.3
				c0.3,0.1,0.5,0.4,0.5,0.8c0,0.5,0.1,0.8,0.4,0.8c0.4,0.1,0.5,0,0.5-0.3c0-0.3,0-0.5,0-0.6c0-0.1,0.1-0.1,0.1-0.2
				c0.1,0,0.2-0.1,0.4-0.3c0.2-0.2,0.3-0.3,0.4-0.5c0.1-0.1,0.2-0.3,0.3-0.5l-0.9-0.3l-0.1-3.8c0,0,0,0,0-0.1c0-0.1,0.1-0.2,0.2-0.2
				c0.1,0,0.2,0,0.3,0c0.1,0,0.2,0,0.3,0c0.1,0,0.2-0.1,0.2-0.3C42.8,65.3,42.7,65.1,42.4,65z M38.9,69.3l-1.4-0.4
				c0.1-0.2,0.3-0.4,0.5-0.7c0.2-0.3,0.4-0.5,0.7-0.8c0.1-0.1,0.2-0.2,0.3-0.3c0.2-0.2,0.3-0.3,0.5-0.5c0.3-0.3,0.6-0.5,0.9-0.7
				l0,3.9L38.9,69.3z"/>
			<path class="st2" d="M50.1,68.6c0.4-0.2,0.7-0.3,0.8-0.5c0.1-0.2,0.2-0.4,0.2-0.6c0-0.5-0.2-0.9-0.6-1.2
				c-0.4-0.3-0.9-0.4-1.5-0.5l-0.4,0l-2.8-0.1c-0.4,0-0.5,0.1-0.6,0.5c0,0.2,0,0.3,0.1,0.4c0.1,0.1,0.2,0.1,0.3,0.2
				c0.1,0,0.2,0.1,0.3,0.1c0.1,0,0.1,0.2,0.1,0.3L46,70.7c0,0.2-0.1,0.3-0.2,0.3c-0.1,0-0.2,0.1-0.3,0.1c-0.1,0-0.2,0.1-0.3,0.1
				c-0.1,0.1-0.2,0.2-0.2,0.4c0,0.3,0.1,0.5,0.5,0.5l2.3,0.1c0.3,0,0.6,0,0.9,0c0.3,0,0.6,0,0.9-0.1c0.5-0.1,0.9-0.3,1.2-0.5
				c0.3-0.2,0.5-0.5,0.6-0.8c0.1-0.3,0.2-0.7,0.1-1.1C51.4,69.2,50.9,68.8,50.1,68.6z M49.7,70.7c-0.1,0.1-0.2,0.3-0.3,0.4
				c-0.1,0.1-0.3,0.1-0.6,0.1l-0.1,0l-0.8-0.1c-0.1,0-0.2-0.1-0.3-0.2c-0.1-0.1-0.1-0.2-0.1-0.3l0-0.4l0.1-2.7l0-0.5
				c0-0.1,0-0.2,0.1-0.3c0.1-0.1,0.2-0.1,0.2-0.1l0.6,0l0.6,0c0.1,0,0.2,0.1,0.3,0.2c0.1,0.1,0.1,0.3,0.1,0.5c0,0.3-0.1,0.6-0.4,0.7
				c-0.2,0.1-0.4,0.2-0.6,0.2c-0.1,0-0.2,0-0.3,0c-0.1,0-0.1,0-0.2,0c-0.1,0-0.2,0-0.2,0c-0.1,0-0.1,0-0.1,0.1c0,0,0,0.1,0,0.1
				c0,0,0,0.1,0,0.1c0,0,0,0.1,0.1,0.1c0.1,0,0.2,0,0.3,0c0.1,0,0.2,0,0.3,0c0.1,0,0.2,0,0.3,0c0.1,0,0.3,0.1,0.4,0.1
				c0.2,0.1,0.4,0.2,0.5,0.4c0.1,0.2,0.2,0.3,0.2,0.6C49.8,70.2,49.8,70.5,49.7,70.7z"/>
			<path class="st2" d="M60.6,69.5c-0.1-0.2-0.3-0.2-0.6-0.1c-0.1,0-0.2,0-0.3-0.1c-0.1-0.1-0.2-0.1-0.2-0.2l-1.2-3
				c-0.1-0.3-0.1-0.7,0.1-1c0.2-0.3,0.3-0.6,0.2-0.7c-0.1-0.3-0.2-0.4-0.6-0.3c-0.2,0-0.4,0.2-0.9,0.5c-0.1,0.1-0.2,0.1-0.3,0.2
				c-0.3,0.2-0.6,0.3-0.8,0.4c-0.4,0.1-0.8,0.1-1.2,0.1c-0.1,0-0.4-0.1-0.8-0.3c-0.3-0.1-0.5-0.1-0.7-0.1c-0.2,0.1-0.3,0.2-0.4,0.4
				c-0.1,0.2-0.1,0.4,0,0.6c0.1,0.3,0.3,0.5,0.6,0.7c0.4,0.2,0.9,0.3,1.5,0.1c0.5-0.1,1-0.4,1.6-0.6l0.2,0.4c-1.2,0.6-2,1.2-2.4,1.8
				c-0.4,0.6-0.5,1.2-0.2,2c0.2,0.6,0.6,1,1.2,1.2c0.4,0.1,0.9,0.2,1.3,0l0.4-0.1l3.4-1c0.1,0,0.2-0.1,0.3-0.1
				c0.1-0.1,0.2-0.3,0.1-0.5C60.7,69.6,60.6,69.6,60.6,69.5z M57.9,69.8c-0.1,0.1-0.1,0.2-0.2,0.2l-0.6,0.2c-0.1,0-0.1,0-0.2,0
				c-0.1,0-0.2,0-0.2,0c-0.4-0.1-0.7-0.3-0.8-0.8c-0.1-0.4,0.1-0.9,0.3-1.3c0.2-0.3,0.4-0.6,0.7-0.8c0,0,0.1-0.1,0.1-0.1l0.6,1.5
				l0.3,0.8C58,69.6,58,69.7,57.9,69.8z"/>
		</g>
		<g>
			<path class="st2" d="M76.7,34.9c0-0.1-0.1-0.1-0.1-0.2c-0.2-0.1-0.4,0-0.3,0.3c0.1,0.6,0.2,1.2,0.3,1.8l0,0.1
				c0.1,0.3,0.5,0.4,0.5,0c0-0.4,0.3-0.5,0.6-0.6c0.7-0.2,1.4-0.3,2.1-0.4c0.4-0.1,0.6,0,0.8,0.3c0.2,0.3,0.5,0.2,0.5-0.1
				c-0.1-0.5-0.1-1.5-0.7-1.6c-0.3-0.1-2.2-0.4-2.2-0.7c0-0.2,0.9-0.8,1.1-0.9c0.3-0.2,0.7-0.5,1-0.7c0.2-0.2-0.1-2.1-0.4-2
				c0,0,0,0,0,0c-0.3,0.1-0.1,0.8-0.5,0.9c-0.5,0.2-1.2,0.2-1.8,0.3c-0.3,0-0.6,0.1-0.9,0.1c-0.1,0-0.2-0.1-0.3-0.1
				c-0.1-0.1-0.8-0.9-0.7-0.2c0.1,0.5,0.4,2.6,0.8,1.3c0-0.1,0.1-0.1,0.2-0.2c0.6-0.3,2.1-0.7,2.3-0.5c0.1,0.2-1.4,0.9-2.3,1.5
				c-0.3,0.2-0.5,0.4-0.5,0.5c0,0.2,0.2,0.3,0.5,0.3c0.4,0.1,0.8,0.1,1,0.2c0.2,0,1.8,0.4,1.8,0.5c0,0.1-1.6,0.3-1.8,0.3
				C77.2,35.2,76.9,35.3,76.7,34.9z"/>
			<path class="st2" d="M78,39.8C78,39.8,78,39.9,78,39.8L78,39.8z"/>
			<path class="st2" d="M18.8,27.3C18.8,27.3,18.8,27.3,18.8,27.3C18.8,27.3,18.8,27.3,18.8,27.3z"/>
			<path class="st2" d="M23.8,24.6l-0.1,0c-0.3-0.1-0.6-0.3-0.9-0.4c-0.3-0.1-0.6-0.3-0.9-0.5c-0.2-0.1-0.5-0.2-0.7-0.4
				c-0.2-0.2,0.1-0.6-0.2-0.8c-0.3-0.1-0.6,0.9-0.7,1.1c-0.1,0.2-0.8,1.7,0,1c0.2-0.3,1.3,0.3,1.5,0.5c0.2,0.3-0.4,1-0.6,1
				c-0.2,0.1-1.2-0.3-1.2-0.6c0-0.1,0.1-0.8-0.3-0.5c-0.2,0.1-0.2,0.4-0.3,0.6c-0.1,0.3-0.9,1.5-0.6,1.6c0,0,0,0,0,0
				c0.3,0.1,0.5-0.5,0.9-0.3c0.2,0.1,0.5,0.2,0.7,0.3c0.7,0.3,1.3-0.1,1.6-0.7c0.1-0.1,0.4-1.2,0.4-1.2c0.1,0.1,0.3,0.1,0.5,0.2
				c0.3,0.2,0.7,0.4,0.7,0.7c0,0.4,0.1,0.6,0.2,0.5c0.1,0,0.2-0.1,0.3-0.4c0.3-0.6,0.5-1.1,0.8-1.7C25.2,24,24.1,24.8,23.8,24.6z"/>
			<polygon class="st2" points="23.2,19.6 23.2,19.6 23.2,19.6 			"/>
			<path class="st2" d="M66.2,17c0.2,0.2,0.7,0.6,1,0.6c0.4,0-0.2-0.7-0.2-0.9C67,16.5,66.9,14,67.1,14c0.2-0.1,0.4-0.2,0.7-0.3
				c0.2,0,0.4,0,0.6,0.1c0.3,0.2,0.9,0.7,1-0.1c0.1-0.6-0.7-0.7-1.1-0.7c-0.2,0-0.3,0.1-0.5,0.1c-0.4,0.1-0.7,0.3-1.1,0.5
				c-0.4,0.1-0.9,0.1-0.6-0.4c0.2-0.2,0.3-0.5,0.5-0.7c0.2-0.3,0.5,0,0.7,0c0.6-0.1-0.5-0.8-0.7-0.9c-0.2-0.1-1.1-1-1.3-0.7
				c-0.1,0.1,0,0.3,0.1,0.4c0.2,0.3,0,0.5-0.1,0.7c-0.1,0.2-0.3,0.4-0.4,0.6c-0.3,0.5-0.6,1.1-1.1,1.5c-0.2,0.2-0.5,0.1-0.7,0
				c-0.1,0-0.1,0-0.2,0c-0.3,0.1-0.1,0.3,0.2,0.5c0.1,0.1,0.3,0.2,0.3,0.2c0.5,0.3,0.9,0.6,1.3,0.9c0.8,0.5,0.2-0.6,0.2-0.7
				c0-0.4,0.9-2,0.9-0.6C65.8,15.4,65.6,16.4,66.2,17z"/>
			<path class="st2" d="M26.6,20c0,0.4-0.2,0.9-0.4,1.2c-0.2,0.2-0.5,0.4-0.8,0.5c-0.5,0.1-1.7-0.1-1.2-0.8c0.3-0.4,1.3-1.5,1.1-2
				c-0.3-0.6-1-0.5-1.6-0.3c-0.3,0.2-0.6,0.4-0.8,0.6c0,0.1-0.1,0.1-0.1,0.2c-0.4,0.8-0.4,1.7,0,2.4c0.2,0.4,0.5,0.7,0.9,1
				c0.3,0.2,0.8,0.3,1.2,0.4c0.5,0,0.9-0.2,1.3-0.4c0.4-0.3,0.6-0.6,0.8-1.1c0.1-0.3,0.2-0.7,0.2-1C27.1,20.4,26.7,19.6,26.6,20z
				 M23.7,20.7c-0.1,0.1-0.2,0.1-0.3,0.1c-0.3-0.3-0.5-0.8-0.2-1.1c0,0,0,0,0,0c0-0.1,0,0,0,0c0.1-0.2,0.3-0.3,0.5-0.3
				c0.1,0,0.3,0,0.4,0.1c0.3,0.2,0.1,0.6-0.1,0.8C24,20.3,23.8,20.6,23.7,20.7z"/>
			<path class="st2" d="M21.6,29.4c0.1,0.8-0.1,1.6-0.9,2c-0.3,0.1-0.8,0.1-1.1,0c-0.3-0.1-0.1-0.5,0-0.7c0.1-0.4,0.9-1.9,0.3-2.1
				c-0.4-0.1-0.8-0.1-1.2,0.1c-0.4,0.2-0.7,0.6-0.9,1c-0.4,1,0.1,2.1,0.9,2.7c0.6,0.4,1.3,0.6,2.1,0.4c0.9-0.3,1.5-1.1,1.5-2
				c0-0.4-0.1-0.9-0.3-1.2C22,29.2,21.5,28.9,21.6,29.4z M19.1,30.3c0,0.1-0.2,0.8-0.4,0.6c0,0,0,0-0.1,0c-0.3-0.2-0.6-0.6-0.5-1
				c0,0,0,0,0,0c0-0.1,0,0,0,0c0.1-0.3,0.3-0.4,0.5-0.5C19,29.4,19.3,29.8,19.1,30.3z"/>
			<path class="st2" d="M21.9,19.8c0.1-0.1,0.2-0.5-0.1-0.7c-0.1-0.1-0.5-0.2-0.7,0.1c-0.2,0.3-0.1,0.6,0.1,0.7
				C21.4,20,21.7,19.9,21.9,19.8z"/>
			<path class="st2" d="M21,34.5c-0.3,0.6-1.1,0.3-1.6,0.3c-0.1,0-0.4,0-0.7,0c-0.5,0-1.1-0.1-1.2-0.3c-0.1-0.2,0-0.5-0.3-0.6
				c-0.3,0-0.2,0.6-0.3,0.8c0,0.8-0.1,1.7-0.2,2.5c-0.1,0.6-0.1,1.2-0.2,1.8c0,0.2,0,0.8,0.3,0.5c0.2-0.2,0.2-0.6,0.6-0.6
				c0.4,0,0.8,0.1,1.3,0.1c0.3,0,0.5,0,0.8,0.1c0.7,0.1,0.9,0.1,1.1,0.7c0.3,0.8,0.5-0.8,0.5-1c0-0.1,0.2-1.9-0.2-1.4
				c-0.2,0.2-0.2,0.5-0.6,0.5c-0.4,0-0.7,0-1.1-0.1c-0.1,0-0.3,0-0.5,0c-0.6,0-1.4-0.1-1.5-0.3l0.1-1.4c0-0.2,0.8-0.1,1.4,0
				c0.3,0,0.5,0.1,0.6,0.1c0.6,0.1,1.3-0.1,1.5,0.6c0.1,0.2,0.3,0.2,0.4,0c0.1-0.3,0.1-0.8,0.1-1.1c0-0.3,0.1-0.7,0.1-1
				C21.5,34.2,21.1,34.2,21,34.5z"/>
			<path class="st2" d="M22.8,18.4c0.1,0,0.2-0.1,0.2-0.2c0.1-0.1,0.2-0.5-0.1-0.7c0,0-0.1,0-0.1-0.1c-0.1-0.1-0.4-0.1-0.6,0.1
				c-0.2,0.3-0.2,0.6,0.1,0.7C22.5,18.5,22.7,18.5,22.8,18.4z"/>
			<path class="st2" d="M17.8,29.6C17.8,29.6,17.7,29.8,17.8,29.6L17.8,29.6z"/>
			<path class="st2" d="M25.2,16.8C25.2,16.8,25.2,16.8,25.2,16.8C25.3,16.8,25.2,16.8,25.2,16.8z"/>
			<path class="st2" d="M76.6,39.2c-0.2,0.1-0.3,0.3-0.3,0.6c0,0.3,0.1,0.5,0.3,0.6c0.5,0.4,1.5,0.2,1.5-0.6l0,0c0,0,0,0,0,0
				C78,38.9,77,38.7,76.6,39.2z"/>
			<path class="st2" d="M18.8,27.3C18.8,27.3,18.8,27.3,18.8,27.3C18.8,27.3,18.8,27.3,18.8,27.3z"/>
			<path class="st2" d="M18.2,29.9C18.2,29.9,18.2,29.9,18.2,29.9C18.2,29.9,18.2,29.9,18.2,29.9C18.2,29.9,18.2,29.9,18.2,29.9z"/>
			<path class="st2" d="M81.4,39c-0.4,0-2.6,0.2-2.6,0.8c0,0.6,2,0.8,2.4,0.9c0.6,0.1,1.7,0.1,1.8-0.8C82.9,39.1,82,38.9,81.4,39z"
				/>
			<polygon class="st2" points="78,39.8 78,39.8 78,39.8 			"/>
			<path class="st2" d="M53.2,6.5c-0.1,0-0.3,0-0.4,0c-2.8,0-3.4,4.3-0.3,4.7c0.1,0,0.2,0,0.3,0C55.7,11.3,56.3,7,53.2,6.5z
				 M52.9,10.7C52.9,10.7,52.8,10.7,52.9,10.7C51.4,10.9,51.4,7,52.8,7c0,0,0.1,0,0.1,0c0,0,0,0,0,0c0,0,0,0,0,0c0.1,0,0,0,0,0
				C54.3,7.2,54.1,10.4,52.9,10.7z"/>
			<path class="st2" d="M53.2,6.5C53.2,6.5,53.1,6.5,53.2,6.5L53.2,6.5z"/>
			<path class="st2" d="M25.2,16.8L25.2,16.8C25.2,16.8,25.2,16.8,25.2,16.8z"/>
			<path class="st2" d="M48.7,9.7c-2.4,1.5-3.1-3.1-1.4-2.9c0.5,0.1,1.4,1.1,1.6,0.3c0.3-0.9-0.8-1-1.4-0.9c-2,0.1-3.4,2.7-1.8,4.2
				c0.7,0.6,1.7,0.7,2.5,0.3c0.4-0.2,0.7-0.5,0.9-0.9C49.4,9.3,48.9,9.6,48.7,9.7z"/>
			<path class="st2" d="M47.5,6.3C47.8,6.3,47.4,6.3,47.5,6.3L47.5,6.3z"/>
			<path class="st2" d="M76.1,21.4C76.1,21.4,76.1,21.4,76.1,21.4C76.1,21.4,76.2,21.5,76.1,21.4z"/>
			<path class="st2" d="M72.7,18.4c0.1,0,0.2,0,0.3-0.1c0.2,0,0.7,0.3,0.9,0.1c0.2-0.2-0.8-1-0.9-1.2c-0.1-0.1-0.2-0.2-0.2-0.2
				c-0.2-0.1-0.2,0.2-0.2,0.6c0.1,0.4-1.9,1.3-2.1,1.1c-0.1-0.1,0.6-1.4,0.6-1.5c0.1-0.2,0.2-0.5,0.3-0.7c0.2-0.2,0.4,0.2,0.6,0
				c0.2-0.2-1.6-2.1-1.8-1.9c-0.2,0.2,0.1,0.8,0,1.1c-0.2,0.5-0.4,1.1-0.6,1.6c-0.4,0.9-0.6,2-1.6,2.4c-0.1,0-0.1,0-0.2,0
				c-0.5,0-0.9-0.7-1.4-0.2c-0.3,0.3-0.3,0.9,0.2,1.1c0.4,0.2,0.8-0.1,1.2-0.3l0.1,0c1-0.4,2.1-0.9,3.1-1.3c0.5-0.2,1-0.4,1.5-0.6
				C72.6,18.5,72.7,18.5,72.7,18.4z"/>
			<path class="st2" d="M62.9,12.2c0-0.1-0.5-0.6-0.5-0.7c0,0,0.5-0.1,0.6-0.2c0,0,0.1-0.1,0.1-0.1c0.2-0.1,0.3-0.3,0.3-0.5
				c0.1-0.4-0.1-0.7-0.3-0.9c-0.2-0.2-0.4-0.3-0.6-0.5c-0.2-0.1-1-0.5-1.7-0.8c-0.6-0.3-1.2-0.4-1.3-0.3c-0.2,0.4,0.6,0.5,0.4,1
				c-0.2,0.5-0.4,0.9-0.6,1.4c-0.2,0.4-0.3,0.9-0.6,1.2c-0.1,0.1-1.3,0-0.8,0.5c0.4,0.4,1.2,0.5,1.7,0.7c0.4,0.2,0.8,0.4,1.2,0.5
				c0.1,0,0.2,0.1,0.4,0.1c0.5,0.1,1.2,0,1.5-0.5C62.9,12.9,63,12.5,62.9,12.2z M61.6,12.4C61.6,12.4,61.5,12.6,61.6,12.4
				c-0.1,0.3-0.4,0.5-0.8,0.5c-0.3,0-0.7-0.1-0.8-0.5c0-0.3,0.2-1,0.4-1.2c0.1-0.2,0.2-0.2,0.4-0.1C61.3,11.3,61.8,11.9,61.6,12.4z
				 M62.2,10.5C62.2,10.5,62.2,10.5,62.2,10.5C62.2,10.5,62.2,10.5,62.2,10.5C62.1,10.6,62.2,10.5,62.2,10.5
				c-0.2,0.4-0.6,0.5-0.9,0.4c-0.2-0.1-0.4-0.2-0.4-0.2c0-0.1,0-0.2,0-0.3c0-0.1,0.1-0.2,0.2-0.4c0.2-0.3,0.3-0.7,0.7-0.5
				C62,9.7,62.4,10.1,62.2,10.5z"/>
			<path class="st2" d="M76.1,21.4C76.1,21.4,76.1,21.4,76.1,21.4C76.1,21.4,76.1,21.4,76.1,21.4z"/>
			<path class="st2" d="M73.7,24.1c-2.2-1.2,0.7-4.2,1.7-2.8c0.3,0.5-0.2,1.9,0.6,1.7c0.9-0.2,0.4-1.2,0.1-1.7c0,0,0,0,0,0
				c-0.8-1.1-2.3-1.5-3.4-0.9c-0.5,0.2-0.9,0.7-1.1,1.3c-0.3,0.9,0.1,1.8,0.7,2.4c0.1,0.1,0.2,0.2,0.4,0.2c0.3,0.2,0.7,0.3,1,0.2
				C74.4,24.5,73.9,24.2,73.7,24.1z"/>
			<path class="st2" d="M36,12.7c-1.6,2.4-4.1-1.5-2.5-2c0.5-0.2,1.7,0.5,1.6-0.4c-0.1-0.9-1.1-0.5-1.7-0.3
				c-0.5,0.3-0.8,0.7-1.1,1.1c-0.4,0.8-0.4,1.7,0,2.4c0.2,0.4,0.6,0.7,1.1,1c0.8,0.4,1.8,0.1,2.4-0.5c0.4-0.4,0.6-0.8,0.6-1.4
				C36.5,12,36.2,12.5,36,12.7z"/>
			<path class="st2" d="M32.5,15.5C32.4,15.5,32.4,15.5,32.5,15.5c-0.5,0.2-0.7,0.1-0.9-0.2c-0.5-0.5-1-1-1.5-1.6
				c-0.2-0.3-0.3-0.5-0.1-0.8c0.2-0.3-0.1-0.6-0.3-0.3c-0.4,0.4-1.2,0.8-1,1.4c0.1,0.3,0.8,2,0.6,2.2c-0.2,0.2-2.1-0.7-2.4-0.8
				c-0.1-0.1-0.4,0.1-0.6,0.3c-0.5,0.4-1,1-0.9,1.1c0,0,0,0,0,0c0.2,0.2,0.6-0.2,0.9-0.1c0.1,0,0.1,0.1,0.2,0.1
				c0.4,0.4,0.7,0.8,1.1,1.3c0.2,0.3,0.6,0.7,0.6,1.1c0,0.2-0.3,1.2,0.2,0.7c0.4-0.3,2-1.7,0.7-1.3c-0.4,0.1-2-1.5-1.9-1.7
				c0.2-0.3,2.7,1.6,3.1,1.2c0.3-0.3-0.2-1.2-0.3-1.6c-0.1-0.2-0.6-1.7-0.5-1.8c0.1-0.1,1.1,1.2,1.2,1.4c0.2,0.3,0.5,0.5,0.3,0.8
				c-0.2,0.4,0.1,0.6,0.3,0.3l1.3-1.2l0.2-0.2C32.9,15.8,32.8,15.4,32.5,15.5z"/>
			<path class="st2" d="M33.5,10.1C33.8,10,33.4,10.1,33.5,10.1L33.5,10.1z"/>
			<path class="st2" d="M79.8,30.2C79.8,30.2,79.8,30.2,79.8,30.2C79.8,30.2,79.8,30.2,79.8,30.2z"/>
			<path class="st2" d="M79.8,30.2C79.8,30.2,79.8,30.2,79.8,30.2C79.8,30.2,79.8,30.2,79.8,30.2z"/>
			<path class="st2" d="M42,11.1c-0.8,0-1.1-2.3-1.3-2.9C40.6,8,41.4,7.4,41,7.3c-0.4-0.1-1.2,0.3-1.5,0.4c-0.1,0-0.2,0.1-0.4,0.1
				c-1,0.3-2.4,0.7-2,1.9c0.1,0.2,0.2,0.4,0.5,0.6c0.1,0.1,1,0.2,1,0.2c0,0.1-0.5,0.8-0.5,1c-0.1,0.4-0.3,0.9-0.6,1.2
				c-0.3,0.3-0.4,0.6,0.2,0.5c0.5-0.1,1-0.3,1.2-0.7c0.1-0.2,0.2-0.4,0.3-0.6c0.1-0.3,0.1-0.5,0.2-0.8c0-0.1,0.5-1.2,0.7-0.8
				c0.1,0.3,0.5,1.1,0.3,1.4c-0.1,0.1-0.5,0.3-0.4,0.5c0.1,0.3,0.5,0.1,0.6,0c0.4-0.2,0.8-0.3,1.3-0.4C42,11.6,42.8,11.1,42,11.1z
				 M39.7,9.8c-0.2,0.1-0.4,0.1-0.6,0.1c-0.3,0-0.5-0.2-0.6-0.5c0,0,0,0.1,0,0c0-0.1,0,0,0,0c-0.1-0.5,0.3-1,0.7-1
				c0.1,0,0.3,0.1,0.4,0.3C39.5,8.8,39.9,9.7,39.7,9.8z"/>
			<path class="st2" d="M38.5,9.3C38.5,9.3,38.5,9.3,38.5,9.3C38.5,9.3,38.5,9.3,38.5,9.3C38.5,9.3,38.5,9.3,38.5,9.3z"/>
			<path class="st2" d="M78.8,26.5c-0.4-1.1-1.3-1.6-2.2-1.6c-1.4,0-2.8,1.2-2.3,3c0.4,1.3,1.3,1.8,2.3,1.8
				C78,29.7,79.5,28.4,78.8,26.5z M74.9,28.1c-0.3-0.8,0.7-1.7,1.7-2c0.7-0.2,1.4-0.2,1.7,0.4c0,0,0,0,0,0c0,0,0,0,0,0
				c0,0.1,0,0,0,0c0.3,0.8-0.7,1.6-1.7,1.9C75.8,28.7,75.1,28.6,74.9,28.1z"/>
		</g>
	</g>
	<path class="st1" d="M94.5,97.6L94.5,97.6l-0.1,2.5c0,0.2,0.1,0.3,0.2,0.5c0.2,0.1,0.3,0.2,0.5,0.2c0.6,0,0.9,0.3,0.9,0.8
		c0,0.6-0.3,0.9-0.9,0.9h-3.9c-0.6,0-0.8-0.3-0.8-0.9c0-0.6,0.3-0.8,0.8-0.8c0.2,0,0.3-0.1,0.5-0.2c0.2-0.1,0.2-0.3,0.2-0.5v-5.9
		c0-0.2-0.1-0.3-0.2-0.5c-0.2-0.1-0.3-0.2-0.5-0.2c-0.6,0-0.8-0.3-0.8-0.8c0-0.6,0.3-0.9,0.8-0.9h3.9c0.6,0,0.9,0.3,0.9,0.9
		c0,0.6-0.3,0.8-0.9,0.8c-0.2,0-0.3,0.1-0.5,0.2c-0.2,0.1-0.2,0.3-0.2,0.5v1.7h0.1h3.9h0.1v-1.7c0-0.2-0.1-0.3-0.2-0.5
		c-0.2-0.1-0.3-0.2-0.5-0.2c-0.6,0-0.8-0.3-0.8-0.8c0-0.6,0.3-0.9,0.8-0.9h3.9c0.6,0,0.9,0.3,0.9,0.9c0,0.6-0.3,0.8-0.9,0.8
		c-0.2,0-0.3,0.1-0.5,0.2c-0.2,0.1-0.2,0.3-0.2,0.5v5.9c0,0.2,0.1,0.3,0.2,0.5c0.2,0.1,0.3,0.2,0.5,0.2c0.6,0,0.9,0.3,0.9,0.8
		c0,0.6-0.3,0.9-0.9,0.9h-3.9c-0.6,0-0.8-0.3-0.8-0.9c0-0.6,0.3-0.8,0.8-0.8c0.2,0,0.3-0.1,0.5-0.2c0.2-0.1,0.2-0.3,0.2-0.5v-2.5
		h-0.1H94.5z M83.2,99.8c0.4,0.9,0.8,1.4,1.4,1.4c0.5,0,1-0.4,1.3-1.1c0.4-0.8,0.5-1.7,0.5-2.8l0-0.9c-0.1-0.4-0.2-0.9-0.3-1.6
		c-0.4-1-0.9-1.5-1.5-1.5c-0.5,0-1,0.4-1.3,1.1c-0.4,0.8-0.5,1.7-0.5,2.8l0.1,1C82.8,98.4,82.9,99,83.2,99.8z M89.6,97.2
		c0,1.6-0.5,2.9-1.5,4c-1,1.1-2.2,1.7-3.5,1.7c-1.4,0-2.6-0.6-3.5-1.7c-1-1.1-1.5-2.4-1.5-4c0-1.6,0.5-2.9,1.5-4
		c1-1.1,2.2-1.7,3.5-1.7c1.4,0,2.6,0.6,3.5,1.7C89.1,94.3,89.6,95.7,89.6,97.2z M73.7,91.8h4c0.6,0,1,0.2,1,0.7
		c0,0.3-0.2,0.6-0.6,0.9c0.4,0.5,0.6,1.1,0.6,1.8c0,0.8-0.3,1.5-0.8,2c-0.4,0.4-0.9,0.6-1.4,0.6c-0.5,0-0.8-0.1-1.1-0.3
		c-0.4-0.3-0.6-0.6-0.6-1.1c0-0.4,0.1-0.7,0.4-0.9c0.2-0.2,0.5-0.2,0.8-0.2c-0.1,0.1-0.1,0.1-0.1,0.3c0,0.3,0.1,0.5,0.4,0.5
		c0.3,0,0.5-0.2,0.5-0.6c0-0.7-0.2-1.2-0.7-1.6c-0.4-0.3-0.8-0.4-1.4-0.4H73l0,6.7c0,0.2,0.1,0.3,0.2,0.5c0.2,0.1,0.3,0.2,0.5,0.2
		c0.6,0,0.9,0.3,0.9,0.8c0,0.6-0.3,0.9-0.9,0.9h-3.9c-0.6,0-0.8-0.3-0.8-0.9c0-0.6,0.3-0.8,0.8-0.8c0.2,0,0.3-0.1,0.5-0.2
		c0.2-0.1,0.2-0.3,0.2-0.5v-5.9c0-0.2-0.1-0.3-0.2-0.5c-0.2-0.1-0.3-0.2-0.5-0.2c-0.6,0-0.8-0.3-0.8-0.9c0-0.6,0.3-0.8,0.8-0.8H73.7
		z M61.4,100.7c0.3,0.1,0.5,0.2,0.7,0.2h1c0.2,0,0.3-0.1,0.5-0.2c0.2-0.1,0.2-0.3,0.2-0.5l-0.1-1.3l-0.3-2.7c-0.6,0.2-1.2,0.5-1.8,1
		c-0.7,0.6-1,1.2-1.1,2C60.4,99.8,60.7,100.4,61.4,100.7z M67.2,102.6h-6.6c-0.7,0-1.4-0.2-2-0.6c-0.9-0.6-1.3-1.4-1.3-2.4
		c0-1.3,0.4-2.3,1.3-3c0.9-0.8,2.5-1.4,4.7-1.8L63.2,94c-1,0.2-2,0.3-2.8,0.3c-1,0-1.7-0.3-2.3-0.8c-0.4-0.4-0.6-0.9-0.6-1.4
		c0-0.3,0.1-0.7,0.3-0.9c0.2-0.3,0.5-0.4,0.8-0.4c0.3,0,0.7,0.1,1.1,0.4c0.6,0.4,1,0.7,1.2,0.8c0.6,0.3,1.2,0.4,1.9,0.4
		c0.6,0,1.2-0.1,2-0.4c0.8-0.3,1.3-0.4,1.6-0.4c0.6,0,0.8,0.3,0.8,0.8c0,0.2-0.2,0.6-0.7,1c-0.5,0.4-0.6,0.9-0.6,1.5l0.6,5.3
		c0,0.2,0.1,0.3,0.2,0.5c0.1,0.1,0.3,0.2,0.4,0.2c0.6,0,0.9,0.3,0.9,0.8C68,102.3,67.8,102.6,67.2,102.6z M52,100.8
		c0.4,0,0.8,0,1-0.2c0.2-0.2,0.4-0.4,0.5-0.6c0.1-0.5,0.2-0.9,0.1-1.2c-0.1-0.4-0.2-0.7-0.4-0.9c-0.2-0.3-0.5-0.4-0.8-0.6
		C52,97,51.6,97,51.2,96.9c-0.1,0-0.2,0-0.4,0c-0.2,0-0.3,0-0.5-0.1c-0.1,0-0.1-0.1-0.1-0.2c0-0.1,0-0.1,0-0.2c0-0.1,0-0.1,0-0.2
		c0-0.1,0.1-0.1,0.2-0.1c0.1,0,0.2,0,0.4,0c0.2,0,0.3,0,0.4,0c0.6,0,1.1-0.2,1.4-0.4c0.4-0.2,0.6-0.7,0.6-1.2c0-0.3-0.1-0.6-0.2-0.7
		c-0.1-0.2-0.3-0.3-0.6-0.4l-1.9,0c-0.2,0-0.3,0.1-0.4,0.2c-0.1,0.1-0.2,0.3-0.2,0.5v0.9v4.4v0.7c0,0.2,0.1,0.4,0.2,0.5
		c0.2,0.2,0.3,0.2,0.5,0.2L52,100.8z M47.3,94.3c0-0.3-0.1-0.5-0.2-0.5c-0.2-0.1-0.3-0.1-0.5-0.2c-0.2-0.1-0.4-0.1-0.5-0.2
		c-0.2-0.1-0.2-0.3-0.2-0.6c0-0.6,0.3-0.8,0.9-0.8H52c1,0,1.8,0.2,2.5,0.6c0.7,0.5,1,1.1,1,1.9c0,0.4-0.1,0.8-0.3,1.1
		c-0.2,0.3-0.7,0.6-1.3,0.9c1.4,0.2,2.2,0.9,2.5,2c0.1,0.6,0,1.2-0.1,1.7c-0.2,0.5-0.5,1-1,1.4c-0.5,0.4-1.1,0.7-2,0.9
		c-0.8,0.2-1.8,0.3-2.9,0.2h-3.8c-0.6,0-0.9-0.3-0.9-0.8c0-0.3,0.1-0.5,0.2-0.6c0.2-0.1,0.3-0.2,0.5-0.2c0.2,0,0.4-0.1,0.5-0.2
		c0.2-0.1,0.2-0.2,0.2-0.5V94.3z M38.5,95.7c-0.3,0.6-0.6,1.1-0.9,1.6c-0.3,0.5-0.5,1.1-0.7,1.6c-0.2,0.5-0.3,0.9-0.5,1.3h4.9
		l-1.8-6.1C39.2,94.7,38.8,95.2,38.5,95.7z M37.2,102.6c-0.5,0-0.9,0.4-1.1,1.1c-0.2,0.8-0.6,1.1-1,1.1c-0.6,0-0.8-0.2-0.7-0.7
		c0.2-0.5,0.2-0.8,0.2-0.9c0-0.1,0-0.2-0.1-0.3c-0.1-0.1-0.2-0.3-0.4-0.6c-0.2-0.4-0.4-0.7-0.5-1c-0.1-0.3-0.2-0.6-0.2-1h1.2
		c0.3-1.4,1.2-3.2,2.5-5.4c0.3-0.5,0.5-0.9,0.5-1c0-0.2-0.1-0.3-0.2-0.3c-0.1,0-0.3-0.1-0.4-0.1c-0.2,0-0.3-0.1-0.4-0.2
		c-0.1-0.1-0.2-0.3-0.2-0.6c0-0.6,0.3-0.9,0.9-0.9h5.3c0.6,0,0.9,0.3,0.9,0.9c0,0.3-0.1,0.5-0.2,0.6c-0.1,0.1-0.3,0.2-0.5,0.2
		c-0.2,0-0.3,0.1-0.5,0.2c-0.1,0.1-0.2,0.2-0.2,0.5c0,0,0,0.1,0,0.1l1.8,6h1.5c0,0.4-0.1,0.7-0.2,1c-0.1,0.3-0.3,0.6-0.5,1
		c-0.2,0.3-0.4,0.6-0.4,0.6c-0.1,0.1-0.1,0.2-0.1,0.3c0,0.2,0.1,0.5,0.2,0.9c0.2,0.5-0.1,0.7-0.7,0.7c-0.4,0-0.7-0.4-1-1.1
		c-0.3-0.7-0.6-1.1-1.1-1.1H37.2z M27,99.8c0.4,0.9,0.8,1.4,1.4,1.4c0.5,0,1-0.4,1.3-1.1c0.4-0.8,0.5-1.7,0.5-2.8l0-0.9
		c-0.1-0.4-0.2-0.9-0.3-1.6c-0.4-1-0.9-1.5-1.5-1.5c-0.5,0-1,0.4-1.3,1.1c-0.4,0.8-0.5,1.7-0.5,2.8l0.1,1C26.6,98.4,26.7,99,27,99.8
		z M33.4,97.2c0,1.6-0.5,2.9-1.5,4c-1,1.1-2.2,1.7-3.5,1.7c-1.4,0-2.6-0.6-3.5-1.7c-1-1.1-1.5-2.4-1.5-4c0-1.6,0.5-2.9,1.5-4
		c1-1.1,2.2-1.7,3.5-1.7c1.4,0,2.6,0.6,3.5,1.7C32.9,94.3,33.4,95.7,33.4,97.2z M19.3,95.8c-0.2,0.8-0.5,1.6-1,2.3
		c-0.5,0.6-1,1.1-1.7,1.4v-1.3v-4.7c0-0.1,0-0.1,0.1-0.2c0.1-0.1,0.2-0.1,0.2-0.1h0.5c0.8,0,1.3,0.3,1.7,0.9c0,0.1,0.1,0.2,0.1,0.3
		c0,0.1,0,0.2,0.1,0.3c0,0.1,0,0.3,0,0.4C19.3,95.4,19.3,95.5,19.3,95.8z M21.4,92.6c-0.7-0.7-1.8-1-3.2-1h-4.4
		c-0.2,0-0.4,0.1-0.6,0.2C13,92,13,92.2,13,92.4c0,0.2,0.1,0.4,0.2,0.6c0.2,0.1,0.4,0.2,0.6,0.2c0.1,0,0.1,0,0.2,0.1
		c0.1,0.1,0.1,0.1,0.1,0.2v6.2c-0.2-0.1-0.3-0.2-0.5-0.4c-0.3-0.2-0.5-0.4-0.7-0.4c-0.2,0-0.4,0.1-0.5,0.2c-0.1,0.2-0.1,0.4-0.1,0.6
		c0,0.2,0.1,0.4,0.2,0.5c0.1,0.2,0.3,0.3,0.4,0.4c0.2,0.1,0.4,0.2,0.6,0.3c0.2,0.1,0.4,0.1,0.6,0.2v1.4c0,0.3-0.1,0.5-0.2,0.6
		c-0.1,0.1-0.3,0.2-0.6,0.2c0,0-0.1,0-0.1,0l-0.2,0l0,0.2c0,0.3,0.1,0.6,0.4,0.8c0.3,0.3,0.7,0.4,1.2,0.4c0,0,0,0,0,0
		c0.7,0,1.3-0.2,1.6-0.7c0.3-0.4,0.5-1,0.5-1.6v-1.5c1.6-0.3,2.9-1,4-1.9c1.2-1.1,1.9-2.4,1.8-3.8C22.5,94.2,22.1,93.2,21.4,92.6z
		 M10.5,93.6c0,0,0.1-0.1,0.1-0.1c0,0,0,0,0,0c0,0,0,0,0,0c0.2,0,0.4-0.1,0.5-0.3c0.1-0.2,0.1-0.4,0.1-0.6c0-0.5-0.3-0.9-0.9-0.9h0
		c0,0,0,0,0,0l-3.1,0l-6.4,0.1c-0.3,0-0.5,0.1-0.6,0.3C0.1,92.2,0,92.4,0,92.7c0,0,0,0,0,0c0,0.2,0,0.4,0.1,0.6
		c0.1,0.2,0.2,0.3,0.5,0.4c0.1,0,0.2,0,0.2,0.1c0.1,0.1,0.1,0.1,0.1,0.2l0,7c0,0.1,0,0.1-0.1,0.2c-0.1,0.1-0.1,0.1-0.2,0.1
		c-0.2,0-0.3,0.1-0.4,0.3c-0.1,0.1-0.1,0.3-0.1,0.5l0,0c0,0,0,0,0,0v0c0,0.2,0.1,0.4,0.2,0.6c0.2,0.1,0.4,0.2,0.6,0.2H4h0
		c0.2,0,0.4-0.1,0.6-0.2c0.2-0.1,0.2-0.3,0.2-0.6c0-0.2-0.1-0.4-0.2-0.6c-0.2-0.1-0.4-0.2-0.6-0.2c-0.1,0-0.1,0-0.2-0.1
		c-0.1-0.1-0.1-0.1-0.1-0.2l0-6.7c0-0.1,0-0.1,0.1-0.2C3.9,93.8,4,93.8,4,93.8l3.3,0c0,0,0.1,0,0.2,0.1C7.6,94,7.6,94,7.6,94.1
		c0,0,0,0,0,0v6.7c0,0.1,0,0.1-0.1,0.2c-0.1,0.1-0.1,0.1-0.2,0.1c0,0,0,0,0,0c-0.2,0-0.4,0.1-0.6,0.2c-0.2,0.1-0.2,0.3-0.2,0.6
		c0,0,0,0,0,0c0,0.2,0.1,0.4,0.2,0.6c0.2,0.1,0.4,0.2,0.6,0.2h3.2c0,0,0,0,0,0c0.2,0,0.4-0.1,0.6-0.2c0.2-0.1,0.2-0.3,0.2-0.6
		c0-0.2,0-0.4-0.2-0.5c-0.1-0.1-0.3-0.2-0.5-0.2c-0.1,0-0.1,0-0.2-0.1c-0.1-0.1-0.1-0.1-0.1-0.2l0-7.1
		C10.3,93.7,10.4,93.6,10.5,93.6z"/>
</g>
</svg>
