<?xml version="1.0" encoding="utf-8"?>
<!-- Generator: Adobe Illustrator 22.0.0, SVG Export Plug-In . SVG Version: 6.00 Build 0)  -->
<svg version="1.1" id="Layer_1" xmlns="http://www.w3.org/2000/svg" xmlns:xlink="http://www.w3.org/1999/xlink" x="0px" y="0px"
	 viewBox="0 0 102.2 48.3" style="enable-background:new 0 0 102.2 48.3;" xml:space="preserve">
<style type="text/css">
	.st0{fill-rule:evenodd;clip-rule:evenodd;fill:#010102;}
	.st1{fill-rule:evenodd;clip-rule:evenodd;fill:#20396E;stroke:#20396E;stroke-width:0.6976;stroke-miterlimit:22.9256;}
	.st2{fill-rule:evenodd;clip-rule:evenodd;fill:#FFFFFF;}
</style>
<polygon class="st0" points="31.2,2.7 30.7,2.6 30.1,2.4 29.6,2.3 29,2.2 28,1.9 26.9,1.6 25.8,1.3 24.8,1 23.7,0.7 22.7,0.4 
	19.4,1.7 18.8,2 18.2,2.3 17.7,2.6 17.1,2.9 16.8,3.1 16.5,3.2 16.2,3.4 15.9,3.6 15.7,3.8 15.4,3.9 15.1,4.1 14.9,4.3 14.5,4.6 
	14.1,4.9 13.7,5.2 13.4,5.5 13,5.8 12.7,6.1 12.3,6.5 12,6.8 11.6,7.2 11.2,7.6 10.9,8 10.5,8.4 10.2,8.8 9.8,9.2 9.5,9.6 9.1,10 
	8.4,10.9 7.7,11.7 7.4,12.1 7,12.5 6.7,12.9 6.3,13.3 6.1,13.5 6,13.6 5.8,13.7 5.7,13.9 5.5,14 5.3,14.2 5.2,14.3 5,14.4 4.9,14.5 
	4.7,14.6 4.5,14.7 4.4,14.8 4.2,14.9 4.1,15 3.9,15.1 3.7,15.2 0.3,16.6 0.3,37.6 1.4,39.8 2.3,41.3 3.4,42.4 3.6,42.6 3.9,42.7 
	4.1,42.9 4.3,43 4.5,43.2 4.7,43.3 4.9,43.5 5.2,43.6 5.3,43.7 5.5,43.8 5.7,43.9 5.8,44 6.2,44.1 6.5,44.2 6.8,44.4 7.2,44.5 
	7.5,44.6 7.9,44.7 8.1,44.8 8.3,44.8 8.5,44.9 8.7,44.9 8.8,45 9,45 9.2,45 9.4,45.1 9.6,45.1 9.8,45.1 10,45.2 10.3,45.2 
	10.5,45.3 10.7,45.3 10.9,45.4 11.1,45.4 11.6,48 12.2,47.9 12.8,47.9 13.4,47.8 14,47.8 14.5,47.7 15.1,47.6 15.7,47.6 16.3,47.5 
	18.3,47.3 20.3,47.2 22.3,47 24.2,46.9 26.2,46.7 28.2,46.6 30.2,46.5 32.2,46.4 34.2,46.3 36.2,46.2 38.2,46.1 40.2,46.1 42.2,46 
	44.2,46 46.2,45.9 48.2,45.9 50.3,45.9 52.3,45.9 54.3,45.9 56.3,46 58.3,46 60.3,46 62.3,46.1 64.3,46.1 65.6,46.2 66.9,46.3 
	68.2,46.3 69.5,46.4 70.8,46.5 72.1,46.5 73.4,46.6 74.7,46.7 76,46.8 77.4,46.9 78.7,46.9 80,47 81.3,47.1 82.6,47.2 83.9,47.4 
	85.2,47.5 90.6,48 91.1,45.4 91.4,45.3 91.8,45.3 92.1,45.2 92.4,45.1 92.8,45.1 93.1,45 93.4,44.9 93.7,44.9 94,44.8 94.2,44.8 
	94.4,44.7 94.6,44.6 94.8,44.6 95,44.5 95.2,44.4 95.4,44.4 95.6,44.3 95.8,44.2 96,44.1 96.2,44 96.6,43.8 97,43.6 97.3,43.5 
	97.5,43.3 97.7,43.2 97.9,43 98.1,42.9 98.3,42.7 98.5,42.6 98.8,42.4 99.8,41.3 100.8,39.8 101.8,37.6 101.8,16.6 98.5,15.2 
	98.3,15.1 98.1,15 97.9,14.9 97.7,14.7 97.5,14.6 97.3,14.5 97.1,14.3 96.9,14.2 96.6,13.9 96.4,13.7 96.1,13.4 95.8,13.2 
	95.5,12.9 95.3,12.6 95,12.3 94.8,12 94.3,11.5 93.8,10.9 93.3,10.3 92.8,9.7 92.5,9.4 92.3,9 92,8.7 91.7,8.3 91.4,8 91.1,7.7 
	90.8,7.4 90.5,7 90.2,6.7 89.9,6.4 89.5,6.1 89.2,5.8 88.9,5.5 88.5,5.2 88.2,5 87.8,4.7 87.6,4.5 87.3,4.3 87.1,4.1 86.8,3.9 
	86.5,3.7 86.3,3.6 86,3.4 85.7,3.2 83.8,2.2 81.7,1.2 79.5,0.4 71.9,2.5 71.2,2.6 70.6,2.8 69.9,2.9 69.2,3.1 68.5,3.2 67.8,3.3 
	67.1,3.5 66.5,3.6 65.8,3.7 65.1,3.8 64.4,3.9 63.7,4 63,4.1 62.3,4.2 61.6,4.3 60.9,4.4 60.2,4.5 59.4,4.6 58.6,4.6 57.8,4.7 
	57.1,4.8 56.3,4.8 55.5,4.9 54.7,4.9 54.7,4.9 54.3,4.9 53.9,4.9 53.4,4.9 53,4.9 52.6,4.9 52.1,4.9 51.7,5 51.3,5 47.4,4.9 
	47.4,4.9 46.9,4.9 46.4,4.8 45.9,4.8 45.4,4.8 44.9,4.8 44.4,4.7 43.9,4.7 43.3,4.6 42.3,4.5 41.3,4.4 40.3,4.3 39.3,4.2 38.3,4 
	37.2,3.9 36.2,3.7 35.2,3.5 34.2,3.3 33.2,3.1 32.2,2.9 "/>
<g>
	<polygon class="st1" points="31.2,2.7 30.7,2.6 30.1,2.4 29.6,2.3 29,2.2 28,1.9 26.9,1.6 25.8,1.3 24.8,1 23.7,0.7 22.7,0.4 
		19.4,1.7 18.8,2 18.2,2.3 17.7,2.6 17.1,2.9 16.8,3.1 16.5,3.2 16.2,3.4 15.9,3.6 15.7,3.8 15.4,3.9 15.1,4.1 14.9,4.3 14.5,4.6 
		14.1,4.9 13.7,5.2 13.4,5.5 13,5.8 12.7,6.1 12.3,6.5 12,6.8 11.6,7.2 11.2,7.6 10.9,8 10.5,8.4 10.2,8.8 9.8,9.2 9.5,9.6 9.1,10 
		8.4,10.9 7.7,11.7 7.4,12.1 7,12.5 6.7,12.9 6.3,13.3 6.1,13.5 6,13.6 5.8,13.7 5.7,13.9 5.5,14 5.3,14.2 5.2,14.3 5,14.4 
		4.9,14.5 4.7,14.6 4.5,14.7 4.4,14.8 4.2,14.9 4.1,15 3.9,15.1 3.7,15.2 0.3,16.6 0.3,37.6 1.4,39.8 2.3,41.3 3.4,42.4 3.6,42.6 
		3.9,42.7 4.1,42.9 4.3,43 4.5,43.2 4.7,43.3 4.9,43.5 5.2,43.6 5.3,43.7 5.5,43.8 5.7,43.9 5.8,44 6.2,44.1 6.5,44.2 6.8,44.4 
		7.2,44.5 7.5,44.6 7.9,44.7 8.1,44.8 8.3,44.8 8.5,44.9 8.7,44.9 8.8,45 9,45 9.2,45 9.4,45.1 9.6,45.1 9.8,45.1 10,45.2 
		10.3,45.2 10.5,45.3 10.7,45.3 10.9,45.4 11.1,45.4 11.6,48 12.2,47.9 12.8,47.9 13.4,47.8 14,47.8 14.5,47.7 15.1,47.6 15.7,47.6 
		16.3,47.5 18.3,47.3 20.3,47.2 22.3,47 24.2,46.9 26.2,46.7 28.2,46.6 30.2,46.5 32.2,46.4 34.2,46.3 36.2,46.2 38.2,46.1 
		40.2,46.1 42.2,46 44.2,46 46.2,45.9 48.2,45.9 50.3,45.9 52.3,45.9 54.3,45.9 56.3,46 58.3,46 60.3,46 62.3,46.1 64.3,46.1 
		65.6,46.2 66.9,46.3 68.2,46.3 69.5,46.4 70.8,46.5 72.1,46.5 73.4,46.6 74.7,46.7 76,46.8 77.4,46.9 78.7,46.9 80,47 81.3,47.1 
		82.6,47.2 83.9,47.4 85.2,47.5 90.6,48 91.1,45.4 91.4,45.3 91.8,45.3 92.1,45.2 92.4,45.1 92.8,45.1 93.1,45 93.4,44.9 93.7,44.9 
		94,44.8 94.2,44.8 94.4,44.7 94.6,44.6 94.8,44.6 95,44.5 95.2,44.4 95.4,44.4 95.6,44.3 95.8,44.2 96,44.1 96.2,44 96.6,43.8 
		97,43.6 97.3,43.5 97.5,43.3 97.7,43.2 97.9,43 98.1,42.9 98.3,42.7 98.5,42.6 98.8,42.4 99.8,41.3 100.8,39.8 101.8,37.6 
		101.8,16.6 98.5,15.2 98.3,15.1 98.1,15 97.9,14.9 97.7,14.7 97.5,14.6 97.3,14.5 97.1,14.3 96.9,14.2 96.6,13.9 96.4,13.7 
		96.1,13.4 95.8,13.2 95.5,12.9 95.3,12.6 95,12.3 94.8,12 94.3,11.5 93.8,10.9 93.3,10.3 92.8,9.7 92.5,9.4 92.3,9 92,8.7 
		91.7,8.3 91.4,8 91.1,7.7 90.8,7.4 90.5,7 90.2,6.7 89.9,6.4 89.5,6.1 89.2,5.8 88.9,5.5 88.5,5.2 88.2,5 87.8,4.7 87.6,4.5 
		87.3,4.3 87.1,4.1 86.8,3.9 86.5,3.7 86.3,3.6 86,3.4 85.7,3.2 83.8,2.2 81.7,1.2 79.5,0.4 71.9,2.5 71.2,2.6 70.6,2.8 69.9,2.9 
		69.2,3.1 68.5,3.2 67.8,3.3 67.1,3.5 66.5,3.6 65.8,3.7 65.1,3.8 64.4,3.9 63.7,4 63,4.1 62.3,4.2 61.6,4.3 60.9,4.4 60.2,4.5 
		59.4,4.6 58.6,4.6 57.8,4.7 57.1,4.8 56.3,4.8 55.5,4.9 54.7,4.9 54.7,4.9 54.3,4.9 53.9,4.9 53.4,4.9 53,4.9 52.6,4.9 52.1,4.9 
		51.7,5 51.3,5 47.4,4.9 47.4,4.9 46.9,4.9 46.4,4.8 45.9,4.8 45.4,4.8 44.9,4.8 44.4,4.7 43.9,4.7 43.3,4.6 42.3,4.5 41.3,4.4 
		40.3,4.3 39.3,4.2 38.3,4 37.2,3.9 36.2,3.7 35.2,3.5 34.2,3.3 33.2,3.1 32.2,2.9 	"/>
	<g>
		<path class="st2" d="M97.6,17.2l-0.2-0.1L97.1,17l-0.2-0.1l-0.2-0.1l-0.2-0.1l-0.2-0.1l-0.2-0.1l-0.2-0.1l-0.2-0.1l-0.2-0.1
			l-0.2-0.1l-0.2-0.1l-0.2-0.2l-0.2-0.2l-0.2-0.2L94.6,15l-0.3-0.3L94,14.4l-0.3-0.3l-0.3-0.3l-0.3-0.3l-0.3-0.3l-0.3-0.3l-0.3-0.3
			l-0.5-0.6l-0.5-0.6l-0.5-0.6L90.3,10L90,9.7l-0.3-0.3l-0.3-0.3l-0.3-0.3l-0.3-0.3l-0.3-0.3L88.4,8l-0.3-0.3l-1.3-1.1l-0.3-0.2
			l-0.3-0.2L86,6l-0.3-0.2l-0.3-0.2l-0.3-0.2l-0.3-0.2L84.6,5l-1.7-1l-2-0.9l-1.5-0.6l-0.4,0.1l-0.4,0.1l-0.4,0.1L77.9,3l-0.4,0.1
			l-0.4,0.1l-0.4,0.1l-0.4,0.1l-0.7,0.2L75,3.8L74.4,4l-0.7,0.2l-0.7,0.2l-0.7,0.2l-0.7,0.2l-0.7,0.2L70.4,5l-0.7,0.1l-0.7,0.1
			l-0.7,0.1l-0.7,0.1l-0.7,0.1l-0.7,0.1l-0.7,0.1l-1.7,0.3l-0.7,0.1l-0.7,0.1l-0.7,0.1l-0.7,0.1l-0.7,0.1l-0.7,0.1L59,6.8l-0.7,0.1
			l-0.7,0.1l-0.7,0.1l-0.7,0l-0.7,0l-0.7,0l-0.7,0l-0.7,0l-0.7,0h-0.2h-0.2H52h-0.2h-0.2h-0.2h-0.2h-0.2h-1.5l-0.8,0l-0.8,0l-0.8,0
			l-0.8,0l-0.8,0L45,6.9l-0.8-0.1l-0.8-0.1l-0.8-0.1l-0.8-0.1l-0.8-0.1l-0.8-0.1l-0.8-0.1l-0.8-0.1l-0.8-0.1L37.3,6l-0.9-0.2
			l-0.9-0.1l-0.9-0.2l-0.9-0.2l-0.9-0.2L32.1,5l-0.9-0.2l-0.9-0.2l-0.8-0.2l-0.8-0.2L28,4.1l-0.8-0.2l-0.8-0.2l-0.8-0.2l-0.8-0.2
			L24.1,3l-1.3-0.4l-2.5,1l-1.8,1l-1.6,1l-0.3,0.2l-0.3,0.2L16,6.1l-0.3,0.2l-0.3,0.2l-0.3,0.2L15,6.9l-0.3,0.2l-0.2,0.2l-0.2,0.2
			L14,7.8L13.8,8l-0.2,0.2l-0.2,0.2l-0.2,0.2L13,8.8l-1,1.1l-0.5,0.6l-0.5,0.6l-0.5,0.6l-0.5,0.6l-0.5,0.6l-0.5,0.6l-0.3,0.3
			l-0.3,0.3l-0.3,0.3L7.7,15l-0.2,0.2l-0.2,0.2l-0.2,0.2L7,15.6l-0.2,0.1l-0.2,0.1l-0.2,0.1l-0.2,0.1l-0.2,0.1l-0.2,0.1l-0.2,0.1
			l-0.2,0.1l-0.2,0.1L5.1,17l-0.2,0.1l-0.2,0.1l-2.2,0.9v19.2l0.4,1l0.3,0.6l0.4,0.6L4,40.1l0.9,1l0.9,0.7L6,41.8l0.2,0.1L6.4,42
			l0.2,0.1l0.2,0.1l0.2,0.1l0.2,0.1l0.2,0.1l0.3,0.1l0.3,0.1l0.3,0.1l0.3,0.1l0.3,0.1L9,43l0.3,0.1l0.3,0.1l0.3,0.1l0.3,0.1l0.3,0.1
			l0.3,0.1l0.3,0.1l0.3,0.1l0.3,0.1l0.3,0.1l0.2,0.1l0.1,0.1l0.1,0l0.1,0l0.1,0l0.1,0l0,0l0.1,0l0,0l0,0.1l0,0.1l0,0.1l0,0.1l0,0.1
			l0.3,1.5l1-0.1l1-0.1l1-0.1l1-0.1l1-0.1l1-0.1l1-0.1l1-0.1l1.7-0.1l1.7-0.1l1.7-0.1l1.7-0.1l1.7-0.1l1.7-0.1l1.7-0.1l1.7-0.1
			l1.1,0l1.1,0l1.1,0l1.1,0l1.1,0l1.1,0l1.1,0l1.1,0l1.7,0l1.7,0l1.7,0l1.7,0l1.7,0l1.7,0l1.7,0l1.7,0l1.7,0l1.7,0l1.7,0.1l1.7,0.1
			l1.7,0.1l1.7,0.1l1.7,0.1l1.7,0.1l1.7,0.1l1.7,0.1l1.7,0.1l1.7,0.1l1.7,0.1l1.7,0.1l1.7,0.1l1.7,0.1l3.5,0.4l0.3-1.6l0-0.1l0-0.1
			l0.1-0.1l0.1-0.1l0.1-0.1l0.1,0l0.1,0l0.1,0l0.2-0.1l0.2-0.1l0.2-0.1l0.1-0.1l0.4-0.1l0.4-0.1l0.4-0.1l0.4-0.1l0.4-0.1l0.4-0.1
			l0.4-0.1l0.4-0.1l0.2,0l0.2,0l0.2-0.1l0.2-0.1l0.2-0.1l0.2-0.1l0.2-0.1l0.2-0.1l0.2-0.1l0.2-0.1l0.2-0.1l0.2-0.1l0.2-0.1l0.2-0.1
			l0.2-0.1l0.2-0.1l1-0.7l0.9-1l0.4-0.5l0.3-0.6l0.3-0.6l0.4-1V18.1L97.6,17.2L97.6,17.2z M98.3,37.2L98.3,37.2l-0.3,0.6l-0.3,0.6
			l-0.3,0.5l-0.3,0.5l-0.3,0.4l-0.4,0.4l-0.4,0.3l-0.4,0.3L95.3,41l-0.4,0.2l-0.4,0.2L94,41.5l-0.4,0.1l-0.4,0.1l-0.4,0.1L92.3,42
			l-0.8,0.2l-0.8,0.2l-0.4,0.1l-0.4,0.1l-0.3,0.1l-0.3,0.1L89,42.8L88.7,43l-0.2,0.2l-0.2,0.2l-0.2,0.2L88,43.9l-0.1,0.3l-0.1,0.4
			l-2.3-0.2l-2.3-0.2L80.9,44l-2.3-0.2l-2.3-0.2L74,43.5l-2.3-0.1l-2.3-0.1l-2.3-0.1l-2.3-0.1L62.5,43l-2.3-0.1L58,42.9l-2.3,0
			l-2.3,0l-2.3,0l-2.3,0l-2.3,0l-2.3,0l-2.3,0L39.6,43L37.3,43l-2.3,0.1l-2.3,0.1l-2.3,0.1l-2.3,0.1l-2.3,0.2l-2.3,0.2L21.3,44
			L19,44.2l-2.3,0.2l-2.3,0.2l-0.1-0.4l-0.1-0.3l-0.1-0.3l-0.2-0.2l-0.2-0.2L13.5,43l-0.3-0.2l-0.3-0.1l-0.3-0.1l-0.3-0.1l-0.4-0.1
			l-0.4-0.1l-0.8-0.2L9.9,42l-0.4-0.1L9,41.8l-0.4-0.1l-0.4-0.1l-0.4-0.2l-0.4-0.2L6.9,41l-0.4-0.2l-0.4-0.3l-0.4-0.3l-0.4-0.4
			L5,39.4l-0.3-0.5l-0.3-0.5l-0.3-0.6l-0.3-0.6V19.1l0.7-0.3l0.7-0.3l0.6-0.4l0.6-0.4L7,17.4L7.6,17l0.5-0.4l0.5-0.5L9,15.6l0.5-0.5
			l0.4-0.5l0.4-0.5l0.8-1.1l0.9-1.1l0.4-0.5l0.5-0.5l0.5-0.5l0.5-0.5l0.5-0.5L15,8.7l0.6-0.5l0.6-0.5l0.6-0.5l0.7-0.5l0.7-0.5
			l0.8-0.5l0.8-0.5l0.9-0.4l1-0.4l1-0.4l0.9,0.3l0.9,0.3l0.9,0.3L26.4,5l0.9,0.2l0.9,0.2l0.9,0.2L30,5.9l0.9,0.2l0.9,0.2l0.9,0.2
			l0.9,0.2l0.9,0.2L35.3,7l0.9,0.2l0.9,0.1l0.9,0.1l0.9,0.1l0.9,0.1l0.9,0.1l0.9,0.1L42.3,8l0.9,0.1l0.9,0.1l0.9,0.1l0.9,0.1l0.9,0
			l0.9,0l0.9,0l0.9,0l0.9,0H51h0h0h0h0h0h0h0h0h0h0h0h0h0h0h0h0h0.9l0.9,0l0.9,0l0.9,0l0.9,0l0.9,0l0.9-0.1l0.9-0.1L59,8.1L59.9,8
			l0.9-0.1l0.9-0.1l0.9-0.1l0.9-0.1l0.9-0.1l0.9-0.1L66,7.2L66.9,7l0.9-0.2l0.9-0.2l0.9-0.2l0.9-0.2l0.9-0.2l0.9-0.2l0.9-0.2L74,5.5
			l0.9-0.2L75.8,5l0.9-0.3l0.9-0.3l0.9-0.3L79.4,4l1,0.4l1,0.4l0.9,0.4l0.8,0.5l0.8,0.5l0.7,0.5l0.7,0.5L86,7.7l0.6,0.5l0.6,0.5
			l0.5,0.5l0.5,0.5l0.5,0.5l0.5,0.5l0.5,0.5l0.4,0.5L91,13l0.9,1.1l0.4,0.5l0.4,0.5l0.4,0.5l0.5,0.5l0.5,0.5l0.5,0.4l0.5,0.4
			l0.6,0.4l0.6,0.4l0.6,0.4l0.7,0.3l0.7,0.3V37.2z"/>
		<g>
			<g>
				<path class="st2" d="M38.1,39.5L38.1,39.5c-0.1,0.3-0.3,0.5-0.5,0.6c-0.2,0.1-0.5,0.2-0.7,0.2c-0.2,0-0.3,0-0.5-0.1
					c-0.1-0.1-0.2-0.2-0.3-0.3c-0.1-0.1-0.1-0.3-0.1-0.4c0-0.3,0.1-0.6,0.3-0.9c0.2-0.3,0.4-0.5,0.7-0.7c0.3-0.2,0.6-0.3,0.8-0.3
					c0.2,0,0.4,0,0.5,0.1c0.1,0.1,0.2,0.2,0.2,0.4c0,0.1,0,0.2-0.1,0.3c-0.1,0.1-0.2,0.1-0.3,0.1c-0.1,0-0.2,0-0.2-0.1
					c-0.1-0.1-0.1-0.1-0.1-0.2c0-0.1,0.1-0.2,0.2-0.3c0.1-0.1,0.1-0.1,0.1-0.1c0,0,0-0.1,0-0.1c0,0-0.1,0-0.1,0
					c-0.2,0-0.3,0.1-0.5,0.2c-0.2,0.2-0.3,0.4-0.4,0.7c-0.1,0.3-0.1,0.5-0.1,0.7c0,0.2,0.1,0.3,0.2,0.4c0.1,0.1,0.2,0.2,0.4,0.2
					c0.1,0,0.3,0,0.4-0.1C37.8,39.8,38,39.7,38.1,39.5z"/>
				<path class="st2" d="M36.9,40.4c-0.2,0-0.3,0-0.5-0.1c-0.1-0.1-0.3-0.2-0.3-0.3C36,39.8,36,39.6,36,39.5c0-0.3,0.1-0.6,0.3-1
					c0.2-0.3,0.4-0.6,0.7-0.7c0.5-0.3,1.1-0.3,1.4-0.1c0.1,0.1,0.2,0.2,0.2,0.4c0,0.1,0,0.3-0.1,0.4c-0.2,0.2-0.4,0.2-0.6,0.1
					c-0.1-0.1-0.1-0.2-0.1-0.2c0-0.1,0.1-0.2,0.2-0.3c0.1-0.1,0.1-0.1,0.1-0.1c0-0.1-0.1-0.1-0.1-0.1c-0.1,0-0.3,0.1-0.4,0.2
					c-0.2,0.2-0.3,0.4-0.4,0.6c-0.1,0.3-0.1,0.5-0.1,0.7c0,0.2,0,0.3,0.1,0.4c0.2,0.2,0.4,0.2,0.7,0.1c0.1-0.1,0.3-0.2,0.4-0.3
					l0.2,0.1c-0.2,0.3-0.4,0.5-0.6,0.6C37.4,40.3,37.2,40.4,36.9,40.4L36.9,40.4z M37.8,37.6L37.8,37.6c-0.3,0-0.5,0.1-0.8,0.3
					c-0.3,0.2-0.5,0.4-0.7,0.7c-0.2,0.3-0.2,0.6-0.2,0.9c0,0.1,0,0.3,0.1,0.4c0.1,0.1,0.1,0.2,0.3,0.3c0.3,0.2,0.8,0.1,1.1-0.1
					c0.2-0.1,0.4-0.3,0.5-0.5l-0.1,0c-0.1,0.1-0.2,0.2-0.3,0.3c-0.3,0.1-0.6,0.1-0.8-0.1c-0.1-0.1-0.2-0.3-0.2-0.5
					c0-0.2,0.1-0.5,0.2-0.8c0.1-0.3,0.3-0.5,0.4-0.7c0.2-0.2,0.5-0.3,0.7-0.2l0,0l0,0.1c0,0.1,0,0.1-0.1,0.2
					c-0.1,0.1-0.1,0.1-0.1,0.2c0,0.1,0,0.1,0.1,0.2c0.1,0.1,0.3,0.1,0.4,0c0.1-0.1,0.1-0.2,0.1-0.3c0-0.1,0-0.2-0.1-0.3
					C38.1,37.7,38,37.6,37.8,37.6z"/>
			</g>
			<g>
				<path class="st2" d="M42.9,36.3l-0.9,3.3c0,0.2-0.1,0.3-0.1,0.3c0,0,0,0.1,0.1,0.1c0,0,0.1,0.1,0.1,0.1c0,0,0.2,0,0.4,0l0,0.1
					h-2l0-0.1c0.2,0,0.3,0,0.4,0c0.1,0,0.1-0.1,0.2-0.1c0-0.1,0.1-0.2,0.2-0.4l0.6-1.9c0.1-0.3,0.1-0.4,0.1-0.5c0,0,0-0.1,0-0.1
					c0-0.1,0-0.2-0.1-0.2c-0.1-0.1-0.1-0.1-0.2-0.1c0,0-0.1,0-0.3,0l0-0.1l1.5-0.4H42.9z"/>
				<path class="st2" d="M42.4,40.3h-2l0-0.2c0.2,0,0.4-0.1,0.4-0.1c0.1,0,0.1-0.1,0.2-0.1c0,0,0.1-0.1,0.2-0.4l0.6-1.9
					c0.1-0.3,0.1-0.4,0.1-0.5c0,0,0-0.1,0-0.1c0-0.1,0-0.1-0.1-0.2c-0.1-0.1-0.1-0.1-0.5,0l-0.1-0.2l1.6-0.4L42,39.5
					c-0.1,0.2-0.1,0.3-0.1,0.3c0,0,0,0.1,0,0.1C42,40,42,40,42,40c0,0,0.1,0,0.4,0L42.4,40.3L42.4,40.3L42.4,40.3z M41.6,36.7
					L41.6,36.7c0.1,0,0.2,0,0.3,0.1c0.1,0.1,0.1,0.1,0.1,0.2c0,0,0,0.1,0,0.2c0,0,0,0.2-0.1,0.5l-0.6,1.9c-0.1,0.2-0.1,0.4-0.2,0.4
					c-0.1,0.1-0.1,0.1-0.2,0.2c-0.1,0-0.2,0-0.4,0.1l0,0.1l1.9-0.1l0-0.1c-0.2,0.1-0.3,0-0.3,0c-0.1,0-0.1-0.1-0.1-0.1
					c0-0.1-0.1-0.1-0.1-0.2c0,0,0-0.1,0.1-0.3l0.9-3.3l-0.1,0.1l-1.4,0.3l0.1,0C41.4,36.7,41.5,36.7,41.6,36.7z"/>
			</g>
			<g>
				<path class="st2" d="M43.7,40.3v-0.1c0.3-0.1,0.6-0.2,0.8-0.5c0.3-0.2,0.5-0.6,0.7-1c-0.2,0.1-0.3,0.1-0.5,0.1
					c-0.2,0-0.4-0.1-0.5-0.2c-0.1-0.2-0.2-0.4-0.2-0.7c0-0.4,0.1-0.7,0.3-1c0.3-0.4,0.6-0.6,1-0.6c0.3,0,0.5,0.1,0.7,0.3
					c0.2,0.2,0.3,0.5,0.3,0.9c0,0.4-0.1,0.8-0.3,1.2c-0.2,0.4-0.4,0.7-0.7,0.9c-0.3,0.3-0.6,0.5-0.9,0.6
					C44.3,40.2,44,40.3,43.7,40.3L43.7,40.3z M45.3,38.5L45.3,38.5c0.1-0.3,0.2-0.7,0.3-1c0.1-0.2,0.1-0.4,0.1-0.6
					c0-0.1,0-0.3-0.1-0.3c-0.1-0.1-0.1-0.1-0.2-0.1c-0.1,0-0.1,0-0.2,0.1c-0.1,0.1-0.2,0.3-0.3,0.5c-0.1,0.4-0.2,0.8-0.2,1
					c0,0.1,0,0.3,0.1,0.4c0.1,0.1,0.1,0.1,0.2,0.1C45.1,38.5,45.2,38.5,45.3,38.5z"/>
				<path class="st2" d="M43.7,40.4v-0.2c0.3-0.1,0.6-0.3,0.8-0.5c0.2-0.2,0.4-0.5,0.6-0.9c-0.4,0.1-0.7,0-0.9-0.2
					c-0.2-0.2-0.2-0.4-0.2-0.7c0-0.4,0.1-0.8,0.3-1.1c0.3-0.4,0.6-0.6,1.1-0.6c0.3,0,0.6,0.1,0.8,0.3c0.2,0.2,0.3,0.5,0.3,0.9
					c0,0.4-0.1,0.8-0.3,1.2c-0.2,0.4-0.4,0.7-0.7,1c-0.3,0.3-0.6,0.5-0.9,0.6C44.3,40.3,44,40.4,43.7,40.4L43.7,40.4L43.7,40.4z
					 M45.3,38.6L45.3,38.6l-0.1,0.1c-0.2,0.5-0.4,0.8-0.7,1c-0.3,0.2-0.5,0.4-0.8,0.5l0,0c0.3,0,0.5-0.1,0.8-0.2
					c0.3-0.1,0.6-0.3,0.9-0.6c0.3-0.3,0.5-0.6,0.7-0.9c0.2-0.4,0.3-0.7,0.3-1.1c0-0.4-0.1-0.6-0.3-0.8c-0.2-0.2-0.4-0.3-0.7-0.3
					c-0.4,0-0.7,0.2-1,0.6c-0.2,0.3-0.3,0.6-0.3,1c0,0.3,0.1,0.5,0.2,0.6c0.2,0.2,0.5,0.3,0.9,0.1L45.3,38.6L45.3,38.6z M45,38.6
					c0.1,0,0.2,0,0.3-0.1c0.1-0.3,0.2-0.7,0.3-1c0.1-0.2,0.1-0.4,0.1-0.6c0-0.2,0-0.3-0.1-0.4c-0.1-0.1-0.4-0.2-0.5,0
					c-0.1,0.1-0.2,0.3-0.3,0.6c-0.1,0.4-0.2,0.8-0.2,1.1c0,0.2,0,0.3,0.1,0.4C44.9,38.5,44.9,38.6,45,38.6L45,38.6L45,38.6z
					 M45.4,36.5L45.4,36.5c-0.1,0-0.1,0-0.2,0.1C45.1,36.6,45,36.8,45,37c-0.1,0.4-0.2,0.8-0.2,1c0,0.1,0,0.2,0.1,0.3
					c0.1,0.1,0.2,0.1,0.4,0c0.1-0.3,0.2-0.6,0.3-1c0.1-0.2,0.1-0.4,0.1-0.6c0-0.1,0-0.2-0.1-0.3C45.5,36.5,45.5,36.5,45.4,36.5z"/>
			</g>
			<g>
				<path class="st2" d="M46.9,40.3v-0.1c0.3-0.1,0.6-0.2,0.8-0.5c0.3-0.2,0.5-0.6,0.7-1c-0.2,0.1-0.3,0.1-0.5,0.1
					c-0.2,0-0.4-0.1-0.5-0.2c-0.1-0.2-0.2-0.4-0.2-0.7c0-0.4,0.1-0.7,0.3-1c0.3-0.4,0.6-0.6,1-0.6c0.3,0,0.5,0.1,0.7,0.3
					c0.2,0.2,0.3,0.5,0.3,0.9c0,0.4-0.1,0.8-0.3,1.2c-0.2,0.4-0.4,0.7-0.7,0.9c-0.3,0.3-0.6,0.5-0.9,0.6
					C47.5,40.2,47.2,40.3,46.9,40.3L46.9,40.3z M48.5,38.5L48.5,38.5c0.1-0.3,0.2-0.7,0.3-1c0.1-0.2,0.1-0.4,0.1-0.6
					c0-0.1,0-0.3-0.1-0.3c-0.1-0.1-0.1-0.1-0.2-0.1c-0.1,0-0.1,0-0.2,0.1c-0.1,0.1-0.2,0.3-0.3,0.5c-0.1,0.4-0.2,0.8-0.2,1
					c0,0.1,0,0.3,0.1,0.4c0.1,0.1,0.1,0.1,0.2,0.1C48.3,38.5,48.4,38.5,48.5,38.5z"/>
				<path class="st2" d="M46.9,40.4v-0.2c0.3-0.1,0.6-0.3,0.8-0.5c0.2-0.2,0.4-0.5,0.6-0.9c-0.4,0.1-0.7,0-0.9-0.2
					c-0.2-0.2-0.2-0.4-0.2-0.7c0-0.4,0.1-0.8,0.3-1.1c0.3-0.4,0.6-0.6,1.1-0.6c0.3,0,0.6,0.1,0.8,0.3c0.2,0.2,0.3,0.5,0.3,0.9
					c0,0.4-0.1,0.8-0.3,1.2c-0.2,0.4-0.4,0.7-0.7,1c-0.3,0.3-0.6,0.5-0.9,0.6C47.5,40.3,47.2,40.4,46.9,40.4L46.9,40.4L46.9,40.4z
					 M48.5,38.6L48.5,38.6l-0.1,0.1c-0.2,0.5-0.4,0.8-0.7,1c-0.3,0.2-0.5,0.4-0.8,0.5l0,0c0.3,0,0.5-0.1,0.8-0.2
					c0.3-0.1,0.6-0.3,0.9-0.6c0.3-0.3,0.5-0.6,0.7-0.9c0.2-0.4,0.3-0.7,0.3-1.1c0-0.4-0.1-0.6-0.3-0.8c-0.2-0.2-0.4-0.3-0.7-0.3
					c-0.4,0-0.7,0.2-1,0.6c-0.2,0.3-0.3,0.6-0.3,1c0,0.3,0.1,0.5,0.2,0.6c0.2,0.2,0.5,0.3,0.9,0.1L48.5,38.6L48.5,38.6z M48.3,38.6
					c0.1,0,0.2,0,0.3-0.1c0.1-0.3,0.2-0.7,0.3-1c0.1-0.2,0.1-0.4,0.1-0.6c0-0.2,0-0.3-0.1-0.4c-0.1-0.1-0.4-0.2-0.5,0
					c-0.1,0.1-0.2,0.3-0.3,0.6c-0.1,0.4-0.2,0.8-0.2,1.1c0,0.2,0,0.3,0.1,0.4C48.1,38.5,48.2,38.6,48.3,38.6L48.3,38.6L48.3,38.6z
					 M48.6,36.5L48.6,36.5c-0.1,0-0.1,0-0.2,0.1c-0.1,0.1-0.2,0.2-0.3,0.5c-0.1,0.4-0.2,0.8-0.2,1c0,0.1,0,0.2,0.1,0.3
					c0.1,0.1,0.2,0.1,0.4,0c0.1-0.3,0.2-0.6,0.3-1c0.1-0.2,0.1-0.4,0.1-0.6c0-0.1,0-0.2-0.1-0.3C48.7,36.5,48.7,36.5,48.6,36.5z"/>
			</g>
			<g>
				<path class="st2" d="M51.4,36.4h1.5L52.7,37h-1.4l-0.2,0.3c0.3,0,0.5,0.1,0.7,0.2c0.2,0.1,0.3,0.3,0.4,0.4
					c0.1,0.2,0.2,0.4,0.2,0.6c0,0.3-0.1,0.5-0.2,0.8c-0.1,0.3-0.4,0.5-0.6,0.6c-0.3,0.2-0.5,0.2-0.8,0.2c-0.2,0-0.4,0-0.5-0.1
					c-0.1-0.1-0.1-0.2-0.1-0.3c0-0.1,0-0.2,0.1-0.2c0.1-0.1,0.1-0.1,0.2-0.1c0.1,0,0.1,0,0.2,0c0,0,0.1,0.1,0.3,0.2
					C51,40,51.1,40,51.2,40c0.1,0,0.3-0.1,0.4-0.2c0.1-0.2,0.2-0.4,0.2-0.6c0-0.2-0.1-0.4-0.2-0.6c-0.1-0.2-0.3-0.3-0.5-0.4
					C51,38,50.8,38,50.6,38L51.4,36.4z"/>
				<path class="st2" d="M50.7,40.4c-0.2,0-0.4,0-0.5-0.1c-0.1-0.1-0.2-0.2-0.2-0.3c0-0.1,0-0.2,0.1-0.3c0.1-0.1,0.3-0.1,0.5-0.1
					c0,0,0.1,0.1,0.3,0.2c0.2,0.2,0.4,0.1,0.6-0.1c0.1-0.2,0.2-0.4,0.2-0.6c0-0.2-0.1-0.4-0.2-0.6c-0.1-0.2-0.2-0.3-0.4-0.4
					C51,38.1,50.8,38,50.6,38l0.7-1.7l1.5,0L52.7,37l-1.4,0l-0.1,0.3c0.2,0,0.5,0,0.7,0.1c0.2,0.1,0.3,0.3,0.5,0.5
					c0.1,0.2,0.2,0.4,0.2,0.7c0,0.3-0.1,0.6-0.2,0.8c-0.2,0.3-0.4,0.5-0.6,0.6C51.3,40.3,51,40.4,50.7,40.4L50.7,40.4z M50.4,39.7
					L50.4,39.7c-0.1,0-0.1,0-0.2,0.1c0,0-0.1,0.1-0.1,0.2c0,0.1,0,0.2,0.1,0.2c0.2,0.2,0.8,0.1,1.2-0.1c0.3-0.1,0.5-0.3,0.6-0.6
					c0.1-0.2,0.2-0.5,0.2-0.8c0-0.2-0.1-0.4-0.2-0.6c-0.1-0.2-0.2-0.3-0.4-0.4c-0.2-0.1-0.4-0.2-0.7-0.2l0.1-0.4l1.4,0l0.1-0.6
					l-1.4,0.1L50.6,38c0.2-0.1,0.4,0,0.5,0c0.2,0.1,0.4,0.3,0.5,0.5c0.1,0.2,0.2,0.4,0.2,0.7c0,0.3-0.1,0.5-0.2,0.7
					c-0.2,0.2-0.5,0.3-0.8,0.1c-0.2-0.1-0.3-0.2-0.3-0.2C50.5,39.7,50.5,39.7,50.4,39.7z"/>
			</g>
			<g>
				<path class="st2" d="M55.1,38.1L55.1,38.1c0.3-0.4,0.6-0.5,1-0.5c0.2,0,0.4,0,0.5,0.1c0.1,0.1,0.2,0.2,0.2,0.3
					c0,0.1,0,0.3-0.1,0.4c-0.1,0.1-0.3,0.2-0.5,0.3c-0.4,0.2-0.7,0.4-0.7,0.5c-0.1,0.1-0.1,0.2-0.1,0.4c0,0.1,0,0.2,0.1,0.3
					c0.1,0.1,0.2,0.1,0.4,0.1c0.2,0,0.4-0.1,0.6-0.3l0.1,0.1c-0.4,0.3-0.7,0.5-1.1,0.5c-0.3,0-0.4-0.1-0.6-0.2
					c-0.1-0.1-0.2-0.2-0.2-0.4c0-0.2,0.1-0.3,0.2-0.4c0.1-0.1,0.3-0.2,0.7-0.4c0.3-0.1,0.5-0.3,0.6-0.4c0.1-0.1,0.1-0.2,0.1-0.4
					c0-0.2-0.1-0.4-0.4-0.4C55.5,37.9,55.3,37.9,55.1,38.1z"/>
				<path class="st2" d="M55.3,40.4c-0.3,0-0.5-0.1-0.6-0.2c-0.2-0.1-0.2-0.3-0.2-0.4c0-0.2,0.1-0.3,0.2-0.4
					c0.1-0.1,0.3-0.2,0.7-0.4c0.3-0.1,0.5-0.3,0.5-0.4c0.1-0.1,0.1-0.2,0.1-0.3c0-0.3-0.4-0.4-0.9-0.1L55,38
					c0.6-0.6,1.3-0.6,1.6-0.4c0.1,0.1,0.2,0.2,0.2,0.4c0,0.2,0,0.3-0.1,0.4c-0.1,0.1-0.3,0.2-0.5,0.3c-0.5,0.2-0.7,0.4-0.7,0.5
					c-0.1,0.1-0.1,0.2-0.1,0.3c0,0.1,0,0.2,0.1,0.3c0.2,0.2,0.6,0.1,0.9-0.2l0.2,0.1C56.1,40.2,55.7,40.4,55.3,40.4L55.3,40.4z
					 M55.7,37.8L55.7,37.8c0.4,0,0.5,0.2,0.5,0.4c0,0.1-0.1,0.3-0.2,0.4c-0.1,0.1-0.3,0.3-0.6,0.4c-0.3,0.2-0.5,0.3-0.7,0.4
					c-0.1,0.1-0.2,0.2-0.2,0.4c0,0.1,0.1,0.3,0.2,0.3c0.1,0.1,0.3,0.1,0.6,0.1c0.4,0,0.8-0.2,1.1-0.5l-0.1,0c-0.3,0.4-0.8,0.4-1,0.2
					c-0.1-0.1-0.1-0.2-0.1-0.3c0-0.1,0-0.3,0.1-0.4c0.1-0.1,0.3-0.3,0.8-0.5c0.2-0.1,0.4-0.2,0.5-0.3c0.1-0.1,0.1-0.2,0.1-0.3
					c0-0.1,0-0.2-0.1-0.3c-0.3-0.2-0.9-0.2-1.5,0.3l0.1,0C55.3,37.9,55.5,37.8,55.7,37.8z"/>
			</g>
			<g>
				<path class="st2" d="M59,37.6c0.1,0,0.3,0,0.4,0.1c0.1,0.1,0.2,0.2,0.3,0.3c0.1,0.1,0.1,0.3,0.1,0.4c0,0.3-0.1,0.6-0.3,0.9
					c-0.2,0.3-0.4,0.6-0.7,0.7c-0.3,0.2-0.6,0.3-0.9,0.3c-0.3,0-0.5-0.1-0.6-0.2c-0.1-0.2-0.2-0.3-0.2-0.6c0-0.3,0.1-0.5,0.2-0.7
					c0.1-0.2,0.2-0.4,0.4-0.6c0.2-0.2,0.4-0.3,0.6-0.4C58.5,37.6,58.7,37.6,59,37.6L59,37.6z M58.8,37.7L58.8,37.7
					c-0.1,0-0.2,0-0.3,0.1c-0.1,0.1-0.3,0.4-0.5,0.8c-0.2,0.4-0.3,0.8-0.3,1.2c0,0.1,0,0.2,0.1,0.2c0.1,0.1,0.1,0.1,0.2,0.1
					c0.1,0,0.1,0,0.2-0.1c0.1-0.1,0.2-0.2,0.3-0.5c0.1-0.2,0.2-0.5,0.3-0.8c0.1-0.3,0.1-0.6,0.1-0.8c0-0.1,0-0.2-0.1-0.2
					C59,37.8,58.9,37.7,58.8,37.7z"/>
				<path class="st2" d="M58,40.4c-0.3,0-0.5-0.1-0.6-0.3c-0.2-0.2-0.2-0.4-0.2-0.6c0-0.3,0.1-0.5,0.2-0.8c0.1-0.2,0.2-0.4,0.4-0.6
					c0.2-0.2,0.4-0.3,0.6-0.4c0.4-0.2,0.8-0.2,1.1-0.1c0.1,0.1,0.3,0.2,0.3,0.3c0.1,0.1,0.1,0.3,0.1,0.4c0,0.3-0.1,0.6-0.3,1
					c-0.2,0.3-0.4,0.6-0.7,0.8C58.6,40.3,58.3,40.4,58,40.4L58,40.4z M59,37.6L59,37.6c-0.2,0-0.4,0.1-0.6,0.2
					c-0.2,0.1-0.4,0.2-0.5,0.4c-0.2,0.2-0.3,0.4-0.4,0.6c-0.1,0.2-0.2,0.5-0.2,0.7c0,0.2,0.1,0.4,0.2,0.5c0.3,0.3,0.9,0.3,1.4,0
					c0.3-0.2,0.5-0.4,0.7-0.7c0.2-0.3,0.3-0.6,0.3-0.9c0-0.1,0-0.3-0.1-0.4c-0.1-0.1-0.2-0.2-0.3-0.3C59.2,37.7,59.1,37.6,59,37.6
					L59,37.6z M58.1,40.2c0.1,0,0.2,0,0.2-0.1c0.1-0.1,0.2-0.2,0.3-0.5c0.1-0.2,0.2-0.5,0.3-0.8c0.1-0.3,0.1-0.6,0.1-0.8
					c0-0.1,0-0.2-0.1-0.3c-0.1-0.2-0.4-0.1-0.5,0c-0.1,0.1-0.3,0.4-0.5,0.9c-0.2,0.4-0.3,0.9-0.3,1.2c0,0.1,0,0.2,0.1,0.3
					C58,40.2,58.1,40.2,58.1,40.2L58.1,40.2L58.1,40.2z M58.8,37.8L58.8,37.8c-0.1,0-0.2,0-0.2,0.1c-0.1,0.1-0.3,0.4-0.4,0.8
					c-0.2,0.4-0.2,0.8-0.2,1.2c0,0.1,0,0.1,0.1,0.2c0.1,0.1,0.2,0.1,0.3,0c0.1,0,0.1-0.2,0.3-0.4c0.1-0.2,0.2-0.5,0.3-0.8
					C59,38.5,59,38.3,59,38c0-0.1,0-0.1-0.1-0.2C58.9,37.8,58.9,37.8,58.8,37.8z"/>
			</g>
			<g>
				<path class="st2" d="M61.5,36.4l0-0.1c0.4,0.2,0.8,0.4,1,0.8c0.2,0.4,0.4,0.8,0.4,1.2c0,0.6-0.2,1-0.6,1.4
					c-0.4,0.4-0.8,0.6-1.2,0.6c-0.3,0-0.5-0.1-0.6-0.2c-0.2-0.1-0.2-0.4-0.2-0.6c0-0.5,0.2-0.9,0.5-1.3c0.4-0.4,0.7-0.6,1.1-0.6
					c0.1,0,0.2,0,0.3,0.1C62.2,37.1,61.9,36.6,61.5,36.4L61.5,36.4z M62,37.7L62,37.7c-0.2,0-0.4,0.3-0.6,0.8
					c-0.2,0.5-0.3,1-0.3,1.3c0,0.2,0.1,0.4,0.3,0.4c0.2,0,0.4-0.3,0.6-0.8c0.2-0.5,0.3-1,0.3-1.2C62.2,37.9,62.1,37.7,62,37.7z"/>
				<path class="st2" d="M61.1,40.4c-0.3,0-0.5-0.1-0.7-0.2c-0.2-0.2-0.3-0.4-0.3-0.7c0-0.5,0.2-0.9,0.6-1.3
					c0.5-0.5,0.9-0.7,1.4-0.6c-0.1-0.5-0.3-0.9-0.7-1.1l0-0.2c0.5,0.1,0.9,0.4,1.1,0.8c0.3,0.4,0.4,0.8,0.4,1.2
					c0,0.6-0.2,1.1-0.6,1.5C62,40.2,61.6,40.4,61.1,40.4L61.1,40.4z M61.9,37.6L61.9,37.6c-0.3,0-0.7,0.2-1,0.6
					c-0.4,0.4-0.5,0.8-0.5,1.3c0,0.2,0.1,0.4,0.2,0.6c0.1,0.1,0.3,0.2,0.6,0.2c0.4,0,0.8-0.2,1.2-0.6c0.4-0.4,0.6-0.9,0.6-1.4
					c0-0.4-0.1-0.8-0.4-1.2c-0.2-0.4-0.6-0.6-1-0.8l0,0.1c0.4,0.2,0.7,0.6,0.7,1.3l0,0.1l-0.1-0.1C62.1,37.7,62,37.6,61.9,37.6
					L61.9,37.6z M61.3,40.2c0.2,0,0.5-0.3,0.7-0.8c0.2-0.5,0.3-1,0.3-1.3c0-0.4-0.2-0.4-0.3-0.4c-0.3,0-0.5,0.3-0.7,0.8
					c-0.2,0.5-0.3,1-0.3,1.3C61,40.1,61.1,40.2,61.3,40.2L61.3,40.2L61.3,40.2z M62,37.8L62,37.8c-0.2,0-0.4,0.3-0.6,0.8
					c-0.2,0.5-0.3,0.9-0.3,1.2c0,0.3,0.1,0.3,0.2,0.3c0.2,0,0.4-0.3,0.6-0.8c0.2-0.5,0.3-0.9,0.3-1.2C62.2,37.8,62,37.8,62,37.8z"/>
			</g>
			<g>
				<path class="st2" d="M66.2,37.6l-0.6,1.9l-0.1,0.2c0,0,0,0,0,0.1c0,0,0,0,0,0.1c0,0,0,0,0,0c0,0,0.1,0,0.2-0.1
					c0,0,0.1-0.1,0.2-0.3l0.1,0.1c-0.1,0.2-0.3,0.4-0.4,0.5c-0.2,0.1-0.3,0.2-0.5,0.2c-0.1,0-0.2,0-0.3-0.1
					c-0.1-0.1-0.1-0.1-0.1-0.2c0-0.1,0-0.2,0.1-0.4l0.1-0.2c-0.2,0.4-0.4,0.6-0.6,0.8c-0.1,0.1-0.2,0.1-0.4,0.1
					c-0.2,0-0.3-0.1-0.4-0.2c-0.1-0.1-0.1-0.3-0.1-0.5c0-0.3,0.1-0.6,0.2-0.9c0.2-0.3,0.4-0.6,0.6-0.8c0.2-0.2,0.4-0.3,0.6-0.3
					c0.1,0,0.2,0,0.3,0.1c0.1,0.1,0.1,0.2,0.1,0.3l0.1-0.4L66.2,37.6L66.2,37.6z M65.2,38.2L65.2,38.2c0-0.2,0-0.3-0.1-0.3
					c0,0-0.1-0.1-0.1-0.1c-0.1,0-0.1,0-0.2,0.1c-0.1,0.1-0.3,0.4-0.4,0.7c-0.1,0.4-0.2,0.7-0.2,0.9c0,0.1,0,0.2,0.1,0.2
					c0,0,0.1,0.1,0.1,0.1c0.1,0,0.2,0,0.3-0.1c0.1-0.1,0.2-0.3,0.3-0.5C65.2,38.8,65.2,38.4,65.2,38.2z"/>
				<path class="st2" d="M65.2,40.4c-0.1,0-0.2,0-0.3-0.1c-0.1-0.1-0.1-0.2-0.1-0.3c0-0.1,0-0.1,0-0.3c-0.1,0.2-0.3,0.4-0.4,0.5
					c-0.3,0.2-0.7,0.2-0.8-0.1c-0.1-0.2-0.1-0.3-0.1-0.5c0-0.3,0.1-0.6,0.3-0.9c0.2-0.4,0.4-0.6,0.7-0.9c0.4-0.3,0.8-0.4,1-0.2
					c0,0,0.1,0.1,0.1,0.2l0-0.2l0.7-0.1l-0.6,2.2c0,0.1,0.1,0.1,0.1,0c0,0,0.1-0.1,0.2-0.3l0.2,0c-0.1,0.3-0.3,0.5-0.4,0.6
					C65.5,40.3,65.4,40.4,65.2,40.4L65.2,40.4z M64.9,39.3L64.9,39.3l0.1,0L65,39.6c-0.1,0.2-0.1,0.4-0.1,0.4c0,0.1,0,0.1,0.1,0.2
					c0.1,0.1,0.4,0.1,0.7-0.1c0.1-0.1,0.3-0.3,0.4-0.5l-0.1,0c-0.1,0.2-0.1,0.2-0.1,0.3c-0.1,0.1-0.1,0.1-0.2,0.1l-0.1,0
					c0,0,0-0.1,0-0.1l0.1-0.3l0.6-1.9l-0.6,0.1l-0.1,0.5l0-0.2c0-0.2-0.1-0.3-0.1-0.3c-0.2-0.2-0.5-0.1-0.8,0.2
					c-0.3,0.2-0.5,0.5-0.6,0.8c-0.2,0.3-0.2,0.6-0.2,0.9c0,0.2,0,0.3,0.1,0.5c0.1,0.2,0.4,0.2,0.7,0.1C64.5,40,64.7,39.7,64.9,39.3
					L64.9,39.3z M64.4,39.8c0.1,0,0.2-0.1,0.3-0.2c0.1-0.1,0.2-0.3,0.3-0.5c0.2-0.4,0.3-0.7,0.3-1c0-0.2,0-0.3-0.1-0.4
					c-0.1-0.1-0.3-0.1-0.4,0c-0.1,0.1-0.3,0.4-0.4,0.7c-0.1,0.4-0.2,0.7-0.2,1c0,0.1,0,0.2,0.1,0.3C64.3,39.8,64.3,39.8,64.4,39.8
					L64.4,39.8L64.4,39.8z M65,37.8L65,37.8c0,0-0.1,0-0.1,0.1c-0.1,0.1-0.3,0.3-0.4,0.7c-0.1,0.4-0.2,0.7-0.2,0.9
					c0,0.1,0,0.2,0,0.2c0.1,0,0.2,0,0.3-0.1c0.1-0.1,0.2-0.3,0.3-0.5c0.2-0.3,0.3-0.7,0.3-0.9C65.2,38,65.2,37.9,65,37.8
					C65.1,37.8,65.1,37.8,65,37.8z"/>
			</g>
		</g>
		<g>
			<polygon class="st2" points="33.1,16.2 32.8,16.2 32.7,15.7 32.6,15.7 32.5,15.8 32.4,15.8 32.3,15.9 32.2,16 32.1,16 32,16 
				31.9,16.1 31.8,16.1 31.6,16.1 31.5,16.2 31.4,16.2 31.3,16.2 31.2,16.2 31,16.2 30.9,16.2 30.9,16.2 30.8,16.2 30.8,16.2 
				30.7,16.2 30.6,16.2 30.6,16.2 30.5,16.2 30.5,16.2 30.3,16.2 30.2,16.1 30,16.1 29.9,16 29.7,16 29.6,15.9 29.5,15.8 29.4,15.8 
				29.3,15.7 29.2,15.6 29.1,15.5 29,15.4 28.9,15.3 28.9,15.1 28.8,15 28.8,14.9 28.7,14.7 28.7,14.6 28.6,14.5 28.6,14.3 
				28.6,14.2 28.6,14 28.5,13.9 28.5,13.7 28.5,13.6 28.5,13.5 28.6,13.3 28.6,13.2 28.6,13 28.6,12.9 28.7,12.7 28.7,12.6 
				28.8,12.4 28.8,12.3 28.9,12.2 28.9,12 29,11.9 29.1,11.8 29.1,11.7 29.2,11.5 29.3,11.4 29.4,11.3 29.5,11.2 29.6,11.1 29.7,11 
				29.8,10.8 29.9,10.7 30,10.6 30.1,10.5 30.2,10.4 30.3,10.4 30.4,10.3 30.5,10.2 30.6,10.1 30.8,10.1 30.9,10 31,9.9 31.2,9.9 
				31.3,9.8 31.4,9.8 31.6,9.8 31.7,9.7 31.8,9.7 32,9.7 32,9.7 32,9.7 32,9.7 32,9.7 32,9.7 32.1,9.7 32.1,9.7 32.1,9.7 32.1,9.7 
				32.1,9.7 32.1,9.7 32.2,9.7 32.2,9.7 32.2,9.7 32.2,9.7 32.2,9.7 32.3,9.7 32.5,9.7 32.6,9.7 32.7,9.7 32.8,9.8 32.9,9.8 33,9.8 
				33.1,9.8 33.2,9.9 33.3,9.9 33.3,10 33.4,10 33.5,10.1 33.6,10.1 33.6,10.2 33.7,10.3 34,9.8 34.3,9.8 34,11.8 33.6,11.8 
				33.6,11.6 33.6,11.4 33.6,11.2 33.5,11 33.5,11 33.5,10.9 33.4,10.8 33.4,10.8 33.4,10.7 33.4,10.6 33.3,10.6 33.3,10.5 
				33.2,10.5 33.2,10.4 33.1,10.4 33.1,10.3 33,10.3 33,10.3 32.9,10.2 32.9,10.2 32.8,10.2 32.8,10.2 32.7,10.1 32.6,10.1 
				32.6,10.1 32.5,10.1 32.4,10.1 32.3,10.1 32.3,10.1 32.2,10.1 32.1,10.1 32,10.1 32,10.1 31.9,10.2 31.8,10.2 31.8,10.2 
				31.7,10.3 31.6,10.3 31.6,10.3 31.5,10.4 31.5,10.4 31.4,10.5 31.3,10.5 31.3,10.6 31.2,10.7 31.1,10.8 31,11 30.9,11.1 
				30.8,11.2 30.7,11.4 30.6,11.5 30.5,11.7 30.5,11.9 30.4,12 30.4,12.2 30.3,12.4 30.2,12.5 30.2,12.7 30.2,12.9 30.1,13 
				30.1,13.2 30.1,13.3 30,13.5 30,13.6 30,13.8 30,13.9 30,14 30,14.1 30,14.3 30,14.5 30,14.7 30,14.8 30.1,14.9 30.1,14.9 
				30.1,15 30.1,15.1 30.2,15.1 30.2,15.2 30.2,15.2 30.3,15.3 30.3,15.3 30.3,15.4 30.4,15.4 30.4,15.5 30.5,15.5 30.5,15.6 
				30.6,15.6 30.6,15.6 30.7,15.6 30.7,15.7 30.8,15.7 30.9,15.7 30.9,15.7 31,15.7 31,15.7 31.1,15.8 31.1,15.8 31.1,15.8 
				31.1,15.8 31.2,15.8 31.2,15.8 31.2,15.8 31.2,15.8 31.2,15.8 31.2,15.8 31.2,15.8 31.2,15.8 31.3,15.8 31.3,15.8 31.3,15.8 
				31.3,15.8 31.3,15.8 31.4,15.8 31.4,15.8 31.5,15.8 31.6,15.7 31.7,15.7 31.8,15.7 31.8,15.7 31.9,15.6 32,15.6 32,15.6 
				32.1,15.5 32.2,15.5 32.2,15.4 32.3,15.4 32.4,15.3 32.4,15.3 32.6,15.2 32.7,15 32.8,14.9 32.9,14.7 33,14.6 33.1,14.4 
				33.2,14.3 33.3,14.1 33.7,14.1 			"/>
			<polygon class="st2" points="37.4,14.9 37.4,15 37.3,15 37.3,15.1 37.2,15.2 37.2,15.3 37.1,15.4 37.1,15.4 37,15.5 36.9,15.6 
				36.9,15.7 36.8,15.7 36.7,15.8 36.7,15.8 36.6,15.9 36.5,16 36.4,16 36.4,16 36.3,16.1 36.2,16.1 36.1,16.1 36,16.2 35.9,16.2 
				35.9,16.2 35.8,16.2 35.8,16.2 35.7,16.2 35.7,16.2 35.7,16.2 35.7,16.2 35.7,16.2 35.7,16.2 35.7,16.2 35.7,16.2 35.7,16.2 
				35.7,16.2 35.6,16.2 35.6,16.2 35.6,16.2 35.6,16.2 35.6,16.2 35.5,16.2 35.5,16.2 35.4,16.1 35.3,16.1 35.3,16.1 35.2,16 
				35.2,16 35.1,16 35.1,15.9 35.1,15.9 35,15.8 35,15.7 35,15.7 35,15.6 35,15.5 35,15.5 35,15.4 35,15.3 35,15.2 35,15.1 35,15 
				35.1,14.8 35.1,14.7 35.2,14.6 35.7,13 35.7,12.9 35.7,12.9 35.7,12.8 35.7,12.8 35.7,12.8 35.7,12.7 35.7,12.7 35.7,12.7 
				35.7,12.6 35.7,12.6 35.7,12.6 35.7,12.6 35.7,12.5 35.7,12.5 35.6,12.5 35.6,12.5 35.6,12.5 35.6,12.5 35.5,12.5 35.5,12.6 
				35.4,12.6 35.4,12.6 35.3,12.7 35.3,12.7 35.2,12.8 35.2,12.9 35.1,12.9 35.1,13 35,13.1 35,13.1 35,13.2 34.9,13.3 34.7,13.2 
				34.8,13.1 34.9,12.9 34.9,12.8 35,12.7 35.1,12.6 35.2,12.4 35.3,12.3 35.3,12.2 35.4,12.2 35.5,12.1 35.6,12.1 35.6,12 35.7,12 
				35.7,12 35.8,11.9 35.8,11.9 35.9,11.9 35.9,11.9 36,11.9 36.1,11.9 36.1,11.9 36.2,11.9 36.2,11.9 36.2,11.9 36.2,11.9 
				36.2,11.9 36.2,11.9 36.2,11.9 36.2,11.9 36.3,11.9 36.3,11.9 36.3,11.9 36.3,11.9 36.3,11.9 36.3,11.9 36.3,11.9 36.3,11.9 
				36.3,11.9 36.4,11.9 36.4,11.9 36.5,11.9 36.5,11.9 36.6,12 36.6,12 36.7,12 36.7,12.1 36.7,12.1 36.7,12.2 36.8,12.2 36.8,12.3 
				36.8,12.4 36.8,12.4 36.8,12.5 36.8,12.6 36.8,12.7 36.8,12.8 36.8,12.9 36.8,13 36.8,13.1 36.7,13.2 36.7,13.3 36.7,13.4 
				36.2,15 36.1,15.1 36.1,15.1 36.1,15.2 36.1,15.2 36.1,15.2 36.1,15.3 36.1,15.3 36.1,15.3 36.1,15.4 36.1,15.5 36.1,15.5 
				36.1,15.5 36.2,15.6 36.2,15.6 36.3,15.6 36.3,15.6 36.3,15.6 36.3,15.6 36.3,15.6 36.3,15.6 36.3,15.6 36.4,15.6 36.4,15.6 
				36.4,15.6 36.4,15.6 36.4,15.6 36.4,15.6 36.4,15.6 36.4,15.6 36.4,15.6 36.5,15.6 36.5,15.6 36.6,15.5 36.6,15.5 36.7,15.5 
				36.7,15.4 36.8,15.4 36.8,15.3 36.9,15.3 37,15.2 37,15.1 37,15 37.1,15 37.2,14.9 37.2,14.8 37.3,14.7 37.3,14.5 37.4,14.3 
				37.5,14.1 37.6,13.9 37.7,13.7 37.8,13.5 37.8,13.3 37.9,13.1 38.2,12 39.3,12 38.9,13 38.9,13.1 38.9,13.2 38.9,13.3 38.8,13.4 
				38.8,13.5 38.8,13.6 38.8,13.7 38.7,13.8 38.7,13.9 38.7,14 38.7,14.1 38.6,14.2 38.6,14.3 38.6,14.4 38.5,14.5 38.5,14.6 
				38.5,14.7 38.5,14.8 38.5,14.9 38.5,15 38.4,15.1 38.4,15.2 38.4,15.2 38.4,15.3 38.4,15.3 38.4,15.3 38.4,15.4 38.4,15.4 
				38.4,15.4 38.4,15.4 38.4,15.4 38.4,15.5 38.5,15.5 38.5,15.5 38.5,15.5 38.5,15.5 38.5,15.5 38.5,15.5 38.5,15.6 38.6,15.6 
				38.6,15.6 38.6,15.5 38.6,15.5 38.7,15.5 38.7,15.5 38.7,15.5 38.7,15.5 38.8,15.5 38.8,15.4 38.9,15.3 38.9,15.2 39,15.1 39,15 
				39.1,14.9 39.1,14.8 39.2,14.7 39.4,14.8 39.3,15 39.3,15.1 39.2,15.3 39.1,15.4 39,15.5 39,15.7 38.9,15.8 38.8,15.8 38.7,15.9 
				38.6,16 38.5,16.1 38.4,16.1 38.3,16.1 38.2,16.2 38.2,16.2 38.1,16.2 37.9,16.2 37.9,16.2 37.8,16.2 37.7,16.2 37.7,16.1 
				37.6,16.1 37.6,16.1 37.5,16 37.5,16 37.5,16 37.5,15.9 37.4,15.8 37.4,15.8 37.4,15.7 37.4,15.7 37.4,15.6 37.4,15.5 37.4,15.5 
				37.4,15.4 37.4,15.4 37.4,15.4 37.4,15.3 37.4,15.3 37.4,15.2 37.4,15.2 37.4,15.1 37.4,15.1 37.4,15 37.4,15 37.4,15 37.4,14.9 
				37.4,14.9 			"/>
			<path class="st2" d="M44.1,9.6L44.1,9.6L44.1,9.6L44,9.7l0,0l0,0l0,0l-0.1,0l-0.1,0l-0.1,0l-0.1,0l-0.1,0l-0.1,0l-0.1,0l-0.1,0
				l-0.1,0l-0.1,0l-0.2,0l-0.2,0l-0.2,0l-0.2,0l-0.1,0l-0.1,0.1L42,10.3l-0.1,0.1l-0.1,0.1l-0.1,0.1l-0.1,0.1l-0.1,0.1l-0.1,0.1
				l-0.1,0.1L41.1,11L41,11.1l-0.1,0.1l-0.1,0.1l-0.1,0.1l-0.1,0.1l-0.1,0.1l-0.1,0.2L40.5,12l-0.1,0.2l-0.1,0.2l-0.1,0.2l-0.1,0.2
				L40.2,13l-0.1,0.2L40,13.5L40,13.8L39.9,14l0,0.1l0,0.1l0,0.1l0,0.1l0,0.1l0,0.1l0,0.1v0.1l0,0.2l0,0.2l0,0.1l0,0.1l0,0.1l0,0.1
				l0,0.1l0,0.1l0,0.1l0,0.1l0,0.1l0,0.1l0,0.1l0,0.1l0,0.1l0,0.1l0.1,0l0,0l0.1,0l0.1,0l0.1,0l0.1,0l0.1,0l0.1,0l0.1,0l0.1,0l0.1,0
				l0.1,0H41l0.1,0l0.1,0l0.1,0l0.1,0l0.1,0l0.1,0l0.1-0.1l0.1-0.1l0.1-0.1l0.1-0.1l0.1-0.1l0.1-0.1l0.1-0.1l0.1-0.1l0.1-0.1
				l0.1-0.1l0.1-0.1l0.1-0.1l0.1-0.1l0.1-0.1l0.1-0.1l0.1-0.1l0.1-0.1l0.1-0.1l0-0.2l0-0.1l0-0.1l0-0.1l0-0.1l0-0.1l0-0.1v-0.1
				l0-0.1l0-0.2l0-0.2l0-0.1l0-0.1l0-0.1l0-0.1l0-0.1l0-0.1l0-0.1l0-0.1l0-0.1l0-0.1l0-0.1l0-0.1l0,0l0,0l0,0l0,0l-0.1,0l-0.1,0
				l-0.1,0l-0.1,0l-0.1,0l-0.1,0l-0.1,0l-0.1,0l-0.1,0l-0.1,0l-0.1,0h-0.1l-0.1,0l-0.1,0l-0.1,0l-0.1,0l-0.1,0l-0.1,0L41.6,12
				l-0.1,0.1l-0.1,0.1l-0.1,0.1l-0.1,0.1L41,12.4l-0.1,0.1l-0.1,0.1l-0.1,0.1l-0.1,0.1l0-0.1l0-0.1l0-0.1l0-0.1l0-0.1l0-0.1l0.1-0.1
				l0-0.1l0.1-0.1l0.1-0.1l0.1-0.1l0.1-0.1l0.1-0.1l0.1-0.1l0.1-0.1l0.1-0.1l0.1-0.1l0.1-0.1l0.1,0l0.1,0l0.2,0l0.2,0l0.2,0l0.2,0
				l0.1,0l0.1,0l0.1,0l0.1,0l0.1,0l0.1,0l0.1,0l0.1,0l0.1,0l0.1,0l0.1,0l0.1,0l0.1,0l0.1-0.1l0.1-0.1l0-0.1l0.1-0.1l0.1-0.1l0.1-0.1
				l0.1-0.1l0.1-0.1l0-0.1l0-0.1l0-0.1H44.1L44.1,9.6z M40.8,15.2L40.8,15.2L40.8,15.2l0-0.2l0-0.1l0-0.1l0-0.1l0-0.1l0-0.1l0-0.1
				l0-0.1l0-0.1l0-0.1l0-0.1l0-0.1l0-0.1l0-0.1l0-0.1l0.1-0.1l0.1-0.1l0.1-0.1l0.1-0.1l0-0.1l0.1-0.1l0.1-0.1l0.1-0.1l0.1-0.1
				l0.1-0.1l0.1,0l0.1,0l0.1,0l0.1,0l0.1,0l0,0h0l0,0l0,0l0,0l0,0l0,0l0,0l0,0l0,0l0,0l0,0l0,0l0,0l0,0l0,0l0,0.1l0,0.1l0,0.1l0,0.1
				l0,0.1l0,0.1l0,0.1l0,0.2l0,0.2l-0.1,0.2l-0.1,0.2l-0.1,0.2l-0.1,0.2l-0.1,0.2L42.1,15l-0.1,0.1L42,15.2l-0.1,0.1l-0.1,0.1
				l-0.1,0.1l-0.1,0.1l-0.1,0.1l-0.1,0.1l-0.1,0.1l-0.1,0l-0.1,0l-0.1,0l-0.1,0h0h0l0,0h0h0l0,0h0h0l0,0h0h0l0,0h0h0l0,0l0,0l0,0
				l0,0l0,0l0,0l0,0l0,0l0,0l0,0l0,0l0,0l0-0.1l0-0.1v-0.1V15.2L40.8,15.2z"/>
			<polygon class="st2" points="47.5,14.9 47.4,15 47.4,15 47.3,15.1 47.3,15.2 47.2,15.3 47.2,15.4 47.1,15.4 47,15.5 47,15.6 
				46.9,15.7 46.8,15.7 46.8,15.8 46.7,15.8 46.6,15.9 46.6,16 46.5,16 46.4,16 46.3,16.1 46.2,16.1 46.1,16.1 46.1,16.2 46,16.2 
				45.9,16.2 45.8,16.2 45.8,16.2 45.8,16.2 45.8,16.2 45.8,16.2 45.8,16.2 45.7,16.2 45.7,16.2 45.7,16.2 45.7,16.2 45.7,16.2 
				45.7,16.2 45.7,16.2 45.7,16.2 45.7,16.2 45.7,16.2 45.6,16.2 45.6,16.2 45.5,16.2 45.4,16.1 45.4,16.1 45.3,16.1 45.3,16 
				45.2,16 45.2,16 45.1,15.9 45.1,15.9 45.1,15.8 45,15.7 45,15.7 45,15.6 45,15.5 45,15.5 45,15.4 45,15.3 45,15.2 45.1,15.1 
				45.1,15 45.1,14.8 45.2,14.7 45.2,14.6 45.7,13 45.7,12.9 45.7,12.9 45.7,12.8 45.8,12.8 45.8,12.8 45.8,12.7 45.8,12.7 
				45.8,12.7 45.8,12.6 45.8,12.6 45.8,12.6 45.7,12.6 45.7,12.5 45.7,12.5 45.7,12.5 45.7,12.5 45.6,12.5 45.6,12.5 45.5,12.5 
				45.5,12.6 45.5,12.6 45.4,12.6 45.4,12.7 45.3,12.7 45.3,12.8 45.2,12.9 45.2,12.9 45.1,13 45.1,13.1 45,13.1 45,13.2 44.9,13.3 
				44.7,13.2 44.8,13.1 44.9,12.9 45,12.8 45,12.7 45.1,12.6 45.2,12.4 45.3,12.3 45.4,12.2 45.5,12.2 45.6,12.1 45.6,12.1 45.7,12 
				45.7,12 45.8,12 45.8,11.9 45.9,11.9 45.9,11.9 46,11.9 46,11.9 46.1,11.9 46.1,11.9 46.2,11.9 46.2,11.9 46.2,11.9 46.2,11.9 
				46.2,11.9 46.2,11.9 46.3,11.9 46.3,11.9 46.3,11.9 46.3,11.9 46.3,11.9 46.3,11.9 46.3,11.9 46.3,11.9 46.4,11.9 46.4,11.9 
				46.4,11.9 46.4,11.9 46.5,11.9 46.5,11.9 46.6,11.9 46.6,12 46.7,12 46.7,12 46.7,12.1 46.8,12.1 46.8,12.2 46.8,12.2 46.8,12.3 
				46.8,12.4 46.8,12.4 46.9,12.5 46.9,12.6 46.9,12.7 46.8,12.8 46.8,12.9 46.8,13 46.8,13.1 46.8,13.2 46.7,13.3 46.7,13.4 
				46.2,15 46.2,15.1 46.2,15.1 46.1,15.2 46.1,15.2 46.1,15.2 46.1,15.3 46.1,15.3 46.1,15.3 46.1,15.4 46.1,15.5 46.2,15.5 
				46.2,15.5 46.2,15.6 46.3,15.6 46.3,15.6 46.4,15.6 46.4,15.6 46.4,15.6 46.4,15.6 46.4,15.6 46.4,15.6 46.4,15.6 46.4,15.6 
				46.4,15.6 46.4,15.6 46.4,15.6 46.4,15.6 46.4,15.6 46.4,15.6 46.4,15.6 46.4,15.6 46.5,15.6 46.6,15.6 46.6,15.5 46.7,15.5 
				46.7,15.5 46.8,15.4 46.8,15.4 46.9,15.3 46.9,15.3 47,15.2 47,15.1 47.1,15 47.1,15 47.2,14.9 47.2,14.8 47.3,14.7 47.4,14.5 
				47.5,14.3 47.6,14.1 47.6,13.9 47.7,13.7 47.8,13.5 47.9,13.3 47.9,13.1 48.3,12 49.3,12 49,13 49,13.1 48.9,13.2 48.9,13.3 
				48.9,13.4 48.8,13.5 48.8,13.6 48.8,13.7 48.8,13.8 48.7,13.9 48.7,14 48.7,14.1 48.7,14.2 48.6,14.3 48.6,14.4 48.6,14.5 
				48.6,14.6 48.5,14.7 48.5,14.8 48.5,14.9 48.5,15 48.5,15.1 48.5,15.2 48.5,15.2 48.5,15.3 48.5,15.3 48.5,15.3 48.5,15.4 
				48.5,15.4 48.5,15.4 48.5,15.4 48.5,15.4 48.5,15.5 48.5,15.5 48.5,15.5 48.5,15.5 48.5,15.5 48.5,15.5 48.5,15.5 48.6,15.6 
				48.6,15.6 48.6,15.6 48.7,15.5 48.7,15.5 48.7,15.5 48.7,15.5 48.7,15.5 48.8,15.5 48.8,15.5 48.8,15.4 48.9,15.3 49,15.2 
				49,15.1 49.1,15 49.1,14.9 49.2,14.8 49.2,14.7 49.4,14.8 49.4,15 49.3,15.1 49.2,15.3 49.1,15.4 49.1,15.5 49,15.7 48.9,15.8 
				48.8,15.8 48.7,15.9 48.7,16 48.6,16.1 48.5,16.1 48.4,16.1 48.3,16.2 48.2,16.2 48.1,16.2 48,16.2 47.9,16.2 47.8,16.2 
				47.8,16.2 47.7,16.1 47.7,16.1 47.6,16.1 47.6,16 47.5,16 47.5,16 47.5,15.9 47.5,15.8 47.4,15.8 47.4,15.7 47.4,15.7 47.4,15.6 
				47.4,15.5 47.4,15.5 47.4,15.4 47.4,15.4 47.4,15.4 47.4,15.3 47.4,15.3 47.4,15.2 47.4,15.2 47.4,15.1 47.4,15.1 47.4,15 
				47.5,15 47.5,15 47.5,14.9 47.5,14.9 			"/>
			<path class="st2" d="M54.4,13.2l0-0.1l0-0.1l0-0.1l0-0.1l0-0.1l0-0.1l0-0.1l0-0.1l0-0.1l0-0.1l0-0.1l0-0.1l0-0.1l0-0.1l0,0l0,0
				l0,0l0,0l0,0l-0.1,0l0,0l-0.1,0l-0.1,0l-0.1,0l-0.1,0l-0.1,0l-0.1,0l-0.1,0h-0.1l-0.1,0l-0.1,0l-0.1,0l-0.1,0l-0.1,0l-0.1,0
				l-0.1,0l-0.1,0l-0.1,0l-0.1,0.1l-0.1,0.1l-0.1,0.1l-0.1,0.1l-0.1,0.1l-0.1,0.1L52,12.6l0.6-1.9l-0.9-0.1l-0.4,1.3l0,0.1l0,0.1
				l0,0.1l-0.1,0.1L51,12.3L51,12.4l-0.1,0.1l-0.1,0.1l-0.1,0.1l-0.1,0.1l-0.1,0.1l-0.1,0.1l-0.1,0.1L50.3,13L50.2,13l-0.1,0.1
				L50,13.2L50,13.3l-0.1,0.1l-0.1,0.1l-0.1,0.1l0,0.1l0,0.1l0,0.1L50,14l0-0.1l0-0.1l0-0.1l0-0.1l0-0.1l0-0.1l0-0.1l0.1-0.1
				l0.1-0.1l0.1-0.1l0.1-0.1l0.1-0.1l0.1-0.1l0.1-0.1l0.1-0.1l0.1-0.1l-1.3,5l0,0.1l0,0.1l0,0.1l0,0.1l0,0.1l0,0l0,0l0,0l0,0l0,0
				l0,0l-0.1,0l-0.1,0l-0.1,0l-0.1,0H49l-0.1,0.3H49h0.1h0.1h0.1l0.1,0h0.1h0.1l0.1,0h0.1h0.1l0.1,0h0.1h0.1h0.1l0.1,0h0h0.1l0.1,0
				h0.1h0.1h0.1l0.1,0h0.1h0.1l0.1,0h0.1H51l0.1,0h0.1h0.1h0.1h0.1l0-0.3h-0.1l-0.1,0l-0.1,0l-0.1,0l-0.1,0l-0.1,0l0,0l0,0l0,0l0,0
				l0,0l0,0l0,0l0,0l0,0l0,0v0v0v0v0l0,0v0v0v0l0,0v0v0l0,0v0v0l0,0v0v0l0,0v0v0v0v0v0l0.6-2.2l0,0.1l0,0.1l0,0.1l0,0.1l0.1,0.1
				l0.1,0l0.1,0l0.1,0l0.1,0l0.1,0l0.1,0l0.1,0l0.1,0l0.1,0l0.1,0h0.1h0.1l0.1,0l0.1,0l0.1,0l0.1,0l0.1-0.1l0.1-0.1l0.1-0.1l0.1-0.1
				l0.1-0.1l0.1-0.1l0.1-0.1l0.1-0.1l0.1-0.1l0.1-0.1L54,15l0.1-0.1l0.1-0.1l0.1-0.1l0.1-0.1l0-0.1l0-0.1l0-0.1l0-0.1l0-0.1l0-0.1
				v-0.1l0-0.1l0-0.1v-0.1v-0.1l0,0v0L54.4,13.2L54.4,13.2z M53.3,13.2L53.3,13.2L53.3,13.2L53.3,13.2l0,0.1v0l0,0l0,0l0,0l0,0
				l0,0.1l0,0l0,0l0,0.1l0,0l0,0l0,0.1l0,0l0,0l0,0l0,0l0,0l0,0l0,0l0,0l0,0l0,0.1l0,0.1l0,0.1l0,0.1l0,0.1l0,0.1l0,0.1l0,0.1l0,0.1
				l0,0.1l0,0.1l0,0.1l0,0.1l-0.1,0.1l-0.1,0.1l-0.1,0.1l-0.1,0.1l-0.1,0.1l-0.1,0l-0.1,0l-0.1,0l-0.1,0l-0.1,0H52h0h0h0h0l0,0h0
				l0,0h0l0,0h0l0,0h0l0,0h0h0h0l0,0l0,0l0,0l0,0l0,0l0,0l0,0l0,0l0,0l0,0l0,0l0-0.1l0-0.1l0-0.1l0-0.1V15V15l0-0.1v-0.1l0-0.1
				l0-0.1l0-0.1l0-0.1l0-0.1l0-0.1l0-0.1l0-0.1l0-0.1l0-0.1l0-0.1l0-0.1l0-0.1l0-0.1l0-0.1l0-0.1l0,0l0,0l0,0l0,0l0,0l0.1-0.1l0-0.1
				l0.1-0.1l0.1-0.1l0.1-0.1l0.1-0.1l0.1-0.1l0.1-0.1l0.1-0.1l0.1-0.1l0.1-0.1l0.1,0l0.1,0l0.1,0l0.1,0l0.1,0h0h0l0,0h0h0h0l0,0h0
				l0,0l0,0l0,0l0,0l0,0l0,0l0,0l0,0l0,0l0,0l0,0l0,0.1l0,0.1l0,0.1L53.3,13.2L53.3,13.2z"/>
			<polygon class="st2" points="57.8,14.8 58,15 57.9,15.1 57.9,15.2 57.8,15.3 57.7,15.4 57.6,15.5 57.5,15.6 57.4,15.7 57.4,15.8 
				57.3,15.8 57.2,15.9 57.1,16 57,16 56.9,16.1 56.8,16.1 56.7,16.1 56.6,16.2 56.6,16.2 56.5,16.2 56.4,16.2 56.4,16.2 56.3,16.2 
				56.3,16.2 56.2,16.2 56.2,16.2 56.1,16.2 56,16.2 55.9,16.2 55.9,16.2 55.8,16.2 55.7,16.2 55.6,16.1 55.6,16.1 55.5,16.1 
				55.4,16.1 55.4,16 55.3,16 55.3,16 55.2,15.9 55.2,15.9 55.1,15.9 55.1,15.8 55,15.7 55,15.7 55,15.6 54.9,15.6 54.9,15.5 
				54.9,15.4 54.8,15.3 54.8,15.3 54.8,15.2 54.8,15.1 54.8,15 54.7,14.9 54.7,14.9 54.7,14.8 54.7,14.7 54.7,14.6 54.7,14.4 
				54.7,14.3 54.8,14.2 54.8,14.1 54.8,14 54.9,13.8 54.9,13.7 54.9,13.6 55,13.5 55,13.4 55.1,13.3 55.1,13.2 55.2,13.2 55.2,13.1 
				55.3,13 55.3,12.9 55.4,12.8 55.5,12.7 55.5,12.7 55.6,12.6 55.7,12.5 55.7,12.5 55.8,12.4 55.9,12.3 56,12.3 56.1,12.2 
				56.1,12.2 56.2,12.1 56.3,12.1 56.4,12 56.5,12 56.6,12 56.7,11.9 56.7,11.9 56.8,11.9 56.9,11.9 57,11.9 57.1,11.9 57.2,11.9 
				57.3,11.9 57.3,11.9 57.4,11.9 57.5,11.9 57.5,11.9 57.6,11.9 57.7,12 57.7,12 57.8,12 57.9,12 57.9,12.1 58,12.1 58,12.1 
				58.1,12.2 58.1,12.2 58.2,12.3 58.2,12.3 58.2,12.4 58.3,12.4 58.3,12.5 58.3,12.6 58.3,12.6 58.3,12.7 58.3,12.8 58.4,12.8 
				58.4,12.8 58.4,12.9 58.3,12.9 58.3,13 58.3,13 58.3,13.1 58.3,13.1 58.2,13.2 58.2,13.2 58.1,13.3 58.1,13.3 58.1,13.3 58,13.3 
				58,13.4 57.9,13.4 57.9,13.4 57.8,13.4 57.8,13.4 57.8,13.4 57.8,13.4 57.7,13.4 57.7,13.4 57.7,13.4 57.7,13.4 57.6,13.3 
				57.5,13.3 57.5,13.3 57.5,13.3 57.4,13.2 57.4,13.2 57.4,13.2 57.4,13.1 57.3,13.1 57.3,13.1 57.3,13 57.3,13 57.3,12.9 
				57.3,12.9 57.3,12.8 57.3,12.8 57.3,12.8 57.3,12.7 57.3,12.7 57.3,12.7 57.3,12.7 57.4,12.6 57.4,12.6 57.4,12.6 57.4,12.5 
				57.4,12.5 57.4,12.5 57.4,12.5 57.4,12.4 57.5,12.4 57.5,12.4 57.5,12.4 57.5,12.4 57.5,12.4 57.5,12.4 57.5,12.4 57.5,12.4 
				57.5,12.4 57.5,12.4 57.5,12.4 57.5,12.4 57.5,12.3 57.5,12.3 57.4,12.3 57.4,12.3 57.4,12.2 57.3,12.2 57.3,12.2 57.2,12.2 
				57.2,12.2 57.1,12.2 57.1,12.2 57.1,12.3 57,12.3 57,12.3 56.9,12.3 56.9,12.3 56.8,12.3 56.8,12.4 56.8,12.4 56.7,12.4 
				56.7,12.4 56.7,12.5 56.6,12.5 56.6,12.5 56.5,12.6 56.5,12.7 56.4,12.8 56.4,13 56.3,13.1 56.2,13.2 56.2,13.4 56.1,13.6 
				56.1,13.8 56,13.9 56,14.1 55.9,14.2 55.9,14.4 55.9,14.6 55.9,14.7 55.9,14.8 55.9,14.9 55.9,15 55.9,15 55.9,15.1 55.9,15.2 
				55.9,15.2 56,15.3 56,15.4 56,15.4 56.1,15.5 56.1,15.5 56.1,15.6 56.2,15.6 56.2,15.6 56.2,15.6 56.3,15.7 56.3,15.7 56.3,15.7 
				56.4,15.7 56.4,15.7 56.5,15.7 56.5,15.7 56.6,15.7 56.6,15.7 56.6,15.7 56.7,15.7 56.7,15.7 56.8,15.7 56.8,15.7 56.8,15.6 
				56.9,15.6 57,15.6 57,15.5 57.1,15.5 57.2,15.5 57.2,15.4 57.3,15.4 57.3,15.3 57.4,15.3 57.4,15.2 57.5,15.2 57.5,15.1 57.6,15 
				57.7,14.9 57.7,14.9 			"/>
			<polygon class="st2" points="60.4,14.2 60.5,14.2 60.6,14.2 60.7,14.1 60.8,14.1 60.9,14.1 61,14 61,14 61.1,13.9 61.2,13.9 
				61.2,13.8 61.3,13.7 61.4,13.7 61.4,13.6 61.5,13.5 61.5,13.4 61.6,13.4 61.6,13.3 61.6,13.3 61.7,13.2 61.7,13.2 61.7,13.1 
				61.7,13 61.8,12.9 61.8,12.9 61.9,12.8 61.9,12.7 61.9,12.6 62,12.5 62,12.5 62,12.4 62,12.3 62.1,12.3 62.1,12.2 62.1,12.2 
				62.2,12.1 62.2,12.1 62.2,12.1 62.3,12 62.3,12 62.4,11.9 62.4,11.9 62.4,11.9 62.5,11.8 62.5,11.8 62.6,11.8 62.7,11.8 
				62.7,11.8 62.8,11.8 62.9,11.8 62.9,11.8 63,11.8 63.1,11.8 63.1,11.8 63.2,11.9 63.2,11.9 63.2,11.9 63.3,12 63.3,12 63.3,12.1 
				63.4,12.1 63.4,12.2 63.4,12.2 63.4,12.3 63.4,12.4 63.4,12.4 63.4,12.4 63.4,12.5 63.4,12.5 63.4,12.6 63.3,12.6 63.3,12.7 
				63.3,12.7 63.3,12.7 63.2,12.8 63.2,12.8 63.1,12.8 63.1,12.8 63,12.9 63,12.9 62.9,12.9 62.9,12.9 62.8,12.9 62.8,12.9 
				62.8,12.9 62.7,12.8 62.7,12.8 62.7,12.8 62.7,12.8 62.7,12.8 62.7,12.8 62.7,12.8 62.6,12.7 62.6,12.7 62.6,12.7 62.6,12.6 
				62.6,12.6 62.6,12.6 62.6,12.6 62.5,12.5 62.5,12.5 62.5,12.5 62.5,12.5 62.5,12.5 62.4,12.5 62.4,12.5 62.4,12.5 62.3,12.5 
				62.3,12.5 62.3,12.5 62.3,12.6 62.2,12.6 62.2,12.6 62.2,12.7 62.2,12.7 62.1,12.7 62.1,12.8 62.1,12.9 62.1,12.9 62.1,13 
				62,13.1 62,13.1 62,13.2 61.9,13.3 61.9,13.4 61.9,13.4 61.9,13.5 61.8,13.5 61.8,13.6 61.8,13.6 61.7,13.7 61.7,13.7 61.6,13.8 
				61.6,13.8 61.5,13.9 61.5,13.9 61.4,13.9 61.5,13.9 61.6,14 61.7,14 61.7,14 61.8,14 61.9,14 61.9,14.1 62,14.1 62,14.1 62,14.2 
				62.1,14.2 62.1,14.3 62.1,14.4 62.1,14.5 62.1,14.5 62.2,14.6 62.2,14.7 62.2,14.7 62.2,14.8 62.2,14.8 62.2,14.9 62.1,14.9 
				62.1,15 62.1,15 62.1,15.1 62.1,15.1 62.1,15.2 62.1,15.2 62.1,15.3 62.1,15.3 62.1,15.4 62.1,15.4 62.1,15.4 62.1,15.5 
				62.1,15.5 62.1,15.5 62.1,15.5 62.2,15.5 62.2,15.6 62.2,15.6 62.2,15.6 62.2,15.6 62.2,15.6 62.2,15.6 62.2,15.6 62.3,15.6 
				62.3,15.6 62.3,15.6 62.3,15.6 62.3,15.6 62.3,15.6 62.3,15.6 62.3,15.6 62.4,15.6 62.4,15.6 62.4,15.6 62.4,15.6 62.5,15.6 
				62.5,15.6 62.5,15.6 62.6,15.5 62.6,15.5 62.6,15.4 62.7,15.4 62.7,15.3 62.7,15.3 62.7,15.2 62.8,15.2 62.8,15.1 62.8,15 
				62.9,14.9 62.9,14.9 62.9,14.8 63.2,14.9 63.1,15 63.1,15.1 63,15.2 63,15.4 62.9,15.5 62.8,15.6 62.8,15.7 62.7,15.8 62.6,15.9 
				62.6,15.9 62.5,16 62.4,16 62.3,16.1 62.2,16.1 62.1,16.2 62,16.2 62,16.2 62,16.2 62,16.2 62,16.2 62,16.2 62,16.2 61.9,16.2 
				61.9,16.2 61.9,16.2 61.9,16.2 61.9,16.2 61.9,16.2 61.9,16.2 61.9,16.2 61.9,16.2 61.9,16.2 61.8,16.2 61.7,16.2 61.7,16.2 
				61.6,16.2 61.6,16.2 61.5,16.1 61.4,16.1 61.4,16.1 61.3,16.1 61.3,16 61.3,16 61.2,16 61.2,15.9 61.2,15.9 61.1,15.8 61.1,15.8 
				61.1,15.7 61.1,15.7 61.1,15.7 61.1,15.6 61.1,15.6 61.1,15.6 61.1,15.6 61.1,15.6 61.1,15.5 61.1,15.5 61.1,15.4 61.1,15.4 
				61.1,15.3 61.1,15.2 61.1,15.1 61.2,15.1 61.2,15 61.2,14.9 61.2,14.8 61.2,14.7 61.2,14.7 61.2,14.6 61.2,14.6 61.2,14.5 
				61.2,14.5 61.2,14.4 61.2,14.4 61.2,14.3 61.2,14.3 61.2,14.3 61.1,14.2 61.1,14.2 60.3,14.6 59.8,16.1 58.7,16.1 59.7,13 
				59.7,13 59.7,12.9 59.7,12.9 59.7,12.8 59.7,12.8 59.7,12.8 59.7,12.7 59.7,12.7 59.7,12.6 59.7,12.6 59.7,12.6 59.7,12.6 
				59.7,12.5 59.7,12.5 59.7,12.5 59.6,12.5 59.6,12.5 59.6,12.5 59.5,12.6 59.5,12.6 59.4,12.6 59.4,12.6 59.3,12.7 59.3,12.7 
				59.2,12.8 59.2,12.9 59.1,12.9 59.1,13 59,13.1 59,13.1 58.9,13.2 58.9,13.3 58.7,13.2 58.8,13.1 58.8,12.9 58.9,12.8 59,12.7 
				59.1,12.6 59.2,12.4 59.3,12.3 59.3,12.2 59.4,12.2 59.5,12.1 59.6,12.1 59.6,12 59.7,12 59.7,12 59.8,11.9 59.8,11.9 59.9,11.9 
				59.9,11.9 60,11.9 60,11.9 60.1,11.9 60.2,11.9 60.2,11.9 60.2,11.9 60.2,11.9 60.2,11.9 60.2,11.9 60.2,11.9 60.2,11.9 
				60.2,11.9 60.3,11.9 60.3,11.9 60.3,11.9 60.3,11.9 60.3,11.9 60.3,11.9 60.3,11.9 60.3,11.9 60.4,11.9 60.4,11.9 60.5,11.9 
				60.5,11.9 60.6,12 60.6,12 60.7,12 60.7,12.1 60.7,12.1 60.7,12.2 60.8,12.2 60.8,12.3 60.8,12.4 60.8,12.4 60.8,12.5 60.8,12.6 
				60.8,12.7 60.8,12.8 60.8,12.9 60.8,13 60.8,13.1 60.7,13.2 60.7,13.3 60.7,13.4 			"/>
			<polygon class="st2" points="66.5,14.9 66.5,15 66.4,15 66.4,15.1 66.4,15.2 66.3,15.3 66.2,15.4 66.2,15.4 66.1,15.5 66.1,15.6 
				66,15.7 65.9,15.7 65.9,15.8 65.8,15.8 65.7,15.9 65.6,16 65.5,16 65.5,16 65.4,16.1 65.3,16.1 65.2,16.1 65.1,16.2 65,16.2 
				65,16.2 64.9,16.2 64.9,16.2 64.9,16.2 64.9,16.2 64.9,16.2 64.8,16.2 64.8,16.2 64.8,16.2 64.8,16.2 64.8,16.2 64.8,16.2 
				64.8,16.2 64.8,16.2 64.7,16.2 64.7,16.2 64.7,16.2 64.7,16.2 64.6,16.2 64.6,16.2 64.5,16.1 64.4,16.1 64.4,16.1 64.3,16 
				64.3,16 64.2,16 64.2,15.9 64.2,15.9 64.2,15.8 64.1,15.7 64.1,15.7 64.1,15.6 64.1,15.5 64.1,15.5 64.1,15.4 64.1,15.3 
				64.1,15.2 64.1,15.1 64.2,15 64.2,14.8 64.2,14.7 64.3,14.6 64.8,13 64.8,12.9 64.8,12.9 64.8,12.8 64.8,12.8 64.8,12.8 
				64.9,12.7 64.9,12.7 64.9,12.7 64.9,12.6 64.8,12.6 64.8,12.6 64.8,12.6 64.8,12.5 64.8,12.5 64.8,12.5 64.7,12.5 64.7,12.5 
				64.7,12.5 64.6,12.5 64.6,12.6 64.5,12.6 64.5,12.6 64.4,12.7 64.4,12.7 64.3,12.8 64.3,12.9 64.2,12.9 64.2,13 64.2,13.1 
				64.1,13.1 64.1,13.2 64,13.3 63.8,13.2 63.9,13.1 64,12.9 64,12.8 64.1,12.7 64.2,12.6 64.3,12.4 64.4,12.3 64.5,12.2 64.5,12.2 
				64.6,12.1 64.7,12.1 64.7,12 64.8,12 64.8,12 64.9,11.9 64.9,11.9 65,11.9 65,11.9 65.1,11.9 65.2,11.9 65.2,11.9 65.3,11.9 
				65.3,11.9 65.3,11.9 65.3,11.9 65.3,11.9 65.3,11.9 65.3,11.9 65.3,11.9 65.4,11.9 65.4,11.9 65.4,11.9 65.4,11.9 65.4,11.9 
				65.4,11.9 65.4,11.9 65.4,11.9 65.4,11.9 65.5,11.9 65.6,11.9 65.6,11.9 65.7,11.9 65.7,12 65.7,12 65.8,12 65.8,12.1 65.8,12.1 
				65.9,12.2 65.9,12.2 65.9,12.3 65.9,12.4 65.9,12.4 65.9,12.5 65.9,12.6 65.9,12.7 65.9,12.8 65.9,12.9 65.9,13 65.9,13.1 
				65.9,13.2 65.8,13.3 65.8,13.4 65.3,15 65.3,15.1 65.2,15.1 65.2,15.2 65.2,15.2 65.2,15.2 65.2,15.3 65.2,15.3 65.2,15.3 
				65.2,15.4 65.2,15.5 65.2,15.5 65.3,15.5 65.3,15.6 65.3,15.6 65.4,15.6 65.4,15.6 65.4,15.6 65.4,15.6 65.4,15.6 65.5,15.6 
				65.5,15.6 65.5,15.6 65.5,15.6 65.5,15.6 65.5,15.6 65.5,15.6 65.5,15.6 65.5,15.6 65.5,15.6 65.5,15.6 65.6,15.6 65.6,15.6 
				65.7,15.5 65.7,15.5 65.8,15.5 65.9,15.4 65.9,15.4 66,15.3 66,15.3 66.1,15.2 66.1,15.1 66.2,15 66.2,15 66.3,14.9 66.3,14.8 
				66.4,14.7 66.5,14.5 66.6,14.3 66.6,14.1 66.7,13.9 66.8,13.7 66.9,13.5 66.9,13.3 67,13.1 67.3,12 68.4,12 68.1,13 68,13.1 
				68,13.2 68,13.3 68,13.4 67.9,13.5 67.9,13.6 67.9,13.7 67.8,13.8 67.8,13.9 67.8,14 67.8,14.1 67.7,14.2 67.7,14.3 67.7,14.4 
				67.7,14.5 67.6,14.6 67.6,14.7 67.6,14.8 67.6,14.9 67.6,15 67.6,15.1 67.5,15.2 67.5,15.2 67.5,15.3 67.5,15.3 67.5,15.3 
				67.5,15.4 67.5,15.4 67.5,15.4 67.6,15.4 67.6,15.4 67.6,15.5 67.6,15.5 67.6,15.5 67.6,15.5 67.6,15.5 67.6,15.5 67.6,15.5 
				67.6,15.6 67.7,15.6 67.7,15.6 67.7,15.5 67.8,15.5 67.8,15.5 67.8,15.5 67.8,15.5 67.8,15.5 67.9,15.5 67.9,15.4 68,15.3 
				68,15.2 68.1,15.1 68.1,15 68.2,14.9 68.3,14.8 68.3,14.7 68.5,14.8 68.5,15 68.4,15.1 68.3,15.3 68.2,15.4 68.2,15.5 68.1,15.7 
				68,15.8 67.9,15.8 67.8,15.9 67.7,16 67.6,16.1 67.5,16.1 67.5,16.1 67.4,16.2 67.3,16.2 67.2,16.2 67.1,16.2 67,16.2 66.9,16.2 
				66.9,16.2 66.8,16.1 66.8,16.1 66.7,16.1 66.7,16 66.6,16 66.6,16 66.6,15.9 66.5,15.8 66.5,15.8 66.5,15.7 66.5,15.7 66.5,15.6 
				66.5,15.5 66.5,15.5 66.5,15.4 66.5,15.4 66.5,15.4 66.5,15.3 66.5,15.3 66.5,15.2 66.5,15.2 66.5,15.1 66.5,15.1 66.5,15 
				66.5,15 66.5,15 66.5,14.9 66.5,14.9 			"/>
			<polygon class="st2" points="71.7,14.9 71.6,15 71.6,15 71.5,15.1 71.5,15.2 71.4,15.3 71.4,15.4 71.3,15.4 71.2,15.5 71.2,15.6 
				71.1,15.7 71,15.7 71,15.8 70.9,15.8 70.8,15.9 70.8,16 70.7,16 70.6,16 70.5,16.1 70.4,16.1 70.3,16.1 70.3,16.2 70.2,16.2 
				70.1,16.2 70,16.2 70,16.2 70,16.2 70,16.2 70,16.2 70,16.2 69.9,16.2 69.9,16.2 69.9,16.2 69.9,16.2 69.9,16.2 69.9,16.2 
				69.9,16.2 69.9,16.2 69.9,16.2 69.8,16.2 69.8,16.2 69.8,16.2 69.7,16.2 69.6,16.1 69.6,16.1 69.5,16.1 69.5,16 69.4,16 69.4,16 
				69.3,15.9 69.3,15.9 69.3,15.8 69.2,15.7 69.2,15.7 69.2,15.6 69.2,15.5 69.2,15.5 69.2,15.4 69.2,15.3 69.2,15.2 69.3,15.1 
				69.3,15 69.3,14.8 69.4,14.7 69.4,14.6 69.9,13 69.9,12.9 69.9,12.9 69.9,12.8 70,12.8 70,12.8 70,12.7 70,12.7 70,12.7 70,12.6 
				70,12.6 70,12.6 69.9,12.5 69.9,12.5 69.9,12.5 69.9,12.5 69.9,12.5 69.8,12.5 69.8,12.5 69.7,12.5 69.7,12.6 69.7,12.6 
				69.6,12.6 69.6,12.7 69.5,12.7 69.5,12.8 69.4,12.9 69.4,12.9 69.3,13 69.3,13.1 69.2,13.1 69.2,13.2 69.1,13.3 68.9,13.2 
				69,13.1 69.1,12.9 69.2,12.8 69.2,12.7 69.3,12.6 69.4,12.4 69.5,12.3 69.6,12.2 69.7,12.2 69.8,12.1 69.8,12.1 69.9,12 69.9,12 
				70,12 70,11.9 70.1,11.9 70.1,11.9 70.2,11.9 70.2,11.9 70.3,11.9 70.3,11.9 70.4,11.9 70.4,11.9 70.4,11.9 70.4,11.9 70.4,11.9 
				70.4,11.9 70.5,11.9 70.5,11.9 70.5,11.9 70.5,11.9 70.5,11.9 70.5,11.9 70.5,11.9 70.5,11.9 70.5,11.9 70.6,11.9 70.6,11.9 
				70.6,11.9 70.7,11.9 70.7,11.9 70.8,11.9 70.8,12 70.9,12 70.9,12 70.9,12.1 71,12.1 71,12.2 71,12.2 71,12.3 71,12.4 71,12.4 
				71.1,12.5 71.1,12.6 71.1,12.7 71,12.8 71,12.9 71,13 71,13.1 71,13.2 70.9,13.3 70.9,13.4 70.4,15 70.4,15.1 70.4,15.1 
				70.3,15.2 70.3,15.2 70.3,15.3 70.3,15.3 70.3,15.3 70.3,15.3 70.3,15.4 70.3,15.5 70.4,15.5 70.4,15.5 70.4,15.6 70.5,15.6 
				70.5,15.6 70.5,15.6 70.6,15.6 70.6,15.6 70.6,15.6 70.6,15.6 70.6,15.6 70.6,15.6 70.6,15.6 70.6,15.6 70.6,15.6 70.6,15.6 
				70.6,15.6 70.6,15.6 70.6,15.6 70.6,15.6 70.6,15.6 70.7,15.6 70.8,15.6 70.8,15.5 70.9,15.5 70.9,15.5 71,15.4 71,15.4 
				71.1,15.3 71.1,15.3 71.2,15.2 71.2,15.1 71.3,15 71.3,15 71.4,14.9 71.4,14.8 71.5,14.7 71.6,14.5 71.7,14.3 71.8,14.1 
				71.8,13.9 71.9,13.7 72,13.5 72.1,13.3 72.1,13.1 72.5,12 73.5,12 73.2,13 73.2,13.1 73.1,13.2 73.1,13.3 73.1,13.4 73.1,13.5 
				73,13.6 73,13.7 73,13.8 72.9,13.9 72.9,14 72.9,14.1 72.9,14.2 72.8,14.3 72.8,14.4 72.8,14.5 72.8,14.6 72.7,14.7 72.7,14.8 
				72.7,14.9 72.7,15 72.7,15.1 72.7,15.2 72.7,15.2 72.7,15.3 72.7,15.3 72.7,15.3 72.7,15.4 72.7,15.4 72.7,15.4 72.7,15.4 
				72.7,15.4 72.7,15.5 72.7,15.5 72.7,15.5 72.7,15.5 72.7,15.5 72.7,15.5 72.7,15.5 72.8,15.6 72.8,15.6 72.8,15.6 72.8,15.5 
				72.9,15.5 72.9,15.5 72.9,15.5 72.9,15.5 73,15.5 73,15.5 73,15.4 73.1,15.3 73.2,15.2 73.2,15.1 73.3,15 73.3,14.9 73.4,14.8 
				73.4,14.7 73.6,14.8 73.6,15 73.5,15.1 73.4,15.3 73.3,15.4 73.3,15.5 73.2,15.7 73.1,15.8 73,15.8 72.9,15.9 72.8,16 72.8,16.1 
				72.7,16.1 72.6,16.1 72.5,16.2 72.4,16.2 72.3,16.2 72.2,16.2 72.1,16.2 72,16.2 72,16.2 71.9,16.1 71.9,16.1 71.8,16.1 71.8,16 
				71.7,16 71.7,16 71.7,15.9 71.7,15.8 71.6,15.8 71.6,15.7 71.6,15.7 71.6,15.6 71.6,15.5 71.6,15.5 71.6,15.4 71.6,15.4 
				71.6,15.4 71.6,15.3 71.6,15.3 71.6,15.2 71.6,15.2 71.6,15.1 71.6,15.1 71.6,15 71.7,15 71.7,15 71.7,14.9 71.7,14.9 			"/>
			<polygon class="st2" points="73,10.2 73,10.3 72.9,10.4 72.9,10.5 72.9,10.6 72.8,10.7 72.8,10.8 72.7,10.8 72.7,10.9 72.6,11 
				72.6,11.1 72.5,11.1 72.4,11.2 72.4,11.2 72.3,11.3 72.2,11.3 72.1,11.4 72.1,11.4 72,11.5 71.9,11.5 71.8,11.5 71.7,11.5 
				71.7,11.5 71.6,11.5 71.5,11.5 71.4,11.5 71.4,11.5 71.3,11.5 71.2,11.5 71.2,11.5 71.1,11.5 71.1,11.4 71,11.4 71,11.4 
				70.9,11.3 70.9,11.3 70.8,11.2 70.8,11.2 70.8,11.1 70.7,11.1 70.7,11 70.7,11 70.7,11 70.7,11 70.7,10.9 70.7,10.9 70.7,10.9 
				70.7,10.9 70.7,10.9 70.7,10.8 70.7,10.8 70.7,10.8 70.7,10.7 70.7,10.7 70.7,10.7 70.8,10.6 70.8,10.6 70.8,10.6 70.8,10.5 
				70.8,10.5 70.8,10.5 70.9,10.5 70.9,10.5 70.9,10.5 71,10.4 71,10.4 71,10.4 71,10.4 71,10.4 71,10.4 71.1,10.4 71.1,10.4 
				71.1,10.4 71.1,10.4 71.2,10.4 71.2,10.4 71.2,10.5 71.3,10.5 71.3,10.5 71.3,10.5 71.4,10.5 71.4,10.5 71.4,10.6 71.4,10.6 
				71.4,10.6 71.5,10.6 71.5,10.7 71.5,10.7 71.5,10.7 71.5,10.7 71.5,10.8 71.5,10.8 71.5,10.8 71.5,10.9 71.5,10.9 71.5,10.9 
				71.5,11 71.6,11 71.6,11 71.6,11 71.6,11 71.7,11 71.7,11 71.7,11.1 71.8,11.1 71.8,11.1 71.9,11.1 71.9,11 72,11 72,11 72.1,11 
				72.2,10.9 72.2,10.9 72.3,10.8 72.3,10.8 72.4,10.7 72.4,10.6 72.5,10.6 72.5,10.5 72.5,10.4 72.6,10.3 72.6,10.2 			"/>
		</g>
		<g>
			<polygon class="st2" points="23.2,20.4 23.2,20.3 23.2,20.2 23.1,20.2 23.1,20.2 23.1,20.1 23,20.1 23,20.1 22.9,20.1 22.9,20.1 
				22.9,20.1 22.9,20.1 22.8,20.1 22.8,20.1 22.8,20.1 22.7,20.1 22.7,20.1 22.6,20.2 22.5,20.3 22.4,20.3 22.2,20.4 22.2,20.4 
				22.1,20.5 22,20.5 21.9,20.5 21.9,20.6 21.8,20.6 21.7,20.6 21.6,20.6 21.5,20.6 21.5,20.6 21.4,20.6 21.3,20.6 21.1,20.6 
				20.9,20.6 20.7,20.6 20.5,20.6 20.3,20.5 20.1,20.5 19.9,20.5 19.6,20.5 19.2,20.4 18.9,20.4 18.6,20.3 18.4,20.3 18.3,20.3 
				18.1,20.3 17.9,20.3 17.7,20.3 17.4,20.3 17.1,20.3 16.8,20.3 16.4,20.2 16,20.2 15.7,20.2 15.5,20.2 15.4,20.2 15.3,20.2 
				15.2,20.2 15.1,20.2 15.1,20.3 15,20.3 15,20.3 15,20.3 15,20.3 15,20.4 15,20.4 15,20.4 15,20.4 15,20.5 15,20.5 15,20.5 
				15,20.5 15,20.6 15.1,20.7 15.2,20.8 15.3,20.9 15.4,21 15.5,21.1 15.6,21.2 15.6,21.3 15.7,21.4 15.8,21.5 15.8,21.6 15.8,21.6 
				15.8,21.7 15.9,21.8 15.9,21.9 15.9,22.1 16,22.2 16,22.5 16.1,22.7 16.1,22.9 16.1,23.2 16.2,23.4 16.2,24 16.3,24.6 16.4,25.2 
				16.4,25.9 16.5,26.5 16.5,27.1 16.6,27.7 16.6,28.2 16.6,28.7 16.6,29.1 16.7,29.4 16.7,29.6 16.7,29.9 16.6,30.1 16.6,30.3 
				16.6,30.4 16.6,30.6 16.5,30.8 16.5,31 16.5,31.2 16.4,31.4 16.3,31.5 16.3,31.7 16.2,31.8 16.1,31.9 16.1,32.1 16,32.2 
				15.9,32.3 15.8,32.4 15.8,32.4 15.7,32.5 15.7,32.5 15.7,32.6 15.6,32.6 15.6,32.7 15.6,32.7 15.6,32.7 15.6,32.7 15.6,32.8 
				15.6,32.8 15.7,32.8 15.7,32.8 15.7,32.8 15.7,32.9 15.8,32.9 15.8,32.9 15.9,32.9 16,32.9 16.1,32.9 16.1,32.9 16.1,32.9 
				16.2,32.9 16.2,32.9 16.2,32.9 16.3,32.9 16.3,32.9 16.6,32.9 16.8,32.8 17,32.8 17.3,32.7 17.5,32.7 17.7,32.7 17.9,32.7 
				18.1,32.7 18.3,32.7 18.4,32.7 18.6,32.7 18.7,32.7 18.8,32.8 18.9,32.8 19,32.8 19.2,32.8 19.3,32.9 19.4,32.9 19.5,32.9 
				19.6,32.9 19.6,32.9 19.7,32.9 19.7,32.9 19.8,32.9 19.8,32.9 19.9,32.9 19.9,32.9 20,32.9 20,32.9 20,32.8 20.1,32.8 20.1,32.7 
				20.2,32.7 20.2,32.6 20.3,32.5 20.3,32.4 20.3,32.3 20.3,32.1 20.3,32 20.3,31.8 20.4,31.7 20.4,31.5 20.4,31.1 20.3,30.7 
				20.3,30.5 20.3,30.2 20.3,30 20.3,29.7 20.2,29.5 20.2,29.2 20.1,28.9 20,28.7 19.9,28.4 19.8,28.1 19.7,27.9 19.7,27.7 
				19.6,27.6 19.5,27.4 19.5,27.3 19.4,27.1 19.3,26.8 19.2,26.5 19.1,26.1 18.9,25.6 18.8,25.2 18.6,24.8 18.5,24.6 18.5,24.4 
				18.4,24.2 18.4,24 18.3,23.9 18.3,23.7 18.3,23.6 18.3,23.5 18.3,23.4 18.3,23.3 18.3,23.2 18.3,23.1 18.3,23 18.3,23 18.3,22.9 
				18.4,22.8 18.4,22.8 18.4,22.7 18.5,22.6 18.5,22.6 18.6,22.6 18.7,22.5 18.8,22.5 18.8,22.5 18.9,22.5 19,22.5 19.2,22.5 
				19.4,22.5 19.5,22.5 19.7,22.5 19.8,22.5 19.9,22.5 20.1,22.6 20.2,22.6 20.3,22.7 20.5,22.7 20.6,22.8 20.8,22.8 21.1,22.9 
				21.4,23.1 21.5,23.1 21.5,23.2 21.6,23.2 21.7,23.3 21.7,23.3 21.8,23.3 21.8,23.4 21.9,23.4 22,23.6 22.1,23.7 22.1,23.8 
				22.2,23.9 22.3,24 22.4,24.1 22.4,24.1 22.5,24.2 22.5,24.2 22.6,24.3 22.6,24.3 22.6,24.3 22.7,24.4 22.8,24.4 22.8,24.4 
				22.9,24.4 22.9,24.4 23,24.4 23.1,24.4 23.2,24.4 23.2,24.4 23.3,24.3 23.3,24.2 23.4,24.2 23.4,24.1 23.4,24 23.4,23.9 
				23.5,23.8 23.5,23.7 23.5,23.6 23.4,23.4 23.4,23.3 23.4,23.2 23.4,23.1 23.3,22.8 23.3,22.6 23.2,22.3 23.2,22.1 23.1,21.7 
				23,21.5 23,21.5 23,21.4 23,21.3 23,21.3 23,21.1 23.1,20.9 23.1,20.7 23.1,20.5 23.2,20.4 			"/>
			<polygon class="st2" points="33.8,20.4 33.8,20.3 33.8,20.3 33.8,20.3 33.8,20.2 33.7,20.2 33.7,20.2 33.7,20.2 33.6,20.2 
				33.5,20.2 33.4,20.2 33.3,20.3 33.1,20.3 33,20.3 32.9,20.3 32.7,20.3 32.6,20.3 32.4,20.3 32.2,20.3 32,20.2 31.9,20.2 
				31.8,20.2 31.8,20.2 31.7,20.2 31.6,20.2 31.6,20.2 31.5,20.2 31.5,20.2 31.4,20.2 31.4,20.2 31.3,20.2 31.3,20.2 31.2,20.2 
				31.2,20.2 31.2,20.2 31.2,20.3 31.2,20.3 31.1,20.3 31.1,20.3 31.1,20.4 31.1,20.4 31.1,20.5 31.1,20.6 31.2,20.7 31.2,20.9 
				31.2,20.9 31.2,21 31.2,21.1 31.2,21.1 31.2,21.3 31.2,21.4 31.2,21.5 31.2,21.7 31.1,21.9 31.1,22.1 31,22.3 31,22.6 30.8,23.1 
				30.7,23.8 30.5,24.5 30.3,25.3 30.1,25.7 30,26.1 29.9,26.4 29.8,26.7 29.7,27 29.6,27.2 29.5,27.4 29.5,27.6 29.4,27.7 
				29.4,27.7 29.3,27.8 29.3,27.8 29.2,27.9 29.2,27.9 29.1,28 29.1,28 29,28.1 29,28.1 28.9,28.1 28.8,28.1 28.8,28.1 28.7,28.2 
				28.7,28.2 28.6,28.2 28.5,28.2 28.4,28.2 28.3,28.1 28.3,28.1 28.2,28.1 28.1,28 28.1,27.9 28,27.9 28,27.8 27.9,27.7 27.9,27.6 
				27.9,27.5 27.9,27.4 27.8,27.2 27.8,27.1 27.8,26.9 27.8,26.8 27.8,26.6 27.9,26.4 27.9,26.1 27.9,25.9 27.9,25.6 28,25.2 
				28,24.9 28.1,24.5 28.1,24.2 28.2,23.8 28.2,23.5 28.2,23.1 28.2,22.8 28.2,22.5 28.2,22.2 28.2,21.7 28.2,21.3 28.2,21.1 
				28.2,21 28.2,20.9 28.2,20.8 28.2,20.7 28.2,20.7 28.2,20.6 28.1,20.5 28.1,20.5 28.1,20.4 28.1,20.4 28,20.3 28,20.3 27.9,20.3 
				27.9,20.2 27.8,20.2 27.8,20.2 27.7,20.2 27.6,20.1 27.6,20.1 27.5,20.1 27.4,20.1 27.4,20.1 27.3,20.1 27.3,20.1 27.3,20.1 
				27.2,20.1 27.2,20.1 27.2,20.1 27.2,20.1 27,20.2 26.8,20.2 26.6,20.2 26.5,20.2 26.3,20.3 26.2,20.3 26.1,20.3 26,20.3 
				25.9,20.3 25.8,20.3 25.7,20.3 25.6,20.3 25.5,20.2 25.4,20.2 25.3,20.2 25.2,20.2 25.1,20.2 25,20.2 24.9,20.2 24.8,20.2 
				24.7,20.2 24.7,20.2 24.6,20.2 24.6,20.2 24.5,20.2 24.5,20.2 24.4,20.2 24.3,20.2 24.3,20.2 24.2,20.2 24.2,20.2 24.1,20.2 
				24.1,20.3 24.1,20.3 24,20.3 24,20.3 24,20.4 24,20.4 24,20.4 24,20.5 24,20.5 24,20.6 24,20.6 24.1,20.7 24.1,20.7 24.2,20.8 
				24.3,20.9 24.3,20.9 24.4,21 24.5,21.1 24.6,21.1 24.6,21.2 24.7,21.3 24.8,21.3 24.8,21.4 24.9,21.5 24.9,21.6 25,21.7 25,21.8 
				25.1,21.9 25.1,22 25.1,22.1 25.2,22.2 25.2,22.3 25.2,22.4 25.3,22.5 25.3,22.7 25.3,22.8 25.4,23.2 25.5,23.6 25.5,24 
				25.6,24.5 25.6,25.1 25.7,25.7 25.7,26 25.7,26.3 25.8,26.5 25.8,26.8 25.9,27 25.9,27.2 26,27.4 26,27.5 26.1,27.6 26.1,27.7 
				26.1,27.8 26.2,27.8 26.3,28 26.3,28.1 26.5,28.3 26.6,28.4 26.7,28.5 26.8,28.6 26.9,28.7 27,28.8 27.1,28.8 27.2,28.9 27.3,29 
				27.4,29 27.5,29.1 27.6,29.1 27.7,29.1 27.8,29.2 27.9,29.2 28.1,29.2 28.2,29.2 28.3,29.2 28.4,29.3 28.5,29.3 28.6,29.3 
				28.6,29.2 28.6,29.2 28.6,29.2 28.7,29.2 28.7,29.2 28.7,29.2 28.8,29.2 28.7,29.4 28.7,29.5 28.7,29.6 28.6,29.7 28.6,29.8 
				28.5,29.9 28.5,30 28.4,30.1 28.3,30.2 28.3,30.3 28.2,30.4 28.1,30.5 28,30.6 28,30.7 27.9,30.8 27.8,30.9 27.7,31 27.6,31.1 
				27.5,31.2 27.3,31.3 27.2,31.4 27.1,31.4 27,31.5 26.9,31.6 26.7,31.7 26.6,31.8 26.4,31.8 26.3,31.9 26.1,32 26,32.1 25.8,32.1 
				25.7,32.2 25.5,32.3 25.4,32.3 25.4,32.3 25.3,32.4 25.3,32.4 25.2,32.4 25.2,32.5 25.2,32.5 25.2,32.5 25.2,32.5 25.2,32.6 
				25.2,32.6 25.2,32.6 25.2,32.6 25.2,32.7 25.2,32.7 25.2,32.7 25.3,32.8 25.3,32.8 25.3,32.8 25.4,32.8 25.4,32.9 25.4,32.9 
				25.5,32.9 25.5,32.9 25.6,32.9 25.6,32.9 25.6,32.9 25.7,32.9 25.8,32.9 25.8,32.9 25.9,32.9 26,32.9 26.1,32.9 26.2,32.9 
				26.3,32.8 26.5,32.8 26.6,32.8 26.8,32.8 26.9,32.8 27.1,32.8 27.2,32.8 27.4,32.8 27.6,32.8 27.8,32.8 27.9,32.8 28.1,32.8 
				28.2,32.8 28.4,32.8 28.6,32.8 28.7,32.8 28.9,32.9 29,32.9 29.1,32.9 29.2,32.9 29.3,32.9 29.4,32.9 29.5,32.9 29.6,32.9 
				29.6,32.9 29.7,32.9 29.8,32.9 29.9,32.9 29.9,32.9 30,32.9 30.1,32.9 30.1,32.8 30.2,32.8 30.3,32.8 30.3,32.7 30.4,32.7 
				30.4,32.6 30.4,32.6 30.5,32.5 30.5,32.4 30.5,32.4 30.6,32.2 30.6,32.1 30.7,31.8 30.8,31.6 30.8,31.3 30.9,31 30.9,30.6 
				31,30.2 31.1,29.6 31.2,29 31.3,28.4 31.4,27.9 31.5,27.5 31.6,27.1 31.6,26.7 31.7,26.5 31.8,26.2 31.8,25.9 31.9,25.6 32,25.3 
				32,24.9 32.1,24.5 32.2,24.2 32.4,23.7 32.5,23.3 32.6,22.9 32.7,22.6 32.8,22.3 32.8,22.1 32.9,21.8 33,21.7 33,21.5 33.1,21.4 
				33.1,21.3 33.2,21.2 33.2,21.1 33.3,21 33.4,20.9 33.4,20.9 33.5,20.8 33.6,20.7 33.6,20.6 33.7,20.6 33.8,20.5 33.8,20.5 
				33.8,20.4 33.8,20.4 			"/>
			<polygon class="st2" points="45.1,24.2 45.1,24 45.1,23.8 45,23.6 45,23.3 45,23.1 44.9,22.9 44.9,22.7 44.8,22.5 44.7,22.2 
				44.7,22 44.6,21.8 44.5,21.6 44.4,21.4 44.3,21.2 44.1,21 44,20.8 43.9,20.7 43.9,20.6 43.8,20.5 43.8,20.5 43.7,20.4 43.7,20.4 
				43.6,20.3 43.6,20.3 43.5,20.3 43.5,20.2 43.4,20.2 43.4,20.2 43.3,20.2 43.3,20.2 43.2,20.1 43.2,20.1 43.1,20.1 43.1,20.1 
				43,20.2 43,20.2 42.9,20.2 42.9,20.2 42.8,20.2 42.8,20.2 42.5,20.3 42.1,20.3 41.8,20.4 41.6,20.4 41.3,20.5 41.1,20.5 
				40.8,20.5 40.6,20.5 40.5,20.5 40.2,20.5 39.9,20.5 39.4,20.5 38.9,20.4 38.3,20.4 37.5,20.4 36.7,20.3 36.4,20.3 36.3,20.3 
				36.2,20.3 36.1,20.4 36,20.4 36,20.4 36,20.4 35.9,20.4 35.9,20.5 35.9,20.5 35.9,20.5 35.9,20.5 35.9,20.6 35.9,20.6 35.9,20.6 
				35.9,20.7 35.9,20.7 36,20.8 36,20.9 36,20.9 36.1,21 36.2,21.1 36.3,21.3 36.3,21.4 36.4,21.5 36.4,21.6 36.4,21.7 36.5,21.8 
				36.5,21.9 36.5,22.1 36.5,22.3 36.5,22.7 36.5,23.1 36.5,23.6 36.5,24.2 36.6,25 36.6,25.8 36.6,26.9 36.5,27.9 36.5,28.8 
				36.5,29.6 36.5,30.2 36.5,30.7 36.5,31.1 36.5,31.3 36.5,31.4 36.5,31.5 36.4,31.5 36.4,31.6 36.4,31.7 36.4,31.8 36.3,31.8 
				36.3,31.9 36.3,32 36.2,32 36.2,32.1 36.2,32.1 36.1,32.2 36.1,32.3 36,32.3 35.9,32.4 35.9,32.4 35.8,32.5 35.8,32.5 35.7,32.6 
				35.7,32.6 35.7,32.7 35.6,32.7 35.6,32.7 35.6,32.8 35.7,32.8 35.7,32.8 35.7,32.9 35.7,32.9 35.7,32.9 35.8,32.9 35.8,32.9 
				35.9,32.9 35.9,32.9 36,32.9 36,32.9 36.1,32.9 36.1,32.9 36.1,32.9 36.2,32.9 36.2,32.9 36.2,32.9 36.5,32.9 36.7,32.8 
				36.9,32.8 37.1,32.8 37.3,32.8 37.5,32.8 37.6,32.7 37.8,32.7 37.9,32.7 38.1,32.8 38.3,32.8 38.5,32.8 38.6,32.8 38.9,32.8 
				39.1,32.8 39.3,32.9 39.5,32.9 39.6,32.9 39.7,32.9 39.8,32.9 39.9,32.9 40,33 40.1,33 40.1,33 40.2,32.9 40.3,32.9 40.4,32.9 
				40.4,32.9 40.5,32.9 40.5,32.9 40.5,32.9 40.6,32.9 40.6,32.8 40.6,32.8 40.6,32.8 40.6,32.8 40.6,32.7 40.6,32.7 40.6,32.7 
				40.6,32.6 40.6,32.6 40.6,32.5 40.5,32.5 40.5,32.4 40.4,32.4 40.3,32.3 40.2,32.2 40.1,32.1 40,32 40,31.9 39.9,31.8 39.8,31.7 
				39.7,31.6 39.6,31.4 39.6,31.3 39.5,31.1 39.4,30.9 39.4,30.8 39.3,30.6 39.3,30.4 39.2,30.2 39.2,30 39.1,29.8 39.1,29.6 
				39.1,29.4 39,29.2 39,29 39,28.7 39,28.5 38.9,28.2 38.9,27.9 38.9,27.6 38.9,27.2 38.9,26.9 38.9,26.2 38.9,25.4 38.9,24.9 
				38.9,24.4 38.9,24 38.9,23.6 38.9,23.3 39,23 39,22.7 39,22.5 39,22.4 39.1,22.3 39.1,22.2 39.2,22.1 39.2,22 39.3,22 39.3,21.9 
				39.4,21.8 39.5,21.8 39.6,21.7 39.7,21.7 39.8,21.6 39.9,21.6 40,21.6 40.1,21.6 40.2,21.6 40.2,21.6 40.3,21.6 40.4,21.6 
				40.5,21.6 40.6,21.7 40.7,21.7 40.8,21.7 40.8,21.8 40.9,21.8 41,21.9 41.1,22 41.2,22 41.3,22.1 41.3,22.2 41.4,22.3 41.5,22.4 
				41.6,22.5 41.6,22.6 41.7,22.7 41.7,22.8 41.8,22.9 41.9,23 41.9,23.1 42,23.2 42.1,23.4 42.2,23.7 42.2,23.9 42.3,24.2 
				42.4,24.5 42.5,24.8 42.5,25.1 42.6,25.4 42.6,25.7 42.6,26 42.7,26.3 42.7,26.6 42.7,26.8 42.6,27.1 42.6,27.3 42.6,27.6 
				42.5,27.8 42.5,28 42.4,28.2 42.4,28.3 42.3,28.4 42.3,28.5 42.2,28.6 42.2,28.6 42.1,28.7 42.1,28.7 42,28.8 42,28.8 41.9,28.9 
				41.9,28.9 41.8,28.9 41.8,29 41.7,29 41.6,29 41.6,29 41.5,29 41.5,29 41.4,29 41.3,29 41.3,28.9 41.3,28.9 41.2,28.9 41.2,28.9 
				41.1,28.8 41.1,28.8 41.1,28.8 41,28.7 41,28.7 41,28.6 41,28.6 41,28.5 41,28.5 41,28.4 41,28.3 41,28.3 41,28.2 41.1,28.1 
				41.1,28 41.1,28 41.2,27.9 41.1,27.9 41.1,27.8 41,27.8 41,27.8 40.9,27.8 40.9,27.8 40.9,27.8 40.8,27.8 40.8,27.8 40.8,27.8 
				40.7,27.8 40.7,27.8 40.6,27.8 40.5,27.9 40.4,27.9 40.3,28 40.2,28.1 40.1,28.2 40,28.3 39.8,28.5 39.7,28.6 39.7,28.7 
				39.6,28.8 39.6,28.8 39.6,28.9 39.5,28.9 39.5,29 39.5,29 39.5,29 39.5,29.1 39.5,29.2 39.5,29.3 39.6,29.4 39.6,29.5 39.7,29.6 
				39.7,29.7 39.8,29.8 39.9,29.9 40,29.9 40,30 40.1,30 40.2,30.1 40.3,30.1 40.3,30.1 40.4,30.2 40.5,30.2 40.5,30.2 40.6,30.3 
				40.7,30.3 40.8,30.3 40.9,30.3 41,30.3 41,30.3 41.1,30.3 41.2,30.3 41.3,30.3 41.5,30.3 41.6,30.3 41.7,30.3 41.8,30.2 
				41.9,30.2 42,30.2 42.1,30.1 42.2,30.1 42.3,30 42.4,30 42.5,29.9 42.6,29.8 42.7,29.8 42.8,29.7 42.9,29.6 43,29.5 43.1,29.4 
				43.2,29.3 43.3,29.3 43.4,29.2 43.5,29.1 43.6,29 43.6,28.8 43.7,28.7 43.8,28.6 43.9,28.5 43.9,28.4 44,28.3 44.1,28.2 44.1,28 
				44.2,27.8 44.4,27.6 44.5,27.3 44.5,27.1 44.6,26.9 44.7,26.6 44.8,26.4 44.8,26.1 44.9,25.9 45,25.7 45,25.4 45,25.2 45.1,24.9 
				45.1,24.7 45.1,24.5 			"/>
			<polygon class="st2" points="53.1,32.8 53.2,32.8 53.2,32.8 53.3,32.8 53.3,32.8 53.4,32.8 53.4,32.7 53.4,32.7 53.5,32.7 
				53.5,32.7 53.5,32.6 53.5,32.6 53.5,32.6 53.6,32.5 53.6,32.5 53.6,32.4 53.6,32.3 53.6,32.3 53.5,32.2 53.5,32.2 53.5,32.1 
				53.5,32.1 53.5,32 53.4,32 53.4,31.9 53.4,31.9 53.3,31.8 53.3,31.7 53.2,31.6 53,31.5 52.9,31.4 52.8,31.4 52.6,31.3 52.5,31.2 
				52.3,31.1 52.1,31.1 51.9,31 51.7,30.9 51.5,30.9 51.4,30.8 51.2,30.8 51.1,30.7 50.9,30.6 50.8,30.6 50.7,30.5 50.6,30.4 
				50.5,30.3 50.4,30.3 50.3,30.2 50.2,30.1 50.1,30 50,30 49.9,29.9 49.9,29.8 49.8,29.7 49.7,29.6 49.7,29.6 49.6,29.5 49.6,29.4 
				49.6,29.3 49.5,29.3 49.5,29.2 49.5,29.1 49.4,29 49.4,29 49.4,28.8 49.4,28.7 49.4,28.5 49.3,28.3 49.3,28.1 49.3,27.9 
				49.3,27.8 49.3,27.6 49.4,27.4 49.4,27.3 49.4,27.1 49.4,26.9 49.4,26.7 49.5,26.6 49.5,26.2 49.6,25.7 49.7,25.6 49.7,25.5 
				49.7,25.4 49.8,25.2 49.8,25.1 49.8,25 49.9,24.9 49.9,24.9 50,24.8 50,24.7 50.1,24.6 50.1,24.6 50.2,24.5 50.2,24.5 50.3,24.4 
				50.3,24.4 50.4,24.4 50.4,24.3 50.5,24.3 50.5,24.3 50.6,24.3 50.7,24.2 50.8,24.2 50.9,24.2 50.9,24.2 51,24.2 51,24.2 51,24.2 
				51.1,24.2 51.1,24.3 51.2,24.3 51.2,24.3 51.3,24.4 51.4,24.5 51.5,24.5 51.5,24.6 51.6,24.8 51.7,24.9 51.8,25 51.9,25.1 
				51.9,25.3 52,25.4 52.1,25.5 52.2,25.7 52.2,25.9 52.3,26.1 52.4,26.3 52.5,26.4 52.5,26.6 52.6,26.9 52.7,27.1 52.7,27.3 
				52.8,27.5 52.8,27.7 52.8,27.9 52.9,28.1 52.9,28.2 52.9,28.4 52.9,28.5 52.9,28.7 52.9,28.8 52.9,28.9 52.9,29 52.9,29.1 
				52.9,29.2 53,29.2 53,29.3 53,29.3 53,29.4 53.1,29.4 53.1,29.5 53.2,29.5 53.2,29.5 53.3,29.6 53.3,29.6 53.4,29.6 53.5,29.6 
				53.6,29.5 53.6,29.5 53.7,29.5 53.8,29.4 53.8,29.4 53.9,29.3 53.9,29.2 54,29.1 54,29 54.1,28.8 54.2,28.7 54.2,28.5 54.3,28.3 
				54.4,28 54.5,27.8 54.7,27.2 54.8,26.7 55,26.3 55.1,25.9 55.2,25.6 55.3,25.3 55.4,25.1 55.5,25 55.5,24.9 55.6,24.8 55.6,24.7 
				55.6,24.7 55.7,24.6 55.7,24.6 55.8,24.5 55.8,24.5 55.9,24.4 55.9,24.4 56,24.4 56,24.3 56.1,24.3 56.1,24.3 56.1,24.3 
				56.2,24.3 56.2,24.3 56.3,24.3 56.4,24.3 56.4,24.4 56.5,24.4 56.5,24.5 56.6,24.6 56.6,24.6 56.7,24.7 56.8,24.8 56.8,24.9 
				56.8,25 56.9,25.2 56.9,25.3 57,25.5 57,25.6 57.1,25.9 57.1,26.1 57.1,26.4 57.2,26.6 57.2,26.9 57.3,27.2 57.3,27.6 57.4,27.9 
				57.4,28.2 57.4,28.6 57.4,28.9 57.5,29.2 57.5,29.5 57.5,29.8 57.5,30 57.5,30.3 57.5,30.5 57.5,30.7 57.5,30.9 57.4,31.1 
				57.4,31.2 57.4,31.4 57.3,31.4 57.3,31.5 57.3,31.6 57.3,31.6 57.2,31.7 57.2,31.7 57.2,31.8 57.1,31.8 57.1,31.9 57,31.9 57,32 
				56.9,32 56.9,32.1 56.8,32.1 56.8,32.1 56.7,32.2 56.6,32.2 56.5,32.3 56.4,32.3 56.2,32.3 56.1,32.4 56.1,32.4 56,32.5 56,32.5 
				56,32.5 55.9,32.5 55.9,32.5 55.9,32.6 55.9,32.6 55.9,32.6 55.9,32.7 55.9,32.7 56,32.7 56,32.8 56,32.8 56.1,32.8 56.2,32.9 
				56.2,32.9 56.3,32.9 56.4,32.9 56.5,33 56.6,33 56.7,33 56.9,33 57,33 57.1,33 57.2,33 57.4,33 57.5,33 57.7,33 57.8,33 57.9,33 
				58,33 58.1,33 58.3,32.9 58.6,32.9 58.8,32.8 59,32.8 59.1,32.8 59.3,32.8 59.4,32.8 59.5,32.8 59.7,32.8 59.8,32.8 59.9,32.8 
				60.1,32.8 60.2,32.8 60.3,32.8 60.4,32.8 60.5,32.9 60.6,32.9 60.7,32.9 60.8,32.9 60.9,32.9 61,33 61.1,33 61.1,33 61.2,33 
				61.3,32.9 61.3,32.9 61.4,32.9 61.4,32.9 61.4,32.8 61.5,32.8 61.5,32.8 61.5,32.7 61.5,32.7 61.5,32.6 61.4,32.6 61.4,32.5 
				61.4,32.5 61.3,32.4 61.3,32.3 61.2,32.3 61.1,32.1 61,32 60.8,31.8 60.7,31.7 60.6,31.5 60.6,31.3 60.5,31.2 60.4,31 60.4,30.8 
				60.3,30.6 60.2,30.3 60.1,30 60.1,29.7 60,29.3 59.9,28.8 59.8,28.3 59.7,27.8 59.6,27.3 59.5,26.8 59.4,26.4 59.4,26.1 
				59.3,25.8 59.3,25.6 59.3,25.5 59.3,25.3 59.2,25.1 59.2,24.8 59.1,24.4 59.1,24 59,23.5 59,23 58.9,22.4 58.8,21.6 58.9,20.6 
				58.9,20.5 58.9,20.5 58.9,20.5 58.9,20.5 58.9,20.4 58.8,20.4 58.8,20.4 58.8,20.4 58.7,20.4 58.7,20.3 58.6,20.3 58.5,20.3 
				58.4,20.3 58.3,20.3 58.2,20.4 58.1,20.4 58,20.4 57.9,20.4 57.8,20.5 57.7,20.5 57.6,20.6 57.5,20.6 57.4,20.7 57.3,20.7 
				57.2,20.8 57.1,20.9 57,20.9 56.9,21 56.7,21.2 56.6,21.3 56.4,21.5 56.2,21.6 56.1,21.8 55.9,21.9 55.8,22.1 55.7,22.3 
				55.5,22.5 55.4,22.7 55.3,22.9 55.2,23.1 55.1,23.3 55,23.5 54.9,23.7 54.8,23.9 54.8,24 54.7,24.1 54.7,24.2 54.6,24.3 
				54.6,24.3 54.6,24.3 54.6,24.3 54.5,24.4 54.5,24.4 54.5,24.4 54.4,24.4 54.4,24.4 54.4,24.4 54.3,24.4 54.3,24.4 54.3,24.4 
				54.2,24.3 54.2,24.3 54.2,24.3 54.1,24.2 54.1,24.2 54.1,24.2 54.1,24.1 54,24 54,23.9 53.9,23.8 53.8,23.5 53.7,23.3 53.6,23.1 
				53.5,22.9 53.4,22.6 53.3,22.4 53.2,22.2 53,22 52.9,21.8 52.7,21.7 52.6,21.5 52.4,21.3 52.3,21.2 52.2,21.1 52,21 51.9,20.9 
				51.8,20.8 51.7,20.7 51.6,20.7 51.5,20.6 51.3,20.6 51.2,20.5 51.1,20.5 51,20.4 50.9,20.4 50.7,20.3 50.6,20.3 50.5,20.2 
				50.4,20.2 50.3,20.2 50.2,20.2 50.2,20.2 50.1,20.2 49.9,20.2 49.6,20.2 49.3,20.2 49.1,20.2 49,20.2 48.8,20.2 48.6,20.2 
				48.5,20.2 48.3,20.2 48.3,20.3 48.2,20.3 48.1,20.3 48.1,20.3 48,20.4 48,20.4 48,20.4 48,20.4 47.9,20.5 47.9,20.5 47.9,20.5 
				47.9,20.6 47.9,20.6 47.9,20.7 47.9,20.7 48,20.7 48,20.8 48,20.9 48.2,21.1 48.3,21.3 48.3,21.3 48.4,21.4 48.4,21.5 48.5,21.6 
				48.5,21.7 48.5,21.8 48.6,22 48.6,22.1 48.6,22.2 48.6,22.3 48.6,22.4 48.6,22.5 48.6,22.6 48.6,22.7 48.6,22.8 48.6,22.9 
				48.5,23.2 48.5,23.5 48.3,24.3 48.2,24.9 48.1,25.5 48.1,25.9 48,26.4 47.9,26.9 47.9,27.4 47.8,27.9 47.8,28.3 47.8,28.6 
				47.7,28.9 47.7,29.2 47.7,29.5 47.7,29.8 47.7,30.1 47.7,30.4 47.7,30.6 47.8,30.8 47.8,30.9 47.8,31.1 47.8,31.2 47.9,31.3 
				47.9,31.5 47.9,31.6 48,31.7 48,31.8 48.1,31.9 48.2,32.1 48.2,32.2 48.3,32.3 48.4,32.3 48.5,32.4 48.5,32.5 48.6,32.5 
				48.7,32.6 48.8,32.6 48.8,32.7 48.9,32.7 49,32.8 49,32.8 49.1,32.8 49.2,32.8 49.3,32.9 49.3,32.9 49.4,32.9 49.5,32.9 
				49.6,32.9 49.7,32.9 49.9,32.9 50.1,32.9 50.3,32.9 50.5,32.9 50.7,32.9 50.8,32.8 51,32.8 51.2,32.8 51.5,32.7 51.8,32.6 
				51.9,32.6 52,32.6 52.1,32.6 52.2,32.6 52.3,32.6 52.4,32.6 52.6,32.6 52.7,32.6 52.8,32.7 52.9,32.7 53,32.7 			"/>
			<polygon class="st2" points="73.9,32.7 73.9,32.7 73.9,32.6 73.9,32.6 73.9,32.6 73.9,32.5 73.8,32.5 73.8,32.4 73.8,32.3 
				73.7,32.2 73.6,32 73.6,31.9 73.5,31.7 73.5,31.6 73.4,31.4 73.4,31.3 73.3,31.1 73.3,31 73.3,30.8 73.2,30.6 73.2,30.5 
				73.2,30.3 73.2,30.1 73.2,30 73.2,29.8 73.2,29.4 73.1,29 73.1,28.6 73.1,28.3 73.1,27.9 73,27.6 73,27.3 73,27 72.9,26.3 
				72.8,25.7 72.7,25.2 72.7,24.7 72.7,24.2 72.6,23.8 72.6,23.4 72.6,23 72.6,22.7 72.6,22.4 72.6,22.1 72.7,21.9 72.7,21.7 
				72.7,21.6 72.7,21.5 72.8,21.4 72.8,21.3 72.8,21.2 72.8,21.1 72.9,21 72.9,20.9 72.9,20.8 72.9,20.8 73,20.7 73,20.6 73,20.6 
				73,20.5 73,20.4 73,20.4 73,20.4 73,20.3 73,20.3 72.9,20.3 72.9,20.3 72.9,20.2 72.9,20.2 72.8,20.2 72.8,20.2 72.8,20.2 
				72.7,20.2 72.7,20.2 72.7,20.1 72.6,20.1 72.6,20.1 72.5,20.2 72.4,20.2 72.4,20.2 72.3,20.2 72.2,20.2 72.1,20.2 72.1,20.2 
				72,20.2 71.8,20.3 71.6,20.3 71.4,20.3 71.3,20.3 71.2,20.4 71,20.4 70.9,20.4 70.8,20.4 70.7,20.4 70.7,20.4 70.6,20.4 
				70.5,20.4 70.5,20.4 70.4,20.4 70.4,20.4 70.3,20.3 70,20.3 69.8,20.3 69.6,20.3 69.4,20.2 69.2,20.2 69.1,20.2 69,20.2 
				68.9,20.2 68.8,20.2 68.7,20.2 68.6,20.2 68.5,20.2 68.4,20.2 68.3,20.2 68.2,20.2 68.1,20.3 67.9,20.3 67.6,20.3 67.4,20.3 
				67.2,20.4 67.1,20.4 66.9,20.4 66.8,20.4 66.7,20.4 66.7,20.4 66.6,20.4 66.5,20.4 66.4,20.4 66.4,20.4 66.3,20.4 66.2,20.3 
				66.1,20.3 65.9,20.3 65.7,20.3 65.5,20.3 65.3,20.2 65.1,20.2 65,20.2 64.8,20.2 64.7,20.2 64.6,20.2 64.5,20.2 64.4,20.3 
				64.3,20.3 64.3,20.3 64.2,20.3 64.2,20.3 64.2,20.4 64.2,20.4 64.2,20.4 64.2,20.4 64.2,20.5 64.2,20.5 64.2,20.5 64.2,20.6 
				64.2,20.6 64.2,20.7 64.3,20.8 64.3,20.8 64.4,20.9 64.4,21.1 64.5,21.2 64.5,21.3 64.6,21.5 64.6,21.6 64.6,21.7 64.6,21.9 
				64.6,22 64.6,22.1 64.6,22.2 64.6,22.4 64.6,22.5 64.6,22.7 64.5,22.9 64.5,23.1 64.5,23.3 64.4,23.7 64.3,24.1 64.2,24.5 
				64.2,25 64.1,25.4 64.1,25.7 64,26.1 64,26.5 63.9,26.8 63.9,27.3 63.8,27.7 63.8,28.2 63.7,28.7 63.7,29.2 63.6,29.8 63.6,30.4 
				63.5,30.7 63.5,31.1 63.5,31.4 63.4,31.6 63.4,31.7 63.4,31.8 63.3,31.9 63.3,32 63.3,32.1 63.2,32.1 63.2,32.2 63.2,32.2 
				63.1,32.3 63.1,32.4 63,32.4 63,32.5 63,32.5 63,32.6 62.9,32.6 62.9,32.7 62.9,32.7 63,32.7 63,32.7 63,32.8 63,32.8 63,32.8 
				63.1,32.8 63.1,32.9 63.1,32.9 63.2,32.9 63.2,32.9 63.3,32.9 63.4,32.9 63.5,32.9 63.6,32.9 63.7,32.9 63.9,32.9 64,32.9 
				64.2,32.9 64.3,32.8 64.5,32.8 64.7,32.8 64.8,32.7 64.9,32.7 65,32.7 65.1,32.7 65.2,32.7 65.3,32.7 65.3,32.7 65.4,32.7 
				65.5,32.7 65.5,32.7 65.6,32.7 65.7,32.7 65.8,32.7 65.9,32.7 66.1,32.7 66.2,32.8 66.4,32.8 66.5,32.8 66.6,32.8 66.7,32.8 
				66.8,32.8 66.9,32.8 67,32.8 67.1,32.8 67.3,32.8 67.5,32.8 67.6,32.8 67.8,32.7 67.9,32.7 67.9,32.7 68,32.7 68.1,32.7 
				68.1,32.6 68.2,32.6 68.3,32.6 68.3,32.5 68.4,32.5 68.4,32.4 68.5,32.4 68.5,32.4 68.6,32.3 68.6,32.3 68.6,32.2 68.7,32.2 
				68.7,32.1 68.7,32.1 68.7,32 68.8,32 68.8,31.9 68.8,31.8 68.8,31.8 68.8,31.7 68.8,31.7 68.8,31.6 68.8,31.6 68.7,31.6 
				68.7,31.5 68.7,31.5 68.7,31.4 68.7,31.4 68.6,31.3 68.6,31.3 68.6,31.3 68.6,31.3 68.5,31.2 68.5,31.2 68.5,31.2 68.4,31.2 
				68.4,31.2 68.4,31.2 68.4,31.2 68.4,31.2 68.4,31.2 68.4,31.2 68.3,31.2 68.3,31.3 68.3,31.3 68.2,31.3 68.1,31.3 68.1,31.3 
				68,31.3 67.9,31.3 67.9,31.3 67.8,31.3 67.7,31.3 67.6,31.3 67.5,31.3 67.3,31.3 67.2,31.2 67.1,31.2 67,31.1 66.9,31.1 66.8,31 
				66.7,30.9 66.6,30.8 66.5,30.7 66.5,30.6 66.4,30.4 66.3,30.3 66.2,30.2 66.1,30 66.1,29.9 66,29.7 65.9,29.5 65.9,29.4 
				65.8,29.2 65.8,29 65.7,28.8 65.7,28.6 65.7,28.5 65.6,28.3 65.6,28.1 65.6,27.9 65.6,27.6 65.6,27.4 65.6,27.2 65.6,26.9 
				65.6,26.6 65.6,26.2 65.6,25.9 65.7,25.6 65.7,25.3 65.8,25 65.8,24.7 65.9,24.5 66,24.2 66,24 66.1,23.8 66.2,23.6 66.3,23.4 
				66.3,23.3 66.4,23.2 66.4,23.1 66.5,23 66.5,22.9 66.6,22.7 66.8,22.6 66.9,22.4 67,22.3 67.1,22.2 67.3,22 67.4,21.9 67.5,21.8 
				67.6,21.8 67.7,21.7 67.8,21.7 67.9,21.6 68,21.6 68.1,21.5 68.2,21.5 68.3,21.5 68.4,21.4 68.5,21.4 68.6,21.4 68.7,21.4 
				68.8,21.4 69,21.4 69.1,21.4 69.2,21.4 69.3,21.4 69.3,21.4 69.4,21.4 69.5,21.4 69.6,21.4 69.7,21.5 69.8,21.5 69.8,21.5 
				69.9,21.6 70,21.6 70,21.7 70.1,21.7 70.1,21.8 70.2,21.8 70.2,21.9 70.3,21.9 70.3,22 70.4,22.1 70.4,22.1 70.4,22.2 70.5,22.3 
				70.5,22.4 70.5,22.5 70.6,22.6 70.6,22.7 70.6,22.8 70.6,22.9 70.6,23 70.6,23.1 70.6,23.2 70.6,23.4 70.6,23.6 70.6,23.8 
				70.6,23.9 70.6,24.1 70.6,24.2 70.6,24.4 70.5,24.5 70.5,24.6 70.5,24.7 70.5,24.8 70.4,24.9 70.4,25 70.4,25.1 70.3,25.1 
				70.3,25.2 70.3,25.2 70.2,25.2 70.1,25.3 70,25.3 70,25.3 69.9,25.4 69.8,25.4 69.7,25.4 69.5,25.5 69.4,25.5 69.3,25.5 
				69.2,25.5 69,25.5 68.9,25.6 68.8,25.6 68.7,25.6 68.6,25.6 68.5,25.6 68.4,25.6 68.3,25.6 68.2,25.5 68.1,25.5 68,25.5 
				67.9,25.5 67.9,25.4 67.8,25.4 67.7,25.4 67.7,25.3 67.6,25.3 67.6,25.2 67.5,25.2 67.5,25.1 67.4,25 67.4,25 67.4,25 67.4,24.9 
				67.4,24.9 67.3,24.9 67.3,24.9 67.3,24.9 67.3,24.9 67.3,24.9 67.2,24.9 67.1,24.9 67.1,24.9 67,25 67,25 66.9,25 66.9,25.1 
				66.8,25.1 66.8,25.2 66.7,25.2 66.7,25.3 66.6,25.4 66.6,25.4 66.5,25.5 66.5,25.6 66.5,25.6 66.5,25.7 66.4,25.8 66.4,25.9 
				66.4,25.9 66.4,26 66.4,26.1 66.4,26.2 66.4,26.3 66.4,26.4 66.4,26.5 66.5,26.6 66.5,26.7 66.5,26.8 66.6,26.9 66.6,26.9 
				66.7,27 66.8,27.1 66.9,27.1 66.9,27.2 67,27.2 67.1,27.2 67.2,27.2 67.3,27.2 67.4,27.2 67.5,27.2 67.6,27.2 67.8,27.2 
				67.9,27.1 68.1,27.1 68.3,27 68.5,26.9 68.7,26.9 68.8,26.9 69,26.8 69.2,26.8 69.3,26.8 69.4,26.8 69.6,26.8 69.7,26.8 
				69.8,26.8 69.9,26.8 70,26.8 70,26.8 70.1,26.9 70.2,26.9 70.2,27 70.3,27 70.3,27.1 70.4,27.2 70.4,27.3 70.4,27.4 70.4,27.5 
				70.5,27.6 70.5,27.7 70.5,27.8 70.5,28.1 70.5,28.4 70.4,28.7 70.4,29.1 70.4,29.4 70.3,29.7 70.3,30 70.2,30.3 70.2,30.6 
				70.1,30.8 70.1,31 70.1,31.2 70,31.3 70,31.5 69.9,31.6 69.9,31.7 69.9,31.8 69.8,31.9 69.8,32 69.7,32.1 69.7,32.2 69.6,32.2 
				69.5,32.3 69.5,32.4 69.4,32.4 69.4,32.5 69.3,32.5 69.3,32.5 69.3,32.6 69.3,32.6 69.3,32.6 69.3,32.7 69.3,32.7 69.3,32.7 
				69.3,32.7 69.3,32.7 69.3,32.8 69.3,32.8 69.3,32.8 69.4,32.8 69.4,32.8 69.5,32.8 69.6,32.9 69.7,32.9 69.7,32.9 69.7,32.9 
				69.7,32.9 69.8,32.9 69.8,32.9 69.8,32.9 69.9,32.9 69.9,32.9 70.1,32.8 70.3,32.8 70.5,32.8 70.7,32.8 70.8,32.8 70.9,32.8 
				71.1,32.8 71.2,32.8 71.4,32.8 71.7,32.8 71.9,32.8 72.1,32.8 72.3,32.8 72.5,32.8 72.7,32.9 72.8,32.9 72.9,32.9 73.1,32.9 
				73.2,32.9 73.2,32.9 73.3,32.9 73.4,32.9 73.4,32.9 73.4,32.9 73.6,32.9 73.7,32.9 73.7,32.9 73.8,32.9 73.8,32.9 73.9,32.8 
				73.9,32.8 73.9,32.8 73.9,32.8 73.9,32.7 73.9,32.7 			"/>
			<polygon class="st2" points="87.2,20.4 87.2,20.3 87.2,20.3 87.2,20.3 87.2,20.3 87.2,20.3 87.1,20.2 87.1,20.2 87,20.2 
				86.9,20.2 86.8,20.2 86.8,20.2 86.7,20.2 86.7,20.2 86.6,20.2 86.6,20.2 86.5,20.2 86.4,20.2 86.3,20.2 86.1,20.2 85.9,20.2 
				85.7,20.2 85.5,20.3 85.4,20.3 85.2,20.3 85,20.3 84.8,20.3 84.6,20.3 84.5,20.3 84.3,20.3 84.2,20.3 84,20.2 83.9,20.2 
				83.7,20.2 83.5,20.2 83.5,20.2 83.4,20.2 83.4,20.2 83.3,20.2 83.3,20.2 83.2,20.2 83.2,20.2 83.1,20.2 83,20.2 82.9,20.2 
				82.9,20.2 82.8,20.3 82.8,20.3 82.8,20.3 82.7,20.3 82.7,20.3 82.7,20.4 82.7,20.4 82.7,20.4 82.7,20.4 82.7,20.5 82.7,20.5 
				82.7,20.5 82.7,20.5 82.8,20.6 82.8,20.7 82.9,20.8 83.1,20.9 83.2,21 83.2,21.1 83.3,21.2 83.4,21.3 83.4,21.4 83.5,21.5 
				83.5,21.6 83.6,21.6 83.6,21.7 83.6,21.8 83.6,21.9 83.6,22.1 83.7,22.3 83.7,22.5 83.7,22.7 83.7,22.9 83.7,23.1 83.7,23.3 
				83.7,23.8 83.7,24.2 83.7,24.3 83.7,24.4 83.7,24.6 83.7,24.6 83.7,24.7 83.6,24.8 83.6,24.9 83.6,25 83.5,25.1 83.5,25.1 
				83.5,25.2 83.4,25.2 83.3,25.2 83.3,25.3 83.2,25.3 83.1,25.3 83,25.4 82.9,25.4 82.8,25.4 82.7,25.5 82.6,25.5 82.5,25.5 
				82.4,25.5 82.2,25.5 82.1,25.6 82,25.6 81.9,25.6 81.8,25.6 81.6,25.6 81.5,25.6 81.3,25.6 81.2,25.6 81,25.5 80.9,25.5 
				80.7,25.5 80.6,25.4 80.5,25.4 80.4,25.4 80.3,25.4 80.3,25.3 80.2,25.3 80.2,25.3 80.1,25.3 80.1,25.2 80.1,25.2 80,25.2 
				80,25.1 80,25.1 80,25 79.9,25 79.9,24.9 79.9,24.8 79.9,24.8 79.8,24.7 79.8,24.6 79.8,24.5 79.8,24.4 79.8,24.3 79.8,24.2 
				79.8,24 79.8,23.8 79.8,23.4 79.8,23.2 79.8,23 79.9,22.8 79.9,22.6 79.9,22.5 80,22.4 80,22.3 80,22.2 80.1,22 80.2,21.8 
				80.3,21.7 80.3,21.6 80.4,21.5 80.4,21.4 80.6,21.2 80.7,21 80.9,20.8 81,20.7 81,20.6 81.1,20.6 81.1,20.5 81.1,20.5 81.1,20.5 
				81.1,20.4 81.1,20.4 81.1,20.4 81.1,20.4 81.1,20.3 81,20.3 81,20.3 81,20.3 81,20.3 80.9,20.2 80.8,20.2 80.8,20.2 80.7,20.2 
				80.6,20.2 80.6,20.2 80.5,20.2 80.5,20.2 80.4,20.2 80.4,20.2 80.3,20.2 80.3,20.2 80.2,20.2 80.1,20.2 80,20.3 79.9,20.3 
				79.7,20.3 79.5,20.3 79.4,20.4 79.2,20.4 79,20.4 78.7,20.4 78.5,20.4 78.1,20.4 77.8,20.4 77.4,20.3 77,20.3 76.9,20.3 
				76.8,20.3 76.7,20.4 76.7,20.4 76.6,20.4 76.6,20.4 76.6,20.4 76.6,20.5 76.6,20.5 76.6,20.5 76.6,20.5 76.6,20.6 76.6,20.6 
				76.6,20.6 76.6,20.7 76.6,20.7 76.6,20.8 76.7,20.9 76.7,20.9 76.7,21 76.8,21.1 76.9,21.3 77,21.4 77,21.5 77.1,21.6 77.1,21.7 
				77.1,21.8 77.2,21.9 77.2,22.1 77.2,22.2 77.2,22.4 77.2,22.6 77.3,22.7 77.3,23 77.2,25.4 77.2,26.5 77.2,27.5 77.2,28.3 
				77.2,29.1 77.2,29.7 77.2,30.2 77.2,30.6 77.1,30.9 77.1,31.1 77.1,31.2 77.1,31.3 77.1,31.4 77,31.5 77,31.6 77,31.7 76.9,31.8 
				76.9,31.9 76.9,32 76.8,32 76.8,32.1 76.7,32.2 76.7,32.2 76.6,32.3 76.6,32.3 76.5,32.3 76.4,32.4 76.4,32.4 76.4,32.5 
				76.3,32.5 76.3,32.6 76.3,32.6 76.3,32.7 76.3,32.7 76.3,32.7 76.3,32.7 76.3,32.8 76.4,32.8 76.4,32.8 76.4,32.8 76.4,32.8 
				76.5,32.9 76.5,32.9 76.5,32.9 76.6,32.9 76.7,32.9 76.8,32.9 76.8,32.9 76.8,32.9 76.8,32.9 76.9,32.9 76.9,32.9 76.9,32.9 
				76.9,32.9 76.9,32.9 77.1,32.8 77.4,32.8 77.6,32.8 77.8,32.8 78,32.8 78.2,32.8 78.4,32.7 78.6,32.7 78.8,32.8 79,32.8 
				79.3,32.8 79.5,32.8 79.7,32.8 79.9,32.8 80.1,32.8 80.3,32.8 80.4,32.9 80.5,32.9 80.5,32.9 80.6,32.9 80.7,32.9 80.7,32.9 
				80.8,32.9 80.8,32.9 80.9,32.9 81,32.9 81,32.9 81.1,32.8 81.1,32.8 81.1,32.8 81.1,32.8 81.2,32.8 81.2,32.8 81.2,32.7 
				81.2,32.7 81.2,32.7 81.2,32.7 81.2,32.6 81.2,32.6 81.2,32.6 81.2,32.6 81.2,32.5 81.2,32.5 81.1,32.4 81.1,32.4 81,32.3 
				80.9,32.2 80.8,32.2 80.7,32.1 80.6,32 80.6,32 80.5,31.9 80.4,31.8 80.4,31.7 80.3,31.7 80.3,31.6 80.2,31.5 80.2,31.4 
				80.1,31.3 80.1,31.2 80,31.1 80,30.9 79.9,30.8 79.9,30.7 79.9,30.5 79.8,30.3 79.8,30.1 79.8,29.8 79.7,29.4 79.7,29.1 
				79.6,28.7 79.6,28.3 79.6,28 79.6,27.6 79.5,27.3 79.5,27 79.5,26.8 79.5,26.7 79.6,26.6 79.6,26.5 79.6,26.4 79.6,26.3 
				79.6,26.2 79.6,26.2 79.7,26.3 79.7,26.4 79.7,26.5 79.7,26.6 79.7,26.7 79.8,26.8 79.8,26.9 79.9,26.9 80,27 80,27.1 80.1,27.1 
				80.2,27.2 80.3,27.2 80.4,27.2 80.5,27.2 80.6,27.2 80.7,27.2 80.8,27.2 80.9,27.2 81,27.2 81.2,27.1 81.4,27.1 81.6,27 
				81.8,26.9 81.9,26.9 82.1,26.9 82.3,26.8 82.4,26.8 82.5,26.8 82.7,26.8 82.8,26.8 83,26.8 83,26.8 83.1,26.8 83.2,26.8 
				83.3,26.8 83.4,26.9 83.4,26.9 83.5,27 83.5,27 83.6,27.1 83.6,27.2 83.6,27.3 83.7,27.4 83.7,27.5 83.7,27.6 83.7,27.7 
				83.7,27.8 83.7,28.1 83.7,28.4 83.7,28.7 83.7,29.1 83.6,29.4 83.6,29.7 83.5,30 83.5,30.3 83.4,30.6 83.4,30.8 83.4,31 
				83.3,31.2 83.3,31.3 83.2,31.5 83.2,31.6 83.2,31.7 83.1,31.8 83.1,31.9 83,32 83,32.1 82.9,32.2 82.9,32.2 82.8,32.3 82.7,32.4 
				82.7,32.4 82.6,32.5 82.6,32.5 82.6,32.5 82.5,32.6 82.5,32.6 82.5,32.6 82.5,32.7 82.5,32.7 82.5,32.7 82.5,32.7 82.5,32.7 
				82.5,32.8 82.6,32.8 82.6,32.8 82.6,32.8 82.7,32.8 82.7,32.8 82.8,32.9 82.9,32.9 82.9,32.9 83,32.9 83,32.9 83,32.9 83.1,32.9 
				83.1,32.9 83.1,32.9 83.1,32.9 83.4,32.8 83.6,32.8 83.7,32.8 83.9,32.8 84.1,32.8 84.2,32.8 84.3,32.8 84.4,32.8 84.7,32.8 
				84.9,32.8 85.2,32.8 85.4,32.8 85.6,32.8 85.8,32.8 85.9,32.9 86.1,32.9 86.2,32.9 86.3,32.9 86.4,32.9 86.5,32.9 86.6,32.9 
				86.6,32.9 86.7,32.9 86.7,32.9 86.8,32.9 86.9,32.9 87,32.9 87.1,32.9 87.1,32.9 87.1,32.8 87.1,32.8 87.2,32.8 87.2,32.8 
				87.2,32.7 87.2,32.7 87.2,32.7 87.2,32.7 87.2,32.6 87.2,32.6 87.1,32.6 87.1,32.5 87.1,32.5 87,32.4 87,32.3 86.9,32.2 86.9,32 
				86.8,31.9 86.8,31.7 86.7,31.6 86.7,31.4 86.6,31.3 86.6,31.1 86.6,31 86.5,30.8 86.5,30.6 86.5,30.5 86.5,30.3 86.4,30.1 
				86.4,30 86.4,29.8 86.4,29.4 86.4,29 86.3,28.6 86.3,28.3 86.3,27.9 86.2,27.6 86.2,27.4 86.2,27.3 86.2,27.1 86.2,27 86.2,26.3 
				86.2,25.7 86.2,25.1 86.2,24.6 86.2,24.1 86.2,23.6 86.1,23.2 86.1,22.8 86.1,22.6 86.2,22.4 86.2,22.3 86.2,22.1 86.3,22 
				86.3,21.8 86.4,21.7 86.4,21.5 86.5,21.4 86.6,21.3 86.6,21.2 86.7,21.1 86.8,21 86.9,20.9 86.9,20.8 87,20.7 87.1,20.7 
				87.1,20.6 87.1,20.5 87.2,20.5 87.2,20.5 87.2,20.4 87.2,20.4 			"/>
		</g>
	</g>
</g>
</svg>
