<?xml version="1.0" encoding="utf-8"?>
<!-- Generator: Adobe Illustrator 22.0.0, SVG Export Plug-In . SVG Version: 6.00 Build 0)  -->
<svg version="1.1" id="_x31_" xmlns="http://www.w3.org/2000/svg" xmlns:xlink="http://www.w3.org/1999/xlink" x="0px" y="0px"
	 viewBox="0 0 134.9 132.4" style="enable-background:new 0 0 134.9 132.4;" xml:space="preserve">
<style type="text/css">
	.st0{fill-rule:evenodd;clip-rule:evenodd;fill:#692608;}
	.st1{fill-rule:evenodd;clip-rule:evenodd;fill:#BE6F15;}
</style>
<g>
	<path class="st0" d="M68,0c-0.2,0-0.4,0-0.5,0c-0.2,0-0.4,0-0.5,0C30,0,0,29.5,0,65.7c0,12.6,3.9,24.1,10.3,33.9
		c0.4,0.4,1.2,1.2,2,0.8c0.8-0.5,0.2-2.2-0.1-2.8c-4.7-8.7-7.4-18.7-7.4-29.3c0-34.1,27.6-61.9,61.7-62.1v0c0.3,0,0.6,0,1,0
		c0.3,0,0.6,0,1,0l0,0c34.1,0.2,61.7,28,61.7,62.1c0,10.5-2.6,20.4-7.3,29.1h0.1c0,0-1.2,2.4-0.2,3c0.6,0.4,1.2,0,1.7-0.4
		c6.6-9.9,10.5-21.5,10.5-34.3C134.9,29.5,104.9,0,68,0z"/>
	<g>
		<g>
			<path class="st0" d="M48.7,108.2l-0.3,0.5c-0.3-0.2-0.5-0.3-0.7-0.4c-0.2-0.1-0.5-0.1-0.8-0.1c-0.3,0-0.6,0.1-0.9,0.3
				c-0.2,0.2-0.4,0.4-0.6,0.8c-0.1,0.3-0.2,0.7-0.2,1.1c0,0.6,0.1,1,0.3,1.4c0.2,0.3,0.4,0.6,0.7,0.7c0.3,0.2,0.6,0.2,0.9,0.2
				c0.2,0,0.5-0.1,0.7-0.2c0.2-0.1,0.4-0.3,0.6-0.5l0.5,0.4c-0.3,0.4-0.6,0.6-1,0.8c-0.4,0.1-0.7,0.2-0.9,0.2c-0.5,0-1-0.1-1.4-0.4
				c-0.4-0.3-0.7-0.6-0.9-1.1c-0.2-0.5-0.3-1-0.3-1.5c0-0.5,0.1-0.9,0.2-1.3c0.2-0.4,0.4-0.7,0.6-0.9c0.3-0.2,0.5-0.4,0.8-0.5
				c0.3-0.1,0.6-0.2,0.9-0.2c0.4,0,0.7,0.1,1,0.2C48.2,107.8,48.5,107.9,48.7,108.2z"/>
			<path class="st0" d="M47,113.4c-0.6,0-1-0.1-1.4-0.4c-0.4-0.3-0.7-0.6-0.9-1.1c-0.2-0.5-0.3-1-0.3-1.6c0-0.5,0.1-0.9,0.2-1.3
				c0.2-0.4,0.4-0.7,0.6-0.9c0.3-0.2,0.5-0.4,0.8-0.5c0.7-0.2,1.3-0.2,1.9,0c0.3,0.1,0.6,0.3,0.8,0.5l0.1,0.1l-0.4,0.7l-0.1-0.1
				c-0.3-0.2-0.5-0.3-0.7-0.4c-0.2-0.1-0.5-0.1-0.8-0.1c-0.3,0-0.6,0.1-0.8,0.3c-0.2,0.2-0.4,0.4-0.5,0.7c-0.1,0.3-0.2,0.7-0.2,1.1
				c0,0.5,0.1,1,0.3,1.3c0.2,0.3,0.4,0.6,0.6,0.7c0.3,0.1,0.5,0.2,0.8,0.2c0.2,0,0.5-0.1,0.6-0.2c0.2-0.1,0.4-0.3,0.6-0.5l0.1-0.1
				l0.6,0.6l0,0.1c-0.3,0.4-0.6,0.7-1,0.8C47.5,113.3,47.2,113.4,47,113.4L47,113.4z M46.9,107.6L46.9,107.6c-0.3,0-0.5,0.1-0.8,0.2
				c-0.3,0.1-0.5,0.3-0.8,0.5c-0.2,0.2-0.4,0.5-0.6,0.9c-0.2,0.4-0.2,0.8-0.2,1.2c0,0.6,0.1,1.1,0.3,1.5c0.2,0.4,0.5,0.8,0.9,1
				c0.4,0.2,0.8,0.4,1.3,0.4c0.2,0,0.5-0.1,0.9-0.2c0.3-0.1,0.6-0.3,0.9-0.7l-0.4-0.3c-0.2,0.2-0.4,0.4-0.5,0.5
				c-0.2,0.1-0.5,0.2-0.7,0.2c-0.3,0-0.6-0.1-0.9-0.2c-0.3-0.2-0.5-0.4-0.7-0.8c-0.2-0.4-0.3-0.8-0.3-1.4c0-0.4,0.1-0.8,0.2-1.1
				c0.1-0.3,0.3-0.6,0.6-0.8c0.3-0.2,0.6-0.3,0.9-0.3c0.3,0,0.6,0,0.8,0.1c0.2,0.1,0.4,0.2,0.7,0.4l0.3-0.4
				c-0.2-0.2-0.4-0.3-0.7-0.4C47.6,107.6,47.2,107.6,46.9,107.6z"/>
		</g>
		<g>
			<polygon class="st0" points="50.6,111.5 53.1,108.1 53.1,107.6 53.9,107.6 53.9,113.2 53.1,113.2 53.1,109.2 50.6,112.5 
				50.6,113.2 49.9,113.2 49.9,107.6 50.6,107.6 			"/>
			<path class="st0" d="M53.9,113.3H53v-3.8l-2.3,3.1v0.7h-0.9v-5.7h0.9v3.7l2.3-3.2v-0.5h0.9V113.3L53.9,113.3z M53.2,113.1
				L53.2,113.1h0.6v-5.4h-0.6v0.4l-2.6,3.7v-4.1H50v5.4h0.6v-0.6l0,0l2.6-3.6V113.1z"/>
		</g>
		<g>
			<path class="st0" d="M56.1,108.3v1.4h1.5c1.3,0,1.9,0.6,1.9,1.7c0,0.6-0.2,1-0.5,1.3c-0.3,0.3-0.8,0.5-1.4,0.5h-2.2v-5.6h3.4v0.7
				H56.1L56.1,108.3z M56.1,110.4L56.1,110.4v2.2h1.2c0.5,0,0.8-0.1,1-0.3c0.2-0.2,0.3-0.5,0.3-0.8c0-0.3-0.1-0.6-0.3-0.8
				c-0.2-0.2-0.5-0.3-1-0.3H56.1z"/>
			<path class="st0" d="M57.5,113.3h-2.3v-5.7h3.6v0.8h-2.7v1.3h1.4c1.3,0,2,0.6,2,1.8c0,0.6-0.2,1.1-0.5,1.4
				C58.6,113.1,58.1,113.3,57.5,113.3L57.5,113.3z M55.4,113.1L55.4,113.1h2.1c0.6,0,1-0.2,1.4-0.5c0.3-0.3,0.5-0.7,0.5-1.3
				c0-1.1-0.6-1.6-1.8-1.6H56v-1.6h2.7v-0.5h-3.3V113.1L55.4,113.1z M57.3,112.6c0.5,0,0.9-0.1,1.1-0.3c0.2-0.2,0.3-0.5,0.3-0.9
				c0-0.4-0.1-0.6-0.3-0.8c-0.2-0.2-0.6-0.3-1-0.3H56v2.3H57.3L57.3,112.6L57.3,112.6z M56.2,112.4L56.2,112.4h1.1
				c0.5,0,0.8-0.1,1-0.3c0.2-0.2,0.3-0.4,0.3-0.8c0-0.3-0.1-0.6-0.3-0.7c-0.2-0.2-0.5-0.3-0.9-0.3h-1.2V112.4z"/>
		</g>
		<g>
			<polygon class="st0" points="61.6,111.5 64,108.1 64,107.6 64.8,107.6 64.8,113.2 64,113.2 64,109.2 61.6,112.5 61.6,113.2 
				60.8,113.2 60.8,107.6 61.6,107.6 			"/>
			<path class="st0" d="M64.9,113.3h-0.9v-3.8l-2.3,3.1v0.7h-0.9v-5.7h0.9v3.7l2.3-3.2v-0.5h0.9V113.3L64.9,113.3z M64.1,113.1
				L64.1,113.1h0.6v-5.4h-0.6v0.4l-2.6,3.7v-4.1h-0.6v5.4h0.6v-0.6l0,0l2.6-3.6V113.1z"/>
		</g>
		<g>
			<path class="st0" d="M67.3,111.2v2h-0.8v-5.6h1.9c0.4,0,0.8,0.1,1.1,0.2c0.3,0.1,0.5,0.3,0.7,0.6c0.1,0.3,0.2,0.6,0.2,0.9
				c0,1.2-0.7,1.8-2,1.8H67.3L67.3,111.2z M67.3,110.5L67.3,110.5h1c0.8,0,1.3-0.4,1.3-1.1c0-0.7-0.4-1.1-1.3-1.1h-0.9V110.5z"/>
			<path class="st0" d="M67.4,113.3h-0.9v-5.7h2c0.4,0,0.8,0.1,1.1,0.2c0.3,0.1,0.5,0.4,0.7,0.6c0.2,0.3,0.2,0.6,0.2,1
				c0,1.3-0.7,1.9-2.1,1.9h-1V113.3L67.4,113.3z M66.7,113.1L66.7,113.1h0.6v-2h1.2c1.3,0,1.9-0.6,1.9-1.7c0-0.3-0.1-0.6-0.2-0.9
				c-0.1-0.2-0.3-0.4-0.6-0.6c-0.3-0.1-0.6-0.2-1-0.2h-1.8V113.1L66.7,113.1z M68.4,110.6c0.9,0,1.3-0.4,1.3-1.2
				c0-0.8-0.5-1.2-1.4-1.2h-1v2.4H68.4L68.4,110.6L68.4,110.6z M67.4,110.4L67.4,110.4h0.9c0.8,0,1.2-0.3,1.2-1c0-0.7-0.4-1-1.3-1
				h-0.8V110.4z"/>
		</g>
		<g>
			<path class="st0" d="M75.6,108.2l-0.4,0.5c-0.3-0.2-0.5-0.3-0.7-0.4c-0.2-0.1-0.5-0.1-0.8-0.1c-0.3,0-0.6,0.1-0.9,0.3
				c-0.2,0.2-0.4,0.4-0.6,0.8c-0.1,0.3-0.2,0.7-0.2,1.1c0,0.6,0.1,1,0.3,1.4c0.2,0.3,0.4,0.6,0.7,0.7c0.3,0.2,0.6,0.2,0.9,0.2
				c0.3,0,0.5-0.1,0.7-0.2c0.2-0.1,0.4-0.3,0.6-0.5l0.5,0.4c-0.3,0.4-0.6,0.6-1,0.8c-0.4,0.1-0.7,0.2-0.9,0.2c-0.5,0-1-0.1-1.4-0.4
				c-0.4-0.3-0.7-0.6-0.9-1.1c-0.2-0.5-0.3-1-0.3-1.5c0-0.5,0.1-0.9,0.2-1.3c0.2-0.4,0.4-0.7,0.6-0.9c0.3-0.2,0.5-0.4,0.8-0.5
				c0.3-0.1,0.6-0.2,0.9-0.2c0.4,0,0.7,0.1,1,0.2C75.1,107.8,75.3,107.9,75.6,108.2z"/>
			<path class="st0" d="M73.9,113.4c-0.5,0-1-0.1-1.4-0.4c-0.4-0.3-0.7-0.6-0.9-1.1c-0.2-0.5-0.3-1-0.3-1.6c0-0.5,0.1-0.9,0.2-1.3
				c0.2-0.4,0.4-0.7,0.6-0.9c0.3-0.2,0.5-0.4,0.8-0.5c0.7-0.2,1.3-0.2,1.9,0c0.3,0.1,0.6,0.3,0.8,0.5l0.1,0.1l-0.4,0.7l-0.1-0.1
				c-0.3-0.2-0.5-0.3-0.7-0.4c-0.2-0.1-0.5-0.1-0.7-0.1c-0.3,0-0.6,0.1-0.8,0.3c-0.2,0.2-0.4,0.4-0.5,0.7c-0.1,0.3-0.2,0.7-0.2,1.1
				c0,0.5,0.1,1,0.3,1.3c0.2,0.3,0.4,0.6,0.6,0.7c0.3,0.1,0.5,0.2,0.9,0.2c0.2,0,0.4-0.1,0.6-0.2c0.2-0.1,0.4-0.3,0.6-0.5l0.1-0.1
				l0.6,0.6l-0.1,0.1c-0.3,0.4-0.6,0.7-1,0.8C74.4,113.3,74.1,113.4,73.9,113.4L73.9,113.4z M73.8,107.6L73.8,107.6
				c-0.3,0-0.5,0.1-0.8,0.2c-0.3,0.1-0.5,0.3-0.8,0.5c-0.2,0.2-0.4,0.5-0.6,0.9c-0.1,0.4-0.2,0.8-0.2,1.2c0,0.6,0.1,1.1,0.3,1.5
				c0.2,0.4,0.5,0.8,0.9,1c0.4,0.2,0.8,0.4,1.3,0.4c0.2,0,0.5-0.1,0.9-0.2c0.3-0.1,0.6-0.3,0.9-0.7l-0.4-0.3
				c-0.2,0.2-0.4,0.4-0.6,0.5c-0.2,0.1-0.5,0.2-0.7,0.2c-0.3,0-0.6-0.1-0.9-0.2c-0.3-0.2-0.5-0.4-0.7-0.8c-0.2-0.4-0.3-0.8-0.3-1.4
				c0-0.4,0.1-0.8,0.2-1.1c0.1-0.3,0.3-0.6,0.6-0.8c0.3-0.2,0.6-0.3,0.9-0.3c0.3,0,0.6,0,0.8,0.1c0.2,0.1,0.4,0.2,0.7,0.4l0.3-0.4
				c-0.2-0.2-0.4-0.3-0.7-0.4C74.4,107.6,74.1,107.6,73.8,107.6z"/>
		</g>
		<g>
			<path class="st0" d="M77.5,110.5v2.7h-0.8v-5.6h0.8v2.3c0.2,0,0.4,0,0.5-0.1c0.1-0.1,0.3-0.1,0.4-0.2c0.1-0.1,0.2-0.2,0.2-0.3
				c0.1-0.1,0.1-0.3,0.3-0.5c0.2-0.5,0.5-0.8,0.6-1c0.2-0.2,0.4-0.3,0.7-0.3c0.1,0,0.1,0,0.2,0v0.6c-0.2,0-0.3,0-0.4,0.1
				c-0.1,0.1-0.2,0.2-0.3,0.3c-0.1,0.1-0.2,0.3-0.3,0.6c-0.1,0.2-0.2,0.4-0.3,0.5c-0.1,0.1-0.2,0.2-0.3,0.3
				c-0.1,0.1-0.3,0.2-0.5,0.2v0c0.2,0,0.4,0.1,0.6,0.2c0.2,0.1,0.3,0.3,0.4,0.4c0.1,0.2,0.2,0.4,0.4,0.7c0.1,0.1,0.1,0.2,0.2,0.4
				c0.1,0.2,0.2,0.3,0.2,0.4c0.1,0.1,0.2,0.2,0.2,0.2c0.1,0.1,0.2,0.1,0.3,0.1v0.6c-0.2,0-0.3,0-0.3,0c-0.2,0-0.4-0.1-0.6-0.2
				c-0.2-0.2-0.4-0.4-0.5-0.7c-0.2-0.3-0.3-0.6-0.5-0.9c-0.2-0.3-0.3-0.5-0.6-0.7C78.2,110.6,77.9,110.5,77.5,110.5z"/>
			<path class="st0" d="M80.6,113.4c-0.3,0-0.5-0.1-0.7-0.2c-0.2-0.2-0.4-0.4-0.6-0.7l-0.5-0.9c-0.2-0.3-0.3-0.5-0.5-0.7
				c-0.2-0.1-0.5-0.2-0.8-0.2v2.6h-0.9v-5.7h0.9v2.3c0.2,0,0.3,0,0.4-0.1c0.1-0.1,0.2-0.1,0.3-0.2c0.1-0.1,0.2-0.2,0.2-0.3
				c0.1-0.1,0.2-0.3,0.3-0.5c0.2-0.5,0.5-0.8,0.7-1c0.2-0.2,0.5-0.4,0.8-0.4c0.1,0,0.2,0,0.3,0l0.1,0v0.8h-0.1c-0.1,0-0.2,0-0.3,0.1
				c-0.1,0.1-0.2,0.2-0.2,0.3c-0.1,0.1-0.2,0.3-0.3,0.5c-0.1,0.2-0.2,0.4-0.3,0.5c-0.1,0.1-0.2,0.3-0.3,0.4
				c-0.1,0.1-0.2,0.1-0.3,0.2c0.1,0,0.3,0.1,0.4,0.2c0.2,0.1,0.3,0.3,0.4,0.4c0.1,0.2,0.2,0.4,0.4,0.7c0.1,0.1,0.1,0.2,0.2,0.4
				c0.1,0.2,0.2,0.3,0.2,0.4c0.1,0.1,0.1,0.2,0.2,0.2c0.1,0,0.2,0.1,0.3,0.1H81v0.8l-0.1,0C80.8,113.4,80.7,113.4,80.6,113.4
				L80.6,113.4z M77.4,110.4L77.4,110.4L77.4,110.4c0.5,0,0.8,0.1,1.1,0.3c0.2,0.2,0.4,0.4,0.6,0.7l0.5,0.9c0.1,0.3,0.3,0.5,0.5,0.7
				c0.2,0.1,0.3,0.2,0.6,0.2c0.1,0,0.1,0,0.3,0v-0.5c-0.1,0-0.2,0-0.3-0.1c-0.1-0.1-0.2-0.1-0.3-0.2c-0.1-0.1-0.2-0.2-0.2-0.4
				c-0.1-0.2-0.2-0.3-0.2-0.4c-0.2-0.3-0.3-0.5-0.4-0.7c-0.1-0.1-0.2-0.3-0.4-0.4c-0.1-0.1-0.3-0.2-0.5-0.2l-0.1,0v-0.2l0.1,0
				c0.2-0.1,0.3-0.1,0.4-0.2c0.1-0.1,0.2-0.2,0.3-0.3c0.1-0.1,0.2-0.3,0.3-0.5c0.1-0.3,0.2-0.4,0.3-0.6c0.1-0.1,0.2-0.2,0.3-0.3
				c0.1-0.1,0.2-0.1,0.4-0.2v-0.5c-0.3,0-0.6,0.1-0.8,0.3c-0.2,0.2-0.4,0.5-0.6,1c-0.1,0.2-0.2,0.4-0.3,0.5
				c-0.1,0.1-0.2,0.2-0.3,0.3c-0.1,0.1-0.2,0.2-0.4,0.2c-0.2,0.1-0.3,0.1-0.6,0.1h-0.1v-2.3h-0.6v5.4h0.6V110.4z"/>
		</g>
		<g>
			<path class="st0" d="M82.9,111.5l-0.6,1.5h-0.8l2.3-5.6h0.7l2.3,5.6H86l-0.5-1.5H82.9L82.9,111.5z M85.1,110.9L85.1,110.9l-1-2.4
				l-1,2.4H85.1z"/>
			<path class="st0" d="M87,113.1h-1l-0.5-1.5H83l-0.6,1.5h-1l0.1-0.1l2.3-5.6h0.8L87,113.1L87,113.1z M86,113L86,113h0.7l-2.2-5.4
				h-0.6l-2.2,5.4h0.7l0.5-1.5h2.7L86,113L86,113z M85.3,111l-1.1-2.8l-1.1,2.8H85.3L85.3,111L85.3,111z M83.3,110.8L83.3,110.8H85
				l-0.8-2.1L83.3,110.8z"/>
		</g>
		<g>
			<path class="st0" d="M91.6,107.5v5.6h-0.8v-2.3h-0.2c-0.2,0-0.4,0-0.6,0c-0.1,0-0.3,0.1-0.3,0.2c-0.1,0.1-0.2,0.2-0.2,0.3
				c-0.1,0.1-0.2,0.3-0.3,0.6c-0.2,0.4-0.3,0.7-0.5,0.8c-0.1,0.2-0.3,0.3-0.4,0.4c-0.1,0.1-0.3,0.1-0.5,0.1c-0.1,0-0.2,0-0.3,0v-0.6
				c0.1,0,0.2,0,0.3-0.1c0.1-0.1,0.1-0.1,0.2-0.2c0-0.1,0.1-0.2,0.2-0.4c0.1-0.2,0.2-0.4,0.3-0.5c0.1-0.2,0.2-0.3,0.3-0.4
				c0.1-0.1,0.3-0.3,0.5-0.3c-0.4,0-0.7-0.1-1-0.3c-0.3-0.2-0.5-0.6-0.5-1.1c0-0.4,0.1-0.6,0.2-0.9c0.1-0.2,0.3-0.4,0.5-0.5
				c0.2-0.1,0.4-0.2,0.6-0.2c0.2,0,0.4,0,0.5,0H91.6L91.6,107.5z M90.8,110.1L90.8,110.1v-1.9h-0.8c-0.3,0-0.5,0-0.7,0.1
				c-0.2,0-0.4,0.1-0.5,0.3c-0.1,0.1-0.2,0.3-0.2,0.6c0,0.3,0.1,0.5,0.2,0.6c0.1,0.1,0.3,0.2,0.5,0.3c0.2,0,0.4,0.1,0.7,0.1H90.8z"
				/>
			<path class="st0" d="M87.8,113.3c-0.1,0-0.2,0-0.3,0l-0.1,0v-0.8h0.1c0.1,0,0.2,0,0.3-0.1c0.1,0,0.1-0.1,0.2-0.2
				c0-0.1,0.1-0.2,0.2-0.4c0.1-0.2,0.2-0.4,0.3-0.6c0.1-0.2,0.2-0.3,0.4-0.5c0.1-0.1,0.2-0.2,0.3-0.2c-0.3-0.1-0.5-0.2-0.8-0.3
				c-0.3-0.2-0.5-0.6-0.5-1.2c0-0.4,0.1-0.7,0.2-0.9c0.1-0.2,0.3-0.4,0.5-0.5c0.2-0.1,0.4-0.2,0.6-0.2c0.2,0,0.4,0,0.6,0h1.9v5.7
				h-0.9v-2.3h-0.1c-0.2,0-0.4,0-0.6,0c-0.1,0-0.2,0.1-0.3,0.1c-0.1,0.1-0.2,0.2-0.2,0.3c-0.1,0.1-0.2,0.3-0.3,0.6
				c-0.2,0.4-0.3,0.7-0.5,0.8c-0.1,0.2-0.3,0.4-0.4,0.4C88.1,113.2,88,113.3,87.8,113.3L87.8,113.3z M87.6,113.1L87.6,113.1
				c0.2,0,0.5,0,0.6-0.1c0.1-0.1,0.3-0.2,0.4-0.4c0.1-0.2,0.3-0.5,0.5-0.8c0.1-0.3,0.2-0.5,0.3-0.6c0.1-0.1,0.2-0.2,0.3-0.3
				c0.1-0.1,0.2-0.1,0.4-0.2c0.1,0,0.3,0,0.6,0h0.3v2.3h0.6v-5.4h-1.8c-0.2,0-0.3,0-0.5,0c-0.2,0-0.4,0.1-0.6,0.2
				c-0.2,0.1-0.4,0.2-0.5,0.5c-0.1,0.2-0.2,0.5-0.2,0.8c0,0.5,0.1,0.9,0.4,1c0.3,0.2,0.6,0.3,1,0.3l0.4,0l-0.4,0.2
				c-0.2,0.1-0.3,0.2-0.5,0.3c-0.1,0.1-0.3,0.3-0.3,0.4c-0.1,0.1-0.2,0.3-0.3,0.5c-0.1,0.2-0.2,0.3-0.2,0.4
				c-0.1,0.1-0.1,0.2-0.2,0.2c-0.1,0.1-0.2,0.1-0.3,0.1V113.1L87.6,113.1z M90.9,110.1V108h-0.8c-0.3,0-0.5,0-0.7,0.1
				c-0.2,0-0.4,0.1-0.5,0.3c-0.1,0.2-0.2,0.4-0.2,0.7c0,0.3,0.1,0.5,0.2,0.7c0.1,0.2,0.3,0.3,0.5,0.3c0.2,0.1,0.4,0.1,0.7,0.1H90.9
				L90.9,110.1L90.9,110.1z M90.1,108.2L90.1,108.2c-0.3,0-0.5,0-0.7,0.1c-0.2,0-0.3,0.1-0.4,0.2c-0.1,0.1-0.2,0.3-0.2,0.6
				c0,0.2,0.1,0.4,0.2,0.6c0.1,0.1,0.3,0.2,0.4,0.3c0.2,0,0.4,0.1,0.7,0.1h0.7v-1.8H90.1z"/>
		</g>
		<g>
			<polygon class="st0" points="25.6,117.7 25.6,122.6 24.9,122.6 24.9,117 28.8,117 28.8,122.6 28.1,122.6 28.1,117.7 			"/>
			<path class="st0" d="M28.9,122.7H28v-4.9h-2.3v4.9h-0.9v-5.8h4.1V122.7L28.9,122.7z M28.2,122.5L28.2,122.5h0.6v-5.4H25v5.4h0.6
				v-4.9h2.6V122.5z"/>
		</g>
		<g>
			<path class="st0" d="M30.9,120.6v2h-0.8V117H32c0.4,0,0.8,0.1,1.1,0.2c0.3,0.1,0.5,0.3,0.7,0.6c0.1,0.3,0.2,0.6,0.2,0.9
				c0,1.2-0.7,1.8-2,1.8H30.9L30.9,120.6z M30.9,119.9L30.9,119.9h1c0.8,0,1.3-0.4,1.3-1.1c0-0.7-0.4-1.1-1.4-1.1h-0.9V119.9z"/>
			<path class="st0" d="M31,122.7H30v-5.8h2c0.4,0,0.8,0.1,1.1,0.2c0.3,0.1,0.5,0.4,0.7,0.6c0.2,0.3,0.2,0.6,0.2,1
				c0,1.3-0.7,1.9-2.1,1.9h-1V122.7L31,122.7z M30.2,122.5L30.2,122.5h0.6v-2H32c1.3,0,1.9-0.6,1.9-1.7c0-0.3-0.1-0.6-0.2-0.9
				c-0.1-0.2-0.3-0.4-0.6-0.6c-0.3-0.1-0.6-0.2-1-0.2h-1.8V122.5L30.2,122.5z M31.9,120c0.9,0,1.3-0.4,1.3-1.2
				c0-0.8-0.5-1.2-1.4-1.2h-1v2.4H31.9L31.9,120L31.9,120z M31,119.8L31,119.8h0.9c0.8,0,1.2-0.3,1.2-1c0-0.7-0.4-1-1.3-1H31V119.8z
				"/>
		</g>
		<g>
			<path class="st0" d="M34.6,119.8c0-0.5,0.1-0.9,0.2-1.2c0.1-0.3,0.2-0.5,0.3-0.7c0.4-0.7,1.1-1,2-1c0.4,0,0.8,0.1,1.1,0.2
				c0.4,0.1,0.7,0.4,0.9,0.8c0.3,0.5,0.5,1.1,0.5,1.9c0,0.8-0.2,1.4-0.5,1.9c-0.3,0.4-0.6,0.6-0.9,0.8c-0.4,0.1-0.7,0.2-1.1,0.2
				c-0.5,0-1-0.1-1.3-0.3c-0.3-0.2-0.6-0.4-0.8-0.7c-0.1-0.2-0.2-0.4-0.3-0.7C34.7,120.7,34.6,120.3,34.6,119.8L34.6,119.8z
				 M35.4,119.8L35.4,119.8c0,0.5,0.1,0.9,0.2,1.2c0.1,0.3,0.3,0.6,0.6,0.8c0.3,0.2,0.6,0.3,0.9,0.3c0.5,0,0.8-0.1,1.1-0.4
				c0.3-0.2,0.4-0.5,0.5-0.9c0.1-0.3,0.1-0.7,0.1-1c0-0.3,0-0.7-0.1-1c-0.1-0.3-0.3-0.6-0.5-0.9c-0.3-0.2-0.6-0.4-1.1-0.4
				c-0.1,0-0.3,0-0.5,0.1c-0.2,0-0.4,0.1-0.5,0.3c-0.2,0.1-0.4,0.4-0.5,0.7C35.5,118.9,35.4,119.3,35.4,119.8z"/>
			<path class="st0" d="M37.1,122.8c-0.6,0-1-0.1-1.3-0.3c-0.3-0.2-0.6-0.4-0.8-0.7c-0.1-0.2-0.2-0.4-0.3-0.7
				c-0.1-0.3-0.2-0.7-0.2-1.3c0-0.5,0.1-0.9,0.2-1.2c0.1-0.3,0.2-0.6,0.3-0.7c0.4-0.7,1.2-1,2.1-1c0.4,0,0.8,0.1,1.2,0.2
				c0.4,0.1,0.7,0.4,1,0.8c0.3,0.5,0.5,1.2,0.5,2c0,0.8-0.2,1.5-0.5,2c-0.3,0.4-0.6,0.7-1,0.8C37.9,122.8,37.5,122.8,37.1,122.8
				L37.1,122.8z M37.1,117L37.1,117c-0.9,0-1.6,0.3-2,0.9c-0.1,0.2-0.2,0.4-0.3,0.7c-0.1,0.3-0.2,0.7-0.2,1.2c0,0.5,0.1,0.9,0.2,1.2
				c0.1,0.3,0.2,0.5,0.3,0.7c0.2,0.3,0.4,0.5,0.7,0.7c0.3,0.2,0.7,0.3,1.2,0.3c0.4,0,0.7-0.1,1.1-0.2c0.3-0.1,0.6-0.4,0.9-0.7
				c0.3-0.5,0.5-1.1,0.5-1.9c0-0.8-0.2-1.4-0.5-1.9c-0.2-0.4-0.5-0.6-0.9-0.8C37.9,117.1,37.5,117,37.1,117L37.1,117z M37.1,122.2
				c0.5,0,0.9-0.1,1.1-0.4c0.3-0.3,0.4-0.6,0.5-0.9c0.1-0.3,0.1-0.7,0.1-1c0-0.3,0-0.7-0.1-1c-0.1-0.4-0.3-0.7-0.5-0.9
				c-0.3-0.3-0.6-0.4-1.1-0.4c-0.2,0-0.3,0-0.5,0.1c-0.2,0-0.4,0.1-0.6,0.3c-0.2,0.2-0.4,0.4-0.5,0.7c-0.1,0.3-0.2,0.7-0.2,1.2
				c0,0.5,0.1,0.9,0.2,1.3c0.1,0.4,0.3,0.6,0.6,0.8C36.4,122.1,36.8,122.2,37.1,122.2L37.1,122.2L37.1,122.2z M37.1,117.7
				L37.1,117.7c-0.1,0-0.3,0-0.5,0.1c-0.2,0-0.3,0.1-0.5,0.3c-0.2,0.1-0.3,0.4-0.4,0.6c-0.1,0.3-0.2,0.7-0.2,1.2
				c0,0.5,0.1,0.9,0.2,1.2c0.1,0.3,0.3,0.6,0.6,0.7c0.2,0.2,0.5,0.2,0.9,0.2c0.4,0,0.8-0.1,1-0.4c0.2-0.2,0.4-0.5,0.5-0.8
				c0.1-0.3,0.1-0.7,0.1-1c0-0.3,0-0.6-0.1-1c-0.1-0.3-0.3-0.6-0.5-0.8C37.9,117.8,37.6,117.7,37.1,117.7z"/>
		</g>
		<g>
			<path class="st0" d="M40.2,122h0.6c0.1-0.2,0.2-0.4,0.3-0.7c0.1-0.3,0.2-0.6,0.2-0.9c0.1-0.3,0.1-0.6,0.2-0.8
				c0-0.3,0.1-0.6,0.1-0.9c0-0.3,0-0.5,0-0.8c0-0.2,0-0.5,0-0.9h2.9v4.9h0.7v2h-0.8v-1.3h-3.6v1.3h-0.8V122L40.2,122z M43.8,117.7
				L43.8,117.7h-1.4c0,0.4,0,0.9-0.1,1.5c-0.1,0.5-0.1,1.1-0.3,1.6c-0.1,0.5-0.3,0.9-0.4,1.2h2.2V117.7z"/>
			<path class="st0" d="M45.3,124h-0.9v-1.3H41v1.3h-0.9v-2.2h0.7c0.1-0.2,0.2-0.4,0.2-0.6c0.1-0.3,0.2-0.6,0.2-0.9
				c0.1-0.3,0.1-0.6,0.2-0.8c0-0.3,0.1-0.6,0.1-0.8c0-0.3,0-0.5,0-0.8c0-0.2,0-0.5,0-0.9v-0.1h3.1v4.9h0.7V124L45.3,124z
				 M44.6,123.8L44.6,123.8h0.6V122h-0.7v-4.9h-2.8c0,0.3,0,0.6,0,0.8c0,0.3,0,0.5,0,0.8c0,0.3,0,0.6-0.1,0.9c0,0.2-0.1,0.5-0.2,0.8
				c-0.1,0.3-0.2,0.6-0.2,0.9c-0.1,0.3-0.2,0.5-0.3,0.7l0,0h-0.6v1.8h0.6v-1.3h3.7V123.8L44.6,123.8z M43.9,122v-4.4h-1.6v0.1
				c0,0.4,0,0.9-0.1,1.5c-0.1,0.5-0.1,1.1-0.3,1.6c-0.1,0.5-0.3,0.9-0.4,1.2l-0.1,0.1H43.9L43.9,122L43.9,122z M41.7,121.9
				L41.7,121.9h2v-4.1h-1.2c0,0.4,0,0.9-0.1,1.4c-0.1,0.5-0.1,1.1-0.3,1.6C42,121.2,41.9,121.6,41.7,121.9z"/>
		</g>
		<g>
			<path class="st0" d="M45.7,119.8c0-0.5,0.1-0.9,0.2-1.2c0.1-0.3,0.2-0.5,0.3-0.7c0.4-0.7,1.1-1,2.1-1c0.4,0,0.8,0.1,1.1,0.2
				c0.4,0.1,0.7,0.4,0.9,0.8c0.3,0.5,0.5,1.1,0.5,1.9c0,0.8-0.2,1.4-0.5,1.9c-0.3,0.4-0.6,0.6-0.9,0.8c-0.4,0.1-0.7,0.2-1.1,0.2
				c-0.6,0-1-0.1-1.3-0.3c-0.3-0.2-0.6-0.4-0.8-0.7c-0.1-0.2-0.2-0.4-0.3-0.7C45.8,120.7,45.7,120.3,45.7,119.8L45.7,119.8z
				 M46.6,119.8L46.6,119.8c0,0.5,0.1,0.9,0.2,1.2c0.1,0.3,0.3,0.6,0.6,0.8c0.2,0.2,0.6,0.3,0.9,0.3c0.5,0,0.8-0.1,1.1-0.4
				c0.3-0.2,0.4-0.5,0.5-0.9c0.1-0.3,0.1-0.7,0.1-1c0-0.3,0-0.7-0.1-1c-0.1-0.3-0.3-0.6-0.5-0.9c-0.2-0.2-0.6-0.4-1.1-0.4
				c-0.1,0-0.3,0-0.5,0.1c-0.2,0-0.4,0.1-0.5,0.3c-0.2,0.1-0.4,0.4-0.5,0.7C46.6,118.9,46.6,119.3,46.6,119.8z"/>
			<path class="st0" d="M48.3,122.8c-0.6,0-1-0.1-1.3-0.3c-0.3-0.2-0.6-0.4-0.8-0.7c-0.1-0.2-0.2-0.4-0.3-0.7
				c-0.1-0.3-0.2-0.7-0.2-1.3c0-0.5,0.1-0.9,0.2-1.2c0.1-0.3,0.2-0.6,0.3-0.7c0.4-0.7,1.2-1,2.1-1c0.4,0,0.8,0.1,1.1,0.2
				c0.4,0.1,0.7,0.4,1,0.8c0.3,0.5,0.5,1.2,0.5,2c0,0.8-0.2,1.5-0.5,2c-0.3,0.4-0.6,0.7-1,0.8C49.1,122.8,48.7,122.8,48.3,122.8
				L48.3,122.8z M48.3,117L48.3,117c-0.9,0-1.6,0.3-2,0.9c-0.1,0.2-0.2,0.4-0.3,0.7c-0.1,0.3-0.2,0.7-0.2,1.2c0,0.5,0.1,0.9,0.2,1.2
				c0.1,0.3,0.2,0.5,0.3,0.7c0.2,0.3,0.4,0.5,0.7,0.7c0.3,0.2,0.7,0.3,1.3,0.3c0.4,0,0.7-0.1,1.1-0.2c0.3-0.1,0.6-0.4,0.9-0.7
				c0.3-0.5,0.5-1.1,0.5-1.9c0-0.8-0.2-1.4-0.5-1.9c-0.2-0.4-0.5-0.6-0.9-0.8C49,117.1,48.6,117,48.3,117L48.3,117z M48.3,122.2
				c0.5,0,0.9-0.1,1.1-0.4c0.3-0.3,0.5-0.6,0.5-0.9c0.1-0.4,0.1-0.7,0.1-1c0-0.3,0-0.7-0.1-1c-0.1-0.4-0.3-0.7-0.5-0.9
				c-0.3-0.3-0.6-0.4-1.1-0.4c-0.2,0-0.3,0-0.5,0.1c-0.2,0-0.4,0.1-0.6,0.3c-0.2,0.2-0.4,0.4-0.5,0.7c-0.1,0.3-0.2,0.7-0.2,1.2
				c0,0.5,0.1,0.9,0.2,1.3c0.1,0.4,0.4,0.6,0.6,0.8C47.6,122.1,47.9,122.2,48.3,122.2L48.3,122.2L48.3,122.2z M48.3,117.7
				L48.3,117.7c-0.1,0-0.3,0-0.5,0.1c-0.2,0-0.3,0.1-0.5,0.3c-0.2,0.1-0.3,0.4-0.4,0.6c-0.1,0.3-0.2,0.7-0.2,1.2
				c0,0.5,0.1,0.9,0.2,1.2c0.1,0.3,0.3,0.6,0.6,0.7c0.2,0.2,0.5,0.2,0.9,0.2c0.4,0,0.8-0.1,1-0.4c0.2-0.2,0.4-0.5,0.5-0.8
				c0.1-0.3,0.1-0.7,0.1-1c0-0.3,0-0.6-0.1-1c-0.1-0.3-0.2-0.6-0.5-0.8C49,117.8,48.7,117.7,48.3,117.7z"/>
		</g>
		<g>
			<path class="st0" d="M51.8,122.6V117h1.8c0.5,0,1,0.1,1.4,0.2c0.4,0.2,0.6,0.5,0.6,1.1c0,0.4-0.1,0.6-0.3,0.8
				c-0.2,0.2-0.4,0.3-0.6,0.4v0.1c0.2,0,0.4,0.1,0.6,0.2c0.2,0.1,0.3,0.3,0.4,0.5c0.1,0.2,0.2,0.4,0.2,0.6c0,0.4-0.1,0.8-0.4,1.1
				c-0.2,0.3-0.7,0.5-1.3,0.5H51.8L51.8,122.6z M52.5,120L52.5,120v2h1.2c0.4,0,0.8-0.1,1-0.2c0.2-0.2,0.3-0.4,0.3-0.8
				c0-0.4-0.2-0.7-0.4-0.8c-0.3-0.1-0.6-0.2-1-0.2H52.5L52.5,120z M52.5,117.7L52.5,117.7v1.6h0.9c0.3,0,0.5,0,0.7-0.1
				c0.2-0.1,0.3-0.1,0.4-0.3c0.1-0.1,0.1-0.3,0.1-0.5c0-0.3-0.1-0.5-0.2-0.6c-0.1-0.1-0.4-0.2-0.8-0.2H52.5z"/>
			<path class="st0" d="M54.2,122.7h-2.5v-5.8h1.8c0.5,0,1,0.1,1.4,0.2c0.4,0.2,0.6,0.6,0.6,1.1c0,0.4-0.1,0.7-0.3,0.9
				c-0.1,0.2-0.3,0.3-0.5,0.4c0.2,0,0.3,0.1,0.5,0.2c0.2,0.1,0.4,0.3,0.5,0.5c0.1,0.2,0.2,0.4,0.2,0.7c0,0.4-0.1,0.8-0.4,1.2
				C55.3,122.5,54.8,122.7,54.2,122.7L54.2,122.7z M51.8,122.5L51.8,122.5h2.3c0.6,0,1.1-0.2,1.3-0.5c0.2-0.3,0.3-0.7,0.3-1.1
				c0-0.2,0-0.4-0.2-0.6c-0.1-0.2-0.2-0.3-0.4-0.4c-0.2-0.1-0.4-0.2-0.6-0.2l-0.1,0v-0.2l0.1,0c0.2-0.1,0.4-0.2,0.6-0.4
				c0.2-0.2,0.2-0.5,0.2-0.8c0-0.5-0.2-0.8-0.5-1c-0.4-0.1-0.8-0.2-1.4-0.2h-1.7V122.5L51.8,122.5z M53.7,122c0.5,0,0.8-0.1,1-0.3
				c0.3-0.2,0.4-0.5,0.4-0.8c0-0.4-0.2-0.7-0.5-0.9c-0.3-0.1-0.7-0.2-1.1-0.2h-1.1v2.1H53.7L53.7,122L53.7,122z M52.6,121.9
				L52.6,121.9h1.1c0.4,0,0.7-0.1,0.9-0.2c0.2-0.1,0.3-0.4,0.3-0.7c0-0.4-0.1-0.6-0.4-0.7c-0.3-0.1-0.6-0.2-1-0.2h-0.9V121.9
				L52.6,121.9z M53.5,119.4c0.3,0,0.5,0,0.7-0.1c0.2-0.1,0.3-0.2,0.4-0.3c0.1-0.1,0.1-0.3,0.1-0.5c0-0.3-0.1-0.5-0.2-0.7
				c-0.2-0.2-0.4-0.2-0.9-0.2h-1.2v1.8H53.5L53.5,119.4L53.5,119.4z M52.6,119.2L52.6,119.2h0.8c0.3,0,0.5,0,0.7-0.1
				c0.2,0,0.3-0.1,0.4-0.2c0.1-0.1,0.1-0.3,0.1-0.4c0-0.2-0.1-0.4-0.2-0.5c-0.1-0.1-0.4-0.2-0.7-0.2h-1V119.2z"/>
		</g>
		<g>
			<path class="st0" d="M56.4,119.8c0-0.5,0.1-0.9,0.2-1.2c0.1-0.3,0.2-0.5,0.3-0.7c0.4-0.7,1.1-1,2-1c0.4,0,0.8,0.1,1.1,0.2
				c0.4,0.1,0.7,0.4,0.9,0.8c0.3,0.5,0.5,1.1,0.5,1.9c0,0.8-0.2,1.4-0.5,1.9c-0.2,0.4-0.6,0.6-0.9,0.8c-0.4,0.1-0.7,0.2-1.1,0.2
				c-0.5,0-1-0.1-1.3-0.3c-0.3-0.2-0.6-0.4-0.8-0.7c-0.1-0.2-0.2-0.4-0.3-0.7C56.5,120.7,56.4,120.3,56.4,119.8L56.4,119.8z
				 M57.3,119.8L57.3,119.8c0,0.5,0.1,0.9,0.2,1.2c0.1,0.3,0.3,0.6,0.6,0.8c0.3,0.2,0.6,0.3,0.9,0.3c0.5,0,0.8-0.1,1.1-0.4
				c0.3-0.2,0.4-0.5,0.5-0.9c0.1-0.3,0.1-0.7,0.1-1c0-0.3-0.1-0.7-0.1-1c-0.1-0.3-0.3-0.6-0.5-0.9c-0.3-0.2-0.6-0.4-1.1-0.4
				c-0.1,0-0.3,0-0.5,0.1c-0.2,0-0.4,0.1-0.5,0.3c-0.2,0.1-0.3,0.4-0.5,0.7C57.3,118.9,57.3,119.3,57.3,119.8z"/>
			<path class="st0" d="M59,122.8c-0.6,0-1-0.1-1.3-0.3c-0.3-0.2-0.6-0.4-0.8-0.7c-0.1-0.2-0.2-0.4-0.3-0.7
				c-0.1-0.3-0.2-0.7-0.2-1.3c0-0.5,0.1-0.9,0.2-1.2c0.1-0.3,0.2-0.6,0.3-0.7c0.4-0.7,1.1-1,2.1-1c0.4,0,0.8,0.1,1.2,0.2
				c0.4,0.1,0.7,0.4,1,0.8c0.3,0.5,0.5,1.2,0.5,2c0,0.8-0.2,1.5-0.5,2c-0.3,0.4-0.6,0.7-1,0.8C59.7,122.8,59.4,122.8,59,122.8
				L59,122.8z M59,117L59,117c-0.9,0-1.6,0.3-2,0.9c-0.1,0.2-0.2,0.4-0.3,0.7c-0.1,0.3-0.2,0.7-0.2,1.2c0,0.5,0.1,0.9,0.2,1.2
				c0.1,0.3,0.2,0.5,0.3,0.7c0.2,0.3,0.4,0.5,0.7,0.7c0.3,0.2,0.7,0.3,1.2,0.3c0.4,0,0.7-0.1,1.1-0.2c0.3-0.1,0.6-0.4,0.9-0.7
				c0.3-0.5,0.5-1.1,0.5-1.9c0-0.8-0.2-1.4-0.5-1.9c-0.2-0.4-0.5-0.6-0.9-0.8C59.7,117.1,59.3,117,59,117L59,117z M59,122.2
				c0.5,0,0.9-0.1,1.1-0.4c0.3-0.3,0.4-0.6,0.5-0.9c0.1-0.3,0.1-0.7,0.1-1c0-0.3,0-0.7-0.1-1c-0.1-0.4-0.3-0.7-0.5-0.9
				c-0.3-0.3-0.7-0.4-1.1-0.4c-0.2,0-0.3,0-0.5,0.1c-0.2,0-0.4,0.1-0.6,0.3c-0.2,0.2-0.4,0.4-0.5,0.7c-0.1,0.3-0.2,0.7-0.2,1.2
				c0,0.5,0.1,0.9,0.2,1.3c0.1,0.4,0.3,0.6,0.6,0.8C58.3,122.1,58.6,122.2,59,122.2L59,122.2L59,122.2z M59,117.7L59,117.7
				c-0.1,0-0.3,0-0.5,0.1c-0.2,0-0.3,0.1-0.5,0.3c-0.2,0.1-0.3,0.4-0.5,0.6c-0.1,0.3-0.2,0.7-0.2,1.2c0,0.5,0.1,0.9,0.2,1.2
				c0.1,0.3,0.3,0.6,0.6,0.7c0.2,0.2,0.5,0.2,0.9,0.2c0.4,0,0.8-0.1,1-0.4c0.2-0.2,0.4-0.5,0.5-0.8c0.1-0.3,0.1-0.7,0.1-1
				c0-0.3,0-0.6-0.1-1c-0.1-0.3-0.3-0.6-0.5-0.8C59.7,117.8,59.4,117.7,59,117.7z"/>
		</g>
		<g>
			<path class="st0" d="M65.4,117.7H64c0,0.2,0,0.4,0,0.7c0,1.3-0.1,2.2-0.3,2.9c-0.1,0.5-0.3,0.8-0.6,1.1c-0.3,0.3-0.6,0.4-0.9,0.4
				c-0.1,0-0.2,0-0.3,0v-0.6c0.3,0,0.6-0.2,0.8-0.5c0.2-0.3,0.4-1.1,0.4-2.3c0-0.6,0-1.1,0-1.5V117h2.9v5.6h-0.8V117.7z"/>
			<path class="st0" d="M62.3,122.8c-0.1,0-0.2,0-0.3,0l-0.1,0V122H62c0.3,0,0.6-0.1,0.7-0.4c0.2-0.3,0.4-1.1,0.4-2.2
				c0-0.6,0-1.1,0-1.4v-1h3.1v5.8h-0.9v-4.9h-1.2c0,0.2,0,0.4,0,0.6c0,1.3-0.1,2.3-0.3,2.9c-0.1,0.5-0.3,0.8-0.6,1.1
				C63,122.7,62.7,122.8,62.3,122.8L62.3,122.8z M62.1,122.6L62.1,122.6c0.1,0,0.1,0,0.2,0c0.3,0,0.6-0.1,0.9-0.4
				c0.2-0.3,0.4-0.6,0.5-1c0.2-0.6,0.2-1.6,0.3-2.9c0-0.2,0-0.4,0-0.7v-0.1h1.6v4.9h0.6v-5.4h-2.8v0.8c0,0.4,0,0.9,0,1.5
				c-0.1,1.2-0.2,2-0.4,2.3c-0.2,0.3-0.5,0.5-0.8,0.5V122.6z"/>
		</g>
		<g>
			<path class="st0" d="M67.5,122.6V117h0.8v2h0.9c0.3,0,0.7,0,1,0.1c0.3,0.1,0.6,0.2,0.8,0.5c0.2,0.3,0.4,0.7,0.4,1.2
				c0,0.5-0.1,0.9-0.4,1.2c-0.3,0.3-0.5,0.4-0.8,0.5c-0.3,0.1-0.6,0.1-1,0.1H67.5L67.5,122.6z M68.2,122L68.2,122h0.9
				c0.9,0,1.3-0.4,1.3-1.1c0-0.4-0.1-0.7-0.3-0.8c-0.2-0.2-0.6-0.3-1-0.3h-0.9V122z"/>
			<path class="st0" d="M69.2,122.7h-1.8v-5.8h0.9v2h0.8c0.3,0,0.7,0,1,0.1c0.3,0.1,0.6,0.2,0.9,0.5c0.3,0.3,0.4,0.7,0.4,1.2
				c0,0.6-0.1,1-0.4,1.3c-0.3,0.3-0.5,0.4-0.9,0.5C69.9,122.7,69.5,122.7,69.2,122.7L69.2,122.7z M67.6,122.5L67.6,122.5h1.6
				c0.3,0,0.7,0,1-0.1c0.3-0.1,0.5-0.2,0.8-0.5c0.2-0.2,0.3-0.6,0.3-1.1c0-0.5-0.1-0.9-0.3-1.1c-0.2-0.2-0.5-0.4-0.8-0.5
				c-0.3-0.1-0.6-0.1-0.9-0.1h-1v-2h-0.6V122.5L67.6,122.5z M69.2,122c0.9,0,1.4-0.4,1.4-1.2c0-0.4-0.1-0.7-0.4-0.9
				c-0.2-0.2-0.6-0.3-1.1-0.3h-1v2.4H69.2L69.2,122L69.2,122z M68.3,121.9L68.3,121.9h0.8c0.8,0,1.3-0.3,1.3-1
				c0-0.4-0.1-0.6-0.3-0.8c-0.2-0.2-0.5-0.2-1-0.2h-0.8V121.9z"/>
		</g>
		<g>
			<path class="st0" d="M76.3,117.6l-0.4,0.5c-0.3-0.2-0.5-0.3-0.7-0.4c-0.2-0.1-0.5-0.1-0.8-0.1c-0.3,0-0.6,0.1-0.9,0.3
				c-0.2,0.2-0.4,0.4-0.6,0.8c-0.1,0.3-0.2,0.7-0.2,1.1c0,0.5,0.1,1,0.3,1.4c0.2,0.4,0.4,0.6,0.7,0.8c0.3,0.2,0.6,0.2,0.9,0.2
				c0.3,0,0.5-0.1,0.7-0.2c0.2-0.1,0.4-0.3,0.6-0.5l0.5,0.4c-0.3,0.4-0.6,0.6-1,0.8c-0.4,0.1-0.7,0.2-0.9,0.2c-0.5,0-1-0.1-1.4-0.4
				c-0.4-0.3-0.7-0.6-0.9-1.1c-0.2-0.5-0.3-1-0.3-1.5c0-0.5,0.1-0.9,0.2-1.3c0.2-0.4,0.4-0.7,0.6-0.9c0.3-0.2,0.5-0.4,0.8-0.5
				c0.3-0.1,0.6-0.2,0.9-0.2c0.4,0,0.7,0.1,1,0.2C75.8,117.2,76.1,117.4,76.3,117.6z"/>
			<path class="st0" d="M74.6,122.8c-0.5,0-1-0.1-1.4-0.4c-0.4-0.3-0.7-0.6-0.9-1.1c-0.2-0.5-0.3-1-0.3-1.6c0-0.5,0.1-0.9,0.2-1.3
				c0.2-0.4,0.4-0.7,0.6-0.9c0.3-0.2,0.5-0.4,0.8-0.5c0.7-0.2,1.3-0.2,1.9,0c0.3,0.1,0.6,0.3,0.8,0.5l0.1,0.1l-0.4,0.7l-0.1-0.1
				c-0.2-0.2-0.5-0.3-0.7-0.4c-0.2-0.1-0.5-0.1-0.8-0.1c-0.3,0-0.6,0.1-0.8,0.3c-0.2,0.2-0.4,0.4-0.5,0.7c-0.1,0.3-0.2,0.7-0.2,1.1
				c0,0.5,0.1,1,0.3,1.3c0.2,0.3,0.4,0.6,0.6,0.7c0.3,0.1,0.6,0.2,0.8,0.2c0.2,0,0.5-0.1,0.6-0.2c0.2-0.1,0.4-0.3,0.6-0.5l0.1-0.1
				l0.6,0.6l0,0.1c-0.3,0.4-0.6,0.7-1,0.8C75.1,122.8,74.8,122.8,74.6,122.8L74.6,122.8z M74.5,117L74.5,117c-0.3,0-0.6,0.1-0.8,0.2
				c-0.3,0.1-0.5,0.3-0.8,0.5c-0.2,0.2-0.4,0.5-0.6,0.9c-0.1,0.4-0.2,0.8-0.2,1.2c0,0.6,0.1,1.1,0.3,1.5c0.2,0.4,0.5,0.8,0.9,1
				c0.4,0.2,0.8,0.4,1.3,0.4c0.2,0,0.5-0.1,0.9-0.2c0.3-0.1,0.6-0.3,0.9-0.7l-0.4-0.3c-0.2,0.2-0.4,0.3-0.6,0.5
				c-0.2,0.1-0.5,0.2-0.7,0.2c-0.3,0-0.6-0.1-0.9-0.2c-0.3-0.2-0.5-0.4-0.7-0.8c-0.2-0.4-0.3-0.8-0.3-1.4c0-0.4,0.1-0.8,0.2-1.1
				c0.1-0.3,0.3-0.6,0.6-0.8c0.3-0.2,0.6-0.3,0.9-0.3c0.3,0,0.6,0,0.8,0.1c0.2,0.1,0.4,0.2,0.7,0.4l0.3-0.4
				c-0.2-0.2-0.4-0.3-0.7-0.4C75.2,117,74.8,117,74.5,117z"/>
		</g>
		<g>
			<polygon class="st0" points="79.2,117.7 79.2,122.6 78.5,122.6 78.5,117.7 76.9,117.7 76.9,117 80.9,117 80.9,117.7 			"/>
			<path class="st0" d="M79.3,122.7h-0.9v-4.9h-1.6v-0.8h4.2v0.8h-1.6V122.7L79.3,122.7z M78.6,122.5L78.6,122.5h0.6v-4.9h1.6v-0.5
				H77v0.5h1.6V122.5z"/>
		</g>
		<g>
			<path class="st0" d="M81.7,122.6V117h1.8c0.5,0,1,0.1,1.4,0.2c0.4,0.2,0.6,0.5,0.6,1.1c0,0.4-0.1,0.6-0.2,0.8
				c-0.2,0.2-0.4,0.3-0.6,0.4v0.1c0.2,0,0.4,0.1,0.6,0.2c0.2,0.1,0.3,0.3,0.4,0.5c0.1,0.2,0.2,0.4,0.2,0.6c0,0.4-0.1,0.8-0.4,1.1
				c-0.2,0.3-0.7,0.5-1.3,0.5H81.7L81.7,122.6z M82.4,120L82.4,120v2h1.2c0.4,0,0.8-0.1,1-0.2c0.2-0.2,0.3-0.4,0.3-0.8
				c0-0.4-0.1-0.7-0.4-0.8c-0.3-0.1-0.6-0.2-1-0.2H82.4L82.4,120z M82.5,117.7L82.5,117.7v1.6h0.9c0.3,0,0.5,0,0.7-0.1
				c0.2-0.1,0.3-0.1,0.4-0.3c0.1-0.1,0.1-0.3,0.1-0.5c0-0.3-0.1-0.5-0.2-0.6c-0.1-0.1-0.4-0.2-0.8-0.2H82.5z"/>
			<path class="st0" d="M84.1,122.7h-2.5v-5.8h1.8c0.5,0,1,0.1,1.4,0.2c0.4,0.2,0.6,0.6,0.6,1.1c0,0.4-0.1,0.7-0.3,0.9
				c-0.1,0.2-0.3,0.3-0.5,0.4c0.2,0,0.3,0.1,0.4,0.2c0.2,0.1,0.4,0.3,0.5,0.5c0.1,0.2,0.2,0.4,0.2,0.7c0,0.4-0.1,0.8-0.4,1.2
				C85.2,122.5,84.8,122.7,84.1,122.7L84.1,122.7z M81.8,122.5L81.8,122.5h2.3c0.6,0,1.1-0.2,1.3-0.5c0.2-0.3,0.3-0.7,0.3-1.1
				c0-0.2-0.1-0.4-0.2-0.6c-0.1-0.2-0.2-0.3-0.4-0.4c-0.2-0.1-0.4-0.2-0.6-0.2l-0.1,0v-0.2l0.1,0c0.2-0.1,0.4-0.2,0.6-0.4
				c0.1-0.2,0.2-0.5,0.2-0.8c0-0.5-0.2-0.8-0.5-1c-0.4-0.1-0.8-0.2-1.4-0.2h-1.7V122.5L81.8,122.5z M83.6,122c0.5,0,0.8-0.1,1.1-0.3
				c0.2-0.2,0.4-0.5,0.4-0.8c0-0.4-0.2-0.7-0.5-0.9c-0.3-0.1-0.7-0.2-1.1-0.2h-1.1v2.1H83.6L83.6,122L83.6,122z M82.5,121.9
				L82.5,121.9h1.1c0.4,0,0.7-0.1,0.9-0.2c0.2-0.1,0.3-0.4,0.3-0.7c0-0.4-0.1-0.6-0.4-0.7c-0.3-0.1-0.6-0.2-1-0.2h-0.9V121.9
				L82.5,121.9z M83.4,119.4c0.3,0,0.5,0,0.7-0.1c0.2-0.1,0.3-0.2,0.4-0.3c0.1-0.1,0.1-0.3,0.1-0.5c0-0.3-0.1-0.5-0.2-0.7
				c-0.2-0.2-0.4-0.2-0.9-0.2h-1.2v1.8H83.4L83.4,119.4L83.4,119.4z M82.5,119.2L82.5,119.2h0.9c0.3,0,0.5,0,0.7-0.1
				c0.2,0,0.3-0.1,0.3-0.2c0.1-0.1,0.1-0.3,0.1-0.4c0-0.2-0.1-0.4-0.2-0.5c-0.1-0.1-0.4-0.2-0.8-0.2h-1V119.2z"/>
		</g>
		<g>
			<polygon class="st0" points="89.8,117.7 87.4,117.7 87.4,119.3 89.5,119.3 89.5,120 87.4,120 87.4,122 90.1,122 90.1,122.6 
				86.7,122.6 86.7,117 89.8,117 			"/>
			<path class="st0" d="M90.2,122.7h-3.6v-5.8h3.3v0.8h-2.4v1.4h2v0.8h-2v1.8h2.7V122.7L90.2,122.7z M86.8,122.5L86.8,122.5h3.3V122
				h-2.7v-2.2h2v-0.5h-2v-1.8h2.4v-0.5h-3V122.5z"/>
		</g>
		<g>
			<polygon class="st0" points="91.8,120.1 91.8,122.6 91.1,122.6 91.1,117 91.8,117 91.8,119.4 94.3,119.4 94.3,117 95,117 
				95,122.6 94.3,122.6 94.3,120.1 			"/>
			<path class="st0" d="M95.1,122.7h-0.9v-2.6h-2.3v2.6H91v-5.8h0.9v2.4h2.3v-2.4h0.9V122.7L95.1,122.7z M94.4,122.5L94.4,122.5h0.6
				v-5.4h-0.6v2.4h-2.6v-2.4h-0.6v5.4h0.6V120h2.6V122.5z"/>
		</g>
		<g>
			<polygon class="st0" points="97.1,120.1 97.1,122.6 96.3,122.6 96.3,117 97.1,117 97.1,119.4 99.5,119.4 99.5,117 100.3,117 
				100.3,122.6 99.5,122.6 99.5,120.1 			"/>
			<path class="st0" d="M100.4,122.7h-0.9v-2.6h-2.3v2.6h-0.9v-5.8h0.9v2.4h2.3v-2.4h0.9V122.7L100.4,122.7z M99.6,122.5L99.6,122.5
				h0.6v-5.4h-0.6v2.4H97v-2.4h-0.6v5.4H97V120h2.6V122.5z"/>
		</g>
		<g>
			<path class="st0" d="M102.5,121.1l-0.5,1.5h-0.8l2.3-5.6h0.7l2.3,5.6h-0.8l-0.5-1.5H102.5L102.5,121.1z M104.7,120.4L104.7,120.4
				l-1-2.4l-1,2.4H104.7z"/>
			<path class="st0" d="M106.6,122.7h-1l-0.5-1.5h-2.4l-0.5,1.5h-1l0.1-0.1l2.3-5.6h0.8L106.6,122.7L106.6,122.7z M105.6,122.5
				L105.6,122.5h0.7l-2.2-5.4h-0.6l-2.2,5.4h0.7l0.6-1.5h2.7L105.6,122.5L105.6,122.5z M104.9,120.5l-1.1-2.8l-1.1,2.8H104.9
				L104.9,120.5L104.9,120.5z M102.9,120.4L102.9,120.4h1.7l-0.8-2.1L102.9,120.4z"/>
		</g>
		<g>
			<path class="st0" d="M111,117v5.6h-0.8v-2.3H110c-0.2,0-0.4,0-0.6,0c-0.1,0-0.3,0.1-0.3,0.2c-0.1,0.1-0.2,0.2-0.2,0.3
				c-0.1,0.1-0.2,0.3-0.3,0.6c-0.2,0.4-0.3,0.6-0.5,0.8c-0.1,0.2-0.3,0.3-0.4,0.4c-0.1,0.1-0.3,0.1-0.5,0.1c-0.1,0-0.2,0-0.3,0v-0.6
				c0.1,0,0.2,0,0.3-0.1c0.1,0,0.1-0.1,0.2-0.2c0-0.1,0.1-0.2,0.2-0.4c0.1-0.2,0.2-0.4,0.3-0.6c0.1-0.2,0.2-0.3,0.3-0.4
				c0.1-0.1,0.3-0.3,0.5-0.3c-0.4,0-0.7-0.1-1-0.3c-0.3-0.2-0.5-0.6-0.5-1.1c0-0.4,0.1-0.6,0.2-0.9c0.1-0.2,0.3-0.4,0.5-0.5
				c0.2-0.1,0.4-0.2,0.6-0.2c0.2,0,0.4,0,0.5,0H111L111,117z M110.2,119.6L110.2,119.6v-1.9h-0.8c-0.3,0-0.5,0-0.7,0.1
				c-0.2,0-0.4,0.1-0.5,0.3c-0.1,0.1-0.2,0.3-0.2,0.6c0,0.3,0.1,0.5,0.2,0.6c0.1,0.1,0.3,0.2,0.5,0.3c0.2,0.1,0.4,0.1,0.7,0.1H110.2
				z"/>
			<path class="st0" d="M107.2,122.8c-0.1,0-0.2,0-0.3,0l-0.1,0V122h0.1c0.1,0,0.2,0,0.3-0.1c0.1,0,0.1-0.1,0.2-0.2
				c0-0.1,0.1-0.2,0.2-0.4c0.1-0.2,0.2-0.4,0.3-0.6c0.1-0.2,0.2-0.3,0.4-0.5c0.1-0.1,0.2-0.2,0.3-0.2c-0.3,0-0.5-0.2-0.8-0.3
				c-0.3-0.2-0.5-0.6-0.5-1.2c0-0.4,0.1-0.7,0.2-0.9c0.1-0.2,0.3-0.4,0.5-0.5c0.2-0.1,0.4-0.2,0.6-0.2c0.2,0,0.4,0,0.6,0h1.9v5.8
				h-0.9v-2.3H110c-0.2,0-0.4,0-0.6,0c-0.1,0-0.2,0.1-0.3,0.1c-0.1,0.1-0.2,0.2-0.2,0.3c-0.1,0.1-0.2,0.3-0.3,0.6
				c-0.2,0.4-0.3,0.7-0.5,0.9c-0.1,0.2-0.3,0.4-0.4,0.4C107.6,122.8,107.4,122.8,107.2,122.8L107.2,122.8z M107,122.6L107,122.6
				c0.2,0,0.4,0,0.6-0.1c0.1-0.1,0.3-0.2,0.4-0.4c0.1-0.2,0.3-0.5,0.5-0.8c0.1-0.3,0.2-0.5,0.3-0.6c0.1-0.1,0.2-0.2,0.3-0.3
				c0.1-0.1,0.2-0.1,0.4-0.2c0.1,0,0.3,0,0.6,0h0.3v2.3h0.6v-5.4h-1.8c-0.2,0-0.3,0-0.5,0c-0.2,0-0.4,0.1-0.6,0.2
				c-0.2,0.1-0.3,0.3-0.5,0.5c-0.1,0.2-0.2,0.5-0.2,0.8c0,0.5,0.1,0.9,0.4,1c0.3,0.2,0.6,0.3,1,0.3l0.4,0l-0.4,0.2
				c-0.2,0.1-0.4,0.2-0.5,0.3c-0.1,0.1-0.2,0.3-0.3,0.4c-0.1,0.1-0.2,0.3-0.3,0.5c-0.1,0.2-0.2,0.3-0.2,0.4c0,0.1-0.1,0.2-0.2,0.2
				c-0.1,0.1-0.2,0.1-0.3,0.1V122.6L107,122.6z M110.3,119.7v-2.1h-0.8c-0.3,0-0.5,0-0.7,0.1c-0.2,0-0.4,0.1-0.5,0.3
				c-0.1,0.2-0.2,0.4-0.2,0.7c0,0.3,0.1,0.5,0.2,0.7c0.1,0.2,0.3,0.3,0.5,0.3c0.2,0.1,0.4,0.1,0.7,0.1H110.3L110.3,119.7
				L110.3,119.7z M109.5,117.8L109.5,117.8c-0.3,0-0.5,0-0.7,0.1c-0.2,0-0.3,0.1-0.4,0.2c-0.1,0.1-0.2,0.3-0.2,0.6
				c0,0.2,0.1,0.4,0.2,0.6c0.1,0.1,0.3,0.2,0.4,0.3c0.2,0,0.4,0.1,0.7,0.1h0.7v-1.8H109.5z"/>
		</g>
		<g>
			<path class="st0" d="M47.5,129.5v2.7h-0.8v-5.6h0.8v2.3c0.2,0,0.4,0,0.6-0.1c0.1-0.1,0.3-0.1,0.4-0.2c0.1-0.1,0.2-0.2,0.2-0.3
				c0.1-0.1,0.1-0.3,0.3-0.5c0.2-0.5,0.5-0.8,0.6-1c0.2-0.2,0.4-0.3,0.7-0.3c0.1,0,0.1,0,0.2,0v0.6c-0.2,0-0.3,0-0.4,0.1
				c-0.1,0.1-0.2,0.2-0.3,0.3c-0.1,0.1-0.2,0.3-0.3,0.6c-0.1,0.2-0.2,0.4-0.3,0.5c-0.1,0.1-0.2,0.2-0.3,0.3
				c-0.1,0.1-0.3,0.2-0.5,0.2v0c0.2,0,0.4,0.1,0.6,0.2c0.2,0.1,0.3,0.3,0.4,0.4c0.1,0.2,0.2,0.4,0.4,0.7c0,0.1,0.1,0.2,0.2,0.4
				c0.1,0.2,0.2,0.3,0.2,0.4c0.1,0.1,0.2,0.2,0.2,0.2c0.1,0.1,0.2,0.1,0.3,0.1v0.6c-0.1,0-0.3,0-0.3,0c-0.2,0-0.4-0.1-0.6-0.2
				c-0.2-0.2-0.4-0.4-0.5-0.7c-0.2-0.3-0.3-0.6-0.5-0.9c-0.2-0.3-0.3-0.5-0.6-0.7C48.2,129.6,47.9,129.5,47.5,129.5z"/>
			<path class="st0" d="M50.6,132.4c-0.3,0-0.5-0.1-0.7-0.2c-0.2-0.2-0.4-0.4-0.5-0.7l-0.5-0.9c-0.2-0.3-0.3-0.5-0.5-0.7
				c-0.2-0.1-0.5-0.2-0.8-0.2v2.7h-0.9v-5.8h0.9v2.3c0.2,0,0.3,0,0.4-0.1c0.1-0.1,0.2-0.1,0.3-0.2c0.1-0.1,0.2-0.2,0.2-0.3
				c0.1-0.1,0.1-0.3,0.3-0.5c0.2-0.5,0.5-0.8,0.7-1c0.2-0.2,0.5-0.4,0.8-0.4c0.1,0,0.2,0,0.2,0l0.1,0v0.8h-0.1c-0.1,0-0.3,0-0.3,0.1
				c-0.1,0.1-0.2,0.2-0.2,0.3c-0.1,0.1-0.1,0.3-0.3,0.5c-0.1,0.2-0.2,0.4-0.3,0.5c-0.1,0.1-0.2,0.2-0.3,0.3
				c-0.1,0.1-0.2,0.1-0.3,0.2c0.1,0,0.3,0.1,0.4,0.2c0.2,0.1,0.3,0.3,0.4,0.4c0.1,0.2,0.2,0.4,0.4,0.7c0.1,0.1,0.1,0.2,0.2,0.4
				c0.1,0.2,0.2,0.3,0.2,0.4c0.1,0.1,0.1,0.1,0.2,0.2c0.1,0,0.2,0.1,0.3,0.1H51v0.8l-0.1,0C50.8,132.4,50.7,132.4,50.6,132.4
				L50.6,132.4z M47.4,129.5L47.4,129.5L47.4,129.5c0.5,0,0.8,0.1,1.1,0.3c0.2,0.2,0.4,0.4,0.6,0.7l0.5,0.9c0.2,0.3,0.3,0.5,0.5,0.7
				c0.2,0.1,0.3,0.2,0.6,0.2c0.1,0,0.1,0,0.3,0v-0.4c-0.1,0-0.2,0-0.3-0.1c-0.1-0.1-0.2-0.1-0.3-0.3c-0.1-0.1-0.1-0.2-0.2-0.4
				c-0.1-0.2-0.2-0.3-0.2-0.4c-0.2-0.3-0.3-0.5-0.4-0.7c-0.1-0.1-0.2-0.3-0.4-0.4c-0.1-0.1-0.3-0.2-0.5-0.2l-0.1,0v-0.2l0.1,0
				c0.2-0.1,0.3-0.1,0.4-0.2c0.1-0.1,0.2-0.2,0.3-0.3c0.1-0.1,0.2-0.3,0.3-0.5c0.1-0.3,0.2-0.4,0.3-0.6c0.1-0.1,0.2-0.2,0.3-0.3
				c0.1-0.1,0.2-0.1,0.4-0.2v-0.5c-0.3,0-0.6,0.1-0.8,0.3c-0.2,0.2-0.4,0.5-0.6,1c-0.1,0.2-0.2,0.4-0.3,0.5
				c-0.1,0.1-0.1,0.2-0.2,0.3c-0.1,0.1-0.2,0.2-0.4,0.2c-0.2,0-0.4,0.1-0.6,0.1h-0.1v-2.3h-0.6v5.4h0.6V129.5z"/>
		</g>
		<g>
			<path class="st0" d="M51.4,129.4c0-0.5,0.1-0.9,0.2-1.2c0.1-0.3,0.2-0.5,0.3-0.7c0.4-0.7,1.1-1,2-1c0.4,0,0.8,0.1,1.1,0.2
				c0.4,0.1,0.7,0.4,0.9,0.8c0.3,0.5,0.5,1.1,0.5,1.9c0,0.8-0.2,1.4-0.5,1.9c-0.3,0.4-0.6,0.6-0.9,0.8c-0.4,0.1-0.7,0.2-1.1,0.2
				c-0.5,0-1-0.1-1.3-0.3c-0.3-0.2-0.6-0.4-0.8-0.7c-0.1-0.2-0.2-0.4-0.3-0.7C51.5,130.3,51.4,129.9,51.4,129.4L51.4,129.4z
				 M52.2,129.4L52.2,129.4c0,0.5,0.1,0.9,0.2,1.2c0.1,0.3,0.3,0.6,0.6,0.8c0.3,0.2,0.6,0.3,0.9,0.3c0.5,0,0.8-0.1,1.1-0.4
				c0.3-0.2,0.4-0.6,0.5-0.9c0.1-0.3,0.1-0.7,0.1-1c0-0.3,0-0.7-0.1-1c-0.1-0.3-0.3-0.6-0.5-0.9c-0.3-0.2-0.6-0.4-1.1-0.4
				c-0.1,0-0.3,0-0.5,0.1c-0.2,0-0.4,0.1-0.5,0.3c-0.2,0.1-0.4,0.4-0.5,0.7C52.3,128.5,52.2,128.9,52.2,129.4z"/>
			<path class="st0" d="M54,132.4c-0.6,0-1-0.1-1.3-0.3c-0.3-0.2-0.6-0.4-0.8-0.7c-0.1-0.2-0.2-0.4-0.3-0.7
				c-0.1-0.3-0.2-0.7-0.2-1.2c0-0.5,0.1-0.9,0.2-1.3c0.1-0.3,0.2-0.6,0.3-0.7c0.4-0.7,1.2-1,2.1-1c0.4,0,0.8,0.1,1.2,0.2
				c0.4,0.1,0.7,0.4,1,0.8c0.3,0.5,0.5,1.2,0.5,2c0,0.8-0.2,1.5-0.5,2c-0.3,0.4-0.6,0.7-1,0.8C54.7,132.3,54.3,132.4,54,132.4
				L54,132.4z M54,126.6L54,126.6c-0.9,0-1.6,0.3-2,0.9c-0.1,0.1-0.2,0.4-0.3,0.7c-0.1,0.3-0.2,0.7-0.2,1.2c0,0.5,0.1,0.9,0.2,1.2
				c0.1,0.3,0.2,0.5,0.3,0.7c0.2,0.3,0.4,0.5,0.7,0.7c0.3,0.2,0.7,0.3,1.3,0.3c0.4,0,0.7-0.1,1.1-0.2c0.3-0.1,0.6-0.4,0.9-0.7
				c0.3-0.5,0.5-1.1,0.5-1.9c0-0.8-0.2-1.4-0.5-1.9c-0.2-0.4-0.5-0.6-0.9-0.7C54.7,126.6,54.3,126.6,54,126.6L54,126.6z M53.9,131.8
				c0.5,0,0.9-0.1,1.1-0.4c0.3-0.3,0.4-0.6,0.5-0.9c0.1-0.3,0.1-0.7,0.1-1c0-0.3,0-0.7-0.1-1c-0.1-0.4-0.3-0.7-0.5-0.9
				c-0.3-0.3-0.6-0.4-1.1-0.4c-0.2,0-0.3,0-0.5,0.1c-0.2,0-0.4,0.1-0.6,0.3c-0.2,0.2-0.4,0.4-0.5,0.7c-0.1,0.3-0.2,0.7-0.2,1.2
				c0,0.5,0.1,0.9,0.2,1.3c0.1,0.4,0.3,0.6,0.6,0.8C53.3,131.7,53.6,131.8,53.9,131.8L53.9,131.8L53.9,131.8z M53.9,127.2
				L53.9,127.2c-0.1,0-0.3,0-0.5,0.1c-0.2,0-0.3,0.1-0.5,0.3c-0.2,0.1-0.3,0.4-0.5,0.6c-0.1,0.3-0.2,0.7-0.2,1.2
				c0,0.5,0.1,0.9,0.2,1.2c0.1,0.3,0.3,0.6,0.6,0.7c0.2,0.2,0.5,0.2,0.9,0.2c0.4,0,0.8-0.1,1-0.3c0.2-0.2,0.4-0.5,0.5-0.8
				c0.1-0.3,0.1-0.7,0.1-1c0-0.3,0-0.6-0.1-1c-0.1-0.3-0.3-0.6-0.5-0.8C54.7,127.4,54.4,127.2,53.9,127.2z"/>
		</g>
		<g>
			<polygon class="st0" points="59.6,131.1 58.2,127.6 58.2,132.2 57.4,132.2 57.4,126.6 58.5,126.6 59.9,130.1 61.2,126.6 
				62.3,126.6 62.3,132.2 61.5,132.2 61.5,127.6 60.1,131.1 			"/>
			<path class="st0" d="M62.4,132.3h-0.9v-4.2l-1.3,3.2h-0.6l-1.3-3.2v4.2h-0.9v-5.8h1.2l1.3,3.3l1.3-3.3h1.2V132.3L62.4,132.3z
				 M61.6,132.1L61.6,132.1h0.6v-5.4h-0.9l-1.4,3.6l-1.4-3.6h-0.9v5.4h0.6v-4.9l1.6,3.9h0.4l1.5-3.9V132.1z"/>
		</g>
		<g>
			<polygon class="st0" points="64.3,127.3 64.3,132.2 63.6,132.2 63.6,126.6 67.5,126.6 67.5,132.2 66.8,132.2 66.8,127.3 			"/>
			<path class="st0" d="M67.6,132.3h-0.9v-4.9h-2.3v4.9h-0.9v-5.8h4.1V132.3L67.6,132.3z M66.9,132.1L66.9,132.1h0.6v-5.4h-3.8v5.4
				h0.6v-4.9h2.6V132.1z"/>
		</g>
		<g>
			<path class="st0" d="M69.7,130.7l-0.6,1.5h-0.8l2.3-5.6h0.7l2.3,5.6h-0.8l-0.5-1.5H69.7L69.7,130.7z M72,130L72,130l-1-2.4
				l-1,2.4H72z"/>
			<path class="st0" d="M73.8,132.3h-1l-0.5-1.5h-2.4l-0.5,1.5h-1l0.1-0.1l2.3-5.6h0.8L73.8,132.3L73.8,132.3z M72.9,132.1
				L72.9,132.1h0.7l-2.2-5.4h-0.6l-2.2,5.4h0.7l0.6-1.5h2.7L72.9,132.1L72.9,132.1z M72.1,130.1l-1.1-2.8l-1.1,2.8H72.1L72.1,130.1
				L72.1,130.1z M70.2,129.9L70.2,129.9h1.7l-0.8-2.1L70.2,129.9z"/>
		</g>
		<g>
			<polygon class="st0" points="75.3,129.6 75.3,132.2 74.5,132.2 74.5,126.6 75.3,126.6 75.3,129 77.7,129 77.7,126.6 78.5,126.6 
				78.5,132.2 77.7,132.2 77.7,129.6 			"/>
			<path class="st0" d="M78.6,132.3h-0.9v-2.6h-2.3v2.6h-0.9v-5.8h0.9v2.4h2.3v-2.4h0.9V132.3L78.6,132.3z M77.8,132.1L77.8,132.1
				h0.6v-5.4h-0.6v2.4h-2.6v-2.4h-0.6v5.4h0.6v-2.6h2.6V132.1z"/>
		</g>
		<g>
			<polygon class="st0" points="80.5,130.5 83,127.1 83,126.6 83.7,126.6 83.7,132.2 83,132.2 83,128.2 80.5,131.6 80.5,132.2 
				79.7,132.2 79.7,126.6 80.5,126.6 			"/>
			<path class="st0" d="M83.8,132.3h-0.9v-3.8l-2.3,3.1v0.7h-0.9v-5.8h0.9v3.7l2.3-3.2v-0.5h0.9V132.3L83.8,132.3z M83,132.1
				L83,132.1h0.6v-5.4H83v0.4l-2.6,3.7v-4.1h-0.6v5.4h0.6v-0.6l0,0l2.6-3.6V132.1z"/>
		</g>
		<g>
			<path class="st0" d="M88.7,126.6v5.6H88v-2.3h-0.2c-0.2,0-0.4,0-0.6,0c-0.1,0-0.3,0.1-0.3,0.2c-0.1,0.1-0.2,0.2-0.2,0.3
				c-0.1,0.1-0.2,0.3-0.3,0.6c-0.2,0.4-0.3,0.6-0.5,0.8c-0.1,0.2-0.3,0.3-0.4,0.4c-0.1,0.1-0.3,0.1-0.5,0.1c-0.1,0-0.2,0-0.3,0v-0.6
				c0.1,0,0.2,0,0.3-0.1c0.1-0.1,0.1-0.1,0.2-0.2c0-0.1,0.1-0.2,0.2-0.4c0.1-0.2,0.2-0.4,0.3-0.6c0.1-0.2,0.2-0.3,0.4-0.4
				c0.1-0.1,0.3-0.3,0.5-0.3c-0.4,0-0.7-0.1-1-0.3c-0.3-0.2-0.5-0.6-0.5-1.1c0-0.4,0.1-0.6,0.2-0.9c0.1-0.2,0.3-0.4,0.5-0.5
				c0.2-0.1,0.4-0.2,0.6-0.2c0.2,0,0.4,0,0.5,0H88.7L88.7,126.6z M88,129.2L88,129.2v-1.9h-0.8c-0.3,0-0.5,0-0.7,0.1
				c-0.2,0-0.4,0.1-0.5,0.3c-0.1,0.1-0.2,0.3-0.2,0.6c0,0.3,0.1,0.5,0.2,0.6c0.1,0.1,0.3,0.2,0.5,0.3c0.2,0,0.4,0.1,0.7,0.1H88z"/>
			<path class="st0" d="M84.9,132.4c-0.1,0-0.2,0-0.3,0l-0.1,0v-0.8h0.1c0.1,0,0.2,0,0.3-0.1c0.1,0,0.1-0.1,0.2-0.2
				c0-0.1,0.1-0.2,0.2-0.4c0.1-0.2,0.2-0.4,0.3-0.6c0.1-0.2,0.2-0.3,0.4-0.5c0.1-0.1,0.2-0.2,0.3-0.2c-0.3,0-0.5-0.1-0.8-0.3
				c-0.3-0.2-0.5-0.6-0.5-1.2c0-0.4,0.1-0.7,0.2-0.9c0.1-0.2,0.3-0.4,0.5-0.5c0.2-0.1,0.4-0.2,0.6-0.2c0.2,0,0.4,0,0.6,0h1.9v5.8
				h-0.9V130h-0.1c-0.2,0-0.4,0-0.6,0c-0.1,0-0.2,0.1-0.3,0.1c-0.1,0.1-0.2,0.2-0.2,0.3c-0.1,0.1-0.2,0.3-0.3,0.6
				c-0.2,0.4-0.3,0.7-0.5,0.9c-0.1,0.2-0.3,0.4-0.4,0.4C85.3,132.4,85.1,132.4,84.9,132.4L84.9,132.4z M84.8,132.2L84.8,132.2
				c0.1,0,0.1,0,0.2,0c0.2,0,0.3,0,0.5-0.1c0.1-0.1,0.3-0.2,0.4-0.4c0.1-0.2,0.3-0.5,0.5-0.8c0.1-0.3,0.2-0.5,0.3-0.6
				c0.1-0.1,0.2-0.2,0.3-0.3c0.1-0.1,0.2-0.1,0.4-0.2c0.2,0,0.3,0,0.6,0h0.3v2.3h0.6v-5.4h-1.8c-0.2,0-0.3,0-0.5,0
				c-0.2,0-0.4,0.1-0.6,0.2c-0.2,0.1-0.4,0.3-0.5,0.5c-0.1,0.2-0.2,0.5-0.2,0.8c0,0.5,0.1,0.9,0.4,1c0.3,0.2,0.6,0.3,1,0.3l0.4,0
				l-0.4,0.2c-0.2,0.1-0.4,0.2-0.5,0.3c-0.1,0.1-0.2,0.3-0.3,0.4c-0.1,0.1-0.2,0.3-0.3,0.5c-0.1,0.2-0.2,0.3-0.2,0.4
				c0,0.1-0.1,0.2-0.2,0.2c-0.1,0-0.2,0.1-0.3,0.1V132.2L84.8,132.2z M88.1,129.3v-2.1h-0.8c-0.3,0-0.5,0-0.7,0.1
				c-0.2,0-0.4,0.1-0.5,0.3c-0.1,0.2-0.2,0.4-0.2,0.7c0,0.3,0.1,0.5,0.2,0.7c0.1,0.2,0.3,0.3,0.5,0.3c0.2,0.1,0.4,0.1,0.7,0.1H88.1
				L88.1,129.3L88.1,129.3z M87.2,127.4L87.2,127.4c-0.3,0-0.5,0-0.7,0.1c-0.2,0-0.3,0.1-0.4,0.2c-0.1,0.1-0.2,0.3-0.2,0.6
				c0,0.2,0.1,0.4,0.2,0.6c0.1,0.1,0.3,0.2,0.4,0.3c0.2,0,0.4,0.1,0.7,0.1h0.7v-1.8H87.2z"/>
		</g>
	</g>
	<g>
		<g>
			<path class="st1" d="M92.4,99.9l1.3-4.5L89.2,88L70.1,88L70,88.1c-3.5,2.2-4,6.1-1.7,11.6l-14.1,0c0-0.1,0.4-1,0.4-1l-2.9,0
				l0.9-3.8l-2.7-8.5l-2.1,0l-0.1,0.1c-0.7,0.4-1.5,0.7-2.2,1.1c-1.6,0.7-3.3,1.5-4.3,2.6l-0.1,0.1l0,0.1c-0.6,1.9-1.3,3.7-1.6,5.5
				l0,0.2l1.7,3.3l-12.1-0.1l4.3-12.6l3.2-4.1c1-2.4,1.2-3.7,1.3-5.5c0.1-0.5,0.1-1.1,0.2-1.8l0.1-0.7l-4.3,0.2L33.8,75
				c-0.5,2.1-1.5,3.5-3.4,4.3c-2.5,1.3-4,3.5-4.9,5.5c-2-6.1-0.8-8.4-0.2-9.7c3.6-4.7,5.8-4.7,8.2-4.7c1.4,0,2.9,0,4.7-1
				c1.2-0.7,3.6-2.5,4.8-3.5c3.2-1.2,5.4-4.8,8-8.9c2.8-4.5,6-9.6,11.5-12.8l1.2-0.7l-1.3-0.4c-4.1-1.2-6.2-2.2-7.1-3.4
				c1.1-1.4,2.3-2.5,3.8-3.3l0.6-0.3l-0.4-0.6c-1.6-2-2.2-3.9-1.7-5.7c0.6-2.6,3.4-5.3,8.2-7.8c-2.6,3.5-3.8,7.3-2.7,9.9
				c0.6,1.5,2.2,3.3,6.2,3.3c0.4,0,0.9,0,1.4-0.1c3.6-0.5,6-0.8,8.5-0.8c2.3,0,4.6,0.2,7.4,0.6l0.5,0c2.9,0,5.1-1.3,6-3.5
				c1.1-2.7,0-6.3-2.9-9.6c4.6,1.4,7.5,3.4,8.5,5.9c0.8,2.1,0.3,4.7-1.6,7.6l-0.3,0.4l4,3.8c-2.7,1.9-5.1,3.2-8.5,3.6l-0.8,0.1
				l0.4,0.8c1.6,3.2,1.2,6.4-1.1,9.8l-0.2,0.3l7,18.5l0.3,13.6l0.1,0.1c1.4,2.4,4.2,7.1,7.4,9.3l2.2,4.2L92.4,99.9z"/>
		</g>
		<g>
			<polygon class="st0" points="70.8,74.7 69.2,75.2 70.6,79.3 69.3,83.3 70.9,83.5 71.1,83.5 72.6,79 70.9,74.8 			"/>
			<path class="st0" d="M86.6,57.7c0.3,0,0.9-0.2,1-0.8c0.1-0.7-0.5-1-1.2-0.8c-0.6,0.2-1.3,0.9-1.2,2.2c0.3-0.4,0.7-0.6,1.2-0.6
				C86.4,57.7,86.5,57.7,86.6,57.7z"/>
			<path class="st0" d="M76.5,56.8c0.1,0.6,0.9,0.8,1.4,0.8c0.1,0,0.2,0,0.3,0c0.7,0,1.2,0.2,1.7,0.7c0.1-1.4-0.8-2.1-1.7-2.4
				C77.3,55.6,76.4,55.9,76.5,56.8z"/>
			<path class="st0" d="M105.5,95.4c-2.4-1.6-4.7-5-6.2-7.4c-0.4-0.7-0.8-1.3-1.1-1.8l-0.3-13.7L93.2,60L91,54.2
				c2.3-3.5,2.8-7,1.1-10.4c0.4,0,0.7-0.1,1.1-0.2c2.3-0.4,4.2-1.2,6.1-2.4c0.7-0.5,1.4-1,2.2-1.5l-2.2-2.1l-2-1.9
				c1.2-1.8,1.8-3.5,2-5v-1.6c-0.3-2.7-2.4-5-6.1-6.6c-1-0.5-2.1-0.9-3.4-1.2c-0.6-0.2-1.2-0.3-1.8-0.5c0.7,0.7,1.3,1.3,1.8,2
				c4,4.9,3.5,9.5,0,11.1c-0.9,0.4-2,0.6-3.4,0.6l-0.1,0c-3.1-0.5-5.6-0.7-8.1-0.6c-0.7,0-1.4,0-2.1,0.1c-1.7,0.1-3.4,0.3-5.3,0.6
				l-0.4,0.1C60.1,35.5,62,26,68.1,20.1c-3.1,1.4-5.5,2.8-7.3,4.2c-4.9,3.9-5.2,7.7-2.2,11.6c-1.3,0.7-2.5,1.6-3.5,2.8
				c-0.3,0.3-0.5,0.6-0.8,1c0.2,0.3,0.5,0.6,0.8,0.9c1.1,1,2.9,1.8,5.6,2.7c0.4,0.1,0.9,0.3,1.3,0.4c-0.4,0.3-0.9,0.5-1.3,0.8
				c-2.2,1.5-4.1,3.3-5.6,5.3c-5.1,6.3-7.5,13.7-12.6,15.7c-1.2,1-3.5,2.8-4.7,3.4c-2.1,1.2-3.8,0.9-5.6,1c-2.1,0.1-4.4,0.8-7.6,5
				c-1,1.9-1.9,4.7,0.6,11.6c0.9-2.4,2.5-5.2,5.2-6.6c0.6-0.3,1.2-0.6,1.7-1.1c0.9-0.8,1.6-1.9,2-3.6l3.1-0.1
				c-0.4,2.8-0.2,4.2-1.4,7l-3.3,4.3l-0.4,1.1l-4.2,12.3l4.2,0l9.7,0.1l-2-4c0.3-1.8,1-3.6,1.6-5.4c1.4-1.6,4.2-2.4,6.3-3.6l1.5,0
				l2.5,7.9l-1.1,4.4l2.8,0c-0.1,0.4-0.3,0.7-0.4,1l1.9,0l5.6,0l8.4,0c-2.7-5.7-2.4-9.6,1-11.7l0.6,0l5.3,0l2.1,0l8.1,0l2.5,0l1,1.6
				l3.2,5.3l-1.5,5l1.6,0l6.1,0l9,0L105.5,95.4L105.5,95.4z M89.5,38.7L89.5,38.7c0.1-0.1,0.2-0.3,0.3-0.4c0.7-0.6,2-0.7,3.4-0.6
				c1.7,0.2,3.4,0.8,3.9,1.5c-0.7,0.8-1.8,1.5-3.9,1.6c-0.1,0-0.2,0-0.4,0c-1.4-0.1-2.4-0.3-3-0.7C89.3,39.9,89.2,39.4,89.5,38.7
				L89.5,38.7z M60.8,41.2L60.8,41.2c-0.7-0.4-1.3-1-1.6-1.8c0.4-0.5,1-0.8,1.6-1.1c2.3-0.9,5.7-0.6,9.9,0.8l0.1-0.1
				c1.1-0.7,1.9-1.4,3-1.8c0.4-0.3,1.3-0.4,2.3-0.5c0.6-0.1,1.4-0.1,2.1-0.1c2,0,4.1,0.1,4.8,0.4c1.1,0.4,2.3,1.3,3.3,2.4
				c1.3,1.3,2.5,3.1,3.2,5.1c0.1,0.3,0.2,0.6,0.3,0.9c0.5,1.8,0.8,4.5,0,5.9c-0.2,0.4-0.5,0.7-1,0.8c-1.7,0.3-2-0.8-1.8-3.4l0.6,0
				c1.2-0.2,1.9-3.5,1.4-4c-1-0.5-2-0.6-2.7,0.1c-0.7,0.7-1,2.1-0.4,4.5c0.1,0.5,0.3,1,0.4,1.4c0.8,2.4,1.7,3.4,2.5,4l0.3,2.7
				c-0.9,1.6-1.4,3.4-2.8,4.3c-0.2,0.1-0.3,0.2-0.5,0.3c-1.7,0.7-4.8,1.6-7.2,0.1l-0.2-0.4l1.4-0.5c-0.6,0.1-1.1,0.1-1.6,0.1
				c-0.8,0-1.5-0.1-2.1-0.3c-2.3-0.7-3.1-2.6-2.8-5.4l-2.5-1.7l-3.6-2.5c-0.6-3.1,0.6-7,0.8-10.5C64.9,41.9,62.4,42.1,60.8,41.2
				L60.8,41.2z M33.2,73.7L33.2,73.7c-0.2,0.6-0.4,1.2-0.8,1.7c-1.6,2.3-4.7,3.8-6.7,6.2c-0.4-2.7,0-5,1.3-6.9
				c1.5-1.8,3.4-2.5,5.4-3c2.5-0.6,5.1-0.8,6.8-2.1C38.7,72.4,36.7,73.7,33.2,73.7L33.2,73.7z M39.3,98.6L39.3,98.6l-1.5-0.9l-0.1,1
				l-5.2-0.2l-1.3,0l0.4-1.6l0.9,0l6.5,0l1,1.7H39.3L39.3,98.6z M55.1,95.9L55.1,95.9l-2.8-9l2.9,0l2.9,0c-0.5,2.9-1.7,5.8-2.9,8.7
				L55.1,95.9L55.1,95.9z M62.2,98.7L62.2,98.7l-0.7-1.3l-0.7,0.8l-0.3,0.4l-4.4,0.1l1.1-1.9l3.6,0l4.4,0l0.4,2L62.2,98.7L62.2,98.7
				z M90.4,86.3L90.4,86.3l2.4-5.8c-1,1.3-2,2.5-3,3.5c-0.9,0.8-1.8,1.5-2.8,2.1l-0.6,0l-8.1,0l-2.1,0l-5.3,0l-2.9,0L64.4,91l0,3.8
				l-3.6,0l-2.8,0l2.8-7.6l0.1-0.2l-0.1-0.2c-2-5-1.4-10.7,0-16.6l0-0.1l0,0c-2.3,4.7-3.8,9.5-2.9,15l-2.7,0l-3.7,0l-1.4-0.8
				c2-6.6,0.9-10.5-2.2-12.5l-1,0.9c3.1,3.1,4.3,6.8,0.7,12.1l-5.8,2.5l-2.6,2.4L37.9,95l-5.5-0.1l-0.5,0l0.5-1.7l1.6-5.9l3.4-3.6
				L39.9,73l3.4-5.8c1.4-0.9,3.3-2.7,4.8-3.6l7.2-10l2.3-3.1l3.4-2.6l4.5-3.5l-0.6,6.6c-0.4,2.3,3.7,3.4,6.1,4.9
				c0.3,0.2,0.6,0.4,0.9,0.6c0.3,1.9-0.9,2.7,0.4,3.5c1.4,0.9,2.8,2,4.1,2.9c0.7,0.5,1.4,1,2.1,1.3c0.2,0.1,0.3,0.2,0.5,0.2l7.4,0
				l0.2-0.2l3.5-3.6l0.8-0.9l2.5,6.3l2.4,6.1l-0.3,14.2l4,6l1.8,2.8l-1.8,0l-3.2,0l-3-4.4L90.4,86.3L90.4,86.3z M102.7,98.6
				L102.7,98.6l-0.7-1l-0.7,1.1l-1.9,0l-4.8,0l0.8-1.8l4-0.1l4-0.1l0.8,1.9L102.7,98.6L102.7,98.6z M65.1,35.5L65.1,35.5l-4.8,0.3
				c-2.7-3.9-1.4-6.9-1-7.6c0.9-1.5,4.4-4.6,4.4-4.6s-2.2,3.4-2.3,6.2c0,1.2,0.4,2.8,1.3,3.8C63.6,34.8,65.1,35.5,65.1,35.5
				L65.1,35.5z M96.1,34.8L96.1,34.8l-5.2,0c0.7-0.4,1.4-0.7,2.4-1.9c0.9-1.1,1-2.6,1-3.9c-0.1-2.8-3.4-6.5-3.4-6.5s3.9,1.4,5.5,3.9
				C97.1,27.6,98.8,30.9,96.1,34.8z"/>
			<path class="st0" d="M70.9,45.4c0.2,0.1,0.5,0.2,0.6,0.4c-0.1,1.7,0.7,2.5,2.4,2.4c0.4,0.2,0.7,0.6,0.9,1.2c0.4-3.4-0.4-5.6-4-5
				c-0.2,0-0.4,0.1-0.6,0.1C69.7,44.9,70.3,45.1,70.9,45.4z"/>
			<polygon class="st0" points="76.9,54 76.7,43.7 76.1,44.9 75.4,46.6 76.1,50.3 			"/>
		</g>
	</g>
</g>
</svg>
