<?xml version="1.0" encoding="utf-8"?>
<!-- Generator: Adobe Illustrator 22.0.0, SVG Export Plug-In . SVG Version: 6.00 Build 0)  -->
<svg version="1.1" id="Layer_1" xmlns="http://www.w3.org/2000/svg" xmlns:xlink="http://www.w3.org/1999/xlink" x="0px" y="0px"
	 viewBox="0 0 192.8 28" style="enable-background:new 0 0 192.8 28;" xml:space="preserve">
<style type="text/css">
	.st0{fill-rule:evenodd;clip-rule:evenodd;}
</style>
<path class="st0" d="M8.7,0l10,14l-10,14H0l9.9-14L0,0H8.7 M19.7,6.3l5.3,7.8l-5.7,8.5h4l3.6-5.6l3.6,5.6h4.3L29,14l5.2-7.8h-3.9
	L27,11.5l-3.2-5.2H19.7 M39.4,8.9H46V6.3H37l-1.6,8.8h2.9c0.3-0.4,0.7-0.8,1-1c0.4-0.2,0.8-0.3,1.4-0.3c0.4,0,0.8,0.1,1.2,0.2
	c0.3,0.1,0.6,0.4,0.9,0.6c0.2,0.3,0.4,0.6,0.5,1c0.1,0.4,0.2,0.8,0.2,1.2c0,0.4-0.1,0.8-0.2,1.1c-0.1,0.4-0.3,0.7-0.5,1
	c-0.2,0.3-0.5,0.5-0.9,0.7c-0.3,0.2-0.7,0.3-1.1,0.3c-0.7,0-1.3-0.2-1.8-0.7c-0.5-0.4-0.7-1-0.8-1.7H35c0,0.8,0.2,1.6,0.5,2.2
	c0.3,0.6,0.8,1.2,1.3,1.6c0.5,0.4,1.2,0.7,1.9,0.9c0.7,0.2,1.4,0.3,2.2,0.3c0.8,0,1.6-0.1,2.3-0.4c0.7-0.3,1.3-0.7,1.9-1.2
	c0.5-0.5,1-1.1,1.3-1.8c0.3-0.7,0.5-1.5,0.5-2.3c0-0.7-0.1-1.4-0.3-2.1c-0.2-0.7-0.5-1.2-1-1.7c-0.4-0.5-0.9-0.9-1.5-1.2
	c-0.6-0.3-1.3-0.4-2.1-0.4c-0.6,0-1.2,0.1-1.7,0.3c-0.5,0.2-1,0.5-1.4,0.9l0,0L39.4,8.9 M57.3,6.3h-7.5v16.3h1.6v-7.2h5.9
	c0.7,0,1.3,0.1,1.7,0.4c0.4,0.3,0.7,0.6,1,1.1c0.2,0.4,0.4,1,0.4,1.5c0.1,0.6,0.1,1.1,0.1,1.7c0,0.2,0,0.4,0,0.6
	c0,0.2,0,0.5,0.1,0.7c0,0.2,0.1,0.5,0.1,0.7c0.1,0.2,0.1,0.4,0.2,0.6h1.7c-0.2-0.2-0.3-0.5-0.4-0.8c-0.1-0.4-0.2-0.7-0.2-1.1
	c0-0.4-0.1-0.8-0.1-1.2c0-0.4,0-0.7,0-1c0-0.5-0.1-0.9-0.2-1.4c-0.1-0.4-0.3-0.8-0.5-1.1c-0.2-0.3-0.5-0.6-0.9-0.8
	c-0.4-0.2-0.8-0.3-1.3-0.4v0c1.1-0.2,1.8-0.7,2.4-1.5c0.5-0.8,0.8-1.7,0.8-2.7c0-0.7-0.1-1.4-0.4-1.9c-0.3-0.5-0.6-1-1.1-1.3
	c-0.4-0.3-1-0.6-1.6-0.8C58.6,6.3,57.9,6.3,57.3,6.3 M51.4,14V7.6h5.8c1.2,0,2.1,0.3,2.6,0.9c0.6,0.6,0.9,1.4,0.9,2.4
	c0,0.5-0.1,0.9-0.3,1.3c-0.2,0.4-0.4,0.7-0.8,1c-0.3,0.3-0.7,0.5-1.1,0.6c-0.4,0.1-0.9,0.2-1.3,0.2H51.4z M75.8,6.3H64.6v16.3h11.4
	v-1.3h-9.8v-6.4h9.1v-1.3h-9.1V7.6h9.7V6.3 M89.7,6.3H76.8v1.3h5.7v15H84v-15h5.7V6.3 M95.4,6.3h-1.7l-6.5,16.3h1.6l2-5.1h7.4l2,5.1
	h1.7L95.4,6.3 M91.2,16.1l3.3-8.4l3.2,8.4H91.2z M105,22.6V6.2h-1.6v16.3H105z M109.9,6.3h-1.6v16.3H119v-1.3h-9.1V6.3 M128.3,23.2
	C128.3,23.2,128.3,23.2,128.3,23.2L128.3,23.2c1.7,0,3.1-0.4,4.3-1.2l0,0c0.9-0.6,1.5-1.3,2-2.3l0,3.1h0.7h0.3v-8.1h-7.3v0.3v0.5
	v0.3h6.3v0.6l0,0c0,0.9-0.2,1.7-0.5,2.4l0,0c-0.3,0.7-0.8,1.4-1.3,1.9l0,0c-0.6,0.5-1.2,0.9-2,1.2l0,0c-0.8,0.3-1.6,0.5-2.4,0.5l0,0
	c-1.2,0-2.2-0.2-3-0.6l0,0c-0.9-0.4-1.6-1-2.2-1.7l0,0c-0.6-0.7-1-1.5-1.3-2.5l0,0c-0.3-1-0.4-2-0.4-3.1l0,0c0-1.1,0.2-2.1,0.5-3.1
	l0,0c0.3-1,0.8-1.8,1.4-2.5l0,0c0.6-0.7,1.3-1.3,2.2-1.7l0,0c0.8-0.4,1.8-0.6,2.9-0.6l0,0c0.8,0,1.6,0.1,2.3,0.3l0,0
	c0.7,0.2,1.3,0.6,1.8,1l0,0c0.5,0.4,0.9,0.9,1.3,1.5l0,0c0.3,0.6,0.6,1.2,0.7,2l0,0.2h0.7h0.3l-0.1-0.3l0,0
	c-0.1-0.9-0.4-1.6-0.8-2.3l0,0c-0.4-0.7-0.9-1.3-1.5-1.8l0,0c-0.6-0.5-1.3-0.9-2.1-1.2l0,0c-0.8-0.3-1.7-0.4-2.6-0.4l0,0
	c-1.2,0-2.3,0.2-3.3,0.7l0,0c-1,0.5-1.8,1.1-2.5,1.9l0,0c-0.7,0.8-1.2,1.7-1.6,2.8l0,0c-0.4,1.1-0.5,2.2-0.5,3.4l0,0
	c0,1.2,0.2,2.3,0.5,3.4l0,0c0.3,1.1,0.8,2,1.5,2.8l0,0c0.7,0.8,1.5,1.4,2.5,1.9l0,0C125.8,22.9,127,23.2,128.3,23.2L128.3,23.2z
	 M137.6,22.8h0.3v-7.7h5.9l0,0c0.9,0,1.7,0.1,2.2,0.3l0,0c0.5,0.2,0.9,0.4,1.2,0.7l0,0c0.3,0.3,0.4,0.7,0.5,1.2l0,0
	c0.1,0.5,0.1,1.1,0.1,1.7l0,0c0,0.3,0,0.6,0,0.9l0,0c0,0.3,0,0.7,0,1l0,0c0,0.3,0.1,0.6,0.1,0.9l0,0c0.1,0.3,0.1,0.5,0.2,0.8
	l0.1,0.1h0.7l0,0h0.5l-0.3-0.4l0,0c0,0-0.1-0.2-0.1-0.5l0,0c0-0.3-0.1-0.6-0.1-0.9l0,0c0-0.3-0.1-0.7-0.1-1l0,0c0-0.3,0-0.6,0-0.8
	l0,0c0-0.7,0-1.3-0.1-1.8l0,0c-0.1-0.5-0.2-1-0.5-1.4l0,0c-0.3-0.4-0.6-0.8-1.1-1l0,0c-0.2-0.1-0.5-0.2-0.8-0.3l0,0
	c0.8-0.3,1.4-0.7,1.9-1.3l0,0c0.6-0.7,0.9-1.7,0.9-2.7l0,0c0-0.1,0-0.1,0-0.2l0,0c0-1.5-0.5-2.6-1.3-3.4l0,0
	c-0.9-0.7-2.2-1.1-3.9-1.1h-6.9v16.8h0.3H137.6z M137.8,14.2V7l6.1,0l0,0c1.5,0,2.6,0.3,3.2,0.9l0,0c0.6,0.6,0.9,1.4,1,2.5l0,0
	c0,0.7-0.1,1.3-0.4,1.7l0,0c-0.2,0.5-0.6,0.9-1,1.2l0,0c-0.4,0.3-0.9,0.5-1.4,0.7l0,0c-0.5,0.2-1.1,0.2-1.7,0.2H137.8z M154.3,22.5
	c1,0.5,2.1,0.7,3.3,0.7l0,0c1.3,0,2.4-0.2,3.3-0.7l0,0c1-0.5,1.8-1.1,2.4-1.9l0,0c0.7-0.8,1.1-1.7,1.5-2.8l0,0
	c0.3-1.1,0.5-2.2,0.5-3.4l0,0c0-1.2-0.2-2.3-0.5-3.4l0,0c-0.3-1.1-0.8-2-1.5-2.8l0,0c-0.7-0.8-1.5-1.4-2.4-1.9l0,0
	c-1-0.5-2.1-0.7-3.3-0.7l0,0c-1.2,0-2.4,0.2-3.3,0.7l0,0c-1,0.5-1.8,1.1-2.4,1.9l0,0c-0.7,0.8-1.1,1.7-1.5,2.8l0,0
	c-0.3,1.1-0.5,2.2-0.5,3.4l0,0c0,1.2,0.2,2.3,0.5,3.4l0,0c0.3,1.1,0.8,2,1.5,2.8l0,0C152.5,21.4,153.3,22,154.3,22.5L154.3,22.5z
	 M152.7,20c-0.6-0.7-1-1.5-1.3-2.5v0l0,0c-0.3-1-0.5-2-0.5-3.2l0,0c0-1.1,0.2-2.2,0.5-3.2l0,0c0.3-1,0.8-1.8,1.3-2.5l0,0
	c0.6-0.7,1.3-1.2,2.1-1.6l0,0c0.8-0.4,1.8-0.6,2.8-0.6l0,0c1.1,0,2,0.2,2.8,0.6l0,0c0.8,0.4,1.5,0.9,2.1,1.6l0,0
	c0.6,0.7,1,1.5,1.3,2.5l0,0c0.3,1,0.5,2,0.5,3.2l0,0c0,1.1-0.2,2.2-0.5,3.2l0,0c-0.3,1-0.8,1.8-1.3,2.5l0,0
	c-0.6,0.7-1.3,1.2-2.1,1.6l0,0c-0.8,0.4-1.8,0.6-2.8,0.6l0,0c-1.1,0-2-0.2-2.8-0.6l0,0C153.9,21.3,153.2,20.7,152.7,20L152.7,20z
	 M178.5,6h-0.3v10.5l0,0c0,1.9-0.4,3.3-1.3,4.3l0,0c-0.8,0.9-2.1,1.4-4,1.4l0,0c-1.8,0-3.1-0.5-4-1.4l0,0c-0.8-1-1.3-2.4-1.3-4.3V6
	H167h-0.3v10.5l0,0c0,2.2,0.5,3.9,1.6,5l0,0c1.1,1.1,2.6,1.7,4.6,1.7l0,0c0,0,0,0,0,0l0,0c2,0,3.6-0.5,4.6-1.7l0,0
	c1.1-1.1,1.6-2.8,1.6-5V6H179H178.5z M181.5,22.8L181.5,22.8h0.3v-7.4h5.7l0,0c0.8,0,1.5-0.1,2.2-0.3l0,0c0.7-0.2,1.2-0.5,1.7-0.9
	l0,0c0.5-0.4,0.9-0.9,1.1-1.5l0,0c0.3-0.6,0.4-1.3,0.4-2l0,0c0-1.5-0.5-2.7-1.4-3.5l0,0c-0.9-0.8-2.2-1.2-3.8-1.2h-6.9v16.8h0.3
	H181.5z M181.7,14.4L181.7,14.4V7l5.9,0l0,0c1.5,0,2.5,0.3,3.2,1l0,0c0.7,0.6,1,1.5,1,2.8l0,0c0,0.6-0.1,1.1-0.3,1.6l0,0
	c-0.2,0.5-0.5,0.8-0.9,1.2l0,0c-0.4,0.3-0.8,0.6-1.3,0.7l0,0c-0.5,0.2-1.1,0.2-1.7,0.2H181.7z"/>
</svg>
